<svg xmlns="http://www.w3.org/2000/svg" xmlns:xlink="http://www.w3.org/1999/xlink" width="40" zoomAndPan="magnify" viewBox="0 0 30 37.5" height="50" preserveAspectRatio="xMidYMid meet" version="1.0"><defs><clipPath id="a7512a8ed6"><path d="M 2.171875 1 L 26.59375 1 L 26.59375 36.40625 L 2.171875 36.40625 Z M 2.171875 1 " clip-rule="nonzero"/></clipPath><clipPath id="c1c90d7da1"><path d="M 2.171875 0.878906 L 26.59375 0.878906 L 26.59375 36.40625 L 2.171875 36.40625 Z M 2.171875 0.878906 " clip-rule="nonzero"/></clipPath></defs><g clip-path="url(#a7512a8ed6)"><path fill="#000000" d="M 10.113281 1.054688 C 9.9375 1.074219 9.78125 1.164062 9.679688 1.308594 C 9.574219 1.453125 9.535156 1.636719 9.570312 1.8125 C 11.109375 10.089844 11.671875 17.371094 11.292969 24.175781 C 10.394531 23.039062 8.925781 22.292969 7.273438 22.292969 C 4.535156 22.292969 2.316406 24.3125 2.316406 26.800781 C 2.316406 29.289062 4.535156 31.308594 7.273438 31.308594 C 9.699219 31.308594 11.726562 29.722656 12.148438 27.625 C 12.242188 27.523438 12.304688 27.40625 12.320312 27.257812 C 12.949219 20.859375 12.683594 14.074219 11.589844 6.558594 C 15.308594 9.132812 19.152344 11.617188 24.308594 12.898438 C 24.65625 15.132812 24.925781 17.875 25.023438 20.648438 C 25.144531 24.042969 24.988281 27.449219 24.527344 29.867188 C 23.738281 28.332031 22.027344 27.257812 20.039062 27.257812 C 17.304688 27.257812 15.085938 29.277344 15.085938 31.765625 C 15.085938 34.253906 17.304688 36.273438 20.039062 36.273438 C 22.292969 36.273438 24.191406 34.90625 24.792969 33.03125 C 24.832031 32.988281 24.871094 32.945312 24.898438 32.890625 C 26.207031 30.328125 26.441406 25.5 26.265625 20.617188 C 26.09375 15.738281 25.460938 10.921875 24.652344 8.535156 C 24.582031 8.328125 24.410156 8.171875 24.203125 8.125 C 18.636719 6.804688 14.664062 4.042969 10.535156 1.164062 C 10.410156 1.078125 10.261719 1.039062 10.113281 1.054688 Z M 11.03125 3.015625 C 14.683594 5.539062 18.484375 7.953125 23.535156 9.230469 C 23.71875 9.824219 23.90625 10.613281 24.078125 11.523438 C 18.980469 10.148438 15.214844 7.558594 11.324219 4.851562 C 11.226562 4.238281 11.140625 3.636719 11.03125 3.015625 Z M 11.03125 3.015625 " fill-opacity="1" fill-rule="nonzero"/></g><g clip-path="url(#c1c90d7da1)"><path stroke-linecap="butt" transform="matrix(0.497013, 0, 0, 0.506073, -1.099597, -3.927211)" fill="none" stroke-linejoin="miter" d="M 22.560553 9.844232 C 22.206877 9.882826 21.892499 10.060357 21.688153 10.345951 C 21.475948 10.631544 21.397353 10.994326 21.468088 11.341669 C 24.564715 27.697702 25.696477 42.085452 24.93411 55.531516 C 23.126434 53.285359 20.171277 51.811078 16.846726 51.811078 C 11.337245 51.811078 6.873072 55.801672 6.873072 60.718516 C 6.873072 65.63536 11.337245 69.625954 16.846726 69.625954 C 21.72745 69.625954 25.80651 66.492141 26.655331 62.347172 C 26.843958 62.146485 26.96971 61.914922 27.001147 61.62161 C 28.26652 48.978297 27.732077 35.570827 25.531429 20.719951 C 33.013634 25.806608 40.747342 30.715733 51.121828 33.247483 C 51.82132 37.662608 52.363622 43.081171 52.560109 48.561484 C 52.803752 55.269078 52.489374 61.999829 51.561957 66.777735 C 49.974347 63.744266 46.531904 61.62161 42.531439 61.62161 C 37.029817 61.62161 32.565645 65.612204 32.565645 70.529048 C 32.565645 75.445892 37.029817 79.436486 42.531439 79.436486 C 47.066347 79.436486 50.886044 76.734923 52.096401 73.029923 C 52.174995 72.945017 52.25359 72.860111 52.308606 72.752048 C 54.941525 67.688548 55.413092 58.148172 55.059417 48.499734 C 54.713601 38.859015 53.440368 29.341795 51.81346 24.625639 C 51.67199 24.216545 51.326174 23.907795 50.909622 23.81517 C 39.709893 21.206232 31.716823 15.749076 23.409375 10.060357 C 23.157872 9.890544 22.859212 9.813357 22.560553 9.844232 Z M 24.407526 13.719045 C 31.75612 18.705357 39.403374 23.475545 49.565655 25.999577 C 49.935049 27.172827 50.312303 28.732014 50.65812 30.530483 C 40.401525 27.813483 32.825007 22.695951 24.996985 17.346857 C 24.800499 16.135013 24.627591 14.946326 24.407526 13.719045 Z M 24.407526 13.719045 " stroke="#000000" stroke-width="0.542" stroke-opacity="1" stroke-miterlimit="4"/></g></svg>