<svg xmlns="http://www.w3.org/2000/svg" xmlns:xlink="http://www.w3.org/1999/xlink" width="150" zoomAndPan="magnify" viewBox="0 0 112.5 224.999993" height="300" preserveAspectRatio="xMidYMid meet" version="1.0"><defs><clipPath id="20e3139c93"><path d="M 0 2.648438 L 110 2.648438 L 110 224 L 0 224 Z M 0 2.648438 " clip-rule="nonzero"/></clipPath><clipPath id="6b3925aa85"><path d="M -1.519531 2.648438 C -63.066406 2.648438 -112.957031 52.054688 -112.957031 112.996094 C -112.957031 173.941406 -63.066406 223.347656 -1.519531 223.347656 C 60.027344 223.347656 109.921875 173.941406 109.921875 112.996094 C 109.921875 52.054688 60.027344 2.648438 -1.519531 2.648438 " clip-rule="nonzero"/></clipPath><clipPath id="fda9cb2ee6"><path d="M 0 2.648438 L 109.792969 2.648438 L 109.792969 223.148438 L 0 223.148438 Z M 0 2.648438 " clip-rule="nonzero"/></clipPath><clipPath id="1f62cd2f99"><path d="M -1.582031 2.648438 C -63.089844 2.648438 -112.953125 52.011719 -112.953125 112.898438 C -112.953125 173.789062 -63.089844 223.148438 -1.582031 223.148438 C 59.925781 223.148438 109.789062 173.789062 109.789062 112.898438 C 109.789062 52.011719 59.925781 2.648438 -1.582031 2.648438 " clip-rule="nonzero"/></clipPath><clipPath id="8159355ed5"><path d="M 0 12.695312 L 100.890625 12.695312 L 100.890625 212.945312 L 0 212.945312 Z M 0 12.695312 " clip-rule="nonzero"/></clipPath></defs><g clip-path="url(#20e3139c93)"><g clip-path="url(#6b3925aa85)"><path fill="#554cff" d="M -112.957031 2.648438 L 109.265625 2.648438 L 109.265625 223.148438 L -112.957031 223.148438 Z M -112.957031 2.648438 " fill-opacity="1" fill-rule="nonzero"/></g></g><g clip-path="url(#fda9cb2ee6)"><g clip-path="url(#1f62cd2f99)"><path stroke-linecap="butt" transform="matrix(0.749566, 0, 0, 0.749363, -112.953688, 2.64921)" fill="none" stroke-linejoin="miter" d="M 148.581467 -0.00103026 C 66.523596 -0.00103026 0.000750678 65.872641 0.000750678 147.123959 C 0.000750678 228.38049 66.523596 294.248948 148.581467 294.248948 C 230.639337 294.248948 297.162182 228.38049 297.162182 147.123959 C 297.162182 65.872641 230.639337 -0.00103026 148.581467 -0.00103026 " stroke="#fafafa" stroke-width="12" stroke-opacity="1" stroke-miterlimit="4"/></g></g><g clip-path="url(#8159355ed5)"><path fill="#001528" d="M 0.765625 12.695312 C 10.734375 12.695312 19.550781 14.488281 25.183594 19.289062 C 29.355469 22.84375 31.917969 28.011719 31.917969 35.417969 C 31.917969 36.242188 31.871094 37.097656 31.765625 37.980469 C 32.320312 37.285156 32.890625 36.648438 33.46875 36.066406 C 38.707031 30.828125 44.164062 28.976562 49.648438 29.414062 C 57.003906 30.007812 64.515625 34.976562 71.5625 42.023438 C 78.605469 49.070312 83.578125 56.578125 84.167969 63.9375 C 84.609375 69.417969 82.753906 74.878906 77.515625 80.117188 C 76.9375 80.695312 76.300781 81.261719 75.605469 81.820312 C 76.484375 81.714844 77.34375 81.667969 78.167969 81.667969 C 85.570312 81.667969 90.738281 84.230469 94.296875 88.402344 C 99.09375 94.035156 100.890625 102.851562 100.890625 112.820312 C 100.890625 122.785156 99.09375 131.605469 94.296875 137.234375 C 90.738281 141.40625 85.570312 143.96875 78.167969 143.96875 C 77.34375 143.96875 76.484375 143.921875 75.605469 143.816406 C 76.300781 144.375 76.9375 144.941406 77.515625 145.519531 C 82.753906 150.757812 84.609375 156.21875 84.167969 161.699219 C 83.578125 169.058594 78.605469 176.566406 71.5625 183.613281 C 64.515625 190.660156 57.003906 195.628906 49.648438 196.222656 C 44.164062 196.660156 38.707031 194.808594 33.46875 189.570312 C 32.890625 188.988281 32.320312 188.351562 31.765625 187.65625 C 31.871094 188.539062 31.917969 189.394531 31.917969 190.21875 C 31.917969 197.625 29.355469 202.792969 25.183594 206.351562 C 19.550781 211.148438 10.734375 212.945312 0.765625 212.945312 C -9.199219 212.945312 -18.019531 211.148438 -23.652344 206.351562 C -27.824219 202.792969 -30.382812 197.625 -30.382812 190.21875 C -30.382812 189.394531 -30.335938 188.539062 -30.234375 187.65625 C -30.789062 188.351562 -31.355469 188.988281 -31.9375 189.570312 C -37.175781 194.808594 -42.632812 196.660156 -48.113281 196.222656 C -55.472656 195.628906 -62.980469 190.660156 -70.027344 183.613281 C -77.074219 176.566406 -82.046875 169.058594 -82.636719 161.699219 C -83.078125 156.21875 -81.222656 150.757812 -75.984375 145.519531 C -75.40625 144.941406 -74.769531 144.375 -74.074219 143.816406 C -74.953125 143.921875 -75.8125 143.96875 -76.632812 143.96875 C -84.039062 143.96875 -89.207031 141.40625 -92.765625 137.234375 C -97.5625 131.605469 -99.359375 122.785156 -99.359375 112.820312 C -99.359375 102.851562 -97.5625 94.035156 -92.765625 88.402344 C -89.207031 84.230469 -84.039062 81.667969 -76.632812 81.667969 C -75.8125 81.667969 -74.953125 81.714844 -74.074219 81.820312 C -74.769531 81.261719 -75.40625 80.695312 -75.984375 80.117188 C -81.222656 74.878906 -83.078125 69.417969 -82.636719 63.9375 C -82.046875 56.578125 -77.074219 49.070312 -70.027344 42.023438 C -62.980469 34.976562 -55.472656 30.007812 -48.113281 29.414062 C -42.632812 28.976562 -37.175781 30.828125 -31.9375 36.066406 C -31.355469 36.648438 -30.789062 37.285156 -30.234375 37.980469 C -30.335938 37.097656 -30.382812 36.242188 -30.382812 35.417969 C -30.382812 28.011719 -27.824219 22.84375 -23.652344 19.289062 C -18.019531 14.488281 -9.199219 12.695312 0.765625 12.695312 Z M 22.34375 173.648438 L 22.125 173.726562 C 18.382812 175.039062 14.476562 176.011719 10.453125 176.625 C 11.9375 180.019531 13.167969 184.585938 14.09375 190.347656 C 14.277344 191.550781 13.457031 192.699219 12.238281 192.894531 C 11.035156 193.082031 9.886719 192.257812 9.691406 191.042969 C 8.761719 185.210938 7.535156 180.703125 5.980469 177.539062 C 5.910156 177.414062 5.855469 177.273438 5.785156 177.148438 C 4.128906 177.273438 2.457031 177.34375 0.765625 177.34375 C -0.902344 177.34375 -2.558594 177.285156 -4.195312 177.15625 L -4.390625 177.550781 C -5.964844 180.714844 -7.207031 185.222656 -8.167969 191.054688 C -8.367188 192.269531 -9.511719 193.09375 -10.71875 192.882812 C -11.933594 192.6875 -12.757812 191.539062 -12.546875 190.335938 C -11.609375 184.585938 -10.371094 180.019531 -8.863281 176.625 C -12.988281 176.011719 -16.976562 175.003906 -20.8125 173.648438 C -23.941406 179.382812 -25.933594 185.421875 -25.933594 190.21875 C -25.933594 196.035156 -24.054688 200.160156 -20.765625 202.964844 C -15.816406 207.183594 -7.996094 208.492188 0.765625 208.492188 C 9.527344 208.492188 17.351562 207.183594 22.296875 202.964844 C 25.589844 200.160156 27.464844 196.035156 27.464844 190.21875 C 27.464844 185.421875 25.472656 179.382812 22.34375 173.648438 Z M 59.035156 140.574219 L 58.988281 140.675781 C 57.226562 144.351562 55.117188 147.839844 52.730469 151.082031 C 56.183594 152.429688 60.285156 154.792969 65 158.210938 C 66 158.941406 66.21875 160.332031 65.5 161.328125 C 64.78125 162.3125 63.390625 162.546875 62.394531 161.816406 C 57.609375 158.363281 53.5625 156.03125 50.226562 154.898438 C 50.074219 154.851562 49.9375 154.804688 49.796875 154.757812 C 47.640625 157.285156 45.277344 159.648438 42.75 161.816406 L 42.890625 162.242188 C 44.015625 165.59375 46.320312 169.648438 49.773438 174.457031 C 50.492188 175.453125 50.261719 176.84375 49.265625 177.5625 C 48.269531 178.269531 46.878906 178.050781 46.160156 177.054688 C 42.761719 172.3125 40.410156 168.210938 39.066406 164.746094 C 35.785156 167.179688 32.253906 169.300781 28.519531 171.085938 C 30.363281 177.355469 33.226562 183.035156 36.609375 186.429688 C 40.734375 190.542969 44.976562 192.128906 49.289062 191.78125 C 55.765625 191.273438 62.21875 186.660156 68.421875 180.472656 C 74.609375 174.273438 79.222656 167.816406 79.730469 161.339844 C 80.078125 157.027344 78.492188 152.789062 74.375 148.660156 C 70.980469 145.277344 65.304688 142.414062 59.035156 140.574219 Z M -57.5 140.574219 L -57.605469 140.609375 C -63.839844 142.449219 -69.472656 145.300781 -72.84375 148.660156 C -76.957031 152.789062 -78.546875 157.027344 -78.199219 161.339844 C -77.6875 167.816406 -73.074219 174.273438 -66.886719 180.472656 C -60.6875 186.660156 -54.234375 191.273438 -47.753906 191.78125 C -43.445312 192.128906 -39.203125 190.542969 -35.078125 186.429688 C -31.691406 183.035156 -28.832031 177.355469 -26.988281 171.085938 C -30.707031 169.3125 -34.21875 167.191406 -37.5 164.78125 C -38.84375 168.234375 -41.207031 172.335938 -44.625 177.054688 C -45.355469 178.050781 -46.746094 178.269531 -47.742188 177.550781 C -48.726562 176.832031 -48.960938 175.441406 -48.230469 174.445312 C -44.777344 169.660156 -42.445312 165.617188 -41.3125 162.277344 C -41.265625 162.128906 -41.21875 161.988281 -41.171875 161.851562 C -43.699219 159.695312 -46.0625 157.332031 -48.230469 154.804688 L -48.660156 154.941406 C -52.007812 156.066406 -56.0625 158.375 -60.871094 161.828125 C -61.871094 162.546875 -63.261719 162.3125 -63.980469 161.316406 C -64.6875 160.320312 -64.464844 158.929688 -63.46875 158.210938 C -58.730469 154.816406 -54.625 152.464844 -51.160156 151.117188 C -53.59375 147.839844 -55.714844 144.304688 -57.5 140.574219 Z M 0.765625 52.742188 C -32.410156 52.742188 -59.308594 79.640625 -59.308594 112.820312 C -59.308594 145.996094 -32.410156 172.894531 0.765625 172.894531 C 33.945312 172.894531 60.839844 145.996094 60.839844 112.820312 C 60.839844 79.640625 33.945312 52.742188 0.765625 52.742188 Z M 78.167969 86.117188 C 73.367188 86.117188 67.332031 88.113281 61.59375 91.242188 C 62.949219 95.054688 63.945312 99.027344 64.574219 103.128906 C 67.96875 101.648438 72.535156 100.417969 78.292969 99.492188 C 79.5 99.304688 80.644531 100.128906 80.84375 101.347656 C 81.027344 102.550781 80.207031 103.699219 78.988281 103.894531 C 73.160156 104.824219 68.652344 106.050781 65.488281 107.605469 C 65.359375 107.671875 65.222656 107.730469 65.09375 107.800781 C 65.222656 109.457031 65.292969 111.125 65.292969 112.820312 C 65.292969 114.488281 65.234375 116.144531 65.105469 117.777344 L 65.5 117.976562 C 68.664062 119.550781 73.171875 120.792969 79 121.753906 C 80.21875 121.949219 81.039062 123.097656 80.832031 124.304688 C 80.632812 125.519531 79.488281 126.34375 78.28125 126.132812 C 72.535156 125.195312 67.96875 123.957031 64.574219 122.449219 C 63.957031 126.574219 62.949219 130.5625 61.59375 134.394531 C 67.332031 137.523438 73.367188 139.519531 78.167969 139.519531 C 83.984375 139.519531 88.109375 137.640625 90.914062 134.351562 C 95.132812 129.402344 96.441406 121.578125 96.441406 112.820312 C 96.441406 104.058594 95.132812 96.234375 90.914062 91.285156 C 88.109375 87.996094 83.984375 86.117188 78.167969 86.117188 Z M -76.632812 86.117188 C -82.449219 86.117188 -86.578125 87.996094 -89.378906 91.285156 C -93.597656 96.234375 -94.910156 104.058594 -94.910156 112.820312 C -94.910156 121.578125 -93.597656 129.402344 -89.378906 134.351562 C -86.578125 137.640625 -82.449219 139.519531 -76.632812 139.519531 C -71.835938 139.519531 -65.796875 137.523438 -60.0625 134.394531 C -61.417969 130.582031 -62.414062 126.609375 -63.039062 122.507812 C -66.433594 123.988281 -71 125.21875 -76.761719 126.144531 C -77.964844 126.332031 -79.113281 125.507812 -79.308594 124.292969 C -79.496094 123.085938 -78.671875 121.9375 -77.457031 121.742188 C -71.628906 120.816406 -67.121094 119.585938 -63.957031 118.035156 C -63.828125 117.964844 -63.6875 117.90625 -63.5625 117.835938 C -63.6875 116.179688 -63.757812 114.511719 -63.757812 112.820312 C -63.757812 111.148438 -63.699219 109.492188 -63.574219 107.859375 L -63.96875 107.660156 C -67.128906 106.085938 -71.640625 104.84375 -77.46875 103.882812 C -78.683594 103.6875 -79.507812 102.539062 -79.296875 101.335938 C -79.101562 100.117188 -77.953125 99.292969 -76.75 99.503906 C -71 100.441406 -66.433594 101.683594 -63.039062 103.1875 C -62.425781 99.0625 -61.417969 95.078125 -60.0625 91.242188 C -65.796875 88.113281 -71.835938 86.117188 -76.632812 86.117188 Z M -35.078125 39.207031 C -39.203125 35.09375 -43.445312 33.507812 -47.753906 33.855469 C -54.234375 34.363281 -60.6875 38.976562 -66.886719 45.164062 C -73.074219 51.363281 -77.6875 57.820312 -78.199219 64.296875 C -78.546875 68.609375 -76.957031 72.851562 -72.84375 76.976562 C -69.449219 80.359375 -63.769531 83.222656 -57.5 85.0625 C -55.726562 81.34375 -53.605469 77.832031 -51.195312 74.554688 C -54.648438 73.207031 -58.753906 70.84375 -63.46875 67.425781 C -64.464844 66.695312 -64.6875 65.304688 -63.96875 64.308594 C -63.25 63.324219 -61.859375 63.09375 -60.863281 63.820312 C -56.074219 67.277344 -52.03125 69.605469 -48.695312 70.742188 C -48.542969 70.785156 -48.402344 70.832031 -48.265625 70.878906 C -46.109375 68.351562 -43.746094 65.988281 -41.21875 63.820312 L -41.359375 63.394531 C -42.480469 60.042969 -44.789062 55.988281 -48.242188 51.179688 C -48.960938 50.183594 -48.726562 48.792969 -47.730469 48.074219 C -46.734375 47.367188 -45.34375 47.585938 -44.625 48.582031 C -41.230469 53.324219 -38.878906 57.425781 -37.535156 60.890625 C -34.253906 58.457031 -30.71875 56.335938 -26.988281 54.550781 C -28.832031 48.28125 -31.691406 42.605469 -35.078125 39.207031 Z M 49.289062 33.855469 C 44.976562 33.507812 40.734375 35.09375 36.609375 39.207031 C 33.226562 42.605469 30.363281 48.28125 28.519531 54.550781 C 32.242188 56.324219 35.753906 58.445312 39.03125 60.855469 C 40.375 57.402344 42.738281 53.300781 46.160156 48.582031 C 46.890625 47.585938 48.28125 47.367188 49.277344 48.085938 C 50.261719 48.804688 50.492188 50.195312 49.761719 51.191406 C 46.308594 55.976562 43.980469 60.019531 42.84375 63.359375 C 42.796875 63.507812 42.75 63.648438 42.707031 63.789062 C 45.230469 65.941406 47.597656 68.308594 49.761719 70.832031 L 50.191406 70.695312 C 53.539062 69.570312 57.597656 67.265625 62.40625 63.8125 C 63.402344 63.09375 64.792969 63.324219 65.511719 64.320312 C 66.21875 65.316406 66 66.707031 65 67.425781 C 60.261719 70.820312 56.160156 73.175781 52.695312 74.519531 C 55.128906 77.796875 57.25 81.332031 59.035156 85.0625 C 65.304688 83.222656 70.980469 80.359375 74.375 76.976562 C 78.492188 72.851562 80.078125 68.609375 79.730469 64.296875 C 79.222656 57.820312 74.609375 51.363281 68.421875 45.164062 C 62.21875 38.976562 55.765625 34.363281 49.289062 33.855469 Z M 0.765625 17.144531 C -7.996094 17.144531 -15.816406 18.453125 -20.765625 22.671875 C -24.054688 25.476562 -25.933594 29.601562 -25.933594 35.417969 C -25.933594 40.214844 -23.941406 46.253906 -20.8125 51.992188 C -17 50.632812 -13.023438 49.636719 -8.921875 49.011719 C -10.40625 45.617188 -11.632812 41.050781 -12.558594 35.292969 C -12.746094 34.085938 -11.921875 32.9375 -10.707031 32.742188 C -9.5 32.554688 -8.355469 33.378906 -8.15625 34.597656 C -7.230469 40.425781 -6 44.933594 -4.449219 48.097656 C -4.378906 48.222656 -4.320312 48.363281 -4.25 48.492188 C -2.59375 48.363281 -0.925781 48.292969 0.765625 48.292969 C 2.433594 48.292969 4.09375 48.351562 5.726562 48.480469 L 5.921875 48.085938 C 7.5 44.921875 8.738281 40.414062 9.703125 34.585938 C 9.898438 33.367188 11.046875 32.542969 12.25 32.753906 C 13.46875 32.949219 14.289062 34.097656 14.082031 35.304688 C 13.144531 41.050781 11.902344 45.617188 10.398438 49.011719 C 14.523438 49.625 18.507812 50.632812 22.34375 51.992188 C 25.472656 46.253906 27.464844 40.214844 27.464844 35.417969 C 27.464844 29.601562 25.589844 25.476562 22.296875 22.671875 C 17.351562 18.453125 9.527344 17.144531 0.765625 17.144531 Z M 0.765625 17.144531 " fill-opacity="1" fill-rule="evenodd"/></g><path fill="#001528" d="M -9.003906 145.554688 C -9.871094 146.425781 -11.273438 146.425781 -12.144531 145.554688 C -13.011719 144.6875 -13.011719 143.273438 -12.144531 142.402344 C -8.910156 139.171875 -4.238281 137.292969 0.765625 137.292969 C 5.773438 137.292969 10.441406 139.171875 13.675781 142.402344 C 14.546875 143.273438 14.546875 144.6875 13.675781 145.554688 C 12.808594 146.425781 11.40625 146.425781 10.535156 145.554688 C 8.136719 143.167969 4.601562 141.742188 0.765625 141.742188 C -3.070312 141.742188 -6.605469 143.167969 -9.003906 145.554688 Z M -9.003906 145.554688 " fill-opacity="1" fill-rule="nonzero"/><path fill="#001528" d="M 0.765625 105.226562 L -4.042969 105.226562 C -24.578125 98.183594 -39.121094 103.847656 -39.121094 103.847656 C -39.121094 103.847656 -45.957031 103.488281 -45.957031 107.269531 C -45.957031 111.136719 -42.515625 109.609375 -41.035156 113.722656 C -39.550781 117.835938 -41.035156 131.289062 -21.679688 131.289062 C -4.621094 131.289062 -2.664062 112.191406 -0.671875 112.191406 L 2.203125 112.191406 C 4.195312 112.191406 6.15625 131.289062 23.214844 131.289062 C 42.566406 131.289062 41.082031 117.835938 42.566406 113.722656 C 44.050781 109.609375 47.492188 111.136719 47.492188 107.269531 C 47.492188 103.488281 40.652344 103.847656 40.652344 103.847656 C 40.652344 103.847656 26.109375 98.183594 5.574219 105.226562 Z M 0.765625 105.226562 " fill-opacity="1" fill-rule="nonzero"/></svg>