<svg xmlns="http://www.w3.org/2000/svg" xmlns:xlink="http://www.w3.org/1999/xlink" width="50" zoomAndPan="magnify" viewBox="0 0 37.5 37.499999" height="50" preserveAspectRatio="xMidYMid meet" version="1.0"><defs><clipPath id="970e6de388"><path d="M 4 0.75 L 31.5 0.75 L 31.5 37 L 4 37 Z M 4 0.75 " clip-rule="nonzero"/></clipPath></defs><g clip-path="url(#970e6de388)"><path fill="#fafafa" d="M 18.332031 0.785156 C 16.789062 7.507812 15.050781 15.726562 13.507812 22.449219 C 7.757812 18.460938 3.75 21.703125 4.332031 26.269531 C 4.703125 29.199219 9.828125 32.335938 14.71875 27.550781 C 15.628906 23.09375 17.265625 15.742188 18.507812 9.972656 L 27.566406 16.421875 C 26.640625 20.597656 25.734375 24.75 24.738281 29.089844 C 18.992188 25.101562 14.980469 28.34375 15.558594 32.910156 C 15.929688 35.839844 21.058594 38.972656 25.949219 34.1875 L 31.5 10.066406 L 31.390625 10.039062 L 31.402344 10.023438 C 30.605469 9.394531 19.125 0.984375 18.332031 0.78125 Z M 19.414062 5.761719 L 28.484375 12.332031 C 28.34375 12.945312 28.210938 13.550781 28.074219 14.15625 L 19.003906 7.671875 C 19.121094 7.113281 19.316406 6.246094 19.414062 5.761719 Z M 19.414062 5.761719 " fill-opacity="1" fill-rule="nonzero"/></g></svg>