<svg xmlns="http://www.w3.org/2000/svg" xmlns:xlink="http://www.w3.org/1999/xlink" width="50" zoomAndPan="magnify" viewBox="0 0 37.5 37.499999" height="50" preserveAspectRatio="xMidYMid meet" version="1.0"><defs><clipPath id="0eb8255d46"><path d="M 0 0 L 36.75 0 L 36.75 36.75 L 0 36.75 Z M 0 0 " clip-rule="nonzero"/></clipPath><clipPath id="363e82473d"><path d="M 18.375 0 C 8.226562 0 0 8.226562 0 18.375 C 0 28.523438 8.226562 36.75 18.375 36.75 C 28.523438 36.75 36.75 28.523438 36.75 18.375 C 36.75 8.226562 28.523438 0 18.375 0 " clip-rule="nonzero"/></clipPath><clipPath id="396a717454"><path d="M 3.074219 3.074219 L 33.824219 3.074219 L 33.824219 33.824219 L 3.074219 33.824219 Z M 3.074219 3.074219 " clip-rule="nonzero"/></clipPath></defs><g clip-path="url(#0eb8255d46)"><g clip-path="url(#363e82473d)"><path fill="#38b6ff" d="M 0 0 L 36.75 0 L 36.75 36.75 L 0 36.75 Z M 0 0 " fill-opacity="1" fill-rule="nonzero"/><path stroke-linecap="butt" transform="matrix(0.75, 0, 0, 0.75, 0.0000005, 0.000000000000002665)" fill="none" stroke-linejoin="miter" d="M 24.500002 -0.000000000000003553 C 10.968751 -0.000000000000003553 -0.000000666667 10.968751 -0.000000666667 24.500003 C -0.000000666667 38.031255 10.968751 49.000006 24.500002 49.000006 C 38.031254 49.000006 49.000005 38.031255 49.000005 24.500003 C 49.000005 10.968751 38.031254 -0.000000000000003553 24.500002 -0.000000000000003553 " stroke="#fafafa" stroke-width="4" stroke-opacity="1" stroke-miterlimit="4"/></g></g><g clip-path="url(#396a717454)"><path fill="#001528" d="M 18.199219 3.242188 C 18.324219 3.074219 18.574219 3.074219 18.699219 3.242188 C 18.738281 3.289062 18.773438 3.335938 18.808594 3.382812 L 19.015625 3.667969 L 19.214844 3.945312 C 19.582031 4.464844 19.898438 4.953125 20.167969 5.414062 C 20.644531 4.9375 21.210938 4.4375 21.863281 3.914062 L 22.144531 3.695312 C 22.308594 3.566406 22.550781 3.632812 22.628906 3.824219 L 22.757812 4.15625 C 23.0625 4.933594 23.304688 5.648438 23.480469 6.300781 C 23.945312 6.035156 24.464844 5.773438 25.039062 5.507812 L 25.351562 5.367188 L 25.671875 5.222656 L 25.839844 5.152344 C 26.03125 5.074219 26.246094 5.199219 26.269531 5.402344 C 26.277344 5.464844 26.285156 5.523438 26.292969 5.582031 L 26.332031 5.929688 L 26.363281 6.273438 C 26.421875 6.902344 26.453125 7.484375 26.453125 8.019531 C 26.742188 7.941406 27.042969 7.871094 27.363281 7.804688 L 27.675781 7.742188 C 27.78125 7.722656 27.890625 7.703125 28 7.683594 L 28.332031 7.625 C 28.554688 7.585938 28.789062 7.554688 29.027344 7.519531 C 29.234375 7.492188 29.410156 7.667969 29.382812 7.871094 L 29.328125 8.222656 L 29.273438 8.570312 C 29.191406 9.074219 29.097656 9.546875 28.996094 9.984375 L 28.925781 10.269531 C 28.910156 10.332031 28.898438 10.386719 28.882812 10.445312 C 29.414062 10.445312 29.996094 10.476562 30.628906 10.535156 L 30.96875 10.566406 L 31.316406 10.605469 L 31.496094 10.628906 C 31.703125 10.65625 31.828125 10.871094 31.746094 11.0625 C 31.722656 11.117188 31.699219 11.171875 31.675781 11.226562 L 31.535156 11.550781 L 31.394531 11.859375 C 31.128906 12.4375 30.863281 12.957031 30.597656 13.417969 C 31.113281 13.558594 31.667969 13.738281 32.261719 13.957031 L 32.582031 14.078125 L 32.910156 14.207031 L 33.074219 14.273438 C 33.269531 14.351562 33.332031 14.589844 33.203125 14.753906 L 32.984375 15.035156 C 32.875 15.171875 32.765625 15.304688 32.65625 15.4375 L 32.445312 15.691406 C 32.230469 15.941406 32.019531 16.171875 31.816406 16.390625 L 31.613281 16.605469 C 31.570312 16.648438 31.527344 16.691406 31.488281 16.734375 C 31.949219 17 32.4375 17.320312 32.953125 17.683594 L 33.230469 17.882812 L 33.515625 18.09375 L 33.660156 18.199219 C 33.824219 18.324219 33.824219 18.574219 33.660156 18.699219 C 33.609375 18.738281 33.5625 18.773438 33.515625 18.808594 L 33.230469 19.015625 L 32.953125 19.214844 C 32.4375 19.582031 31.949219 19.898438 31.488281 20.167969 C 31.695312 20.375 31.910156 20.601562 32.128906 20.847656 L 32.335938 21.085938 C 32.445312 21.210938 32.550781 21.335938 32.65625 21.464844 L 32.875 21.730469 L 33.09375 22.003906 L 33.203125 22.144531 C 33.332031 22.308594 33.269531 22.550781 33.074219 22.628906 L 32.746094 22.757812 C 32.582031 22.824219 32.417969 22.882812 32.261719 22.945312 L 31.949219 23.054688 C 31.640625 23.167969 31.34375 23.265625 31.054688 23.351562 L 30.773438 23.433594 C 30.714844 23.449219 30.65625 23.464844 30.597656 23.480469 C 30.863281 23.945312 31.128906 24.464844 31.394531 25.039062 L 31.535156 25.351562 L 31.675781 25.671875 L 31.746094 25.839844 C 31.828125 26.03125 31.703125 26.246094 31.496094 26.269531 C 31.4375 26.277344 31.378906 26.285156 31.316406 26.292969 L 30.96875 26.332031 L 30.628906 26.363281 C 29.996094 26.421875 29.414062 26.453125 28.878906 26.453125 C 28.957031 26.742188 29.027344 27.042969 29.097656 27.363281 L 29.15625 27.675781 C 29.242188 28.101562 29.3125 28.550781 29.382812 29.027344 C 29.410156 29.234375 29.234375 29.410156 29.027344 29.382812 C 28.910156 29.363281 28.792969 29.347656 28.675781 29.328125 L 28.332031 29.273438 C 28.277344 29.265625 28.21875 29.257812 28.164062 29.246094 L 27.835938 29.1875 C 27.339844 29.097656 26.878906 28.996094 26.453125 28.882812 C 26.453125 29.414062 26.421875 29.996094 26.363281 30.628906 L 26.332031 30.96875 L 26.292969 31.316406 L 26.269531 31.496094 C 26.246094 31.703125 26.03125 31.828125 25.839844 31.746094 C 25.78125 31.722656 25.726562 31.699219 25.671875 31.675781 L 25.351562 31.535156 L 25.039062 31.394531 C 24.464844 31.128906 23.945312 30.863281 23.480469 30.597656 C 23.28125 31.34375 22.996094 32.167969 22.628906 33.074219 C 22.550781 33.269531 22.308594 33.332031 22.144531 33.203125 C 21.371094 32.601562 20.710938 32.03125 20.167969 31.488281 C 19.898438 31.949219 19.582031 32.4375 19.214844 32.953125 L 19.015625 33.230469 L 18.808594 33.515625 L 18.699219 33.660156 C 18.574219 33.824219 18.324219 33.824219 18.199219 33.660156 C 18.164062 33.609375 18.128906 33.5625 18.09375 33.515625 L 17.882812 33.230469 L 17.683594 32.953125 C 17.320312 32.4375 17 31.949219 16.734375 31.488281 C 16.1875 32.03125 15.527344 32.601562 14.753906 33.203125 C 14.589844 33.332031 14.351562 33.269531 14.273438 33.074219 C 13.90625 32.167969 13.621094 31.34375 13.417969 30.597656 C 12.957031 30.863281 12.4375 31.128906 11.859375 31.394531 L 11.550781 31.535156 L 11.226562 31.675781 L 11.0625 31.746094 C 10.871094 31.828125 10.65625 31.703125 10.628906 31.496094 C 10.621094 31.4375 10.617188 31.378906 10.605469 31.316406 L 10.566406 30.96875 L 10.535156 30.628906 C 10.476562 29.996094 10.445312 29.414062 10.445312 28.878906 C 10.023438 28.996094 9.5625 29.097656 9.0625 29.1875 L 8.734375 29.246094 C 8.679688 29.257812 8.625 29.265625 8.570312 29.273438 L 8.222656 29.328125 C 8.109375 29.347656 7.992188 29.363281 7.871094 29.382812 C 7.667969 29.410156 7.492188 29.234375 7.519531 29.027344 C 7.585938 28.550781 7.660156 28.101562 7.742188 27.675781 L 7.804688 27.363281 C 7.871094 27.042969 7.941406 26.742188 8.015625 26.453125 C 7.484375 26.453125 6.902344 26.421875 6.273438 26.363281 L 5.929688 26.332031 L 5.582031 26.292969 L 5.402344 26.269531 C 5.199219 26.246094 5.074219 26.03125 5.152344 25.839844 C 5.175781 25.78125 5.203125 25.726562 5.222656 25.671875 L 5.367188 25.351562 L 5.507812 25.039062 C 5.773438 24.464844 6.035156 23.945312 6.300781 23.480469 C 6.246094 23.464844 6.1875 23.449219 6.128906 23.433594 L 5.84375 23.351562 C 5.558594 23.265625 5.261719 23.167969 4.953125 23.054688 L 4.640625 22.945312 C 4.480469 22.882812 4.320312 22.824219 4.15625 22.757812 L 3.824219 22.628906 C 3.632812 22.550781 3.566406 22.308594 3.695312 22.144531 C 3.730469 22.097656 3.769531 22.050781 3.804688 22.003906 L 4.023438 21.730469 L 4.242188 21.464844 C 4.351562 21.335938 4.457031 21.210938 4.5625 21.085938 L 4.773438 20.847656 C 4.992188 20.601562 5.203125 20.375 5.414062 20.167969 C 4.953125 19.898438 4.464844 19.582031 3.945312 19.214844 L 3.667969 19.015625 L 3.382812 18.808594 L 3.242188 18.699219 C 3.074219 18.574219 3.074219 18.324219 3.242188 18.199219 C 3.289062 18.164062 3.335938 18.128906 3.382812 18.09375 L 3.667969 17.882812 L 3.945312 17.683594 C 4.464844 17.320312 4.953125 17 5.414062 16.734375 C 5.371094 16.691406 5.328125 16.648438 5.285156 16.605469 L 5.082031 16.390625 C 4.878906 16.171875 4.671875 15.941406 4.457031 15.691406 L 4.242188 15.4375 C 4.132812 15.304688 4.027344 15.171875 3.914062 15.035156 L 3.695312 14.753906 C 3.566406 14.589844 3.632812 14.351562 3.824219 14.273438 C 3.878906 14.25 3.933594 14.226562 3.992188 14.207031 L 4.316406 14.078125 L 4.640625 13.957031 C 5.230469 13.738281 5.785156 13.558594 6.304688 13.417969 C 6.035156 12.957031 5.773438 12.4375 5.507812 11.859375 L 5.367188 11.550781 L 5.222656 11.226562 L 5.152344 11.0625 C 5.074219 10.871094 5.199219 10.65625 5.402344 10.628906 C 5.464844 10.621094 5.523438 10.617188 5.582031 10.605469 L 5.929688 10.566406 L 6.273438 10.535156 C 6.902344 10.476562 7.484375 10.445312 8.019531 10.445312 C 8.003906 10.386719 7.988281 10.332031 7.972656 10.269531 L 7.902344 9.984375 C 7.800781 9.546875 7.707031 9.074219 7.625 8.570312 L 7.570312 8.222656 L 7.519531 7.871094 C 7.492188 7.667969 7.667969 7.492188 7.871094 7.519531 C 8.109375 7.554688 8.34375 7.585938 8.570312 7.625 L 8.902344 7.683594 C 9.011719 7.703125 9.117188 7.722656 9.222656 7.742188 L 9.535156 7.804688 C 9.855469 7.871094 10.160156 7.941406 10.445312 8.015625 C 10.445312 7.484375 10.476562 6.902344 10.535156 6.273438 L 10.566406 5.929688 L 10.605469 5.582031 L 10.628906 5.402344 C 10.65625 5.199219 10.871094 5.074219 11.0625 5.152344 C 11.117188 5.175781 11.171875 5.203125 11.226562 5.222656 L 11.550781 5.367188 L 11.859375 5.507812 C 12.4375 5.773438 12.957031 6.035156 13.417969 6.300781 C 13.59375 5.648438 13.835938 4.933594 14.140625 4.15625 L 14.273438 3.824219 C 14.351562 3.632812 14.589844 3.566406 14.753906 3.695312 L 15.035156 3.914062 C 15.6875 4.4375 16.253906 4.9375 16.734375 5.414062 C 17 4.953125 17.320312 4.464844 17.683594 3.945312 L 17.882812 3.667969 L 18.09375 3.382812 Z M 20.394531 27.316406 L 20.351562 27.324219 C 19.738281 27.457031 19.101562 27.523438 18.449219 27.523438 C 17.78125 27.523438 17.132812 27.453125 16.503906 27.316406 C 16.347656 27.613281 16.257812 27.945312 16.257812 28.308594 C 16.257812 29.304688 16.871094 30.695312 18.101562 32.460938 L 18.292969 32.730469 L 18.449219 32.945312 L 18.507812 32.867188 C 18.542969 32.820312 18.574219 32.773438 18.605469 32.730469 L 18.796875 32.460938 C 20.027344 30.695312 20.640625 29.304688 20.640625 28.308594 C 20.640625 27.945312 20.554688 27.613281 20.394531 27.316406 Z M 15.671875 28.8125 L 15.644531 28.851562 C 15.257812 29.324219 14.703125 29.792969 13.976562 30.257812 C 14.136719 30.890625 14.367188 31.589844 14.664062 32.359375 L 14.699219 32.453125 L 14.90625 32.285156 C 15.492188 31.804688 15.996094 31.347656 16.417969 30.914062 C 16.011719 30.128906 15.765625 29.429688 15.671875 28.8125 Z M 21.226562 28.8125 L 21.21875 28.859375 C 21.121094 29.464844 20.875 30.148438 20.480469 30.914062 C 20.933594 31.378906 21.484375 31.871094 22.125 32.390625 L 22.203125 32.453125 L 22.296875 32.203125 C 22.566406 31.492188 22.773438 30.847656 22.925781 30.257812 C 22.175781 29.78125 21.613281 29.300781 21.226562 28.8125 Z M 12.335938 25.15625 L 12.328125 25.15625 C 12.042969 25.335938 11.804688 25.578125 11.625 25.890625 C 11.125 26.753906 10.960938 28.265625 11.144531 30.410156 L 11.175781 30.738281 L 11.191406 30.90625 L 11.203125 31.003906 L 11.445312 30.894531 L 11.746094 30.757812 C 13.695312 29.84375 14.917969 28.945312 15.417969 28.082031 C 15.597656 27.769531 15.691406 27.4375 15.703125 27.101562 C 14.4375 26.699219 13.292969 26.027344 12.335938 25.15625 Z M 24.566406 25.15625 C 23.609375 26.027344 22.460938 26.699219 21.199219 27.101562 C 21.210938 27.4375 21.300781 27.769531 21.480469 28.082031 C 21.980469 28.945312 23.207031 29.84375 25.15625 30.757812 L 25.453125 30.894531 L 25.605469 30.964844 L 25.699219 31.003906 L 25.726562 30.738281 L 25.757812 30.410156 C 25.9375 28.265625 25.773438 26.753906 25.277344 25.890625 C 25.09375 25.578125 24.855469 25.332031 24.566406 25.15625 Z M 26.035156 26.035156 L 26.054688 26.082031 C 26.273438 26.652344 26.398438 27.367188 26.441406 28.230469 C 27.066406 28.402344 27.789062 28.554688 28.601562 28.683594 L 28.699219 28.699219 L 28.683594 28.601562 L 28.632812 28.273438 C 28.621094 28.21875 28.613281 28.164062 28.601562 28.113281 L 28.546875 27.800781 L 28.484375 27.496094 C 28.40625 27.117188 28.320312 26.765625 28.230469 26.441406 C 27.34375 26.398438 26.613281 26.265625 26.035156 26.035156 Z M 10.863281 26.035156 L 10.816406 26.054688 C 10.246094 26.273438 9.535156 26.398438 8.671875 26.441406 C 8.578125 26.765625 8.496094 27.117188 8.414062 27.496094 L 8.355469 27.800781 L 8.296875 28.113281 C 8.269531 28.269531 8.242188 28.433594 8.214844 28.601562 L 8.199219 28.699219 L 8.464844 28.65625 C 9.210938 28.535156 9.878906 28.390625 10.460938 28.230469 C 10.5 27.34375 10.632812 26.613281 10.863281 26.035156 Z M 18.449219 10 C 13.785156 10 10 13.785156 10 18.449219 C 10 23.117188 13.785156 26.898438 18.449219 26.898438 C 23.117188 26.898438 26.898438 23.117188 26.898438 18.449219 C 26.898438 13.785156 23.117188 10 18.449219 10 Z M 28.082031 21.480469 C 27.769531 21.300781 27.4375 21.210938 27.101562 21.199219 C 26.699219 22.464844 26.027344 23.609375 25.15625 24.566406 C 25.332031 24.855469 25.578125 25.09375 25.890625 25.277344 C 26.753906 25.773438 28.265625 25.9375 30.410156 25.757812 L 30.738281 25.726562 L 30.90625 25.710938 L 31.003906 25.699219 L 30.894531 25.453125 L 30.757812 25.15625 C 29.84375 23.207031 28.945312 21.980469 28.082031 21.480469 Z M 9.800781 21.199219 C 9.460938 21.210938 9.128906 21.300781 8.816406 21.480469 C 7.957031 21.980469 7.054688 23.207031 6.140625 25.15625 L 6.003906 25.453125 L 5.894531 25.699219 L 5.996094 25.710938 C 6.050781 25.714844 6.109375 25.71875 6.164062 25.726562 L 6.488281 25.757812 C 8.636719 25.9375 10.144531 25.773438 11.007812 25.277344 C 11.324219 25.09375 11.566406 24.855469 11.746094 24.566406 C 10.871094 23.609375 10.199219 22.464844 9.800781 21.199219 Z M 30.914062 20.480469 L 30.824219 20.527344 C 30.074219 20.90625 29.40625 21.140625 28.8125 21.226562 C 29.300781 21.613281 29.78125 22.175781 30.257812 22.925781 C 30.671875 22.816406 31.117188 22.683594 31.59375 22.519531 L 31.894531 22.410156 L 32.203125 22.296875 L 32.453125 22.203125 L 32.390625 22.125 L 32.179688 21.867188 C 32.144531 21.824219 32.109375 21.78125 32.074219 21.742188 L 31.867188 21.5 L 31.664062 21.269531 C 31.40625 20.980469 31.15625 20.71875 30.914062 20.480469 Z M 5.984375 20.480469 C 5.742188 20.71875 5.492188 20.980469 5.238281 21.269531 L 5.035156 21.5 L 4.828125 21.742188 C 4.722656 21.863281 4.617188 21.992188 4.511719 22.125 L 4.449219 22.203125 L 4.699219 22.296875 L 5.003906 22.410156 L 5.304688 22.519531 C 5.78125 22.683594 6.226562 22.816406 6.640625 22.925781 C 7.117188 22.175781 7.597656 21.613281 8.085938 21.226562 C 7.472656 21.136719 6.773438 20.886719 5.984375 20.480469 Z M 8.59375 16.257812 C 7.597656 16.257812 6.207031 16.871094 4.4375 18.101562 L 4.171875 18.292969 L 3.953125 18.449219 L 4.171875 18.605469 L 4.4375 18.796875 C 6.207031 20.027344 7.597656 20.640625 8.59375 20.640625 C 8.957031 20.640625 9.289062 20.554688 9.582031 20.394531 C 9.445312 19.769531 9.375 19.117188 9.375 18.449219 C 9.375 17.78125 9.445312 17.132812 9.582031 16.503906 C 9.289062 16.347656 8.957031 16.257812 8.59375 16.257812 Z M 28.308594 16.257812 C 27.945312 16.257812 27.613281 16.347656 27.316406 16.503906 C 27.453125 17.132812 27.523438 17.78125 27.523438 18.449219 C 27.523438 19.117188 27.453125 19.769531 27.316406 20.394531 C 27.613281 20.554688 27.945312 20.640625 28.308594 20.640625 C 29.304688 20.640625 30.695312 20.027344 32.460938 18.796875 L 32.730469 18.605469 L 32.945312 18.449219 L 32.867188 18.390625 C 32.820312 18.359375 32.773438 18.324219 32.730469 18.292969 L 32.460938 18.101562 C 30.695312 16.871094 29.304688 16.257812 28.308594 16.257812 Z M 6.640625 13.976562 C 6.3125 14.0625 5.964844 14.164062 5.597656 14.285156 L 5.304688 14.382812 L 5.003906 14.488281 C 4.855469 14.542969 4.699219 14.601562 4.542969 14.664062 L 4.449219 14.699219 L 4.617188 14.90625 L 4.828125 15.15625 C 5.230469 15.636719 5.617188 16.058594 5.984375 16.417969 C 6.773438 16.011719 7.472656 15.765625 8.085938 15.671875 C 7.617188 15.304688 7.15625 14.765625 6.695312 14.0625 Z M 30.257812 13.976562 L 30.207031 14.0625 C 29.746094 14.765625 29.28125 15.304688 28.8125 15.671875 C 29.429688 15.765625 30.128906 16.011719 30.914062 16.417969 C 31.28125 16.058594 31.667969 15.636719 32.074219 15.15625 L 32.285156 14.90625 L 32.453125 14.699219 L 32.203125 14.601562 C 32.097656 14.5625 31.996094 14.527344 31.894531 14.488281 L 31.59375 14.382812 L 31.300781 14.285156 C 30.9375 14.164062 30.589844 14.0625 30.257812 13.976562 Z M 11.007812 11.625 C 10.144531 11.125 8.636719 10.960938 6.488281 11.144531 L 6.164062 11.175781 L 5.894531 11.203125 L 5.9375 11.292969 C 5.960938 11.34375 5.980469 11.394531 6.003906 11.445312 L 6.140625 11.746094 C 7.054688 13.695312 7.957031 14.917969 8.816406 15.417969 C 9.132812 15.597656 9.460938 15.691406 9.800781 15.703125 C 10.199219 14.4375 10.871094 13.292969 11.746094 12.335938 C 11.566406 12.046875 11.324219 11.808594 11.007812 11.625 Z M 30.410156 11.144531 C 28.265625 10.960938 26.753906 11.125 25.890625 11.625 C 25.578125 11.808594 25.332031 12.046875 25.15625 12.332031 C 26.027344 13.292969 26.699219 14.4375 27.101562 15.703125 C 27.4375 15.691406 27.769531 15.597656 28.082031 15.417969 C 28.945312 14.917969 29.84375 13.695312 30.757812 11.746094 L 30.894531 11.445312 L 30.964844 11.292969 L 31.003906 11.203125 L 30.738281 11.175781 Z M 11.203125 5.894531 L 11.191406 5.996094 C 11.1875 6.050781 11.179688 6.109375 11.175781 6.164062 L 11.144531 6.488281 C 10.960938 8.636719 11.125 10.144531 11.625 11.007812 C 11.808594 11.324219 12.046875 11.566406 12.332031 11.746094 C 13.292969 10.871094 14.4375 10.199219 15.703125 9.800781 C 15.691406 9.460938 15.597656 9.132812 15.417969 8.816406 C 14.917969 7.957031 13.695312 7.054688 11.746094 6.140625 L 11.445312 6.003906 Z M 25.699219 5.894531 L 25.605469 5.9375 C 25.554688 5.960938 25.503906 5.980469 25.453125 6.003906 L 25.15625 6.140625 C 23.207031 7.054688 21.980469 7.957031 21.480469 8.816406 C 21.300781 9.132812 21.210938 9.460938 21.199219 9.800781 C 22.464844 10.199219 23.609375 10.871094 24.566406 11.746094 C 24.855469 11.566406 25.09375 11.324219 25.277344 11.007812 C 25.773438 10.144531 25.9375 8.636719 25.757812 6.488281 L 25.726562 6.164062 Z M 28.699219 8.199219 L 28.4375 8.242188 C 28.328125 8.261719 28.21875 8.277344 28.113281 8.296875 L 27.800781 8.355469 L 27.496094 8.414062 C 27.117188 8.496094 26.765625 8.578125 26.441406 8.671875 C 26.398438 9.554688 26.265625 10.285156 26.035156 10.863281 C 26.613281 10.632812 27.34375 10.5 28.230469 10.460938 C 28.402344 9.832031 28.554688 9.113281 28.683594 8.296875 Z M 8.199219 8.199219 L 8.242188 8.464844 C 8.363281 9.210938 8.507812 9.878906 8.671875 10.460938 C 9.554688 10.5 10.285156 10.632812 10.863281 10.863281 C 10.632812 10.285156 10.5 9.554688 10.460938 8.671875 C 10.132812 8.578125 9.78125 8.496094 9.402344 8.414062 L 9.101562 8.355469 L 8.785156 8.296875 C 8.628906 8.269531 8.464844 8.242188 8.296875 8.214844 Z M 18.449219 3.953125 L 18.390625 4.035156 C 18.359375 4.078125 18.324219 4.125 18.292969 4.171875 L 18.101562 4.4375 C 16.871094 6.207031 16.257812 7.597656 16.257812 8.59375 C 16.257812 8.957031 16.347656 9.289062 16.503906 9.582031 C 17.132812 9.445312 17.78125 9.375 18.449219 9.375 C 19.117188 9.375 19.769531 9.445312 20.394531 9.582031 C 20.554688 9.289062 20.640625 8.957031 20.640625 8.59375 C 20.640625 7.597656 20.027344 6.207031 18.796875 4.4375 L 18.605469 4.171875 Z M 14.699219 4.449219 L 14.664062 4.542969 C 14.480469 5.015625 14.324219 5.460938 14.191406 5.882812 L 14.109375 6.15625 C 14.0625 6.324219 14.015625 6.484375 13.976562 6.640625 C 14.722656 7.117188 15.289062 7.597656 15.671875 8.085938 C 15.765625 7.472656 16.011719 6.773438 16.417969 5.984375 C 16.308594 5.871094 16.1875 5.753906 16.0625 5.636719 L 15.851562 5.4375 C 15.53125 5.136719 15.171875 4.828125 14.777344 4.511719 Z M 22.203125 4.449219 L 22.125 4.511719 C 21.730469 4.828125 21.371094 5.136719 21.046875 5.4375 L 20.835938 5.636719 C 20.710938 5.753906 20.59375 5.871094 20.480469 5.984375 C 20.886719 6.773438 21.136719 7.472656 21.226562 8.085938 C 21.613281 7.597656 22.175781 7.117188 22.925781 6.640625 C 22.882812 6.484375 22.839844 6.324219 22.789062 6.15625 L 22.707031 5.882812 C 22.578125 5.460938 22.421875 5.015625 22.238281 4.542969 Z M 22.203125 4.449219 " fill-opacity="1" fill-rule="nonzero"/></g><path fill="#001528" d="M 18.496094 6.382812 C 18.667969 6.410156 18.785156 6.570312 18.757812 6.738281 C 18.613281 7.707031 18.613281 8.675781 18.757812 9.640625 C 18.785156 9.8125 18.667969 9.972656 18.496094 9.996094 C 18.324219 10.023438 18.167969 9.90625 18.140625 9.734375 C 17.984375 8.707031 17.984375 7.675781 18.140625 6.648438 C 18.164062 6.488281 18.304688 6.375 18.460938 6.378906 Z M 18.496094 6.382812 " fill-opacity="1" fill-rule="nonzero"/><path fill="#001528" d="M 24.488281 8.03125 L 24.515625 8.050781 C 24.652344 8.160156 24.675781 8.355469 24.566406 8.488281 C 23.957031 9.257812 23.472656 10.09375 23.113281 11.003906 C 23.050781 11.164062 22.871094 11.246094 22.707031 11.179688 C 22.546875 11.117188 22.46875 10.9375 22.53125 10.773438 C 22.914062 9.808594 23.425781 8.914062 24.074219 8.101562 C 24.175781 7.976562 24.351562 7.949219 24.488281 8.03125 Z M 24.488281 8.03125 " fill-opacity="1" fill-rule="nonzero"/><path fill="#001528" d="M 28.894531 12.507812 C 28.960938 12.664062 28.878906 12.847656 28.71875 12.910156 C 27.808594 13.269531 26.96875 13.753906 26.203125 14.363281 C 26.070312 14.46875 25.871094 14.445312 25.765625 14.3125 C 25.65625 14.175781 25.679688 13.980469 25.816406 13.875 C 26.628906 13.226562 27.523438 12.710938 28.488281 12.328125 C 28.636719 12.269531 28.804688 12.332031 28.878906 12.472656 Z M 28.894531 12.507812 " fill-opacity="1" fill-rule="nonzero"/><path fill="#001528" d="M 30.460938 18.550781 C 30.433594 18.722656 30.277344 18.839844 30.105469 18.816406 C 29.136719 18.671875 28.171875 18.671875 27.203125 18.816406 C 27.03125 18.839844 26.871094 18.722656 26.847656 18.550781 C 26.820312 18.382812 26.9375 18.222656 27.109375 18.199219 C 28.140625 18.042969 29.167969 18.042969 30.199219 18.199219 C 30.355469 18.21875 30.46875 18.359375 30.464844 18.515625 Z M 30.460938 18.550781 " fill-opacity="1" fill-rule="nonzero"/><path fill="#001528" d="M 28.792969 24.570312 C 28.683594 24.707031 28.488281 24.730469 28.351562 24.621094 C 27.585938 24.011719 26.75 23.527344 25.839844 23.171875 C 25.679688 23.109375 25.601562 22.925781 25.660156 22.765625 C 25.726562 22.605469 25.90625 22.523438 26.066406 22.589844 C 27.039062 22.96875 27.929688 23.484375 28.742188 24.132812 C 28.867188 24.234375 28.898438 24.410156 28.8125 24.542969 Z M 28.792969 24.570312 " fill-opacity="1" fill-rule="nonzero"/><path fill="#001528" d="M 24.339844 28.949219 C 24.175781 29.015625 23.996094 28.933594 23.933594 28.773438 C 23.574219 27.863281 23.089844 27.027344 22.480469 26.261719 C 22.375 26.125 22.394531 25.929688 22.53125 25.820312 C 22.667969 25.714844 22.863281 25.734375 22.972656 25.871094 C 23.621094 26.683594 24.136719 27.578125 24.515625 28.546875 C 24.574219 28.695312 24.507812 28.863281 24.371094 28.9375 Z M 24.339844 28.949219 " fill-opacity="1" fill-rule="nonzero"/><path fill="#001528" d="M 18.292969 30.515625 C 18.121094 30.492188 18.003906 30.332031 18.027344 30.160156 C 18.171875 29.195312 18.171875 28.226562 18.027344 27.257812 C 18.003906 27.089844 18.121094 26.929688 18.292969 26.902344 C 18.464844 26.875 18.621094 26.996094 18.648438 27.167969 C 18.800781 28.195312 18.800781 29.226562 18.648438 30.253906 C 18.621094 30.414062 18.484375 30.523438 18.328125 30.519531 Z M 18.292969 30.515625 " fill-opacity="1" fill-rule="nonzero"/><path fill="#001528" d="M 12.269531 28.847656 C 12.136719 28.742188 12.113281 28.542969 12.222656 28.410156 C 12.832031 27.644531 13.316406 26.804688 13.671875 25.894531 C 13.738281 25.734375 13.917969 25.65625 14.078125 25.71875 C 14.238281 25.78125 14.320312 25.964844 14.253906 26.125 C 13.875 27.09375 13.359375 27.984375 12.710938 28.800781 C 12.613281 28.925781 12.433594 28.953125 12.300781 28.871094 Z M 12.269531 28.847656 " fill-opacity="1" fill-rule="nonzero"/><path fill="#001528" d="M 7.890625 24.394531 C 7.832031 24.234375 7.910156 24.050781 8.070312 23.988281 C 8.980469 23.632812 9.816406 23.148438 10.582031 22.539062 C 10.71875 22.429688 10.914062 22.453125 11.023438 22.589844 C 11.128906 22.722656 11.109375 22.917969 10.972656 23.027344 C 10.160156 23.675781 9.269531 24.191406 8.296875 24.570312 C 8.148438 24.628906 7.980469 24.566406 7.910156 24.429688 Z M 7.890625 24.394531 " fill-opacity="1" fill-rule="nonzero"/><path fill="#001528" d="M 6.328125 18.347656 C 6.355469 18.175781 6.511719 18.058594 6.683594 18.085938 C 7.652344 18.230469 8.617188 18.230469 9.585938 18.085938 C 9.757812 18.058594 9.917969 18.175781 9.941406 18.347656 C 9.96875 18.519531 9.847656 18.679688 9.679688 18.703125 C 8.648438 18.859375 7.621094 18.859375 6.589844 18.703125 C 6.433594 18.679688 6.320312 18.542969 6.324219 18.382812 Z M 6.328125 18.347656 " fill-opacity="1" fill-rule="nonzero"/><path fill="#001528" d="M 7.996094 12.328125 C 8.101562 12.191406 8.300781 12.171875 8.433594 12.277344 C 9.199219 12.886719 10.039062 13.371094 10.949219 13.730469 C 11.109375 13.792969 11.1875 13.972656 11.125 14.132812 C 11.0625 14.296875 10.878906 14.375 10.71875 14.3125 C 9.75 13.929688 8.859375 13.414062 8.046875 12.769531 C 7.917969 12.667969 7.890625 12.492188 7.972656 12.359375 Z M 7.996094 12.328125 " fill-opacity="1" fill-rule="nonzero"/><path fill="#001528" d="M 12.449219 7.949219 C 12.609375 7.886719 12.792969 7.964844 12.855469 8.125 C 13.214844 9.035156 13.699219 9.875 14.308594 10.636719 C 14.414062 10.773438 14.390625 10.972656 14.257812 11.078125 C 14.121094 11.1875 13.925781 11.164062 13.816406 11.03125 C 13.167969 10.214844 12.65625 9.324219 12.273438 8.355469 C 12.214844 8.203125 12.277344 8.039062 12.417969 7.964844 Z M 12.449219 7.949219 " fill-opacity="1" fill-rule="nonzero"/><path fill="#001528" d="M 20.324219 20.996094 C 20.179688 22.039062 19.394531 22.832031 18.449219 22.832031 C 17.503906 22.832031 16.722656 22.039062 16.574219 20.996094 C 16.535156 20.710938 16.867188 20.53125 17.085938 20.714844 C 17.441406 21.011719 17.929688 21.183594 18.449219 21.183594 C 18.972656 21.183594 19.457031 21.011719 19.8125 20.714844 C 20.035156 20.53125 20.363281 20.710938 20.324219 20.996094 Z M 19.429688 21.640625 C 19.125 21.753906 18.792969 21.8125 18.449219 21.8125 C 18.109375 21.8125 17.777344 21.753906 17.46875 21.640625 C 17.707031 21.988281 18.0625 22.207031 18.449219 22.207031 C 18.835938 22.207031 19.191406 21.988281 19.429688 21.640625 Z M 19.429688 21.640625 " fill-opacity="1" fill-rule="nonzero"/><path fill="#001528" d="M 12.261719 18.652344 C 12.152344 18.515625 12.171875 18.320312 12.304688 18.207031 C 12.4375 18.097656 12.636719 18.117188 12.746094 18.25 C 12.984375 18.535156 13.355469 18.707031 13.757812 18.707031 C 14.160156 18.707031 14.527344 18.535156 14.765625 18.25 C 14.878906 18.117188 15.074219 18.097656 15.207031 18.207031 C 15.339844 18.320312 15.359375 18.515625 15.25 18.652344 C 14.890625 19.078125 14.34375 19.332031 13.757812 19.332031 C 13.167969 19.332031 12.621094 19.078125 12.261719 18.652344 Z M 12.261719 18.652344 " fill-opacity="1" fill-rule="nonzero"/><path fill="#001528" d="M 21.652344 18.652344 C 21.542969 18.515625 21.558594 18.320312 21.691406 18.207031 C 21.824219 18.097656 22.023438 18.117188 22.132812 18.25 C 22.371094 18.535156 22.742188 18.707031 23.144531 18.707031 C 23.546875 18.707031 23.917969 18.535156 24.15625 18.25 C 24.265625 18.117188 24.460938 18.097656 24.597656 18.207031 C 24.726562 18.320312 24.746094 18.515625 24.636719 18.652344 C 24.277344 19.078125 23.730469 19.332031 23.144531 19.332031 C 22.554688 19.332031 22.007812 19.078125 21.652344 18.652344 Z M 21.652344 18.652344 " fill-opacity="1" fill-rule="nonzero"/></svg>