<svg xmlns="http://www.w3.org/2000/svg" xmlns:xlink="http://www.w3.org/1999/xlink" width="300" zoomAndPan="magnify" viewBox="0 0 224.87999 225" height="300" preserveAspectRatio="xMidYMid meet" version="1.0"><defs><clipPath id="f53ad49e36"><path d="M 3 2.519531 L 223 2.519531 L 223 222.902344 L 3 222.902344 Z M 3 2.519531 " clip-rule="nonzero"/></clipPath><clipPath id="6a0c2620a7"><path d="M 58.597656 58.203125 L 167.191406 58.203125 L 167.191406 166.796875 L 58.597656 166.796875 Z M 58.597656 58.203125 " clip-rule="nonzero"/></clipPath><clipPath id="aea7a290b0"><path d="M 112.894531 58.203125 C 82.910156 58.203125 58.597656 82.511719 58.597656 112.5 C 58.597656 142.488281 82.910156 166.796875 112.894531 166.796875 C 142.882812 166.796875 167.191406 142.488281 167.191406 112.5 C 167.191406 82.511719 142.882812 58.203125 112.894531 58.203125 " clip-rule="nonzero"/></clipPath></defs><g clip-path="url(#f53ad49e36)"><path fill="#fafafa" d="M 111.144531 3.707031 C 112.042969 2.523438 113.816406 2.523438 114.71875 3.707031 C 114.984375 4.054688 115.242188 4.394531 115.488281 4.734375 L 116.984375 6.765625 L 118.421875 8.761719 C 121.035156 12.464844 123.3125 15.96875 125.230469 19.277344 C 128.664062 15.863281 132.730469 12.289062 137.402344 8.539062 L 139.410156 6.964844 C 140.589844 6.042969 142.308594 6.507812 142.867188 7.886719 L 143.8125 10.257812 C 146 15.839844 147.726562 20.96875 148.988281 25.640625 C 152.304688 23.738281 156.03125 21.84375 160.15625 19.941406 L 162.386719 18.9375 L 164.699219 17.921875 L 165.878906 17.417969 C 167.257812 16.835938 168.800781 17.734375 168.984375 19.207031 C 169.03125 19.636719 169.078125 20.058594 169.136719 20.492188 L 169.417969 22.988281 L 169.652344 25.429688 C 170.070312 29.953125 170.292969 34.121094 170.292969 37.953125 C 172.351562 37.402344 174.523438 36.890625 176.824219 36.410156 L 179.054688 35.96875 C 179.8125 35.816406 180.585938 35.675781 181.367188 35.535156 L 183.75 35.125 C 185.363281 34.859375 187.03125 34.613281 188.738281 34.367188 C 190.210938 34.167969 191.472656 35.429688 191.273438 36.902344 L 190.898438 39.425781 L 190.511719 41.890625 C 189.917969 45.511719 189.25 48.898438 188.515625 52.027344 L 188.011719 54.085938 C 187.910156 54.515625 187.804688 54.925781 187.699219 55.34375 C 191.519531 55.34375 195.6875 55.566406 200.207031 55.988281 L 202.648438 56.222656 L 205.148438 56.503906 L 206.433594 56.652344 C 207.90625 56.839844 208.804688 58.382812 208.222656 59.761719 C 208.058594 60.15625 207.882812 60.554688 207.71875 60.941406 L 206.703125 63.253906 L 205.699219 65.484375 C 203.792969 69.609375 201.902344 73.332031 200 76.652344 C 203.6875 77.644531 207.660156 78.929688 211.914062 80.503906 L 214.214844 81.371094 L 216.5625 82.292969 L 217.753906 82.773438 C 219.132812 83.332031 219.597656 85.050781 218.675781 86.230469 L 217.097656 88.238281 C 216.304688 89.21875 215.535156 90.175781 214.75 91.113281 L 213.21875 92.933594 C 211.691406 94.722656 210.195312 96.390625 208.734375 97.957031 L 207.273438 99.488281 C 206.972656 99.800781 206.667969 100.105469 206.363281 100.410156 C 209.667969 102.324219 213.175781 104.601562 216.875 107.21875 L 218.875 108.65625 L 220.90625 110.152344 L 221.933594 110.921875 C 223.113281 111.820312 223.113281 113.597656 221.933594 114.496094 C 221.585938 114.765625 221.246094 115.023438 220.90625 115.269531 L 218.875 116.761719 L 216.875 118.199219 C 213.175781 120.816406 209.667969 123.09375 206.363281 125.007812 C 207.859375 126.515625 209.390625 128.140625 210.953125 129.890625 L 212.460938 131.609375 C 213.21875 132.484375 213.980469 133.382812 214.75 134.308594 L 216.316406 136.210938 L 217.882812 138.183594 L 218.675781 139.191406 C 219.597656 140.371094 219.132812 142.085938 217.753906 142.648438 L 215.382812 143.59375 C 214.203125 144.0625 213.046875 144.492188 211.914062 144.914062 L 209.667969 145.71875 C 207.460938 146.511719 205.324219 147.214844 203.269531 147.832031 L 201.246094 148.429688 C 200.828125 148.546875 200.40625 148.664062 200 148.769531 C 201.902344 152.085938 203.792969 155.8125 205.699219 159.933594 L 206.703125 162.164062 L 207.71875 164.476562 L 208.222656 165.660156 C 208.804688 167.035156 207.90625 168.578125 206.433594 168.765625 C 206 168.8125 205.582031 168.859375 205.148438 168.917969 L 202.648438 169.199219 L 200.207031 169.429688 C 195.6875 169.851562 191.519531 170.074219 187.6875 170.074219 C 188.234375 172.128906 188.75 174.300781 189.226562 176.601562 L 189.671875 178.835938 C 190.269531 181.871094 190.792969 185.09375 191.273438 188.515625 C 191.472656 189.988281 190.210938 191.25 188.738281 191.050781 C 187.886719 190.933594 187.042969 190.808594 186.214844 190.679688 L 183.75 190.292969 C 183.351562 190.222656 182.945312 190.164062 182.546875 190.09375 L 180.210938 189.671875 C 176.636719 189.007812 173.332031 188.285156 170.292969 187.476562 C 170.292969 191.296875 170.070312 195.46875 169.652344 199.988281 L 169.417969 202.429688 L 169.136719 204.929688 L 168.984375 206.214844 C 168.800781 207.683594 167.257812 208.585938 165.878906 208 C 165.480469 207.835938 165.085938 207.660156 164.699219 207.5 L 162.386719 206.480469 L 160.15625 205.476562 C 156.03125 203.574219 152.304688 201.679688 148.988281 199.777344 C 147.550781 205.105469 145.507812 211.027344 142.867188 217.53125 C 142.308594 218.910156 140.589844 219.378906 139.410156 218.457031 C 133.875 214.144531 129.144531 210.035156 125.230469 206.144531 C 123.3125 209.449219 121.035156 212.953125 118.421875 216.65625 L 116.984375 218.652344 L 115.488281 220.6875 L 114.71875 221.714844 C 113.816406 222.894531 112.042969 222.894531 111.144531 221.714844 C 110.875 221.363281 110.617188 221.023438 110.371094 220.6875 L 108.875 218.652344 L 107.441406 216.65625 C 104.824219 212.953125 102.546875 209.449219 100.628906 206.144531 C 96.71875 210.035156 91.988281 214.144531 86.449219 218.457031 C 85.269531 219.378906 83.554688 218.910156 82.992188 217.53125 C 80.351562 211.027344 78.308594 205.105469 76.859375 199.765625 C 73.554688 201.679688 69.828125 203.574219 65.703125 205.476562 L 63.472656 206.480469 L 61.160156 207.5 L 59.980469 208 C 58.601562 208.585938 57.0625 207.683594 56.875 206.214844 C 56.828125 205.78125 56.78125 205.359375 56.722656 204.929688 L 56.441406 202.429688 L 56.207031 199.988281 C 55.789062 195.46875 55.566406 191.296875 55.566406 187.464844 C 52.527344 188.285156 49.222656 189.007812 45.648438 189.671875 L 43.3125 190.09375 C 42.914062 190.164062 42.507812 190.222656 42.109375 190.292969 L 39.644531 190.679688 C 38.816406 190.808594 37.976562 190.933594 37.121094 191.050781 C 35.648438 191.25 34.390625 189.988281 34.585938 188.515625 C 35.066406 185.09375 35.59375 181.871094 36.1875 178.835938 L 36.632812 176.601562 C 37.109375 174.300781 37.625 172.128906 38.160156 170.074219 C 34.34375 170.074219 30.171875 169.851562 25.652344 169.429688 L 23.210938 169.199219 L 20.710938 168.917969 L 19.425781 168.765625 C 17.953125 168.578125 17.054688 167.035156 17.640625 165.660156 C 17.800781 165.261719 17.976562 164.863281 18.140625 164.476562 L 19.15625 162.164062 L 20.160156 159.933594 C 22.066406 155.8125 23.957031 152.085938 25.863281 148.769531 C 25.453125 148.664062 25.03125 148.546875 24.613281 148.429688 L 22.589844 147.832031 C 20.535156 147.214844 18.398438 146.511719 16.191406 145.71875 L 13.949219 144.914062 C 12.816406 144.492188 11.65625 144.0625 10.476562 143.59375 L 8.105469 142.648438 C 6.730469 142.085938 6.261719 140.371094 7.183594 139.191406 C 7.441406 138.851562 7.710938 138.511719 7.980469 138.183594 L 9.542969 136.210938 L 11.109375 134.308594 C 11.878906 133.382812 12.640625 132.484375 13.398438 131.609375 L 14.90625 129.890625 C 16.46875 128.140625 18 126.515625 19.496094 125.007812 C 16.191406 123.09375 12.6875 120.816406 8.984375 118.199219 L 6.984375 116.761719 L 4.953125 115.269531 L 3.925781 114.496094 C 2.746094 113.597656 2.746094 111.820312 3.925781 110.921875 C 4.277344 110.652344 4.613281 110.398438 4.953125 110.152344 L 6.984375 108.65625 L 8.984375 107.21875 C 12.6875 104.601562 16.191406 102.324219 19.496094 100.410156 C 19.191406 100.105469 18.886719 99.800781 18.585938 99.488281 L 17.125 97.957031 C 15.664062 96.390625 14.167969 94.722656 12.640625 92.933594 L 11.109375 91.113281 C 10.328125 90.175781 9.554688 89.21875 8.761719 88.238281 L 7.183594 86.230469 C 6.261719 85.050781 6.730469 83.332031 8.105469 82.773438 C 8.503906 82.609375 8.902344 82.445312 9.296875 82.292969 L 11.648438 81.371094 L 13.949219 80.503906 C 18.199219 78.929688 22.171875 77.644531 25.875 76.640625 C 23.957031 73.332031 22.066406 69.609375 20.160156 65.484375 L 19.15625 63.253906 L 18.140625 60.941406 L 17.640625 59.761719 C 17.054688 58.382812 17.953125 56.839844 19.425781 56.652344 C 19.859375 56.605469 20.277344 56.558594 20.710938 56.503906 L 23.210938 56.222656 L 25.652344 55.988281 C 30.171875 55.566406 34.34375 55.34375 38.171875 55.34375 C 38.054688 54.925781 37.953125 54.515625 37.847656 54.085938 L 37.34375 52.027344 C 36.609375 48.898438 35.941406 45.511719 35.347656 41.890625 L 34.960938 39.425781 L 34.585938 36.902344 C 34.390625 35.429688 35.648438 34.167969 37.121094 34.367188 C 38.828125 34.613281 40.496094 34.859375 42.109375 35.125 L 44.492188 35.535156 C 45.273438 35.675781 46.046875 35.816406 46.804688 35.96875 L 49.035156 36.410156 C 51.335938 36.890625 53.511719 37.402344 55.566406 37.941406 C 55.566406 34.121094 55.789062 29.953125 56.207031 25.429688 L 56.441406 22.988281 L 56.722656 20.492188 L 56.875 19.207031 C 57.0625 17.734375 58.601562 16.835938 59.980469 17.417969 C 60.378906 17.582031 60.777344 17.757812 61.160156 17.921875 L 63.472656 18.9375 L 65.703125 19.941406 C 69.828125 21.84375 73.554688 23.738281 76.871094 25.640625 C 78.132812 20.96875 79.863281 15.839844 82.046875 10.257812 L 82.992188 7.886719 C 83.554688 6.507812 85.269531 6.042969 86.449219 6.964844 L 88.457031 8.539062 C 93.132812 12.289062 97.195312 15.863281 100.628906 19.277344 C 102.546875 15.96875 104.824219 12.464844 107.441406 8.761719 L 108.875 6.765625 L 110.371094 4.734375 Z M 126.863281 176.253906 L 126.550781 176.324219 C 122.15625 177.257812 117.601562 177.746094 112.929688 177.746094 C 108.140625 177.746094 103.480469 177.234375 98.996094 176.253906 C 97.851562 178.378906 97.230469 180.75 97.230469 183.355469 C 97.230469 190.492188 101.613281 200.464844 110.441406 213.128906 L 111.808594 215.042969 L 112.929688 216.597656 L 113.351562 216.027344 C 113.585938 215.699219 113.828125 215.371094 114.050781 215.042969 L 115.417969 213.128906 C 124.25 200.464844 128.628906 190.492188 128.628906 183.355469 C 128.628906 180.75 128.011719 178.378906 126.863281 176.253906 Z M 93.027344 186.988281 L 92.816406 187.257812 C 90.058594 190.65625 86.074219 194.007812 80.867188 197.347656 C 82.023438 201.855469 83.65625 206.878906 85.785156 212.394531 L 86.039062 213.058594 L 87.535156 211.855469 C 91.730469 208.410156 95.339844 205.140625 98.375 202.042969 C 95.457031 196.402344 93.679688 191.390625 93.027344 186.988281 Z M 132.832031 186.988281 L 132.789062 187.324219 C 132.085938 191.648438 130.324219 196.542969 127.484375 202.042969 C 130.742188 205.359375 134.667969 208.886719 139.257812 212.613281 L 139.820312 213.058594 L 140.507812 211.269531 C 142.421875 206.191406 143.917969 201.554688 144.992188 197.347656 C 139.644531 193.925781 135.601562 190.480469 132.832031 186.988281 Z M 69.105469 160.765625 L 69.070312 160.777344 C 67.023438 162.050781 65.308594 163.800781 64.011719 166.042969 C 60.4375 172.222656 59.257812 183.050781 60.566406 198.433594 L 60.789062 200.769531 L 60.902344 201.972656 L 60.984375 202.6875 L 62.738281 201.902344 L 64.875 200.921875 C 78.84375 194.371094 87.628906 187.921875 91.203125 181.742188 C 92.5 179.488281 93.15625 177.128906 93.234375 174.710938 C 84.160156 171.835938 75.960938 167.023438 69.105469 160.765625 Z M 156.769531 160.765625 C 149.898438 167.023438 141.6875 171.835938 132.625 174.710938 C 132.707031 177.128906 133.359375 179.488281 134.65625 181.742188 C 138.230469 187.921875 147.015625 194.371094 160.984375 200.921875 L 163.121094 201.902344 L 164.21875 202.394531 L 164.875 202.675781 L 165.074219 200.769531 L 165.292969 198.433594 C 166.601562 183.050781 165.421875 172.222656 161.847656 166.042969 C 160.539062 163.789062 158.824219 162.039062 156.769531 160.765625 Z M 167.304688 167.082031 L 167.433594 167.410156 C 168.996094 171.488281 169.910156 176.613281 170.199219 182.792969 C 174.6875 184.042969 179.847656 185.140625 185.6875 186.066406 L 186.390625 186.167969 L 186.285156 185.46875 L 185.898438 183.109375 C 185.828125 182.722656 185.757812 182.339844 185.6875 181.964844 L 185.28125 179.722656 L 184.847656 177.550781 C 184.277344 174.839844 183.667969 172.316406 183.015625 169.980469 C 176.671875 169.6875 171.4375 168.730469 167.304688 167.082031 Z M 58.554688 167.082031 L 58.230469 167.210938 C 54.140625 168.777344 49.023438 169.6875 42.847656 169.980469 C 42.191406 172.316406 41.585938 174.839844 41.011719 177.550781 L 40.578125 179.722656 L 40.171875 181.964844 C 39.960938 183.097656 39.761719 184.265625 39.574219 185.46875 L 39.46875 186.167969 L 41.363281 185.867188 C 46.710938 184.988281 51.488281 183.960938 55.660156 182.792969 C 55.953125 176.453125 56.910156 171.21875 58.554688 167.082031 Z M 112.929688 52.15625 C 79.488281 52.15625 52.378906 79.269531 52.378906 112.710938 C 52.378906 146.152344 79.488281 173.261719 112.929688 173.261719 C 146.371094 173.261719 173.484375 146.152344 173.484375 112.710938 C 173.484375 79.269531 146.371094 52.15625 112.929688 52.15625 Z M 181.964844 134.4375 C 179.707031 133.140625 177.347656 132.484375 174.929688 132.402344 C 172.058594 141.480469 167.246094 149.679688 160.984375 156.535156 C 162.257812 158.601562 164.011719 160.320312 166.265625 161.628906 C 172.441406 165.203125 183.269531 166.382812 198.65625 165.074219 L 200.992188 164.851562 L 202.195312 164.734375 L 202.90625 164.652344 L 202.125 162.902344 L 201.144531 160.765625 C 194.589844 146.792969 188.140625 138.011719 181.964844 134.4375 Z M 50.929688 132.402344 C 48.5 132.484375 46.140625 133.140625 43.898438 134.4375 C 37.71875 138.011719 31.269531 146.792969 24.71875 160.765625 L 23.734375 162.902344 L 22.953125 164.652344 L 23.664062 164.734375 C 24.074219 164.769531 24.472656 164.816406 24.867188 164.851562 L 27.207031 165.074219 C 42.589844 166.382812 53.417969 165.203125 59.597656 161.628906 C 61.851562 160.320312 63.601562 158.601562 64.875 156.546875 C 58.613281 149.679688 53.800781 141.480469 50.929688 132.402344 Z M 202.265625 127.265625 L 201.621094 127.589844 C 196.238281 130.3125 191.449219 131.996094 187.207031 132.613281 C 190.699219 135.382812 194.144531 139.421875 197.570312 144.773438 C 200.535156 144.015625 203.722656 143.042969 207.136719 141.863281 L 209.285156 141.09375 L 211.492188 140.289062 L 213.277344 139.597656 L 212.835938 139.039062 L 211.316406 137.191406 C 211.070312 136.886719 210.8125 136.597656 210.570312 136.304688 L 209.085938 134.5625 L 207.625 132.90625 C 205.792969 130.851562 203.992188 128.957031 202.265625 127.265625 Z M 23.597656 127.265625 C 21.867188 128.957031 20.066406 130.851562 18.234375 132.90625 L 16.773438 134.5625 L 15.289062 136.304688 C 14.542969 137.179688 13.785156 138.101562 13.023438 139.039062 L 12.582031 139.597656 L 14.367188 140.289062 L 16.574219 141.09375 L 18.726562 141.863281 C 22.136719 143.042969 25.324219 144.015625 28.292969 144.773438 C 31.714844 139.421875 35.160156 135.382812 38.652344 132.613281 C 34.25 131.960938 29.238281 130.183594 23.597656 127.265625 Z M 42.285156 97.011719 C 35.148438 97.011719 25.171875 101.390625 12.511719 110.222656 L 10.59375 111.589844 L 9.613281 112.289062 L 9.042969 112.710938 L 10.59375 113.832031 L 12.511719 115.199219 C 25.171875 124.027344 35.148438 128.410156 42.285156 128.410156 C 44.890625 128.410156 47.261719 127.789062 49.386719 126.644531 C 48.40625 122.160156 47.890625 117.5 47.890625 112.710938 C 47.890625 107.921875 48.40625 103.261719 49.386719 98.773438 C 47.261719 97.628906 44.890625 97.011719 42.285156 97.011719 Z M 183.574219 97.011719 C 180.96875 97.011719 178.597656 97.628906 176.472656 98.773438 C 177.453125 103.261719 177.96875 107.921875 177.96875 112.710938 C 177.96875 117.5 177.453125 122.160156 176.472656 126.644531 C 178.597656 127.789062 180.96875 128.410156 183.574219 128.410156 C 190.710938 128.410156 200.6875 124.027344 213.347656 115.199219 L 215.265625 113.832031 L 216.816406 112.710938 L 216.246094 112.289062 C 215.917969 112.054688 215.59375 111.808594 215.265625 111.589844 L 213.347656 110.222656 C 200.6875 101.390625 190.710938 97.011719 183.574219 97.011719 Z M 28.292969 80.644531 C 25.933594 81.253906 23.445312 81.988281 20.816406 82.855469 L 18.726562 83.554688 L 16.574219 84.324219 C 15.488281 84.710938 14.378906 85.132812 13.246094 85.5625 L 12.582031 85.820312 L 13.785156 87.316406 L 15.289062 89.113281 C 18.1875 92.546875 20.957031 95.5625 23.597656 98.15625 C 29.238281 95.246094 34.25 93.460938 38.652344 92.804688 C 35.300781 90.152344 31.984375 86.300781 28.675781 81.253906 Z M 197.570312 80.644531 L 197.183594 81.253906 C 193.878906 86.300781 190.558594 90.152344 187.207031 92.804688 C 191.609375 93.460938 196.621094 95.246094 202.265625 98.15625 C 204.902344 95.5625 207.671875 92.546875 210.570312 89.113281 L 212.074219 87.316406 L 213.277344 85.820312 L 211.492188 85.132812 C 210.746094 84.851562 210.007812 84.582031 209.285156 84.324219 L 207.136719 83.554688 L 205.042969 82.855469 C 202.414062 81.988281 199.929688 81.253906 197.570312 80.644531 Z M 59.597656 63.789062 C 53.417969 60.214844 42.589844 59.035156 27.207031 60.34375 L 24.867188 60.566406 L 22.953125 60.765625 L 23.246094 61.417969 C 23.410156 61.78125 23.574219 62.15625 23.734375 62.515625 L 24.71875 64.65625 C 31.269531 78.625 37.71875 87.410156 43.898438 90.984375 C 46.152344 92.28125 48.511719 92.933594 50.929688 93.015625 C 53.800781 83.941406 58.613281 75.738281 64.875 68.882812 C 63.601562 66.816406 61.851562 65.097656 59.597656 63.789062 Z M 198.65625 60.34375 C 183.269531 59.035156 172.441406 60.214844 166.265625 63.789062 C 164.011719 65.097656 162.257812 66.816406 160.984375 68.871094 C 167.246094 75.738281 172.058594 83.941406 174.929688 93.015625 C 177.347656 92.933594 179.707031 92.28125 181.964844 90.984375 C 188.140625 87.410156 194.589844 78.625 201.144531 64.65625 L 202.125 62.515625 L 202.613281 61.417969 L 202.90625 60.765625 L 200.992188 60.566406 Z M 60.984375 22.734375 L 60.902344 23.445312 C 60.867188 23.855469 60.824219 24.25 60.789062 24.648438 L 60.566406 26.984375 C 59.257812 42.367188 60.4375 53.195312 64.011719 59.375 C 65.320312 61.628906 67.035156 63.382812 69.09375 64.65625 C 75.960938 58.394531 84.160156 53.582031 93.234375 50.707031 C 93.15625 48.289062 92.5 45.929688 91.203125 43.675781 C 87.628906 37.496094 78.84375 31.050781 64.875 24.496094 L 62.738281 23.515625 Z M 164.875 22.734375 L 164.21875 23.023438 C 163.859375 23.1875 163.484375 23.351562 163.121094 23.515625 L 160.984375 24.496094 C 147.015625 31.050781 138.230469 37.496094 134.65625 43.675781 C 133.359375 45.929688 132.707031 48.289062 132.625 50.707031 C 141.699219 53.582031 149.898438 58.394531 156.757812 64.65625 C 158.824219 63.382812 160.539062 61.628906 161.847656 59.375 C 165.421875 53.195312 166.601562 42.367188 165.292969 26.984375 L 165.074219 24.648438 Z M 186.390625 39.25 L 184.496094 39.554688 C 183.714844 39.683594 182.945312 39.808594 182.183594 39.949219 L 179.941406 40.359375 L 177.769531 40.792969 C 175.058594 41.363281 172.535156 41.972656 170.199219 42.625 C 169.910156 48.96875 168.949219 54.199219 167.304688 58.335938 C 171.4375 56.6875 176.671875 55.730469 183.015625 55.4375 C 184.265625 50.953125 185.363281 45.789062 186.285156 39.949219 Z M 39.46875 39.25 L 39.773438 41.140625 C 40.648438 46.492188 41.675781 51.269531 42.847656 55.4375 C 49.1875 55.730469 54.421875 56.6875 58.554688 58.335938 C 56.910156 54.199219 55.953125 48.96875 55.660156 42.625 C 53.324219 41.972656 50.800781 41.363281 48.089844 40.792969 L 45.917969 40.359375 L 43.675781 39.949219 C 42.542969 39.738281 41.375 39.542969 40.171875 39.355469 Z M 112.929688 8.820312 L 112.507812 9.394531 C 112.277344 9.71875 112.03125 10.046875 111.808594 10.375 L 110.441406 12.289062 C 101.613281 24.953125 97.230469 34.925781 97.230469 42.066406 C 97.230469 44.667969 97.851562 47.039062 98.996094 49.167969 C 103.480469 48.183594 108.140625 47.671875 112.929688 47.671875 C 117.71875 47.671875 122.378906 48.183594 126.863281 49.167969 C 128.011719 47.039062 128.628906 44.667969 128.628906 42.066406 C 128.628906 34.925781 124.25 24.953125 115.417969 12.289062 L 114.050781 10.375 Z M 86.039062 12.359375 L 85.785156 13.027344 C 84.476562 16.414062 83.355469 19.625 82.421875 22.628906 L 81.824219 24.613281 C 81.472656 25.792969 81.160156 26.949219 80.867188 28.070312 C 86.214844 31.492188 90.269531 34.9375 93.027344 38.433594 C 93.679688 34.027344 95.457031 29.015625 98.375 23.375 C 97.570312 22.558594 96.71875 21.714844 95.828125 20.863281 L 94.3125 19.449219 C 92 17.300781 89.429688 15.09375 86.601562 12.804688 Z M 139.820312 12.359375 L 139.257812 12.804688 C 136.429688 15.09375 133.863281 17.300781 131.550781 19.449219 L 130.03125 20.863281 C 129.144531 21.714844 128.289062 22.558594 127.484375 23.375 C 130.40625 29.015625 132.179688 34.027344 132.832031 38.433594 C 135.589844 34.9375 139.644531 31.492188 144.992188 28.070312 C 144.703125 26.949219 144.386719 25.792969 144.035156 24.613281 L 143.441406 22.628906 C 142.503906 19.625 141.382812 16.414062 140.074219 13.027344 Z M 139.820312 12.359375 " fill-opacity="1" fill-rule="nonzero"/></g><path fill="#fafafa" d="M 113.257812 26.226562 C 114.484375 26.414062 115.335938 27.558594 115.148438 28.785156 C 114.109375 35.710938 114.109375 42.648438 115.148438 49.585938 C 115.335938 50.800781 114.484375 51.945312 113.257812 52.132812 C 112.042969 52.320312 110.898438 51.46875 110.710938 50.242188 C 109.601562 42.871094 109.601562 35.488281 110.710938 28.117188 C 110.886719 26.972656 111.878906 26.167969 113 26.203125 Z M 113.257812 26.226562 " fill-opacity="1" fill-rule="nonzero"/><path fill="#fafafa" d="M 156.195312 38.035156 L 156.40625 38.1875 C 157.375 38.957031 157.539062 40.371094 156.757812 41.328125 C 152.398438 46.820312 148.929688 52.824219 146.359375 59.351562 C 145.90625 60.496094 144.609375 61.070312 143.453125 60.613281 C 142.296875 60.15625 141.734375 58.863281 142.191406 57.707031 C 144.910156 50.765625 148.601562 44.378906 153.25 38.535156 C 153.964844 37.636719 155.238281 37.4375 156.195312 38.035156 Z M 156.195312 38.035156 " fill-opacity="1" fill-rule="nonzero"/><path fill="#fafafa" d="M 187.792969 70.109375 C 188.246094 71.253906 187.675781 72.5625 186.519531 73.019531 C 180 75.578125 173.996094 79.046875 168.507812 83.414062 C 167.539062 84.183594 166.125 84.023438 165.351562 83.050781 C 164.582031 82.082031 164.746094 80.679688 165.714844 79.910156 C 171.542969 75.261719 177.945312 71.570312 184.882812 68.835938 C 185.945312 68.417969 187.148438 68.871094 187.675781 69.863281 Z M 187.792969 70.109375 " fill-opacity="1" fill-rule="nonzero"/><path fill="#fafafa" d="M 199.003906 113.445312 C 198.816406 114.671875 197.683594 115.511719 196.457031 115.324219 C 189.519531 114.285156 182.59375 114.285156 175.65625 115.324219 C 174.429688 115.511719 173.285156 114.671875 173.109375 113.445312 C 172.921875 112.21875 173.761719 111.074219 174.988281 110.898438 C 182.371094 109.789062 189.742188 109.789062 197.125 110.898438 C 198.257812 111.0625 199.0625 112.054688 199.027344 113.1875 Z M 199.003906 113.445312 " fill-opacity="1" fill-rule="nonzero"/><path fill="#fafafa" d="M 187.054688 156.582031 C 186.285156 157.550781 184.871094 157.714844 183.902344 156.945312 C 178.410156 152.574219 172.417969 149.105469 165.890625 146.535156 C 164.734375 146.09375 164.171875 144.785156 164.617188 143.640625 C 165.074219 142.484375 166.382812 141.910156 167.527344 142.367188 C 174.476562 145.101562 180.863281 148.792969 186.695312 153.429688 C 187.59375 154.152344 187.804688 155.414062 187.207031 156.371094 Z M 187.054688 156.582031 " fill-opacity="1" fill-rule="nonzero"/><path fill="#fafafa" d="M 155.132812 187.96875 C 153.976562 188.425781 152.679688 187.851562 152.222656 186.707031 C 149.652344 180.175781 146.183594 174.171875 141.828125 168.695312 C 141.058594 167.726562 141.210938 166.3125 142.179688 165.542969 C 143.148438 164.769531 144.5625 164.921875 145.332031 165.890625 C 149.980469 171.730469 153.671875 178.121094 156.394531 185.058594 C 156.8125 186.132812 156.359375 187.335938 155.367188 187.863281 Z M 155.132812 187.96875 " fill-opacity="1" fill-rule="nonzero"/><path fill="#fafafa" d="M 111.796875 199.195312 C 110.570312 199.007812 109.730469 197.863281 109.90625 196.636719 C 110.945312 189.707031 110.945312 182.769531 109.90625 175.832031 C 109.730469 174.617188 110.570312 173.472656 111.796875 173.285156 C 113.023438 173.097656 114.15625 173.953125 114.34375 175.179688 C 115.453125 182.546875 115.453125 189.929688 114.34375 197.300781 C 114.167969 198.445312 113.175781 199.253906 112.054688 199.21875 Z M 111.796875 199.195312 " fill-opacity="1" fill-rule="nonzero"/><path fill="#fafafa" d="M 68.648438 187.234375 C 67.679688 186.460938 67.527344 185.046875 68.296875 184.089844 C 72.667969 178.601562 76.125 172.597656 78.695312 166.066406 C 79.148438 164.921875 80.445312 164.351562 81.601562 164.804688 C 82.757812 165.261719 83.320312 166.558594 82.863281 167.714844 C 80.140625 174.652344 76.449219 181.042969 71.800781 186.882812 C 71.089844 187.78125 69.816406 187.980469 68.871094 187.382812 Z M 68.648438 187.234375 " fill-opacity="1" fill-rule="nonzero"/><path fill="#fafafa" d="M 37.261719 155.308594 C 36.820312 154.164062 37.378906 152.855469 38.535156 152.402344 C 45.054688 149.84375 51.058594 146.375 56.546875 142.003906 C 57.515625 141.234375 58.929688 141.398438 59.699219 142.367188 C 60.472656 143.335938 60.308594 144.738281 59.339844 145.507812 C 53.511719 150.15625 47.121094 153.847656 40.171875 156.582031 C 39.109375 157.003906 37.90625 156.546875 37.378906 155.554688 Z M 37.261719 155.308594 " fill-opacity="1" fill-rule="nonzero"/><path fill="#fafafa" d="M 26.050781 111.972656 C 26.234375 110.746094 27.367188 109.90625 28.59375 110.09375 C 35.535156 111.132812 42.460938 111.132812 49.398438 110.09375 C 50.625 109.90625 51.769531 110.746094 51.945312 111.972656 C 52.132812 113.199219 51.289062 114.34375 50.0625 114.519531 C 42.695312 115.628906 35.3125 115.628906 27.929688 114.519531 C 26.796875 114.355469 25.992188 113.363281 26.027344 112.230469 Z M 26.050781 111.972656 " fill-opacity="1" fill-rule="nonzero"/><path fill="#fafafa" d="M 38 68.835938 C 38.769531 67.867188 40.183594 67.703125 41.152344 68.476562 C 46.640625 72.84375 52.644531 76.3125 59.164062 78.882812 C 60.320312 79.324219 60.890625 80.632812 60.4375 81.777344 C 59.980469 82.933594 58.671875 83.507812 57.527344 83.050781 C 50.589844 80.320312 44.1875 76.628906 38.359375 71.992188 C 37.460938 71.265625 37.261719 70.003906 37.847656 69.046875 Z M 38 68.835938 " fill-opacity="1" fill-rule="nonzero"/><path fill="#fafafa" d="M 69.921875 37.449219 C 71.078125 36.996094 72.375 37.566406 72.832031 38.710938 C 75.398438 45.242188 78.867188 51.246094 83.238281 56.722656 C 84.007812 57.695312 83.84375 59.105469 82.875 59.878906 C 81.90625 60.648438 80.492188 60.496094 79.722656 59.527344 C 75.074219 53.6875 71.394531 47.296875 68.660156 40.359375 C 68.238281 39.285156 68.695312 38.082031 69.6875 37.554688 Z M 69.921875 37.449219 " fill-opacity="1" fill-rule="nonzero"/><path fill="#fafafa" d="M 123.265625 132.777344 C 123.746094 131.632812 125.066406 131.105469 126.199219 131.585938 C 127.34375 132.066406 127.871094 133.382812 127.390625 134.527344 C 124.949219 140.289062 119.296875 144.105469 112.929688 144.105469 C 106.5625 144.105469 100.910156 140.289062 98.46875 134.527344 C 97.992188 133.382812 98.515625 132.066406 99.660156 131.585938 C 100.792969 131.105469 102.113281 131.632812 102.59375 132.777344 C 104.34375 136.886719 108.386719 139.621094 112.929688 139.621094 C 117.472656 139.621094 121.515625 136.886719 123.265625 132.777344 Z M 123.265625 132.777344 " fill-opacity="1" fill-rule="nonzero"/><path fill="#fafafa" d="M 148.789062 103.5625 C 156.453125 100.738281 163.8125 107.300781 161.359375 115.09375 C 160.039062 119.285156 156.523438 122.613281 151.652344 125.300781 C 150.027344 126.199219 148.359375 126.960938 146.734375 127.589844 C 145.742188 127.964844 144.980469 128.222656 144.667969 128.316406 C 142.332031 129.167969 139.457031 128.246094 138.03125 126.210938 C 137.738281 125.816406 137.273438 125.160156 136.699219 124.273438 C 135.730469 122.753906 134.796875 121.097656 133.992188 119.367188 C 131.609375 114.261719 130.671875 109.484375 131.980469 105.328125 C 134.445312 97.476562 144.222656 96.625 148.789062 103.5625 Z M 136.257812 106.683594 C 135.367188 109.519531 136.09375 113.292969 138.054688 117.464844 C 138.769531 119.003906 139.609375 120.488281 140.484375 121.84375 C 141 122.660156 141.40625 123.246094 141.640625 123.539062 L 141.699219 123.632812 C 141.957031 124.015625 142.703125 124.25 143.265625 124.050781 C 143.605469 123.945312 144.257812 123.734375 145.109375 123.398438 C 146.570312 122.847656 148.054688 122.171875 149.492188 121.375 C 153.449219 119.191406 156.183594 116.597656 157.082031 113.75 C 158.507812 109.195312 153.800781 105.515625 149 108.421875 C 147.832031 109.136719 146.300781 108.644531 145.765625 107.382812 C 143.511719 102.058594 137.679688 102.171875 136.257812 106.683594 Z M 136.257812 106.683594 " fill-opacity="1" fill-rule="nonzero"/><path fill="#fafafa" d="M 79.3125 103.5625 C 71.648438 100.738281 64.292969 107.300781 66.746094 115.09375 C 68.0625 119.285156 71.582031 122.613281 76.449219 125.300781 C 78.074219 126.199219 79.746094 126.960938 81.367188 127.589844 C 82.363281 127.964844 83.121094 128.222656 83.4375 128.316406 C 85.773438 129.167969 88.644531 128.246094 90.070312 126.210938 C 90.363281 125.816406 90.832031 125.160156 91.402344 124.273438 C 92.371094 122.753906 93.304688 121.097656 94.113281 119.367188 C 96.496094 114.261719 97.429688 109.484375 96.121094 105.328125 C 93.65625 97.476562 83.878906 96.625 79.3125 103.5625 Z M 91.847656 106.683594 C 92.734375 109.519531 92.011719 113.292969 90.046875 117.464844 C 89.335938 119.003906 88.492188 120.488281 87.617188 121.84375 C 87.105469 122.660156 86.695312 123.246094 86.460938 123.539062 L 86.402344 123.632812 C 86.144531 124.015625 85.398438 124.25 84.835938 124.050781 C 84.5 123.945312 83.84375 123.734375 82.992188 123.398438 C 81.53125 122.847656 80.046875 122.171875 78.613281 121.375 C 74.652344 119.191406 71.917969 116.597656 71.019531 113.75 C 69.59375 109.195312 74.300781 105.515625 79.101562 108.421875 C 80.269531 109.136719 81.800781 108.644531 82.339844 107.382812 C 84.59375 102.058594 90.421875 102.171875 91.847656 106.683594 Z M 91.847656 106.683594 " fill-opacity="1" fill-rule="nonzero"/><g clip-path="url(#6a0c2620a7)"><g clip-path="url(#aea7a290b0)"><path fill="#001528" d="M 58.597656 58.203125 L 167.191406 58.203125 L 167.191406 166.796875 L 58.597656 166.796875 Z M 58.597656 58.203125 " fill-opacity="1" fill-rule="nonzero"/></g></g></svg>