<svg xmlns="http://www.w3.org/2000/svg" xmlns:xlink="http://www.w3.org/1999/xlink" width="50" zoomAndPan="magnify" viewBox="0 0 37.5 37.499999" height="50" preserveAspectRatio="xMidYMid meet" version="1.0"><defs><clipPath id="83a80b7840"><path d="M 0.75 0.75 L 36.75 0.75 L 36.75 36.75 L 0.75 36.75 Z M 0.75 0.75 " clip-rule="nonzero"/></clipPath></defs><g clip-path="url(#83a80b7840)"><path fill="#fafafa" d="M 18.457031 0.945312 C 18.605469 0.75 18.894531 0.75 19.042969 0.945312 C 19.085938 1 19.128906 1.054688 19.167969 1.113281 L 19.410156 1.445312 L 19.648438 1.769531 C 20.074219 2.375 20.445312 2.949219 20.757812 3.488281 C 21.320312 2.929688 21.984375 2.347656 22.746094 1.734375 L 23.074219 1.476562 C 23.269531 1.324219 23.546875 1.402344 23.640625 1.625 L 23.796875 2.015625 C 24.152344 2.925781 24.433594 3.765625 24.640625 4.527344 C 25.183594 4.214844 25.789062 3.90625 26.464844 3.597656 L 26.828125 3.433594 L 27.207031 3.265625 L 27.398438 3.183594 C 27.625 3.089844 27.875 3.234375 27.90625 3.476562 C 27.914062 3.546875 27.921875 3.613281 27.933594 3.6875 L 27.976562 4.09375 L 28.015625 4.492188 C 28.085938 5.230469 28.121094 5.914062 28.121094 6.539062 C 28.457031 6.449219 28.8125 6.363281 29.1875 6.285156 L 29.550781 6.214844 C 29.675781 6.1875 29.800781 6.167969 29.929688 6.144531 L 30.320312 6.078125 C 30.582031 6.03125 30.855469 5.992188 31.132812 5.953125 C 31.375 5.921875 31.578125 6.125 31.546875 6.367188 L 31.488281 6.777344 L 31.421875 7.179688 C 31.324219 7.773438 31.21875 8.328125 31.097656 8.835938 L 31.015625 9.171875 C 30.996094 9.242188 30.980469 9.3125 30.964844 9.378906 C 31.585938 9.378906 32.269531 9.414062 33.007812 9.484375 L 33.40625 9.523438 L 33.8125 9.566406 L 34.023438 9.59375 C 34.265625 9.625 34.410156 9.875 34.316406 10.101562 C 34.289062 10.164062 34.261719 10.230469 34.234375 10.292969 L 34.066406 10.671875 L 33.902344 11.035156 C 33.59375 11.710938 33.285156 12.316406 32.972656 12.859375 C 33.574219 13.023438 34.222656 13.230469 34.917969 13.488281 L 35.292969 13.628906 L 35.679688 13.78125 L 35.871094 13.859375 C 36.097656 13.953125 36.175781 14.230469 36.023438 14.425781 L 35.765625 14.753906 C 35.636719 14.914062 35.511719 15.070312 35.382812 15.222656 L 35.132812 15.519531 C 34.882812 15.8125 34.636719 16.085938 34.398438 16.339844 L 34.160156 16.589844 C 34.113281 16.640625 34.0625 16.691406 34.011719 16.742188 C 34.550781 17.054688 35.125 17.425781 35.730469 17.851562 L 36.054688 18.089844 L 36.386719 18.332031 L 36.554688 18.457031 C 36.75 18.605469 36.75 18.894531 36.554688 19.042969 C 36.5 19.085938 36.445312 19.128906 36.386719 19.167969 L 36.054688 19.410156 L 35.730469 19.648438 C 35.125 20.074219 34.550781 20.445312 34.011719 20.757812 C 34.257812 21.003906 34.507812 21.269531 34.761719 21.558594 L 35.007812 21.835938 C 35.132812 21.980469 35.257812 22.128906 35.382812 22.277344 L 35.636719 22.589844 L 35.894531 22.910156 L 36.023438 23.074219 C 36.175781 23.269531 36.097656 23.546875 35.871094 23.640625 L 35.484375 23.796875 C 35.292969 23.871094 35.105469 23.941406 34.917969 24.011719 L 34.550781 24.140625 C 34.191406 24.273438 33.84375 24.386719 33.507812 24.488281 L 33.175781 24.585938 C 33.109375 24.605469 33.039062 24.625 32.972656 24.640625 C 33.285156 25.183594 33.59375 25.789062 33.902344 26.464844 L 34.066406 26.828125 L 34.234375 27.207031 L 34.316406 27.398438 C 34.410156 27.625 34.265625 27.875 34.023438 27.90625 C 33.953125 27.914062 33.886719 27.921875 33.8125 27.933594 L 33.40625 27.976562 L 33.007812 28.015625 C 32.269531 28.085938 31.585938 28.121094 30.960938 28.121094 C 31.050781 28.457031 31.136719 28.8125 31.214844 29.1875 L 31.285156 29.550781 C 31.382812 30.046875 31.46875 30.574219 31.546875 31.132812 C 31.578125 31.375 31.375 31.578125 31.132812 31.546875 C 30.992188 31.527344 30.855469 31.507812 30.722656 31.488281 L 30.320312 31.421875 C 30.253906 31.410156 30.1875 31.402344 30.121094 31.390625 L 29.742188 31.324219 C 29.15625 31.214844 28.617188 31.09375 28.121094 30.964844 C 28.121094 31.585938 28.085938 32.269531 28.015625 33.007812 L 27.976562 33.40625 L 27.933594 33.8125 L 27.90625 34.023438 C 27.875 34.265625 27.625 34.410156 27.398438 34.316406 C 27.335938 34.289062 27.269531 34.261719 27.207031 34.234375 L 26.828125 34.066406 L 26.464844 33.902344 C 25.789062 33.59375 25.183594 33.285156 24.640625 32.972656 C 24.40625 33.84375 24.070312 34.808594 23.640625 35.871094 C 23.546875 36.097656 23.269531 36.175781 23.074219 36.023438 C 22.171875 35.320312 21.398438 34.648438 20.757812 34.011719 C 20.445312 34.550781 20.074219 35.125 19.648438 35.730469 L 19.410156 36.054688 L 19.167969 36.386719 L 19.042969 36.554688 C 18.894531 36.75 18.605469 36.75 18.457031 36.554688 C 18.414062 36.5 18.371094 36.445312 18.332031 36.386719 L 18.089844 36.054688 L 17.851562 35.730469 C 17.425781 35.125 17.054688 34.550781 16.742188 34.011719 C 16.101562 34.648438 15.328125 35.320312 14.425781 36.023438 C 14.230469 36.175781 13.953125 36.097656 13.859375 35.871094 C 13.429688 34.808594 13.09375 33.84375 12.859375 32.972656 C 12.316406 33.285156 11.710938 33.59375 11.035156 33.902344 L 10.671875 34.066406 L 10.292969 34.234375 L 10.101562 34.316406 C 9.875 34.410156 9.625 34.265625 9.59375 34.023438 C 9.585938 33.953125 9.578125 33.886719 9.566406 33.8125 L 9.523438 33.40625 L 9.484375 33.007812 C 9.414062 32.269531 9.378906 31.585938 9.378906 30.960938 C 8.882812 31.09375 8.34375 31.214844 7.757812 31.324219 L 7.378906 31.390625 C 7.3125 31.402344 7.246094 31.410156 7.179688 31.421875 L 6.777344 31.488281 C 6.644531 31.507812 6.507812 31.527344 6.367188 31.546875 C 6.125 31.578125 5.921875 31.375 5.953125 31.132812 C 6.03125 30.574219 6.117188 30.046875 6.214844 29.550781 L 6.285156 29.1875 C 6.363281 28.8125 6.449219 28.457031 6.535156 28.121094 C 5.914062 28.121094 5.230469 28.085938 4.492188 28.015625 L 4.09375 27.976562 L 3.6875 27.933594 L 3.476562 27.90625 C 3.234375 27.875 3.089844 27.625 3.183594 27.398438 C 3.210938 27.335938 3.238281 27.269531 3.265625 27.207031 L 3.433594 26.828125 L 3.597656 26.464844 C 3.90625 25.789062 4.214844 25.183594 4.527344 24.640625 C 4.460938 24.625 4.390625 24.605469 4.324219 24.585938 L 3.992188 24.488281 C 3.65625 24.386719 3.308594 24.273438 2.949219 24.140625 L 2.582031 24.011719 C 2.394531 23.941406 2.207031 23.871094 2.015625 23.796875 L 1.625 23.640625 C 1.402344 23.546875 1.324219 23.269531 1.476562 23.074219 C 1.519531 23.019531 1.5625 22.964844 1.605469 22.910156 L 1.863281 22.589844 L 2.117188 22.277344 C 2.242188 22.128906 2.367188 21.980469 2.492188 21.835938 L 2.738281 21.558594 C 2.992188 21.269531 3.242188 21.003906 3.488281 20.757812 C 2.949219 20.445312 2.375 20.074219 1.769531 19.648438 L 1.445312 19.410156 L 1.113281 19.167969 L 0.945312 19.042969 C 0.75 18.894531 0.75 18.605469 0.945312 18.457031 C 1 18.414062 1.054688 18.371094 1.113281 18.332031 L 1.445312 18.089844 L 1.769531 17.851562 C 2.375 17.425781 2.949219 17.054688 3.488281 16.742188 C 3.4375 16.691406 3.386719 16.640625 3.339844 16.589844 L 3.101562 16.339844 C 2.863281 16.085938 2.617188 15.8125 2.367188 15.519531 L 2.117188 15.222656 C 1.988281 15.070312 1.863281 14.914062 1.734375 14.753906 L 1.476562 14.425781 C 1.324219 14.230469 1.402344 13.953125 1.625 13.859375 C 1.691406 13.832031 1.757812 13.804688 1.820312 13.78125 L 2.207031 13.628906 L 2.582031 13.488281 C 3.277344 13.230469 3.925781 13.023438 4.527344 12.859375 C 4.214844 12.316406 3.90625 11.710938 3.597656 11.035156 L 3.433594 10.671875 L 3.265625 10.292969 L 3.183594 10.101562 C 3.089844 9.875 3.234375 9.625 3.476562 9.59375 C 3.546875 9.585938 3.613281 9.578125 3.6875 9.566406 L 4.09375 9.523438 L 4.492188 9.484375 C 5.230469 9.414062 5.914062 9.378906 6.539062 9.378906 C 6.519531 9.3125 6.503906 9.242188 6.484375 9.171875 L 6.402344 8.835938 C 6.28125 8.328125 6.175781 7.773438 6.078125 7.179688 L 6.011719 6.777344 L 5.953125 6.367188 C 5.921875 6.125 6.125 5.921875 6.367188 5.953125 C 6.644531 5.992188 6.917969 6.03125 7.179688 6.078125 L 7.570312 6.144531 C 7.699219 6.167969 7.824219 6.1875 7.949219 6.214844 L 8.3125 6.285156 C 8.6875 6.363281 9.042969 6.449219 9.378906 6.535156 C 9.378906 5.914062 9.414062 5.230469 9.484375 4.492188 L 9.523438 4.09375 L 9.566406 3.6875 L 9.59375 3.476562 C 9.625 3.234375 9.875 3.089844 10.101562 3.183594 C 10.164062 3.210938 10.230469 3.238281 10.292969 3.265625 L 10.671875 3.433594 L 11.035156 3.597656 C 11.710938 3.90625 12.316406 4.214844 12.859375 4.527344 C 13.066406 3.765625 13.347656 2.925781 13.703125 2.015625 L 13.859375 1.625 C 13.953125 1.402344 14.230469 1.324219 14.425781 1.476562 L 14.753906 1.734375 C 15.515625 2.347656 16.179688 2.929688 16.742188 3.488281 C 17.054688 2.949219 17.425781 2.375 17.851562 1.769531 L 18.089844 1.445312 L 18.332031 1.113281 Z M 21.027344 29.128906 L 20.976562 29.140625 C 20.257812 29.292969 19.511719 29.375 18.75 29.375 C 17.96875 29.375 17.207031 29.289062 16.472656 29.128906 C 16.285156 29.476562 16.1875 29.863281 16.1875 30.289062 C 16.1875 31.457031 16.902344 33.085938 18.34375 35.152344 L 18.566406 35.464844 L 18.75 35.71875 L 18.820312 35.625 C 18.855469 35.574219 18.898438 35.519531 18.933594 35.464844 L 19.15625 35.152344 C 20.597656 33.085938 21.3125 31.457031 21.3125 30.289062 C 21.3125 29.863281 21.214844 29.476562 21.027344 29.128906 Z M 15.5 30.882812 L 15.464844 30.925781 C 15.015625 31.484375 14.363281 32.03125 13.511719 32.574219 C 13.703125 33.3125 13.96875 34.132812 14.316406 35.035156 L 14.359375 35.140625 L 14.601562 34.945312 C 15.285156 34.382812 15.875 33.847656 16.371094 33.34375 C 15.894531 32.421875 15.605469 31.601562 15.5 30.882812 Z M 22 30.882812 L 21.992188 30.9375 C 21.878906 31.644531 21.589844 32.445312 21.128906 33.34375 C 21.660156 33.886719 22.300781 34.460938 23.050781 35.070312 L 23.140625 35.140625 L 23.253906 34.851562 C 23.566406 34.019531 23.8125 33.261719 23.988281 32.574219 C 23.113281 32.015625 22.453125 31.453125 22 30.882812 Z M 11.589844 26.601562 L 11.585938 26.601562 C 11.25 26.808594 10.972656 27.097656 10.757812 27.460938 C 10.175781 28.472656 9.980469 30.242188 10.195312 32.753906 L 10.230469 33.136719 L 10.25 33.332031 L 10.265625 33.449219 L 10.550781 33.320312 L 10.898438 33.160156 C 13.183594 32.089844 14.617188 31.035156 15.199219 30.027344 C 15.414062 29.660156 15.519531 29.273438 15.53125 28.878906 C 14.050781 28.410156 12.710938 27.621094 11.589844 26.601562 Z M 25.910156 26.601562 C 24.789062 27.621094 23.449219 28.410156 21.96875 28.878906 C 21.980469 29.273438 22.085938 29.660156 22.300781 30.027344 C 22.882812 31.035156 24.316406 32.089844 26.601562 33.160156 L 26.949219 33.320312 L 27.128906 33.398438 L 27.234375 33.445312 L 27.269531 33.136719 L 27.304688 32.753906 C 27.519531 30.242188 27.324219 28.472656 26.742188 27.460938 C 26.527344 27.09375 26.246094 26.808594 25.910156 26.601562 Z M 27.632812 27.632812 L 27.652344 27.683594 C 27.910156 28.351562 28.058594 29.1875 28.105469 30.199219 C 28.839844 30.402344 29.679688 30.582031 30.636719 30.734375 L 30.75 30.75 L 30.734375 30.636719 L 30.667969 30.25 C 30.660156 30.1875 30.648438 30.125 30.636719 30.0625 L 30.570312 29.695312 L 30.496094 29.339844 C 30.40625 28.898438 30.304688 28.488281 30.199219 28.105469 C 29.164062 28.058594 28.308594 27.902344 27.632812 27.632812 Z M 9.867188 27.632812 L 9.816406 27.652344 C 9.148438 27.910156 8.3125 28.058594 7.300781 28.105469 C 7.195312 28.488281 7.09375 28.898438 7.003906 29.339844 L 6.929688 29.695312 L 6.863281 30.0625 C 6.832031 30.246094 6.796875 30.4375 6.765625 30.636719 L 6.75 30.75 L 7.058594 30.699219 C 7.933594 30.558594 8.714844 30.390625 9.394531 30.199219 C 9.441406 29.164062 9.597656 28.308594 9.867188 27.632812 Z M 18.75 8.859375 C 13.289062 8.859375 8.859375 13.289062 8.859375 18.75 C 8.859375 24.210938 13.289062 28.640625 18.75 28.640625 C 24.210938 28.640625 28.640625 24.210938 28.640625 18.75 C 28.640625 13.289062 24.210938 8.859375 18.75 8.859375 Z M 30.027344 22.300781 C 29.660156 22.085938 29.273438 21.980469 28.878906 21.96875 C 28.410156 23.449219 27.621094 24.789062 26.601562 25.910156 C 26.808594 26.246094 27.09375 26.527344 27.460938 26.742188 C 28.472656 27.324219 30.242188 27.519531 32.753906 27.304688 L 33.136719 27.269531 L 33.332031 27.25 L 33.449219 27.234375 L 33.320312 26.949219 L 33.160156 26.601562 C 32.089844 24.316406 31.035156 22.882812 30.027344 22.300781 Z M 8.621094 21.96875 C 8.226562 21.980469 7.839844 22.085938 7.472656 22.300781 C 6.464844 22.882812 5.410156 24.316406 4.339844 26.601562 L 4.179688 26.949219 L 4.050781 27.234375 L 4.167969 27.25 C 4.234375 27.253906 4.300781 27.261719 4.363281 27.269531 L 4.746094 27.304688 C 7.257812 27.519531 9.027344 27.324219 10.039062 26.742188 C 10.40625 26.527344 10.691406 26.246094 10.898438 25.910156 C 9.878906 24.789062 9.089844 23.449219 8.621094 21.96875 Z M 33.34375 21.128906 L 33.238281 21.179688 C 32.359375 21.625 31.574219 21.898438 30.882812 22 C 31.453125 22.453125 32.015625 23.113281 32.574219 23.988281 C 33.058594 23.863281 33.582031 23.707031 34.136719 23.511719 L 34.488281 23.386719 L 34.851562 23.253906 L 35.140625 23.140625 L 35.070312 23.050781 L 34.820312 22.75 C 34.78125 22.699219 34.738281 22.652344 34.699219 22.605469 L 34.457031 22.320312 L 34.21875 22.050781 C 33.917969 21.714844 33.625 21.402344 33.34375 21.128906 Z M 4.15625 21.128906 C 3.875 21.402344 3.582031 21.714844 3.28125 22.050781 L 3.042969 22.320312 L 2.800781 22.605469 C 2.679688 22.746094 2.554688 22.898438 2.429688 23.050781 L 2.359375 23.140625 L 2.648438 23.253906 L 3.011719 23.386719 L 3.363281 23.511719 C 3.917969 23.707031 4.4375 23.863281 4.925781 23.988281 C 5.484375 23.113281 6.046875 22.453125 6.617188 22 C 5.898438 21.894531 5.078125 21.605469 4.15625 21.128906 Z M 7.210938 16.1875 C 6.042969 16.1875 4.414062 16.902344 2.347656 18.34375 L 2.035156 18.566406 L 1.875 18.679688 L 1.78125 18.75 L 2.035156 18.933594 L 2.347656 19.15625 C 4.414062 20.597656 6.042969 21.3125 7.210938 21.3125 C 7.636719 21.3125 8.023438 21.214844 8.371094 21.027344 C 8.210938 20.292969 8.125 19.53125 8.125 18.75 C 8.125 17.96875 8.210938 17.207031 8.371094 16.472656 C 8.023438 16.285156 7.636719 16.1875 7.210938 16.1875 Z M 30.289062 16.1875 C 29.863281 16.1875 29.476562 16.285156 29.128906 16.472656 C 29.289062 17.207031 29.375 17.96875 29.375 18.75 C 29.375 19.53125 29.289062 20.292969 29.128906 21.027344 C 29.476562 21.214844 29.863281 21.3125 30.289062 21.3125 C 31.457031 21.3125 33.085938 20.597656 35.152344 19.15625 L 35.464844 18.933594 L 35.71875 18.75 L 35.625 18.679688 C 35.574219 18.644531 35.519531 18.601562 35.464844 18.566406 L 35.152344 18.34375 C 33.085938 16.902344 31.457031 16.1875 30.289062 16.1875 Z M 4.925781 13.511719 C 4.539062 13.613281 4.132812 13.730469 3.703125 13.871094 L 3.363281 13.988281 L 3.011719 14.113281 C 2.832031 14.175781 2.652344 14.246094 2.464844 14.316406 L 2.359375 14.359375 L 2.554688 14.601562 L 2.800781 14.894531 C 3.273438 15.457031 3.726562 15.949219 4.15625 16.371094 C 5.078125 15.898438 5.898438 15.605469 6.617188 15.5 C 6.070312 15.066406 5.527344 14.4375 4.988281 13.613281 Z M 32.574219 13.511719 L 32.511719 13.613281 C 31.972656 14.4375 31.429688 15.066406 30.882812 15.5 C 31.601562 15.605469 32.421875 15.898438 33.34375 16.371094 C 33.773438 15.949219 34.226562 15.457031 34.699219 14.894531 L 34.945312 14.601562 L 35.140625 14.359375 L 34.851562 14.246094 C 34.726562 14.199219 34.609375 14.15625 34.488281 14.113281 L 34.136719 13.988281 L 33.796875 13.871094 C 33.367188 13.730469 32.960938 13.613281 32.574219 13.511719 Z M 10.039062 10.757812 C 9.027344 10.175781 7.257812 9.980469 4.746094 10.195312 L 4.363281 10.230469 L 4.050781 10.265625 L 4.101562 10.371094 C 4.125 10.429688 4.152344 10.492188 4.179688 10.550781 L 4.339844 10.898438 C 5.410156 13.183594 6.464844 14.617188 7.472656 15.199219 C 7.839844 15.414062 8.226562 15.519531 8.621094 15.53125 C 9.089844 14.050781 9.878906 12.710938 10.898438 11.589844 C 10.691406 11.253906 10.40625 10.972656 10.039062 10.757812 Z M 32.753906 10.195312 C 30.242188 9.980469 28.472656 10.175781 27.460938 10.757812 C 27.09375 10.972656 26.808594 11.253906 26.601562 11.589844 C 27.621094 12.710938 28.410156 14.050781 28.878906 15.53125 C 29.273438 15.519531 29.660156 15.414062 30.027344 15.199219 C 31.035156 14.617188 32.089844 13.183594 33.160156 10.898438 L 33.320312 10.550781 L 33.398438 10.371094 L 33.449219 10.265625 L 33.136719 10.230469 Z M 10.265625 4.050781 L 10.25 4.167969 C 10.246094 4.234375 10.238281 4.300781 10.230469 4.363281 L 10.195312 4.746094 C 9.980469 7.257812 10.175781 9.027344 10.757812 10.039062 C 10.972656 10.40625 11.253906 10.691406 11.589844 10.898438 C 12.710938 9.878906 14.050781 9.089844 15.53125 8.621094 C 15.519531 8.226562 15.414062 7.839844 15.199219 7.472656 C 14.617188 6.464844 13.183594 5.410156 10.898438 4.339844 L 10.550781 4.179688 Z M 27.234375 4.050781 L 27.128906 4.101562 C 27.070312 4.125 27.007812 4.152344 26.949219 4.179688 L 26.601562 4.339844 C 24.316406 5.410156 22.882812 6.464844 22.300781 7.472656 C 22.085938 7.839844 21.980469 8.226562 21.96875 8.621094 C 23.449219 9.089844 24.789062 9.878906 25.910156 10.898438 C 26.246094 10.691406 26.527344 10.40625 26.742188 10.039062 C 27.324219 9.027344 27.519531 7.257812 27.304688 4.746094 L 27.269531 4.363281 Z M 30.75 6.75 L 30.441406 6.800781 C 30.3125 6.820312 30.1875 6.839844 30.0625 6.863281 L 29.695312 6.929688 L 29.339844 7.003906 C 28.898438 7.09375 28.488281 7.195312 28.105469 7.300781 C 28.058594 8.335938 27.902344 9.191406 27.632812 9.867188 C 28.308594 9.597656 29.164062 9.441406 30.199219 9.394531 C 30.402344 8.660156 30.582031 7.820312 30.734375 6.863281 Z M 6.75 6.75 L 6.800781 7.058594 C 6.941406 7.933594 7.109375 8.714844 7.300781 9.394531 C 8.335938 9.441406 9.191406 9.597656 9.867188 9.867188 C 9.597656 9.191406 9.441406 8.335938 9.394531 7.300781 C 9.011719 7.195312 8.601562 7.09375 8.160156 7.003906 L 7.804688 6.929688 L 7.4375 6.863281 C 7.25 6.832031 7.0625 6.796875 6.863281 6.765625 Z M 18.75 1.78125 L 18.679688 1.875 C 18.644531 1.925781 18.601562 1.980469 18.566406 2.035156 L 18.34375 2.347656 C 16.902344 4.414062 16.1875 6.042969 16.1875 7.210938 C 16.1875 7.636719 16.285156 8.023438 16.472656 8.371094 C 17.207031 8.210938 17.96875 8.125 18.75 8.125 C 19.53125 8.125 20.292969 8.210938 21.027344 8.371094 C 21.214844 8.023438 21.3125 7.636719 21.3125 7.210938 C 21.3125 6.042969 20.597656 4.414062 19.15625 2.347656 L 18.933594 2.035156 Z M 14.359375 2.359375 L 14.316406 2.464844 C 14.101562 3.019531 13.917969 3.542969 13.765625 4.035156 L 13.667969 4.359375 C 13.613281 4.550781 13.558594 4.742188 13.511719 4.925781 C 14.386719 5.484375 15.046875 6.046875 15.5 6.617188 C 15.605469 5.898438 15.894531 5.078125 16.371094 4.15625 C 16.242188 4.023438 16.101562 3.886719 15.957031 3.746094 L 15.707031 3.515625 C 15.332031 3.164062 14.910156 2.804688 14.449219 2.429688 Z M 23.140625 2.359375 L 23.050781 2.429688 C 22.589844 2.804688 22.167969 3.164062 21.792969 3.515625 L 21.542969 3.746094 C 21.398438 3.886719 21.257812 4.023438 21.128906 4.15625 C 21.605469 5.078125 21.894531 5.898438 22 6.617188 C 22.453125 6.046875 23.113281 5.484375 23.988281 4.925781 C 23.941406 4.742188 23.886719 4.550781 23.832031 4.359375 L 23.734375 4.035156 C 23.582031 3.542969 23.398438 3.019531 23.183594 2.464844 Z M 23.140625 2.359375 " fill-opacity="1" fill-rule="nonzero"/></g><path fill="#fafafa" d="M 18.804688 4.621094 C 19.003906 4.652344 19.144531 4.839844 19.113281 5.039062 C 18.941406 6.171875 18.941406 7.304688 19.113281 8.4375 C 19.144531 8.636719 19.003906 8.824219 18.804688 8.855469 C 18.605469 8.886719 18.417969 8.746094 18.386719 8.546875 C 18.207031 7.339844 18.207031 6.136719 18.386719 4.933594 C 18.417969 4.746094 18.578125 4.613281 18.761719 4.617188 Z M 18.804688 4.621094 " fill-opacity="1" fill-rule="nonzero"/><path fill="#fafafa" d="M 25.816406 6.550781 L 25.851562 6.578125 C 26.011719 6.703125 26.035156 6.933594 25.910156 7.089844 C 25.199219 7.988281 24.628906 8.96875 24.210938 10.035156 C 24.136719 10.222656 23.925781 10.3125 23.734375 10.238281 C 23.546875 10.164062 23.457031 9.953125 23.53125 9.765625 C 23.972656 8.632812 24.578125 7.585938 25.335938 6.632812 C 25.453125 6.488281 25.660156 6.453125 25.816406 6.550781 Z M 25.816406 6.550781 " fill-opacity="1" fill-rule="nonzero"/><path fill="#fafafa" d="M 30.980469 11.792969 C 31.054688 11.976562 30.960938 12.191406 30.769531 12.265625 C 29.707031 12.683594 28.726562 13.25 27.828125 13.964844 C 27.671875 14.089844 27.4375 14.0625 27.3125 13.90625 C 27.1875 13.746094 27.214844 13.519531 27.371094 13.390625 C 28.324219 12.632812 29.371094 12.03125 30.503906 11.582031 C 30.675781 11.515625 30.875 11.589844 30.960938 11.75 Z M 30.980469 11.792969 " fill-opacity="1" fill-rule="nonzero"/><path fill="#fafafa" d="M 32.8125 18.871094 C 32.78125 19.070312 32.59375 19.207031 32.394531 19.175781 C 31.261719 19.007812 30.128906 19.007812 28.996094 19.175781 C 28.796875 19.207031 28.609375 19.070312 28.582031 18.871094 C 28.550781 18.667969 28.6875 18.484375 28.886719 18.453125 C 30.09375 18.273438 31.296875 18.273438 32.503906 18.453125 C 32.6875 18.480469 32.820312 18.644531 32.8125 18.828125 Z M 32.8125 18.871094 " fill-opacity="1" fill-rule="nonzero"/><path fill="#fafafa" d="M 30.859375 25.917969 C 30.734375 26.074219 30.5 26.101562 30.34375 25.976562 C 29.445312 25.261719 28.46875 24.695312 27.402344 24.277344 C 27.210938 24.203125 27.121094 23.988281 27.191406 23.800781 C 27.269531 23.613281 27.480469 23.519531 27.667969 23.59375 C 28.804688 24.042969 29.847656 24.644531 30.800781 25.402344 C 30.945312 25.519531 30.980469 25.726562 30.882812 25.882812 Z M 30.859375 25.917969 " fill-opacity="1" fill-rule="nonzero"/><path fill="#fafafa" d="M 25.644531 31.042969 C 25.453125 31.117188 25.242188 31.023438 25.167969 30.835938 C 24.75 29.769531 24.183594 28.789062 23.46875 27.894531 C 23.34375 27.738281 23.371094 27.507812 23.527344 27.378906 C 23.6875 27.253906 23.917969 27.277344 24.042969 27.4375 C 24.800781 28.390625 25.40625 29.433594 25.851562 30.570312 C 25.917969 30.746094 25.84375 30.941406 25.683594 31.027344 Z M 25.644531 31.042969 " fill-opacity="1" fill-rule="nonzero"/><path fill="#fafafa" d="M 18.566406 32.878906 C 18.363281 32.847656 18.226562 32.660156 18.253906 32.460938 C 18.425781 31.328125 18.425781 30.195312 18.253906 29.0625 C 18.226562 28.863281 18.363281 28.675781 18.566406 28.644531 C 18.765625 28.613281 18.949219 28.753906 18.980469 28.953125 C 19.164062 30.160156 19.164062 31.363281 18.980469 32.566406 C 18.953125 32.753906 18.789062 32.886719 18.605469 32.882812 Z M 18.566406 32.878906 " fill-opacity="1" fill-rule="nonzero"/><path fill="#fafafa" d="M 11.515625 30.921875 C 11.359375 30.796875 11.332031 30.566406 11.460938 30.410156 C 12.171875 29.511719 12.738281 28.53125 13.15625 27.464844 C 13.230469 27.277344 13.445312 27.1875 13.632812 27.261719 C 13.820312 27.335938 13.914062 27.546875 13.839844 27.734375 C 13.394531 28.867188 12.792969 29.914062 12.03125 30.867188 C 11.914062 31.011719 11.707031 31.046875 11.554688 30.949219 Z M 11.515625 30.921875 " fill-opacity="1" fill-rule="nonzero"/><path fill="#fafafa" d="M 6.390625 25.707031 C 6.316406 25.523438 6.410156 25.308594 6.597656 25.234375 C 7.664062 24.816406 8.644531 24.25 9.539062 23.535156 C 9.699219 23.410156 9.929688 23.4375 10.054688 23.59375 C 10.179688 23.753906 10.152344 23.980469 9.996094 24.109375 C 9.042969 24.867188 8 25.46875 6.863281 25.917969 C 6.691406 25.984375 6.496094 25.910156 6.410156 25.75 Z M 6.390625 25.707031 " fill-opacity="1" fill-rule="nonzero"/><path fill="#fafafa" d="M 4.558594 18.628906 C 4.589844 18.429688 4.773438 18.292969 4.972656 18.324219 C 6.105469 18.492188 7.238281 18.492188 8.371094 18.324219 C 8.574219 18.292969 8.757812 18.429688 8.789062 18.628906 C 8.820312 18.832031 8.679688 19.015625 8.480469 19.046875 C 7.277344 19.226562 6.070312 19.226562 4.863281 19.046875 C 4.679688 19.019531 4.546875 18.855469 4.554688 18.671875 Z M 4.558594 18.628906 " fill-opacity="1" fill-rule="nonzero"/><path fill="#fafafa" d="M 6.507812 11.582031 C 6.636719 11.425781 6.867188 11.398438 7.023438 11.523438 C 7.921875 12.238281 8.902344 12.804688 9.96875 13.222656 C 10.15625 13.296875 10.25 13.511719 10.175781 13.699219 C 10.101562 13.886719 9.886719 13.980469 9.699219 13.90625 C 8.566406 13.457031 7.519531 12.855469 6.570312 12.097656 C 6.421875 11.980469 6.390625 11.773438 6.484375 11.617188 Z M 6.507812 11.582031 " fill-opacity="1" fill-rule="nonzero"/><path fill="#fafafa" d="M 11.722656 6.457031 C 11.914062 6.382812 12.125 6.476562 12.199219 6.664062 C 12.621094 7.730469 13.1875 8.710938 13.898438 9.605469 C 14.027344 9.761719 14 9.992188 13.839844 10.121094 C 13.683594 10.246094 13.453125 10.222656 13.324219 10.0625 C 12.566406 9.109375 11.964844 8.066406 11.519531 6.929688 C 11.449219 6.753906 11.523438 6.558594 11.6875 6.472656 Z M 11.722656 6.457031 " fill-opacity="1" fill-rule="nonzero"/><path fill="#fafafa" d="M 19.902344 23.878906 C 19.902344 24.445312 19.414062 24.890625 18.796875 24.972656 C 18.597656 25 18.414062 24.859375 18.386719 24.660156 C 18.359375 24.457031 18.5 24.277344 18.703125 24.25 C 18.984375 24.210938 19.167969 24.042969 19.167969 23.878906 C 19.167969 23.714844 18.984375 23.546875 18.703125 23.507812 C 18.277344 23.453125 18.277344 22.839844 18.703125 22.785156 C 18.984375 22.746094 19.167969 22.574219 19.167969 22.414062 C 19.167969 22.25 18.984375 22.082031 18.703125 22.042969 C 18.5 22.015625 18.359375 21.832031 18.386719 21.632812 C 18.414062 21.433594 18.597656 21.292969 18.796875 21.316406 C 19.414062 21.398438 19.902344 21.847656 19.902344 22.414062 C 19.902344 22.699219 19.777344 22.953125 19.578125 23.144531 C 19.777344 23.339844 19.902344 23.59375 19.902344 23.878906 Z M 19.902344 23.878906 " fill-opacity="1" fill-rule="nonzero"/><path fill="#fafafa" d="M 24.609375 17.257812 C 25.859375 16.792969 27.0625 17.867188 26.660156 19.140625 C 26.445312 19.824219 25.871094 20.367188 25.074219 20.808594 C 24.808594 20.953125 24.539062 21.078125 24.273438 21.179688 C 24.109375 21.242188 23.984375 21.285156 23.933594 21.300781 C 23.550781 21.4375 23.082031 21.289062 22.851562 20.957031 C 22.804688 20.890625 22.726562 20.785156 22.632812 20.640625 C 22.472656 20.390625 22.320312 20.121094 22.191406 19.835938 C 21.800781 19.003906 21.648438 18.222656 21.863281 17.542969 C 22.265625 16.261719 23.863281 16.121094 24.609375 17.257812 Z M 22.558594 17.765625 C 22.414062 18.230469 22.535156 18.84375 22.855469 19.527344 C 22.96875 19.777344 23.109375 20.019531 23.25 20.242188 C 23.335938 20.375 23.402344 20.472656 23.441406 20.519531 L 23.449219 20.535156 C 23.492188 20.597656 23.613281 20.636719 23.707031 20.601562 C 23.761719 20.585938 23.867188 20.550781 24.007812 20.496094 C 24.246094 20.40625 24.488281 20.296875 24.722656 20.164062 C 25.367188 19.808594 25.816406 19.386719 25.960938 18.917969 C 26.195312 18.175781 25.425781 17.574219 24.640625 18.050781 C 24.453125 18.167969 24.203125 18.085938 24.113281 17.878906 C 23.746094 17.011719 22.792969 17.027344 22.558594 17.765625 Z M 22.558594 17.765625 " fill-opacity="1" fill-rule="nonzero"/><path fill="#fafafa" d="M 13.257812 17.257812 C 12.007812 16.792969 10.804688 17.867188 11.207031 19.140625 C 11.421875 19.824219 11.996094 20.367188 12.792969 20.808594 C 13.054688 20.953125 13.328125 21.078125 13.59375 21.179688 C 13.757812 21.242188 13.878906 21.285156 13.933594 21.300781 C 14.3125 21.4375 14.78125 21.289062 15.015625 20.957031 C 15.0625 20.890625 15.140625 20.785156 15.234375 20.640625 C 15.390625 20.390625 15.542969 20.121094 15.675781 19.835938 C 16.066406 19.003906 16.21875 18.222656 16.003906 17.542969 C 15.601562 16.261719 14.003906 16.121094 13.257812 17.257812 Z M 15.304688 17.765625 C 15.449219 18.230469 15.332031 18.84375 15.011719 19.527344 C 14.894531 19.777344 14.757812 20.019531 14.613281 20.242188 C 14.53125 20.375 14.464844 20.472656 14.425781 20.519531 L 14.417969 20.535156 C 14.375 20.597656 14.253906 20.636719 14.160156 20.601562 C 14.105469 20.585938 14 20.550781 13.859375 20.496094 C 13.621094 20.40625 13.378906 20.296875 13.144531 20.164062 C 12.496094 19.808594 12.050781 19.386719 11.902344 18.917969 C 11.671875 18.175781 12.441406 17.574219 13.222656 18.050781 C 13.414062 18.167969 13.664062 18.085938 13.753906 17.878906 C 14.121094 17.011719 15.074219 17.027344 15.304688 17.765625 Z M 15.304688 17.765625 " fill-opacity="1" fill-rule="nonzero"/></svg>