<svg xmlns="http://www.w3.org/2000/svg" xmlns:xlink="http://www.w3.org/1999/xlink" width="50" zoomAndPan="magnify" viewBox="0 0 37.5 37.499999" height="50" preserveAspectRatio="xMidYMid meet" version="1.0"><defs><clipPath id="145fd52c5b"><path d="M 0 0 L 36.75 0 L 36.75 36.75 L 0 36.75 Z M 0 0 " clip-rule="nonzero"/></clipPath><clipPath id="346c10afc9"><path d="M 18.375 0 C 8.226562 0 0 8.226562 0 18.375 C 0 28.523438 8.226562 36.75 18.375 36.75 C 28.523438 36.75 36.75 28.523438 36.75 18.375 C 36.75 8.226562 28.523438 0 18.375 0 " clip-rule="nonzero"/></clipPath><clipPath id="2751672345"><path d="M 4.273438 3.898438 L 33.523438 3.898438 L 33.523438 33.148438 L 4.273438 33.148438 Z M 4.273438 3.898438 " clip-rule="nonzero"/></clipPath></defs><g clip-path="url(#145fd52c5b)"><g clip-path="url(#346c10afc9)"><path fill="#a26fff" d="M 0 0 L 36.75 0 L 36.75 36.75 L 0 36.75 Z M 0 0 " fill-opacity="1" fill-rule="nonzero"/><path stroke-linecap="butt" transform="matrix(0.75, 0, 0, 0.75, 0.0000005, 0.000000000000002665)" fill="none" stroke-linejoin="miter" d="M 24.500002 -0.000000000000003553 C 10.968751 -0.000000000000003553 -0.000000666667 10.968751 -0.000000666667 24.500003 C -0.000000666667 38.031255 10.968751 49.000006 24.500002 49.000006 C 38.031254 49.000006 49.000005 38.031255 49.000005 24.500003 C 49.000005 10.968751 38.031254 -0.000000000000003553 24.500002 -0.000000000000003553 " stroke="#fafafa" stroke-width="4" stroke-opacity="1" stroke-miterlimit="4"/></g></g><g clip-path="url(#2751672345)"><path fill="#001528" d="M 18.664062 4.058594 C 18.78125 3.902344 19.019531 3.902344 19.136719 4.058594 C 19.171875 4.105469 19.207031 4.148438 19.238281 4.195312 L 19.4375 4.464844 L 19.628906 4.730469 C 19.976562 5.21875 20.277344 5.683594 20.53125 6.125 C 20.988281 5.671875 21.527344 5.195312 22.148438 4.699219 L 22.414062 4.488281 C 22.570312 4.367188 22.800781 4.429688 22.875 4.613281 L 23 4.925781 C 23.289062 5.667969 23.519531 6.347656 23.6875 6.96875 C 24.125 6.714844 24.621094 6.464844 25.167969 6.210938 L 25.464844 6.078125 L 25.769531 5.945312 L 25.925781 5.878906 C 26.109375 5.800781 26.316406 5.917969 26.339844 6.113281 C 26.347656 6.171875 26.351562 6.226562 26.359375 6.285156 L 26.398438 6.617188 L 26.429688 6.941406 C 26.484375 7.542969 26.511719 8.09375 26.511719 8.601562 C 26.785156 8.53125 27.074219 8.460938 27.378906 8.398438 L 27.675781 8.339844 C 27.777344 8.320312 27.878906 8.300781 27.984375 8.28125 L 28.300781 8.226562 C 28.511719 8.191406 28.734375 8.160156 28.960938 8.128906 C 29.15625 8.101562 29.324219 8.269531 29.296875 8.464844 L 29.25 8.796875 L 29.195312 9.125 C 29.117188 9.605469 29.03125 10.054688 28.933594 10.472656 L 28.867188 10.742188 C 28.851562 10.800781 28.835938 10.855469 28.824219 10.910156 C 29.332031 10.910156 29.882812 10.941406 30.484375 10.996094 L 30.808594 11.027344 L 31.140625 11.066406 L 31.308594 11.085938 C 31.503906 11.109375 31.625 11.316406 31.546875 11.496094 C 31.527344 11.550781 31.503906 11.601562 31.480469 11.652344 L 31.347656 11.960938 L 31.210938 12.257812 C 30.960938 12.804688 30.707031 13.300781 30.457031 13.738281 C 30.945312 13.871094 31.472656 14.042969 32.039062 14.25 L 32.34375 14.367188 L 32.65625 14.488281 L 32.8125 14.550781 C 32.996094 14.625 33.058594 14.855469 32.933594 15.011719 L 32.726562 15.277344 C 32.621094 15.40625 32.519531 15.535156 32.414062 15.660156 L 32.210938 15.898438 C 32.007812 16.136719 31.808594 16.359375 31.617188 16.566406 L 31.421875 16.769531 C 31.382812 16.8125 31.339844 16.851562 31.300781 16.890625 C 31.738281 17.148438 32.203125 17.449219 32.695312 17.796875 L 32.960938 17.988281 L 33.230469 18.183594 L 33.367188 18.289062 C 33.523438 18.40625 33.523438 18.644531 33.367188 18.761719 C 33.320312 18.796875 33.277344 18.832031 33.230469 18.863281 L 32.960938 19.0625 L 32.695312 19.253906 C 32.203125 19.601562 31.738281 19.902344 31.300781 20.15625 C 31.5 20.359375 31.703125 20.574219 31.910156 20.804688 L 32.109375 21.035156 C 32.210938 21.148438 32.3125 21.269531 32.414062 21.390625 L 32.621094 21.644531 L 32.828125 21.90625 L 32.933594 22.039062 C 33.058594 22.195312 32.996094 22.425781 32.8125 22.5 L 32.496094 22.625 C 32.339844 22.6875 32.1875 22.742188 32.039062 22.800781 L 31.738281 22.90625 C 31.445312 23.011719 31.164062 23.105469 30.890625 23.1875 L 30.621094 23.265625 C 30.566406 23.28125 30.511719 23.296875 30.457031 23.3125 C 30.707031 23.75 30.960938 24.246094 31.210938 24.792969 L 31.347656 25.089844 L 31.480469 25.394531 L 31.546875 25.550781 C 31.625 25.734375 31.503906 25.941406 31.308594 25.964844 C 31.253906 25.972656 31.195312 25.976562 31.140625 25.984375 L 30.808594 26.023438 L 30.484375 26.054688 C 29.882812 26.109375 29.332031 26.136719 28.820312 26.136719 C 28.894531 26.410156 28.964844 26.699219 29.027344 27.003906 L 29.085938 27.300781 C 29.164062 27.703125 29.234375 28.132812 29.296875 28.585938 C 29.324219 28.78125 29.15625 28.949219 28.960938 28.921875 C 28.847656 28.90625 28.738281 28.890625 28.625 28.875 L 28.300781 28.820312 C 28.246094 28.8125 28.191406 28.804688 28.140625 28.796875 L 27.828125 28.738281 C 27.355469 28.652344 26.917969 28.554688 26.511719 28.449219 C 26.511719 28.957031 26.484375 29.507812 26.429688 30.109375 L 26.398438 30.433594 L 26.359375 30.765625 L 26.339844 30.933594 C 26.316406 31.128906 26.109375 31.25 25.925781 31.171875 C 25.875 31.152344 25.820312 31.128906 25.769531 31.105469 L 25.464844 30.972656 L 25.167969 30.835938 C 24.621094 30.585938 24.125 30.332031 23.6875 30.082031 C 23.496094 30.789062 23.222656 31.574219 22.875 32.4375 C 22.800781 32.621094 22.570312 32.683594 22.414062 32.558594 C 21.679688 31.988281 21.050781 31.441406 20.53125 30.925781 C 20.277344 31.363281 19.976562 31.828125 19.628906 32.320312 L 19.4375 32.585938 L 19.238281 32.855469 L 19.136719 32.992188 C 19.019531 33.148438 18.78125 33.148438 18.664062 32.992188 C 18.628906 32.945312 18.59375 32.902344 18.558594 32.855469 L 18.363281 32.585938 L 18.171875 32.320312 C 17.824219 31.828125 17.523438 31.363281 17.265625 30.925781 C 16.75 31.441406 16.121094 31.988281 15.386719 32.558594 C 15.230469 32.683594 15 32.621094 14.925781 32.4375 C 14.578125 31.574219 14.304688 30.789062 14.113281 30.078125 C 13.675781 30.332031 13.179688 30.585938 12.632812 30.835938 L 12.335938 30.972656 L 12.027344 31.105469 L 11.871094 31.171875 C 11.691406 31.25 11.484375 31.128906 11.460938 30.933594 C 11.453125 30.878906 11.449219 30.820312 11.441406 30.765625 L 11.402344 30.433594 L 11.371094 30.109375 C 11.316406 29.507812 11.285156 28.957031 11.285156 28.445312 C 10.882812 28.554688 10.445312 28.652344 9.96875 28.738281 L 9.660156 28.796875 C 9.609375 28.804688 9.554688 28.8125 9.5 28.820312 L 9.171875 28.875 C 9.0625 28.890625 8.953125 28.90625 8.839844 28.921875 C 8.644531 28.949219 8.476562 28.78125 8.503906 28.585938 C 8.566406 28.132812 8.636719 27.703125 8.714844 27.300781 L 8.773438 27.003906 C 8.835938 26.699219 8.90625 26.410156 8.976562 26.136719 C 8.46875 26.136719 7.917969 26.109375 7.316406 26.054688 L 6.992188 26.023438 L 6.660156 25.984375 L 6.488281 25.964844 C 6.292969 25.941406 6.175781 25.734375 6.253906 25.550781 C 6.273438 25.5 6.296875 25.445312 6.320312 25.394531 L 6.453125 25.089844 L 6.585938 24.792969 C 6.839844 24.246094 7.089844 23.75 7.34375 23.3125 C 7.289062 23.296875 7.234375 23.28125 7.179688 23.265625 L 6.910156 23.1875 C 6.636719 23.105469 6.351562 23.011719 6.058594 22.90625 L 5.761719 22.800781 C 5.613281 22.742188 5.457031 22.6875 5.300781 22.625 L 4.988281 22.5 C 4.804688 22.425781 4.742188 22.195312 4.863281 22.039062 C 4.898438 21.996094 4.933594 21.949219 4.96875 21.90625 L 5.179688 21.644531 L 5.386719 21.390625 C 5.488281 21.269531 5.589844 21.148438 5.691406 21.035156 L 5.890625 20.804688 C 6.097656 20.574219 6.300781 20.359375 6.5 20.15625 C 6.058594 19.902344 5.59375 19.601562 5.105469 19.253906 L 4.839844 19.0625 L 4.570312 18.863281 L 4.433594 18.761719 C 4.277344 18.644531 4.277344 18.40625 4.433594 18.289062 C 4.480469 18.253906 4.523438 18.21875 4.570312 18.183594 L 4.839844 17.988281 L 5.105469 17.796875 C 5.59375 17.449219 6.058594 17.148438 6.5 16.890625 C 6.457031 16.851562 6.417969 16.8125 6.378906 16.769531 L 6.183594 16.566406 C 5.992188 16.359375 5.792969 16.136719 5.589844 15.898438 L 5.386719 15.660156 C 5.28125 15.535156 5.179688 15.40625 5.074219 15.277344 L 4.863281 15.011719 C 4.742188 14.855469 4.804688 14.625 4.988281 14.550781 C 5.039062 14.53125 5.09375 14.507812 5.144531 14.488281 L 5.457031 14.367188 L 5.761719 14.25 C 6.328125 14.042969 6.855469 13.871094 7.34375 13.738281 C 7.089844 13.300781 6.839844 12.804688 6.585938 12.257812 L 6.453125 11.960938 L 6.320312 11.652344 L 6.253906 11.496094 C 6.175781 11.316406 6.292969 11.109375 6.488281 11.085938 C 6.546875 11.078125 6.601562 11.074219 6.660156 11.066406 L 6.992188 11.027344 L 7.316406 10.996094 C 7.917969 10.941406 8.46875 10.910156 8.976562 10.910156 C 8.960938 10.855469 8.949219 10.800781 8.933594 10.742188 L 8.867188 10.472656 C 8.769531 10.054688 8.683594 9.605469 8.601562 9.125 L 8.550781 8.796875 L 8.503906 8.464844 C 8.476562 8.269531 8.644531 8.101562 8.839844 8.128906 C 9.066406 8.160156 9.285156 8.191406 9.5 8.226562 L 9.816406 8.28125 C 9.921875 8.300781 10.023438 8.320312 10.125 8.339844 L 10.417969 8.398438 C 10.726562 8.460938 11.011719 8.53125 11.285156 8.601562 C 11.285156 8.09375 11.316406 7.542969 11.371094 6.941406 L 11.402344 6.617188 L 11.441406 6.285156 L 11.460938 6.113281 C 11.484375 5.917969 11.691406 5.800781 11.871094 5.878906 C 11.925781 5.898438 11.976562 5.921875 12.027344 5.945312 L 12.335938 6.078125 L 12.632812 6.210938 C 13.179688 6.464844 13.675781 6.714844 14.113281 6.96875 C 14.28125 6.347656 14.511719 5.667969 14.800781 4.925781 L 14.925781 4.613281 C 15 4.429688 15.230469 4.367188 15.386719 4.488281 L 15.652344 4.699219 C 16.273438 5.195312 16.8125 5.671875 17.265625 6.125 C 17.523438 5.683594 17.824219 5.21875 18.171875 4.730469 L 18.363281 4.464844 L 18.558594 4.195312 Z M 20.75 26.957031 L 20.707031 26.96875 C 20.125 27.09375 19.519531 27.15625 18.898438 27.15625 C 18.265625 27.15625 17.644531 27.089844 17.050781 26.957031 C 16.898438 27.242188 16.816406 27.554688 16.816406 27.902344 C 16.816406 28.847656 17.398438 30.171875 18.570312 31.851562 L 18.75 32.105469 L 18.898438 32.3125 L 18.957031 32.238281 C 18.988281 32.195312 19.019531 32.152344 19.050781 32.105469 L 19.230469 31.851562 C 20.402344 30.171875 20.984375 28.847656 20.984375 27.902344 C 20.984375 27.554688 20.902344 27.242188 20.75 26.957031 Z M 16.257812 28.382812 L 16.230469 28.417969 C 15.863281 28.871094 15.335938 29.316406 14.644531 29.757812 C 14.796875 30.355469 15.015625 31.023438 15.296875 31.753906 L 15.332031 31.84375 L 15.53125 31.683594 C 16.085938 31.226562 16.566406 30.792969 16.96875 30.382812 C 16.582031 29.632812 16.34375 28.96875 16.257812 28.382812 Z M 21.542969 28.382812 L 21.535156 28.429688 C 21.441406 29.003906 21.207031 29.652344 20.832031 30.382812 C 21.265625 30.820312 21.785156 31.289062 22.394531 31.785156 L 22.46875 31.84375 L 22.558594 31.605469 C 22.816406 30.933594 23.011719 30.316406 23.15625 29.757812 C 22.445312 29.304688 21.910156 28.847656 21.542969 28.382812 Z M 13.082031 24.902344 L 13.078125 24.90625 C 12.808594 25.074219 12.578125 25.304688 12.40625 25.605469 C 11.933594 26.421875 11.777344 27.859375 11.949219 29.902344 L 11.980469 30.210938 L 11.996094 30.371094 L 12.003906 30.46875 L 12.238281 30.363281 L 12.523438 30.234375 C 14.375 29.363281 15.542969 28.507812 16.015625 27.6875 C 16.1875 27.386719 16.273438 27.074219 16.285156 26.753906 C 15.082031 26.371094 13.992188 25.734375 13.082031 24.902344 Z M 24.71875 24.902344 C 23.808594 25.734375 22.71875 26.371094 21.515625 26.753906 C 21.523438 27.074219 21.613281 27.386719 21.785156 27.6875 C 22.257812 28.507812 23.421875 29.363281 25.277344 30.234375 L 25.5625 30.363281 L 25.707031 30.429688 L 25.792969 30.464844 L 25.820312 30.210938 L 25.851562 29.902344 C 26.023438 27.859375 25.867188 26.421875 25.394531 25.605469 C 25.21875 25.304688 24.992188 25.070312 24.71875 24.902344 Z M 26.117188 25.742188 L 26.132812 25.785156 C 26.339844 26.324219 26.460938 27.007812 26.5 27.828125 C 27.097656 27.992188 27.78125 28.136719 28.558594 28.261719 L 28.648438 28.273438 L 28.636719 28.183594 L 28.585938 27.867188 C 28.574219 27.816406 28.566406 27.765625 28.558594 27.714844 L 28.503906 27.417969 L 28.445312 27.128906 C 28.371094 26.769531 28.289062 26.4375 28.203125 26.125 C 27.359375 26.085938 26.664062 25.960938 26.117188 25.742188 Z M 11.683594 25.742188 L 11.640625 25.757812 C 11.097656 25.964844 10.417969 26.085938 9.597656 26.125 C 9.511719 26.4375 9.429688 26.769531 9.355469 27.128906 L 9.296875 27.417969 L 9.242188 27.714844 C 9.214844 27.867188 9.1875 28.023438 9.164062 28.183594 L 9.148438 28.273438 L 9.402344 28.234375 C 10.109375 28.117188 10.746094 27.980469 11.300781 27.828125 C 11.335938 26.984375 11.464844 26.289062 11.683594 25.742188 Z M 18.898438 10.488281 C 14.460938 10.488281 10.863281 14.085938 10.863281 18.523438 C 10.863281 22.964844 14.460938 26.5625 18.898438 26.5625 C 23.339844 26.5625 26.9375 22.964844 26.9375 18.523438 C 26.9375 14.085938 23.339844 10.488281 18.898438 10.488281 Z M 28.0625 21.410156 C 27.761719 21.238281 27.449219 21.148438 27.128906 21.140625 C 26.746094 22.34375 26.109375 23.433594 25.277344 24.339844 C 25.445312 24.617188 25.679688 24.84375 25.980469 25.019531 C 26.796875 25.492188 28.234375 25.648438 30.277344 25.476562 L 30.585938 25.445312 L 30.746094 25.429688 L 30.84375 25.417969 L 30.738281 25.1875 L 30.609375 24.902344 C 29.738281 23.046875 28.882812 21.882812 28.0625 21.410156 Z M 10.671875 21.140625 C 10.347656 21.148438 10.035156 21.238281 9.738281 21.410156 C 8.917969 21.882812 8.0625 23.046875 7.191406 24.902344 L 7.0625 25.1875 L 6.957031 25.417969 L 7.050781 25.429688 C 7.105469 25.433594 7.160156 25.441406 7.210938 25.445312 L 7.523438 25.476562 C 9.5625 25.648438 11 25.492188 11.820312 25.019531 C 12.121094 24.84375 12.351562 24.617188 12.523438 24.34375 C 11.691406 23.433594 11.050781 22.34375 10.671875 21.140625 Z M 30.757812 20.457031 L 30.671875 20.5 C 29.957031 20.859375 29.320312 21.085938 28.757812 21.167969 C 29.222656 21.535156 29.679688 22.070312 30.132812 22.78125 C 30.527344 22.679688 30.949219 22.550781 31.402344 22.394531 L 31.6875 22.292969 L 31.980469 22.183594 L 32.21875 22.09375 L 32.160156 22.019531 L 31.957031 21.773438 C 31.925781 21.734375 31.890625 21.695312 31.859375 21.65625 L 31.664062 21.425781 L 31.46875 21.207031 C 31.226562 20.933594 30.984375 20.679688 30.757812 20.457031 Z M 7.042969 20.457031 C 6.8125 20.679688 6.574219 20.933594 6.332031 21.207031 L 6.136719 21.425781 L 5.941406 21.65625 C 5.839844 21.773438 5.742188 21.894531 5.640625 22.019531 L 5.582031 22.09375 L 5.820312 22.183594 L 6.113281 22.292969 L 6.398438 22.394531 C 6.847656 22.550781 7.273438 22.679688 7.667969 22.78125 C 8.121094 22.070312 8.578125 21.535156 9.042969 21.167969 C 8.457031 21.078125 7.792969 20.84375 7.042969 20.457031 Z M 9.523438 16.441406 C 8.578125 16.441406 7.253906 17.023438 5.570312 18.195312 L 5.316406 18.375 L 5.1875 18.46875 L 5.113281 18.523438 L 5.316406 18.671875 L 5.570312 18.855469 C 7.253906 20.027344 8.578125 20.609375 9.523438 20.609375 C 9.871094 20.609375 10.183594 20.527344 10.464844 20.375 C 10.335938 19.777344 10.269531 19.160156 10.269531 18.523438 C 10.269531 17.890625 10.335938 17.269531 10.464844 16.675781 C 10.183594 16.523438 9.871094 16.441406 9.523438 16.441406 Z M 28.277344 16.441406 C 27.929688 16.441406 27.617188 16.523438 27.332031 16.675781 C 27.464844 17.269531 27.53125 17.890625 27.53125 18.523438 C 27.53125 19.160156 27.464844 19.777344 27.332031 20.375 C 27.617188 20.527344 27.929688 20.609375 28.277344 20.609375 C 29.222656 20.609375 30.546875 20.027344 32.226562 18.855469 L 32.480469 18.671875 L 32.6875 18.523438 L 32.613281 18.46875 C 32.570312 18.4375 32.527344 18.40625 32.480469 18.375 L 32.226562 18.195312 C 30.546875 17.023438 29.222656 16.441406 28.277344 16.441406 Z M 7.667969 14.269531 C 7.351562 14.351562 7.023438 14.449219 6.675781 14.5625 L 6.398438 14.65625 L 6.113281 14.757812 C 5.96875 14.808594 5.820312 14.863281 5.667969 14.921875 L 5.582031 14.957031 L 5.742188 15.15625 L 5.941406 15.394531 C 6.324219 15.847656 6.691406 16.25 7.042969 16.59375 C 7.792969 16.207031 8.457031 15.96875 9.042969 15.882812 C 8.597656 15.53125 8.15625 15.019531 7.71875 14.351562 Z M 30.132812 14.269531 L 30.082031 14.351562 C 29.644531 15.019531 29.203125 15.53125 28.757812 15.882812 C 29.34375 15.96875 30.007812 16.207031 30.757812 16.59375 C 31.105469 16.25 31.472656 15.847656 31.859375 15.394531 L 32.058594 15.15625 L 32.21875 14.957031 L 31.980469 14.863281 C 31.882812 14.828125 31.785156 14.792969 31.6875 14.757812 L 31.402344 14.65625 L 31.125 14.5625 C 30.777344 14.449219 30.445312 14.351562 30.132812 14.269531 Z M 11.820312 12.03125 C 11 11.558594 9.5625 11.402344 7.523438 11.574219 L 7.210938 11.605469 L 6.957031 11.628906 L 6.996094 11.71875 C 7.019531 11.765625 7.039062 11.816406 7.0625 11.863281 L 7.191406 12.148438 C 8.0625 14 8.917969 15.167969 9.738281 15.640625 C 10.035156 15.8125 10.351562 15.898438 10.671875 15.910156 C 11.050781 14.707031 11.691406 13.617188 12.523438 12.707031 C 12.351562 12.433594 12.121094 12.207031 11.820312 12.03125 Z M 30.277344 11.574219 C 28.234375 11.402344 26.796875 11.558594 25.980469 12.03125 C 25.679688 12.207031 25.445312 12.433594 25.277344 12.707031 C 26.109375 13.617188 26.746094 14.707031 27.128906 15.910156 C 27.449219 15.898438 27.761719 15.8125 28.0625 15.640625 C 28.882812 15.167969 29.738281 14 30.609375 12.148438 L 30.738281 11.863281 L 30.804688 11.71875 L 30.84375 11.628906 L 30.585938 11.605469 Z M 12.003906 6.582031 L 11.996094 6.675781 C 11.992188 6.730469 11.984375 6.785156 11.980469 6.835938 L 11.949219 7.148438 C 11.777344 9.1875 11.933594 10.625 12.40625 11.445312 C 12.582031 11.746094 12.808594 11.976562 13.082031 12.148438 C 13.992188 11.316406 15.082031 10.675781 16.285156 10.296875 C 16.273438 9.976562 16.1875 9.660156 16.015625 9.363281 C 15.542969 8.542969 14.375 7.6875 12.523438 6.816406 L 12.238281 6.6875 Z M 25.792969 6.582031 L 25.707031 6.621094 C 25.660156 6.644531 25.609375 6.664062 25.5625 6.6875 L 25.277344 6.816406 C 23.421875 7.6875 22.257812 8.542969 21.785156 9.363281 C 21.613281 9.660156 21.523438 9.976562 21.515625 10.296875 C 22.71875 10.675781 23.808594 11.316406 24.714844 12.148438 C 24.992188 11.976562 25.21875 11.746094 25.394531 11.445312 C 25.867188 10.625 26.023438 9.1875 25.851562 7.148438 L 25.820312 6.835938 Z M 28.648438 8.773438 L 28.398438 8.816406 C 28.292969 8.832031 28.191406 8.847656 28.089844 8.867188 L 27.792969 8.921875 L 27.503906 8.980469 C 27.144531 9.054688 26.8125 9.136719 26.5 9.222656 C 26.460938 10.066406 26.335938 10.757812 26.117188 11.308594 C 26.664062 11.089844 27.359375 10.960938 28.203125 10.925781 C 28.367188 10.328125 28.511719 9.644531 28.636719 8.867188 Z M 9.148438 8.773438 L 9.191406 9.027344 C 9.308594 9.734375 9.441406 10.371094 9.597656 10.925781 C 10.441406 10.960938 11.132812 11.089844 11.683594 11.308594 C 11.464844 10.757812 11.335938 10.066406 11.300781 9.222656 C 10.988281 9.136719 10.652344 9.054688 10.292969 8.980469 L 10.007812 8.921875 L 9.707031 8.867188 C 9.558594 8.839844 9.402344 8.8125 9.242188 8.789062 Z M 18.898438 4.738281 L 18.84375 4.8125 C 18.8125 4.855469 18.78125 4.898438 18.75 4.941406 L 18.570312 5.195312 C 17.398438 6.878906 16.816406 8.203125 16.816406 9.148438 C 16.816406 9.496094 16.898438 9.808594 17.050781 10.089844 C 17.644531 9.960938 18.265625 9.894531 18.898438 9.894531 C 19.535156 9.894531 20.152344 9.960938 20.75 10.089844 C 20.902344 9.808594 20.984375 9.496094 20.984375 9.148438 C 20.984375 8.203125 20.402344 6.878906 19.230469 5.195312 L 19.050781 4.941406 Z M 15.332031 5.207031 L 15.296875 5.292969 C 15.125 5.746094 14.976562 6.171875 14.851562 6.570312 L 14.773438 6.832031 C 14.726562 6.988281 14.683594 7.144531 14.644531 7.292969 C 15.355469 7.746094 15.890625 8.203125 16.257812 8.667969 C 16.34375 8.082031 16.582031 7.417969 16.96875 6.667969 C 16.863281 6.558594 16.75 6.449219 16.628906 6.335938 L 16.429688 6.148438 C 16.121094 5.863281 15.78125 5.570312 15.40625 5.265625 Z M 22.46875 5.207031 L 22.394531 5.265625 C 22.019531 5.570312 21.679688 5.863281 21.371094 6.148438 L 21.167969 6.335938 C 21.050781 6.449219 20.9375 6.558594 20.832031 6.667969 C 21.21875 7.417969 21.453125 8.082031 21.542969 8.667969 C 21.90625 8.203125 22.445312 7.746094 23.15625 7.292969 C 23.117188 7.144531 23.074219 6.988281 23.027344 6.832031 L 22.949219 6.570312 C 22.824219 6.171875 22.675781 5.746094 22.503906 5.292969 Z M 22.46875 5.207031 " fill-opacity="1" fill-rule="nonzero"/></g><path fill="#001528" d="M 18.945312 7.046875 C 19.105469 7.070312 19.21875 7.222656 19.195312 7.386719 C 19.054688 8.304688 19.054688 9.226562 19.195312 10.148438 C 19.21875 10.308594 19.105469 10.460938 18.945312 10.484375 C 18.78125 10.511719 18.628906 10.398438 18.605469 10.234375 C 18.457031 9.253906 18.457031 8.277344 18.605469 7.296875 C 18.628906 7.144531 18.761719 7.039062 18.910156 7.042969 Z M 18.945312 7.046875 " fill-opacity="1" fill-rule="nonzero"/><path fill="#001528" d="M 24.640625 8.613281 L 24.671875 8.632812 C 24.800781 8.738281 24.820312 8.925781 24.714844 9.050781 C 24.136719 9.78125 23.679688 10.578125 23.335938 11.441406 C 23.277344 11.59375 23.105469 11.671875 22.949219 11.609375 C 22.796875 11.550781 22.722656 11.378906 22.785156 11.222656 C 23.144531 10.304688 23.632812 9.457031 24.25 8.679688 C 24.347656 8.5625 24.515625 8.535156 24.640625 8.613281 Z M 24.640625 8.613281 " fill-opacity="1" fill-rule="nonzero"/><path fill="#001528" d="M 28.835938 12.871094 C 28.894531 13.023438 28.820312 13.195312 28.667969 13.257812 C 27.800781 13.597656 27.003906 14.058594 26.277344 14.636719 C 26.148438 14.738281 25.960938 14.71875 25.859375 14.589844 C 25.753906 14.460938 25.777344 14.273438 25.90625 14.171875 C 26.679688 13.554688 27.527344 13.066406 28.449219 12.703125 C 28.589844 12.644531 28.75 12.707031 28.820312 12.839844 Z M 28.835938 12.871094 " fill-opacity="1" fill-rule="nonzero"/><path fill="#001528" d="M 30.324219 18.621094 C 30.300781 18.785156 30.148438 18.898438 29.984375 18.871094 C 29.066406 18.734375 28.144531 18.734375 27.226562 18.871094 C 27.0625 18.898438 26.910156 18.785156 26.886719 18.621094 C 26.863281 18.460938 26.972656 18.308594 27.136719 18.285156 C 28.117188 18.136719 29.09375 18.136719 30.074219 18.285156 C 30.226562 18.304688 30.332031 18.4375 30.328125 18.589844 Z M 30.324219 18.621094 " fill-opacity="1" fill-rule="nonzero"/><path fill="#001528" d="M 28.738281 24.347656 C 28.636719 24.476562 28.449219 24.5 28.320312 24.394531 C 27.589844 23.816406 26.796875 23.355469 25.929688 23.015625 C 25.777344 22.957031 25.703125 22.78125 25.761719 22.628906 C 25.820312 22.476562 25.996094 22.402344 26.144531 22.460938 C 27.070312 22.824219 27.917969 23.3125 28.691406 23.929688 C 28.808594 24.027344 28.835938 24.191406 28.757812 24.320312 Z M 28.738281 24.347656 " fill-opacity="1" fill-rule="nonzero"/><path fill="#001528" d="M 24.5 28.511719 C 24.347656 28.574219 24.175781 28.5 24.117188 28.347656 C 23.773438 27.480469 23.3125 26.683594 22.734375 25.957031 C 22.632812 25.828125 22.652344 25.640625 22.78125 25.535156 C 22.910156 25.433594 23.097656 25.453125 23.199219 25.582031 C 23.816406 26.359375 24.308594 27.207031 24.667969 28.128906 C 24.722656 28.269531 24.664062 28.429688 24.53125 28.5 Z M 24.5 28.511719 " fill-opacity="1" fill-rule="nonzero"/><path fill="#001528" d="M 18.75 30.003906 C 18.585938 29.980469 18.476562 29.828125 18.5 29.664062 C 18.636719 28.746094 18.636719 27.824219 18.5 26.902344 C 18.476562 26.742188 18.585938 26.589844 18.75 26.566406 C 18.914062 26.539062 19.0625 26.652344 19.085938 26.816406 C 19.234375 27.792969 19.234375 28.773438 19.085938 29.753906 C 19.0625 29.902344 18.933594 30.011719 18.785156 30.007812 Z M 18.75 30.003906 " fill-opacity="1" fill-rule="nonzero"/><path fill="#001528" d="M 13.023438 28.414062 C 12.894531 28.3125 12.875 28.125 12.976562 28 C 13.554688 27.269531 14.015625 26.472656 14.355469 25.605469 C 14.417969 25.453125 14.589844 25.378906 14.742188 25.4375 C 14.894531 25.5 14.96875 25.671875 14.910156 25.824219 C 14.546875 26.746094 14.058594 27.59375 13.441406 28.371094 C 13.347656 28.488281 13.179688 28.515625 13.050781 28.4375 Z M 13.023438 28.414062 " fill-opacity="1" fill-rule="nonzero"/><path fill="#001528" d="M 8.855469 24.179688 C 8.796875 24.027344 8.871094 23.851562 9.027344 23.792969 C 9.890625 23.453125 10.6875 22.992188 11.417969 22.414062 C 11.546875 22.3125 11.734375 22.332031 11.835938 22.460938 C 11.9375 22.589844 11.914062 22.777344 11.789062 22.878906 C 11.011719 23.496094 10.164062 23.984375 9.242188 24.347656 C 9.101562 24.402344 8.941406 24.34375 8.871094 24.210938 Z M 8.855469 24.179688 " fill-opacity="1" fill-rule="nonzero"/><path fill="#001528" d="M 7.367188 18.425781 C 7.394531 18.265625 7.542969 18.152344 7.707031 18.175781 C 8.628906 18.316406 9.546875 18.316406 10.46875 18.175781 C 10.628906 18.152344 10.78125 18.265625 10.804688 18.425781 C 10.832031 18.589844 10.71875 18.742188 10.554688 18.765625 C 9.578125 18.914062 8.597656 18.914062 7.617188 18.765625 C 7.46875 18.742188 7.359375 18.613281 7.367188 18.460938 Z M 7.367188 18.425781 " fill-opacity="1" fill-rule="nonzero"/><path fill="#001528" d="M 8.953125 12.703125 C 9.058594 12.574219 9.246094 12.550781 9.375 12.652344 C 10.101562 13.234375 10.898438 13.695312 11.765625 14.035156 C 11.917969 14.09375 11.992188 14.269531 11.933594 14.417969 C 11.871094 14.574219 11.699219 14.648438 11.546875 14.589844 C 10.625 14.226562 9.777344 13.734375 9.003906 13.121094 C 8.882812 13.023438 8.855469 12.855469 8.933594 12.730469 Z M 8.953125 12.703125 " fill-opacity="1" fill-rule="nonzero"/><path fill="#001528" d="M 13.191406 8.535156 C 13.34375 8.476562 13.515625 8.550781 13.578125 8.703125 C 13.917969 9.570312 14.378906 10.367188 14.960938 11.09375 C 15.0625 11.222656 15.039062 11.410156 14.910156 11.511719 C 14.78125 11.617188 14.59375 11.59375 14.492188 11.464844 C 13.875 10.691406 13.386719 9.84375 13.023438 8.921875 C 12.96875 8.78125 13.027344 8.621094 13.160156 8.550781 Z M 13.191406 8.535156 " fill-opacity="1" fill-rule="nonzero"/><path fill="#001528" d="M 15.625 19.121094 C 15.625 19.613281 15.226562 20.011719 14.734375 20.011719 C 14.238281 20.011719 13.839844 19.613281 13.839844 19.121094 C 13.839844 18.628906 14.238281 18.226562 14.734375 18.226562 C 15.226562 18.226562 15.625 18.628906 15.625 19.121094 Z M 15.625 19.121094 " fill-opacity="1" fill-rule="nonzero"/><path fill="#001528" d="M 23.960938 19.121094 C 23.960938 19.613281 23.558594 20.011719 23.066406 20.011719 C 22.574219 20.011719 22.175781 19.613281 22.175781 19.121094 C 22.175781 18.628906 22.574219 18.226562 23.066406 18.226562 C 23.558594 18.226562 23.960938 18.628906 23.960938 19.121094 Z M 23.960938 19.121094 " fill-opacity="1" fill-rule="nonzero"/><path fill="#001528" d="M 21.792969 22.1875 C 21.90625 22.304688 21.90625 22.496094 21.785156 22.609375 C 21.667969 22.722656 21.476562 22.71875 21.363281 22.601562 C 20.695312 21.90625 19.824219 21.515625 18.898438 21.515625 C 17.976562 21.515625 17.105469 21.90625 16.433594 22.601562 C 16.320312 22.71875 16.132812 22.722656 16.015625 22.609375 C 15.894531 22.496094 15.890625 22.304688 16.007812 22.1875 C 16.785156 21.378906 17.808594 20.921875 18.898438 20.921875 C 19.988281 20.921875 21.015625 21.378906 21.792969 22.1875 Z M 21.792969 22.1875 " fill-opacity="1" fill-rule="nonzero"/></svg>