<svg xmlns="http://www.w3.org/2000/svg" xmlns:xlink="http://www.w3.org/1999/xlink" width="150" zoomAndPan="magnify" viewBox="0 0 112.5 224.999993" height="300" preserveAspectRatio="xMidYMid meet" version="1.0"><defs><clipPath id="0e8925a202"><path d="M 2.191406 2.609375 L 112.003906 2.609375 L 112.003906 224 L 2.191406 224 Z M 2.191406 2.609375 " clip-rule="nonzero"/></clipPath><clipPath id="d86d749119"><path d="M 113.800781 2.609375 C 52.160156 2.609375 2.191406 52.015625 2.191406 112.957031 C 2.191406 173.902344 52.160156 223.308594 113.800781 223.308594 C 175.441406 223.308594 225.410156 173.902344 225.410156 112.957031 C 225.410156 52.015625 175.441406 2.609375 113.800781 2.609375 " clip-rule="nonzero"/></clipPath><clipPath id="347ade8498"><path d="M 2.195312 2.609375 L 112.003906 2.609375 L 112.003906 223.109375 L 2.195312 223.109375 Z M 2.195312 2.609375 " clip-rule="nonzero"/></clipPath><clipPath id="0b799a2b96"><path d="M 113.941406 2.609375 C 52.226562 2.609375 2.195312 51.972656 2.195312 112.859375 C 2.195312 173.75 52.226562 223.109375 113.941406 223.109375 C 175.65625 223.109375 225.6875 173.75 225.6875 112.859375 C 225.6875 51.972656 175.65625 2.609375 113.941406 2.609375 " clip-rule="nonzero"/></clipPath><clipPath id="d94c31809c"><path d="M 16 16.609375 L 112.003906 16.609375 L 112.003906 210 L 16 210 Z M 16 16.609375 " clip-rule="nonzero"/></clipPath><clipPath id="4d0a1a0a85"><path d="M 109 37 L 112.003906 37 L 112.003906 61 L 109 61 Z M 109 37 " clip-rule="nonzero"/></clipPath><clipPath id="0ab4b21713"><path d="M 109 166 L 112.003906 166 L 112.003906 190 L 109 190 Z M 109 166 " clip-rule="nonzero"/></clipPath><clipPath id="8b2c8fb7d7"><path d="M 99 129 L 112.003906 129 L 112.003906 141 L 99 141 Z M 99 129 " clip-rule="nonzero"/></clipPath></defs><g clip-path="url(#0e8925a202)"><g clip-path="url(#d86d749119)"><path fill="#38b6ff" d="M 2.191406 2.609375 L 226.136719 2.609375 L 226.136719 223.109375 L 2.191406 223.109375 Z M 2.191406 2.609375 " fill-opacity="1" fill-rule="nonzero"/></g></g><g clip-path="url(#347ade8498)"><g clip-path="url(#0b799a2b96)"><path stroke-linecap="butt" transform="matrix(0.750945, 0, 0, 0.749363, 2.195095, 2.610093)" fill="none" stroke-linejoin="miter" d="M 148.807599 -0.000957944 C 66.624682 -0.000957944 0.000289112 65.872713 0.000289112 147.124031 C 0.000289112 228.380562 66.624682 294.24902 148.807599 294.24902 C 230.990515 294.24902 297.614908 228.380562 297.614908 147.124031 C 297.614908 65.872713 230.990515 -0.000957944 148.807599 -0.000957944 " stroke="#fafafa" stroke-width="12" stroke-opacity="1" stroke-miterlimit="4"/></g></g><g clip-path="url(#d94c31809c)"><path fill="#000000" d="M 111.011719 17.652344 C 111.800781 16.617188 113.359375 16.617188 114.152344 17.652344 C 114.386719 17.960938 114.613281 18.257812 114.828125 18.554688 L 116.140625 20.339844 L 117.402344 22.09375 C 119.699219 25.34375 121.699219 28.421875 123.378906 31.324219 C 126.394531 28.328125 129.964844 25.191406 134.066406 21.898438 L 135.832031 20.511719 C 136.867188 19.703125 138.375 20.113281 138.867188 21.324219 L 139.699219 23.40625 C 141.617188 28.308594 143.132812 32.808594 144.242188 36.914062 C 147.152344 35.242188 150.425781 33.578125 154.046875 31.90625 L 156.003906 31.027344 L 158.035156 30.132812 L 159.070312 29.691406 C 160.28125 29.179688 161.636719 29.96875 161.800781 31.261719 C 161.839844 31.640625 161.882812 32.011719 161.933594 32.390625 L 162.179688 34.585938 L 162.382812 36.726562 C 162.753906 40.695312 162.949219 44.359375 162.949219 47.722656 C 164.753906 47.238281 166.660156 46.789062 168.679688 46.367188 L 170.640625 45.980469 C 171.304688 45.84375 171.984375 45.722656 172.671875 45.597656 L 174.761719 45.238281 C 176.179688 45.003906 177.644531 44.789062 179.140625 44.574219 C 180.433594 44.398438 181.542969 45.507812 181.367188 46.800781 L 181.039062 49.015625 L 180.699219 51.179688 C 180.179688 54.359375 179.59375 57.332031 178.945312 60.082031 L 178.507812 61.886719 C 178.414062 62.265625 178.320312 62.625 178.230469 62.992188 C 181.582031 62.992188 185.246094 63.1875 189.214844 63.558594 L 191.355469 63.761719 L 193.550781 64.007812 L 194.679688 64.140625 C 195.972656 64.304688 196.761719 65.660156 196.25 66.871094 C 196.105469 67.21875 195.953125 67.566406 195.808594 67.90625 L 194.914062 69.9375 L 194.035156 71.894531 C 192.363281 75.515625 190.699219 78.789062 189.027344 81.699219 C 192.269531 82.570312 195.757812 83.699219 199.488281 85.085938 L 201.511719 85.84375 L 203.570312 86.652344 L 204.617188 87.074219 C 205.828125 87.566406 206.238281 89.074219 205.429688 90.109375 L 204.042969 91.875 C 203.347656 92.734375 202.667969 93.574219 201.980469 94.398438 L 200.636719 95.996094 C 199.296875 97.566406 197.980469 99.03125 196.699219 100.40625 L 195.417969 101.75 C 195.152344 102.027344 194.886719 102.292969 194.617188 102.558594 C 197.519531 104.242188 200.597656 106.242188 203.847656 108.539062 L 205.601562 109.800781 L 207.386719 111.113281 L 208.289062 111.789062 C 209.324219 112.582031 209.324219 114.140625 208.289062 114.929688 C 207.980469 115.164062 207.683594 115.390625 207.386719 115.605469 L 205.601562 116.917969 L 203.847656 118.179688 C 200.597656 120.476562 197.519531 122.476562 194.617188 124.160156 C 195.929688 125.480469 197.273438 126.90625 198.648438 128.445312 L 199.972656 129.953125 C 200.636719 130.722656 201.304688 131.511719 201.980469 132.324219 L 203.355469 133.996094 L 204.730469 135.726562 L 205.429688 136.609375 C 206.238281 137.644531 205.828125 139.152344 204.617188 139.644531 L 202.535156 140.476562 C 201.5 140.886719 200.484375 141.265625 199.488281 141.636719 L 197.519531 142.34375 C 195.582031 143.039062 193.707031 143.65625 191.902344 144.199219 L 190.125 144.722656 C 189.757812 144.824219 189.386719 144.925781 189.027344 145.019531 C 190.699219 147.933594 192.363281 151.203125 194.035156 154.824219 L 194.914062 156.78125 L 195.808594 158.8125 L 196.25 159.851562 C 196.761719 161.058594 195.972656 162.414062 194.679688 162.578125 C 194.300781 162.617188 193.929688 162.660156 193.550781 162.710938 L 191.355469 162.957031 L 189.214844 163.164062 C 185.246094 163.53125 181.582031 163.726562 178.21875 163.726562 C 178.699219 165.53125 179.152344 167.4375 179.574219 169.460938 L 179.960938 171.417969 C 180.484375 174.085938 180.945312 176.914062 181.367188 179.921875 C 181.542969 181.210938 180.433594 182.320312 179.140625 182.144531 C 178.394531 182.042969 177.65625 181.929688 176.925781 181.816406 L 174.761719 181.480469 C 174.414062 181.417969 174.054688 181.367188 173.707031 181.304688 L 171.65625 180.9375 C 168.515625 180.351562 165.613281 179.714844 162.949219 179.007812 C 162.949219 182.363281 162.753906 186.023438 162.382812 189.992188 L 162.179688 192.136719 L 161.933594 194.328125 L 161.800781 195.457031 C 161.636719 196.75 160.28125 197.539062 159.070312 197.027344 C 158.722656 196.882812 158.375 196.730469 158.035156 196.585938 L 156.003906 195.695312 L 154.046875 194.8125 C 150.425781 193.140625 147.152344 191.480469 144.242188 189.808594 C 142.980469 194.484375 141.183594 199.683594 138.867188 205.394531 C 138.375 206.605469 136.867188 207.015625 135.832031 206.207031 C 130.96875 202.421875 126.816406 198.8125 123.378906 195.398438 C 121.699219 198.300781 119.699219 201.375 117.402344 204.625 L 116.140625 206.378906 L 114.828125 208.164062 L 114.152344 209.066406 C 113.359375 210.105469 111.800781 210.105469 111.011719 209.066406 C 110.777344 208.761719 110.550781 208.460938 110.335938 208.164062 L 109.023438 206.378906 L 107.761719 204.625 C 105.464844 201.375 103.464844 198.300781 101.78125 195.398438 C 98.347656 198.8125 94.191406 202.421875 89.332031 206.207031 C 88.296875 207.015625 86.789062 206.605469 86.296875 205.394531 C 83.976562 199.683594 82.183594 194.484375 80.910156 189.796875 C 78.007812 191.480469 74.738281 193.140625 71.117188 194.8125 L 69.15625 195.695312 L 67.128906 196.585938 L 66.089844 197.027344 C 64.882812 197.539062 63.527344 196.75 63.363281 195.457031 C 63.324219 195.078125 63.28125 194.710938 63.230469 194.328125 L 62.984375 192.136719 L 62.777344 189.992188 C 62.410156 186.023438 62.214844 182.363281 62.214844 178.996094 C 59.546875 179.714844 56.644531 180.351562 53.507812 180.9375 L 51.457031 181.304688 C 51.109375 181.367188 50.75 181.417969 50.398438 181.480469 L 48.234375 181.816406 C 47.507812 181.929688 46.769531 182.042969 46.019531 182.144531 C 44.726562 182.320312 43.621094 181.210938 43.796875 179.921875 C 44.214844 176.914062 44.675781 174.085938 45.199219 171.417969 L 45.589844 169.460938 C 46.011719 167.4375 46.460938 165.53125 46.933594 163.726562 C 43.578125 163.726562 39.917969 163.53125 35.949219 163.164062 L 33.804688 162.957031 L 31.609375 162.710938 L 30.484375 162.578125 C 29.191406 162.414062 28.402344 161.058594 28.914062 159.851562 C 29.058594 159.5 29.210938 159.152344 29.355469 158.8125 L 30.246094 156.78125 L 31.128906 154.824219 C 32.800781 151.203125 34.460938 147.933594 36.132812 145.019531 C 35.773438 144.925781 35.40625 144.824219 35.035156 144.722656 L 33.261719 144.199219 C 31.457031 143.65625 29.582031 143.039062 27.640625 142.34375 L 25.671875 141.636719 C 24.679688 141.265625 23.664062 140.886719 22.625 140.476562 L 20.546875 139.644531 C 19.335938 139.152344 18.925781 137.644531 19.734375 136.609375 C 19.960938 136.3125 20.195312 136.015625 20.433594 135.726562 L 21.804688 133.996094 L 23.179688 132.324219 C 23.859375 131.511719 24.523438 130.722656 25.191406 129.953125 L 26.515625 128.445312 C 27.886719 126.90625 29.230469 125.480469 30.542969 124.160156 C 27.640625 122.476562 24.566406 120.476562 21.3125 118.179688 L 19.558594 116.917969 L 17.777344 115.605469 L 16.875 114.929688 C 15.835938 114.140625 15.835938 112.582031 16.875 111.789062 C 17.179688 111.554688 17.476562 111.328125 17.777344 111.113281 L 19.558594 109.800781 L 21.3125 108.539062 C 24.566406 106.242188 27.640625 104.242188 30.542969 102.558594 C 30.277344 102.292969 30.011719 102.027344 29.746094 101.75 L 28.460938 100.40625 C 27.179688 99.03125 25.867188 97.566406 24.523438 95.996094 L 23.179688 94.398438 C 22.492188 93.574219 21.816406 92.734375 21.121094 91.875 L 19.734375 90.109375 C 18.925781 89.074219 19.335938 87.566406 20.546875 87.074219 C 20.894531 86.929688 21.242188 86.785156 21.589844 86.652344 L 23.652344 85.84375 L 25.671875 85.085938 C 29.40625 83.699219 32.894531 82.570312 36.144531 81.691406 C 34.460938 78.789062 32.800781 75.515625 31.128906 71.894531 L 30.246094 69.9375 L 29.355469 67.90625 L 28.914062 66.871094 C 28.402344 65.660156 29.191406 64.304688 30.484375 64.140625 C 30.863281 64.101562 31.230469 64.058594 31.609375 64.007812 L 33.804688 63.761719 L 35.949219 63.558594 C 39.917969 63.1875 43.578125 62.992188 46.945312 62.992188 C 46.839844 62.625 46.75 62.265625 46.65625 61.886719 L 46.214844 60.082031 C 45.570312 57.332031 44.984375 54.359375 44.460938 51.179688 L 44.125 49.015625 L 43.796875 46.800781 C 43.621094 45.507812 44.726562 44.398438 46.019531 44.574219 C 47.519531 44.789062 48.984375 45.003906 50.398438 45.238281 L 52.492188 45.597656 C 53.179688 45.722656 53.855469 45.84375 54.523438 45.980469 L 56.480469 46.367188 C 58.503906 46.789062 60.410156 47.238281 62.214844 47.710938 C 62.214844 44.359375 62.410156 40.695312 62.777344 36.726562 L 62.984375 34.585938 L 63.230469 32.390625 L 63.363281 31.261719 C 63.527344 29.96875 64.882812 29.179688 66.089844 29.691406 C 66.441406 29.835938 66.789062 29.988281 67.128906 30.132812 L 69.15625 31.027344 L 71.117188 31.90625 C 74.738281 33.578125 78.007812 35.242188 80.921875 36.914062 C 82.027344 32.808594 83.546875 28.308594 85.464844 23.40625 L 86.296875 21.324219 C 86.789062 20.113281 88.296875 19.703125 89.332031 20.511719 L 91.09375 21.898438 C 95.199219 25.191406 98.765625 28.328125 101.78125 31.324219 C 103.464844 28.421875 105.464844 25.34375 107.761719 22.09375 L 109.023438 20.339844 L 110.335938 18.554688 Z M 124.816406 169.152344 L 124.539062 169.214844 C 120.683594 170.035156 116.683594 170.464844 112.582031 170.464844 C 108.375 170.464844 104.285156 170.011719 100.347656 169.152344 C 99.339844 171.019531 98.796875 173.101562 98.796875 175.386719 C 98.796875 181.652344 102.644531 190.414062 110.398438 201.53125 L 111.597656 203.210938 L 112.582031 204.574219 L 112.949219 204.074219 C 113.15625 203.785156 113.371094 203.5 113.566406 203.210938 L 114.765625 201.53125 C 122.519531 190.414062 126.367188 181.652344 126.367188 175.386719 C 126.367188 173.101562 125.820312 171.019531 124.816406 169.152344 Z M 95.105469 178.578125 L 94.921875 178.8125 C 92.5 181.796875 89.003906 184.742188 84.429688 187.675781 C 85.445312 191.632812 86.878906 196.042969 88.746094 200.882812 L 88.972656 201.46875 L 90.285156 200.410156 C 93.96875 197.386719 97.136719 194.515625 99.800781 191.796875 C 97.238281 186.84375 95.679688 182.445312 95.105469 178.578125 Z M 130.058594 178.578125 L 130.015625 178.875 C 129.402344 182.667969 127.851562 186.964844 125.359375 191.796875 C 128.222656 194.710938 131.667969 197.808594 135.699219 201.078125 L 136.191406 201.46875 L 136.796875 199.898438 C 138.476562 195.4375 139.789062 191.367188 140.734375 187.675781 C 136.035156 184.667969 132.488281 181.644531 130.058594 178.578125 Z M 74.101562 155.550781 L 74.070312 155.5625 C 72.277344 156.679688 70.769531 158.21875 69.628906 160.1875 C 66.492188 165.613281 65.457031 175.121094 66.605469 188.628906 L 66.800781 190.679688 L 66.902344 191.734375 L 66.972656 192.359375 L 68.511719 191.671875 L 70.386719 190.8125 C 82.65625 185.058594 90.367188 179.398438 93.503906 173.972656 C 94.644531 171.992188 95.21875 169.921875 95.289062 167.796875 C 87.320312 165.273438 80.121094 161.050781 74.101562 155.550781 Z M 151.070312 155.550781 C 145.042969 161.050781 137.832031 165.273438 129.871094 167.796875 C 129.945312 169.921875 130.519531 171.992188 131.65625 173.972656 C 134.796875 179.398438 142.507812 185.058594 154.773438 190.8125 L 156.652344 191.671875 L 157.613281 192.105469 L 158.1875 192.351562 L 158.363281 190.679688 L 158.558594 188.628906 C 159.707031 175.121094 158.671875 165.613281 155.53125 160.1875 C 154.382812 158.207031 152.875 156.671875 151.070312 155.550781 Z M 160.324219 161.101562 L 160.433594 161.386719 C 161.808594 164.96875 162.609375 169.46875 162.867188 174.894531 C 166.804688 175.992188 171.335938 176.957031 176.464844 177.765625 L 177.082031 177.859375 L 176.988281 177.242188 L 176.648438 175.171875 C 176.589844 174.832031 176.527344 174.496094 176.464844 174.167969 L 176.105469 172.199219 L 175.726562 170.289062 C 175.222656 167.910156 174.691406 165.695312 174.117188 163.644531 C 168.546875 163.386719 163.953125 162.546875 160.324219 161.101562 Z M 64.839844 161.101562 L 64.554688 161.214844 C 60.964844 162.589844 56.472656 163.386719 51.046875 163.644531 C 50.472656 165.695312 49.9375 167.910156 49.4375 170.289062 L 49.054688 172.199219 L 48.699219 174.167969 C 48.511719 175.160156 48.339844 176.1875 48.175781 177.242188 L 48.082031 177.859375 L 49.742188 177.59375 C 54.441406 176.824219 58.636719 175.921875 62.296875 174.894531 C 62.554688 169.324219 63.394531 164.730469 64.839844 161.101562 Z M 112.582031 60.191406 C 83.21875 60.191406 59.414062 83.996094 59.414062 113.359375 C 59.414062 142.722656 83.21875 166.527344 112.582031 166.527344 C 141.945312 166.527344 165.746094 142.722656 165.746094 113.359375 C 165.746094 83.996094 141.945312 60.191406 112.582031 60.191406 Z M 173.195312 132.4375 C 171.214844 131.296875 169.144531 130.722656 167.019531 130.652344 C 164.496094 138.621094 160.269531 145.820312 154.773438 151.839844 C 155.890625 153.65625 157.429688 155.164062 159.410156 156.3125 C 164.835938 159.449219 174.34375 160.484375 187.847656 159.335938 L 189.902344 159.140625 L 190.957031 159.039062 L 191.582031 158.96875 L 190.894531 157.429688 L 190.035156 155.550781 C 184.28125 143.285156 178.617188 135.574219 173.195312 132.4375 Z M 58.144531 130.652344 C 56.011719 130.722656 53.9375 131.296875 51.96875 132.4375 C 46.542969 135.574219 40.882812 143.285156 35.128906 155.550781 L 34.265625 157.429688 L 33.582031 158.96875 L 34.207031 159.039062 C 34.566406 159.070312 34.914062 159.109375 35.261719 159.140625 L 37.3125 159.335938 C 50.820312 160.484375 60.328125 159.449219 65.753906 156.3125 C 67.730469 155.164062 69.269531 153.65625 70.386719 151.851562 C 64.890625 145.820312 60.667969 138.621094 58.144531 130.652344 Z M 191.019531 126.136719 L 190.453125 126.425781 C 185.726562 128.816406 181.519531 130.292969 177.796875 130.835938 C 180.863281 133.265625 183.890625 136.816406 186.894531 141.511719 C 189.5 140.84375 192.300781 139.996094 195.296875 138.957031 L 197.183594 138.28125 L 199.121094 137.574219 L 200.691406 136.96875 L 200.300781 136.476562 L 198.964844 134.855469 C 198.75 134.589844 198.527344 134.332031 198.308594 134.078125 L 197.007812 132.546875 L 195.726562 131.09375 C 194.117188 129.289062 192.535156 127.625 191.019531 126.136719 Z M 34.144531 126.136719 C 32.625 127.625 31.046875 129.289062 29.4375 131.09375 L 28.15625 132.546875 L 26.851562 134.078125 C 26.195312 134.847656 25.53125 135.65625 24.863281 136.476562 L 24.472656 136.96875 L 26.042969 137.574219 L 27.980469 138.28125 L 29.867188 138.957031 C 32.863281 139.996094 35.664062 140.84375 38.265625 141.511719 C 41.273438 136.816406 44.296875 133.265625 47.363281 130.835938 C 43.496094 130.261719 39.097656 128.703125 34.144531 126.136719 Z M 50.554688 99.574219 C 44.289062 99.574219 35.527344 103.421875 24.410156 111.175781 L 22.730469 112.375 L 21.867188 112.992188 L 21.367188 113.359375 L 22.730469 114.34375 L 24.410156 115.542969 C 35.527344 123.296875 44.289062 127.144531 50.554688 127.144531 C 52.839844 127.144531 54.921875 126.601562 56.789062 125.59375 C 55.929688 121.65625 55.476562 117.566406 55.476562 113.359375 C 55.476562 109.15625 55.929688 105.0625 56.789062 101.125 C 54.921875 100.121094 52.839844 99.574219 50.554688 99.574219 Z M 174.609375 99.574219 C 172.320312 99.574219 170.238281 100.121094 168.375 101.125 C 169.234375 105.0625 169.6875 109.15625 169.6875 113.359375 C 169.6875 117.566406 169.234375 121.65625 168.375 125.59375 C 170.238281 126.601562 172.320312 127.144531 174.609375 127.144531 C 180.875 127.144531 189.632812 123.296875 200.75 115.542969 L 202.433594 114.34375 L 203.796875 113.359375 L 203.292969 112.992188 C 203.007812 112.785156 202.71875 112.570312 202.433594 112.375 L 200.75 111.175781 C 189.632812 103.421875 180.875 99.574219 174.609375 99.574219 Z M 38.265625 85.207031 C 36.195312 85.742188 34.011719 86.386719 31.703125 87.144531 L 29.867188 87.761719 L 27.980469 88.4375 C 27.027344 88.777344 26.050781 89.144531 25.058594 89.523438 L 24.472656 89.75 L 25.53125 91.0625 L 26.851562 92.644531 C 29.394531 95.65625 31.828125 98.304688 34.144531 100.582031 C 39.097656 98.027344 43.496094 96.457031 47.363281 95.882812 C 44.421875 93.554688 41.507812 90.171875 38.605469 85.742188 Z M 186.894531 85.207031 L 186.558594 85.742188 C 183.65625 90.171875 180.742188 93.554688 177.796875 95.882812 C 181.664062 96.457031 186.066406 98.027344 191.019531 100.582031 C 193.335938 98.304688 195.765625 95.65625 198.308594 92.644531 L 199.632812 91.0625 L 200.691406 89.75 L 199.121094 89.144531 C 198.464844 88.898438 197.816406 88.664062 197.183594 88.4375 L 195.296875 87.761719 L 193.460938 87.144531 C 191.152344 86.386719 188.96875 85.742188 186.894531 85.207031 Z M 65.753906 70.40625 C 60.328125 67.269531 50.820312 66.234375 37.3125 67.382812 L 35.261719 67.578125 L 33.582031 67.75 L 33.835938 68.324219 C 33.980469 68.644531 34.125 68.972656 34.265625 69.289062 L 35.128906 71.167969 C 40.882812 83.433594 46.542969 91.144531 51.96875 94.285156 C 53.949219 95.421875 56.019531 95.996094 58.144531 96.066406 C 60.667969 88.097656 64.890625 80.898438 70.386719 74.878906 C 69.269531 73.0625 67.730469 71.558594 65.753906 70.40625 Z M 187.847656 67.382812 C 174.34375 66.234375 164.835938 67.269531 159.410156 70.40625 C 157.429688 71.558594 155.890625 73.0625 154.773438 74.871094 C 160.269531 80.898438 164.496094 88.097656 167.019531 96.066406 C 169.144531 95.996094 171.214844 95.421875 173.195312 94.285156 C 178.617188 91.144531 184.28125 83.433594 190.035156 71.167969 L 190.894531 69.289062 L 191.324219 68.324219 L 191.582031 67.75 L 189.902344 67.578125 Z M 66.972656 34.359375 L 66.902344 34.984375 C 66.871094 35.34375 66.828125 35.691406 66.800781 36.039062 L 66.605469 38.089844 C 65.457031 51.597656 66.492188 61.105469 69.628906 66.53125 C 70.777344 68.511719 72.285156 70.050781 74.089844 71.167969 C 80.121094 65.667969 87.320312 61.445312 95.289062 58.921875 C 95.21875 56.796875 94.644531 54.726562 93.503906 52.746094 C 90.367188 47.320312 82.65625 41.660156 70.386719 35.90625 L 68.511719 35.046875 Z M 158.1875 34.359375 L 157.613281 34.613281 C 157.296875 34.757812 156.96875 34.902344 156.652344 35.046875 L 154.773438 35.90625 C 142.507812 41.660156 134.796875 47.320312 131.65625 52.746094 C 130.519531 54.726562 129.945312 56.796875 129.871094 58.921875 C 137.839844 61.445312 145.042969 65.667969 151.0625 71.167969 C 152.875 70.050781 154.382812 68.511719 155.53125 66.53125 C 158.671875 61.105469 159.707031 51.597656 158.558594 38.089844 L 158.363281 36.039062 Z M 177.082031 48.859375 L 175.417969 49.128906 C 174.730469 49.238281 174.054688 49.351562 173.386719 49.476562 L 171.417969 49.835938 L 169.511719 50.214844 C 167.132812 50.714844 164.917969 51.25 162.867188 51.824219 C 162.609375 57.394531 161.769531 61.988281 160.324219 65.617188 C 163.953125 64.171875 168.546875 63.332031 174.117188 63.074219 C 175.214844 59.136719 176.179688 54.605469 176.988281 49.476562 Z M 48.082031 48.859375 L 48.347656 50.523438 C 49.117188 55.21875 50.019531 59.414062 51.046875 63.074219 C 56.613281 63.332031 61.210938 64.171875 64.839844 65.617188 C 63.394531 61.988281 62.554688 57.394531 62.296875 51.824219 C 60.246094 51.25 58.03125 50.714844 55.652344 50.214844 L 53.742188 49.835938 L 51.773438 49.476562 C 50.78125 49.292969 49.753906 49.117188 48.699219 48.953125 Z M 112.582031 22.144531 L 112.210938 22.644531 C 112.007812 22.933594 111.792969 23.21875 111.597656 23.507812 L 110.398438 25.191406 C 102.644531 36.308594 98.796875 45.066406 98.796875 51.332031 C 98.796875 53.621094 99.339844 55.699219 100.347656 57.566406 C 104.285156 56.707031 108.375 56.253906 112.582031 56.253906 C 116.785156 56.253906 120.878906 56.707031 124.816406 57.566406 C 125.820312 55.699219 126.367188 53.621094 126.367188 51.332031 C 126.367188 45.066406 122.519531 36.308594 114.765625 25.191406 L 113.566406 23.507812 Z M 88.972656 25.25 L 88.746094 25.835938 C 87.597656 28.808594 86.613281 31.628906 85.792969 34.265625 L 85.269531 36.011719 C 84.960938 37.046875 84.683594 38.0625 84.429688 39.046875 C 89.125 42.050781 92.683594 45.074219 95.105469 48.140625 C 95.679688 44.277344 97.238281 39.875 99.800781 34.921875 C 99.09375 34.203125 98.347656 33.464844 97.566406 32.71875 L 96.234375 31.476562 C 94.203125 29.589844 91.945312 27.652344 89.464844 25.640625 Z M 136.191406 25.25 L 135.699219 25.640625 C 133.214844 27.652344 130.960938 29.589844 128.929688 31.476562 L 127.597656 32.71875 C 126.816406 33.464844 126.066406 34.203125 125.359375 34.921875 C 127.925781 39.875 129.484375 44.277344 130.058594 48.140625 C 132.476562 45.074219 136.035156 42.050781 140.734375 39.046875 C 140.476562 38.0625 140.199219 37.046875 139.894531 36.011719 L 139.371094 34.265625 C 138.550781 31.628906 137.566406 28.808594 136.417969 25.835938 Z M 136.191406 25.25 " fill-opacity="1" fill-rule="nonzero"/></g><g clip-path="url(#4d0a1a0a85)"><path fill="#000000" d="M 112.867188 37.425781 C 113.945312 37.589844 114.695312 38.59375 114.53125 39.671875 C 113.617188 45.753906 113.617188 51.84375 114.53125 57.9375 C 114.695312 59.003906 113.945312 60.007812 112.867188 60.171875 C 111.800781 60.335938 110.796875 59.589844 110.632812 58.511719 C 109.660156 52.039062 109.660156 45.558594 110.632812 39.085938 C 110.785156 38.082031 111.660156 37.375 112.644531 37.40625 Z M 112.867188 37.425781 " fill-opacity="1" fill-rule="nonzero"/></g><g clip-path="url(#0ab4b21713)"><path fill="#000000" d="M 111.585938 189.292969 C 110.507812 189.128906 109.769531 188.125 109.925781 187.046875 C 110.835938 180.964844 110.835938 174.875 109.925781 168.78125 C 109.769531 167.714844 110.507812 166.710938 111.585938 166.546875 C 112.664062 166.382812 113.660156 167.132812 113.824219 168.207031 C 114.796875 174.679688 114.796875 181.160156 113.824219 187.632812 C 113.667969 188.636719 112.796875 189.34375 111.8125 189.316406 Z M 111.585938 189.292969 " fill-opacity="1" fill-rule="nonzero"/></g><path fill="#000000" d="M 73.703125 178.792969 C 72.851562 178.117188 72.714844 176.875 73.394531 176.035156 C 77.230469 171.214844 80.265625 165.941406 82.519531 160.207031 C 82.921875 159.203125 84.058594 158.699219 85.074219 159.101562 C 86.089844 159.5 86.582031 160.640625 86.183594 161.65625 C 83.792969 167.746094 80.550781 173.355469 76.46875 178.484375 C 75.84375 179.273438 74.726562 179.449219 73.894531 178.925781 Z M 73.703125 178.792969 " fill-opacity="1" fill-rule="nonzero"/><path fill="#000000" d="M 46.144531 150.761719 C 45.753906 149.757812 46.246094 148.609375 47.261719 148.210938 C 52.984375 145.964844 58.257812 142.917969 63.074219 139.082031 C 63.925781 138.40625 65.167969 138.546875 65.84375 139.398438 C 66.523438 140.25 66.378906 141.480469 65.527344 142.160156 C 60.410156 146.238281 54.800781 149.480469 48.699219 151.882812 C 47.765625 152.25 46.707031 151.851562 46.246094 150.976562 Z M 46.144531 150.761719 " fill-opacity="1" fill-rule="nonzero"/><path fill="#000000" d="M 36.296875 112.714844 C 36.460938 111.636719 37.457031 110.898438 38.535156 111.0625 C 44.625 111.976562 50.707031 111.976562 56.800781 111.0625 C 57.875 110.898438 58.882812 111.636719 59.035156 112.714844 C 59.199219 113.789062 58.460938 114.796875 57.382812 114.949219 C 50.914062 115.921875 44.429688 115.921875 37.949219 114.949219 C 36.953125 114.804688 36.246094 113.933594 36.277344 112.9375 Z M 36.296875 112.714844 " fill-opacity="1" fill-rule="nonzero"/><path fill="#000000" d="M 46.789062 74.839844 C 47.464844 73.988281 48.707031 73.84375 49.558594 74.519531 C 54.378906 78.355469 59.652344 81.402344 65.375 83.660156 C 66.390625 84.046875 66.890625 85.195312 66.492188 86.203125 C 66.089844 87.21875 64.941406 87.71875 63.9375 87.320312 C 57.84375 84.921875 52.226562 81.679688 47.109375 77.609375 C 46.316406 76.972656 46.144531 75.863281 46.65625 75.023438 Z M 46.789062 74.839844 " fill-opacity="1" fill-rule="nonzero"/><path fill="#000000" d="M 74.820312 47.28125 C 75.835938 46.882812 76.972656 47.382812 77.371094 48.386719 C 79.628906 54.121094 82.675781 59.394531 86.511719 64.203125 C 87.1875 65.054688 87.042969 66.296875 86.191406 66.972656 C 85.339844 67.648438 84.101562 67.515625 83.425781 66.664062 C 79.34375 61.535156 76.113281 55.925781 73.710938 49.835938 C 73.34375 48.890625 73.742188 47.835938 74.613281 47.375 Z M 74.820312 47.28125 " fill-opacity="1" fill-rule="nonzero"/><g clip-path="url(#8b2c8fb7d7)"><path fill="#000000" d="M 121.65625 130.980469 C 122.078125 129.972656 123.238281 129.511719 124.230469 129.933594 C 125.238281 130.355469 125.699219 131.511719 125.277344 132.519531 C 123.132812 137.574219 118.171875 140.925781 112.582031 140.925781 C 106.992188 140.925781 102.027344 137.574219 99.882812 132.519531 C 99.464844 131.511719 99.925781 130.355469 100.929688 129.933594 C 101.925781 129.511719 103.085938 129.972656 103.503906 130.980469 C 105.042969 134.589844 108.59375 136.988281 112.582031 136.988281 C 116.570312 136.988281 120.121094 134.589844 121.65625 130.980469 Z M 121.65625 130.980469 " fill-opacity="1" fill-rule="nonzero"/></g><path fill="#000000" d="M 83.066406 105.328125 C 76.335938 102.847656 69.875 108.609375 72.03125 115.453125 C 73.1875 119.132812 76.277344 122.058594 80.550781 124.414062 C 81.976562 125.207031 83.445312 125.871094 84.871094 126.425781 C 85.742188 126.753906 86.410156 126.980469 86.683594 127.0625 C 88.738281 127.808594 91.257812 127 92.511719 125.214844 C 92.765625 124.867188 93.175781 124.292969 93.679688 123.511719 C 94.53125 122.179688 95.351562 120.722656 96.058594 119.207031 C 98.152344 114.722656 98.972656 110.527344 97.824219 106.878906 C 95.660156 99.984375 87.074219 99.238281 83.066406 105.328125 Z M 94.070312 108.066406 C 94.847656 110.558594 94.214844 113.871094 92.488281 117.535156 C 91.863281 118.886719 91.125 120.191406 90.355469 121.378906 C 89.90625 122.097656 89.546875 122.609375 89.339844 122.867188 L 89.289062 122.949219 C 89.066406 123.289062 88.410156 123.492188 87.914062 123.316406 C 87.617188 123.226562 87.042969 123.042969 86.296875 122.742188 C 85.011719 122.261719 83.710938 121.667969 82.449219 120.96875 C 78.972656 119.050781 76.574219 116.773438 75.785156 114.273438 C 74.53125 110.273438 78.664062 107.042969 82.878906 109.597656 C 83.90625 110.222656 85.25 109.789062 85.722656 108.683594 C 87.699219 104.007812 92.816406 104.109375 94.070312 108.066406 Z M 94.070312 108.066406 " fill-opacity="1" fill-rule="nonzero"/></svg>