<svg xmlns="http://www.w3.org/2000/svg" xmlns:xlink="http://www.w3.org/1999/xlink" width="150" zoomAndPan="magnify" viewBox="0 0 112.5 224.999993" height="300" preserveAspectRatio="xMidYMid meet" version="1.0"><defs><clipPath id="6d8eee4d87"><path d="M 1.800781 2.453125 L 112.003906 2.453125 L 112.003906 223 L 1.800781 223 Z M 1.800781 2.453125 " clip-rule="nonzero"/></clipPath><clipPath id="247bf82210"><path d="M 112.5 2.453125 C 51.363281 2.453125 1.800781 51.945312 1.800781 112.996094 C 1.800781 174.050781 51.363281 223.542969 112.5 223.542969 C 173.636719 223.542969 223.199219 174.050781 223.199219 112.996094 C 223.199219 51.945312 173.636719 2.453125 112.5 2.453125 " clip-rule="nonzero"/></clipPath><clipPath id="66e5e35447"><path d="M 1.800781 2.457031 L 112.003906 2.457031 L 112.003906 223.703125 L 1.800781 223.703125 Z M 1.800781 2.457031 " clip-rule="nonzero"/></clipPath><clipPath id="6e7ee2d918"><path d="M 112.425781 2.457031 C 51.328125 2.457031 1.800781 51.984375 1.800781 113.078125 C 1.800781 174.171875 51.328125 223.699219 112.425781 223.699219 C 173.519531 223.699219 223.050781 174.171875 223.050781 113.078125 C 223.050781 51.984375 173.519531 2.457031 112.425781 2.457031 " clip-rule="nonzero"/></clipPath><clipPath id="f149d31a10"><path d="M 11.25 12 L 112.003906 12 L 112.003906 215.746094 L 11.25 215.746094 Z M 11.25 12 " clip-rule="nonzero"/></clipPath><clipPath id="ea57c50a1a"><path d="M 110 33 L 112.003906 33 L 112.003906 58 L 110 58 Z M 110 33 " clip-rule="nonzero"/></clipPath><clipPath id="731da7fe75"><path d="M 110 169 L 112.003906 169 L 112.003906 194 L 110 194 Z M 110 169 " clip-rule="nonzero"/></clipPath><clipPath id="507644de97"><path d="M 99 131 L 112.003906 131 L 112.003906 143 L 99 143 Z M 99 131 " clip-rule="nonzero"/></clipPath></defs><g clip-path="url(#6d8eee4d87)"><g clip-path="url(#247bf82210)"><path fill="#38b6ff" d="M 1.800781 2.453125 L 221.589844 2.453125 L 221.589844 222.242188 L 1.800781 222.242188 Z M 1.800781 2.453125 " fill-opacity="1" fill-rule="nonzero"/></g></g><g clip-path="url(#66e5e35447)"><g clip-path="url(#6e7ee2d918)"><path stroke-linecap="butt" transform="matrix(0.749524, 0, 0, 0.750557, 1.799374, 2.457745)" fill="none" stroke-linejoin="miter" d="M 147.595629 -0.0009507 C 66.080309 -0.0009507 0.00187756 65.986542 0.00187756 147.384475 C 0.00187756 228.782408 66.080309 294.769901 147.595629 294.769901 C 229.105737 294.769901 295.18938 228.782408 295.18938 147.384475 C 295.18938 65.986542 229.105737 -0.0009507 147.595629 -0.0009507 " stroke="#fafafa" stroke-width="12" stroke-opacity="1" stroke-miterlimit="4"/></g></g><g clip-path="url(#f149d31a10)"><path fill="#001528" d="M 111.59375 12.847656 C 112.429688 11.753906 114.070312 11.753906 114.90625 12.847656 C 115.152344 13.171875 115.390625 13.484375 115.617188 13.796875 L 117 15.679688 L 118.332031 17.527344 C 120.753906 20.957031 122.863281 24.199219 124.636719 27.257812 C 127.8125 24.101562 131.578125 20.792969 135.902344 17.324219 L 137.761719 15.863281 C 138.855469 15.007812 140.441406 15.441406 140.960938 16.71875 L 141.839844 18.910156 C 143.859375 24.082031 145.460938 28.828125 146.628906 33.152344 C 149.699219 31.390625 153.148438 29.636719 156.964844 27.875 L 159.03125 26.945312 L 161.171875 26.003906 L 162.261719 25.539062 C 163.539062 25 164.964844 25.832031 165.140625 27.195312 C 165.183594 27.59375 165.226562 27.984375 165.28125 28.382812 L 165.539062 30.699219 L 165.753906 32.957031 C 166.144531 37.140625 166.351562 41 166.351562 44.546875 C 168.253906 44.039062 170.265625 43.5625 172.394531 43.121094 L 174.460938 42.710938 C 175.160156 42.570312 175.875 42.441406 176.601562 42.308594 L 178.804688 41.933594 C 180.296875 41.683594 181.84375 41.457031 183.421875 41.230469 C 184.785156 41.046875 185.953125 42.210938 185.769531 43.574219 L 185.421875 45.910156 L 185.066406 48.191406 C 184.515625 51.542969 183.898438 54.679688 183.21875 57.578125 L 182.753906 59.480469 C 182.65625 59.878906 182.558594 60.257812 182.460938 60.648438 C 185.996094 60.648438 189.855469 60.851562 194.039062 61.242188 L 196.300781 61.457031 L 198.613281 61.71875 L 199.804688 61.859375 C 201.164062 62.03125 202 63.460938 201.457031 64.734375 C 201.304688 65.101562 201.144531 65.46875 200.992188 65.828125 L 200.050781 67.96875 L 199.121094 70.03125 C 197.359375 73.851562 195.609375 77.300781 193.847656 80.371094 C 197.261719 81.289062 200.9375 82.476562 204.875 83.9375 L 207.003906 84.738281 L 209.179688 85.59375 L 210.28125 86.035156 C 211.554688 86.554688 211.988281 88.144531 211.136719 89.234375 L 209.675781 91.097656 C 208.941406 92.003906 208.226562 92.890625 207.5 93.753906 L 206.085938 95.441406 C 204.667969 97.097656 203.285156 98.644531 201.933594 100.089844 L 200.582031 101.507812 C 200.300781 101.800781 200.019531 102.082031 199.738281 102.363281 C 202.796875 104.136719 206.042969 106.242188 209.46875 108.664062 L 211.320312 109.996094 L 213.199219 111.378906 L 214.152344 112.09375 C 215.242188 112.925781 215.242188 114.570312 214.152344 115.402344 C 213.828125 115.652344 213.511719 115.886719 213.199219 116.117188 L 211.320312 117.5 L 209.46875 118.828125 C 206.042969 121.25 202.796875 123.359375 199.738281 125.132812 C 201.121094 126.527344 202.539062 128.03125 203.988281 129.652344 L 205.382812 131.242188 C 206.085938 132.054688 206.789062 132.886719 207.5 133.738281 L 208.949219 135.503906 L 210.398438 137.328125 L 211.136719 138.257812 C 211.988281 139.351562 211.554688 140.941406 210.28125 141.460938 L 208.085938 142.335938 C 206.992188 142.769531 205.921875 143.167969 204.875 143.558594 L 202.796875 144.304688 C 200.753906 145.039062 198.777344 145.6875 196.875 146.261719 L 195.003906 146.8125 C 194.613281 146.921875 194.222656 147.027344 193.847656 147.125 C 195.609375 150.195312 197.359375 153.644531 199.121094 157.460938 L 200.050781 159.527344 L 200.992188 161.667969 L 201.457031 162.761719 C 202 164.035156 201.164062 165.464844 199.804688 165.636719 C 199.402344 165.679688 199.015625 165.722656 198.613281 165.777344 L 196.300781 166.035156 L 194.039062 166.253906 C 189.855469 166.640625 185.996094 166.847656 182.449219 166.847656 C 182.957031 168.75 183.433594 170.761719 183.875 172.890625 L 184.289062 174.957031 C 184.839844 177.769531 185.324219 180.753906 185.769531 183.921875 C 185.953125 185.28125 184.785156 186.449219 183.421875 186.265625 C 182.632812 186.160156 181.855469 186.039062 181.085938 185.921875 L 178.804688 185.5625 C 178.4375 185.5 178.058594 185.445312 177.691406 185.378906 L 175.53125 184.992188 C 172.222656 184.375 169.160156 183.703125 166.351562 182.957031 C 166.351562 186.492188 166.144531 190.355469 165.753906 194.539062 L 165.539062 196.796875 L 165.28125 199.113281 L 165.140625 200.300781 C 164.964844 201.664062 163.539062 202.496094 162.261719 201.957031 C 161.894531 201.804688 161.527344 201.640625 161.171875 201.492188 L 159.03125 200.550781 L 156.964844 199.621094 C 153.148438 197.859375 149.699219 196.105469 146.628906 194.34375 C 145.296875 199.273438 143.40625 204.757812 140.960938 210.777344 C 140.441406 212.054688 138.855469 212.488281 137.761719 211.632812 C 132.636719 207.644531 128.257812 203.835938 124.636719 200.234375 C 122.863281 203.296875 120.753906 206.539062 118.332031 209.96875 L 117 211.816406 L 115.617188 213.699219 L 114.90625 214.648438 C 114.070312 215.742188 112.429688 215.742188 111.59375 214.648438 C 111.347656 214.324219 111.109375 214.011719 110.882812 213.699219 L 109.5 211.816406 L 108.167969 209.96875 C 105.746094 206.539062 103.636719 203.296875 101.863281 200.234375 C 98.242188 203.835938 93.863281 207.644531 88.738281 211.632812 C 87.644531 212.488281 86.058594 212.054688 85.539062 210.777344 C 83.09375 204.757812 81.203125 199.273438 79.859375 194.332031 C 76.800781 196.105469 73.351562 197.859375 69.535156 199.621094 L 67.46875 200.550781 L 65.328125 201.492188 L 64.238281 201.957031 C 62.960938 202.496094 61.535156 201.664062 61.359375 200.300781 C 61.316406 199.902344 61.273438 199.511719 61.21875 199.113281 L 60.960938 196.796875 L 60.746094 194.539062 C 60.355469 190.355469 60.148438 186.492188 60.148438 182.945312 C 57.339844 183.703125 54.277344 184.375 50.96875 184.992188 L 48.808594 185.378906 C 48.441406 185.445312 48.0625 185.5 47.695312 185.5625 L 45.414062 185.921875 C 44.644531 186.039062 43.867188 186.160156 43.078125 186.265625 C 41.714844 186.449219 40.546875 185.28125 40.730469 183.921875 C 41.175781 180.753906 41.660156 177.769531 42.210938 174.957031 L 42.625 172.890625 C 43.066406 170.761719 43.542969 168.75 44.039062 166.847656 C 40.503906 166.847656 36.644531 166.640625 32.460938 166.253906 L 30.199219 166.035156 L 27.886719 165.777344 L 26.695312 165.636719 C 25.335938 165.464844 24.5 164.035156 25.042969 162.761719 C 25.195312 162.394531 25.355469 162.023438 25.507812 161.667969 L 26.449219 159.527344 L 27.378906 157.460938 C 29.140625 153.644531 30.890625 150.195312 32.652344 147.125 C 32.277344 147.027344 31.886719 146.921875 31.496094 146.8125 L 29.625 146.261719 C 27.722656 145.6875 25.746094 145.039062 23.703125 144.304688 L 21.625 143.558594 C 20.578125 143.167969 19.507812 142.769531 18.414062 142.335938 L 16.21875 141.460938 C 14.945312 140.941406 14.511719 139.351562 15.363281 138.257812 C 15.601562 137.945312 15.851562 137.632812 16.101562 137.328125 L 17.550781 135.503906 L 19 133.738281 C 19.710938 132.886719 20.414062 132.054688 21.117188 131.242188 L 22.511719 129.652344 C 23.960938 128.03125 25.378906 126.527344 26.761719 125.132812 C 23.703125 123.359375 20.457031 121.25 17.03125 118.828125 L 15.179688 117.5 L 13.300781 116.117188 L 12.347656 115.402344 C 11.257812 114.570312 11.257812 112.925781 12.347656 112.09375 C 12.671875 111.84375 12.988281 111.605469 13.300781 111.378906 L 15.179688 109.996094 L 17.03125 108.664062 C 20.457031 106.242188 23.703125 104.136719 26.761719 102.363281 C 26.480469 102.082031 26.199219 101.800781 25.917969 101.507812 L 24.566406 100.089844 C 23.214844 98.644531 21.832031 97.097656 20.414062 95.441406 L 19 93.753906 C 18.273438 92.890625 17.558594 92.003906 16.824219 91.097656 L 15.363281 89.234375 C 14.511719 88.144531 14.945312 86.554688 16.21875 86.035156 C 16.585938 85.882812 16.953125 85.734375 17.320312 85.59375 L 19.496094 84.738281 L 21.625 83.9375 C 25.5625 82.476562 29.238281 81.289062 32.664062 80.359375 C 30.890625 77.300781 29.140625 73.851562 27.378906 70.03125 L 26.449219 67.96875 L 25.507812 65.828125 L 25.042969 64.734375 C 24.5 63.460938 25.335938 62.03125 26.695312 61.859375 C 27.097656 61.816406 27.484375 61.773438 27.886719 61.71875 L 30.199219 61.457031 L 32.460938 61.242188 C 36.644531 60.851562 40.503906 60.648438 44.050781 60.648438 C 43.941406 60.257812 43.84375 59.878906 43.746094 59.480469 L 43.28125 57.578125 C 42.601562 54.679688 41.984375 51.542969 41.433594 48.191406 L 41.078125 45.910156 L 40.730469 43.574219 C 40.546875 42.210938 41.714844 41.046875 43.078125 41.230469 C 44.65625 41.457031 46.203125 41.683594 47.695312 41.933594 L 49.898438 42.308594 C 50.625 42.441406 51.339844 42.570312 52.039062 42.710938 L 54.105469 43.121094 C 56.234375 43.5625 58.246094 44.039062 60.148438 44.539062 C 60.148438 41 60.355469 37.140625 60.746094 32.957031 L 60.960938 30.699219 L 61.21875 28.382812 L 61.359375 27.195312 C 61.535156 25.832031 62.960938 25 64.238281 25.539062 C 64.605469 25.691406 64.972656 25.855469 65.328125 26.003906 L 67.46875 26.945312 L 69.535156 27.875 C 73.351562 29.636719 76.800781 31.390625 79.871094 33.152344 C 81.039062 28.828125 82.640625 24.082031 84.660156 18.910156 L 85.539062 16.71875 C 86.058594 15.441406 87.644531 15.007812 88.738281 15.863281 L 90.597656 17.324219 C 94.921875 20.792969 98.6875 24.101562 101.863281 27.257812 C 103.636719 24.199219 105.746094 20.957031 108.167969 17.527344 L 109.5 15.679688 L 110.882812 13.796875 Z M 126.148438 172.566406 L 125.855469 172.632812 C 121.792969 173.496094 117.574219 173.953125 113.25 173.953125 C 108.816406 173.953125 104.503906 173.476562 100.351562 172.566406 C 99.292969 174.535156 98.71875 176.730469 98.71875 179.140625 C 98.71875 185.746094 102.773438 194.980469 110.945312 206.703125 L 112.210938 208.476562 L 113.25 209.914062 L 113.640625 209.382812 C 113.855469 209.082031 114.082031 208.777344 114.289062 208.476562 L 115.554688 206.703125 C 123.726562 194.980469 127.78125 185.746094 127.78125 179.140625 C 127.78125 176.730469 127.207031 174.535156 126.148438 172.566406 Z M 94.824219 182.503906 L 94.632812 182.753906 C 92.078125 185.898438 88.390625 189.003906 83.570312 192.09375 C 84.640625 196.269531 86.152344 200.917969 88.121094 206.019531 L 88.359375 206.636719 L 89.742188 205.523438 C 93.625 202.332031 96.964844 199.304688 99.777344 196.441406 C 97.074219 191.21875 95.429688 186.582031 94.824219 182.503906 Z M 131.675781 182.503906 L 131.632812 182.816406 C 130.980469 186.816406 129.351562 191.347656 126.722656 196.441406 C 129.738281 199.511719 133.371094 202.777344 137.621094 206.226562 L 138.140625 206.636719 L 138.777344 204.984375 C 140.550781 200.28125 141.933594 195.988281 142.929688 192.09375 C 137.976562 188.925781 134.238281 185.738281 131.675781 182.503906 Z M 72.683594 158.230469 L 72.648438 158.242188 C 70.757812 159.417969 69.167969 161.042969 67.96875 163.117188 C 64.660156 168.835938 63.566406 178.859375 64.777344 193.101562 L 64.984375 195.261719 L 65.089844 196.375 L 65.167969 197.035156 L 66.789062 196.3125 L 68.769531 195.402344 C 81.699219 189.335938 89.832031 183.367188 93.140625 177.648438 C 94.339844 175.5625 94.945312 173.378906 95.019531 171.140625 C 86.617188 168.480469 79.027344 164.027344 72.683594 158.230469 Z M 153.828125 158.230469 C 147.472656 164.027344 139.871094 168.480469 131.480469 171.140625 C 131.554688 173.378906 132.160156 175.5625 133.359375 177.648438 C 136.667969 183.367188 144.800781 189.335938 157.730469 195.402344 L 159.710938 196.3125 L 160.726562 196.765625 L 161.332031 197.023438 L 161.515625 195.261719 L 161.722656 193.101562 C 162.933594 178.859375 161.839844 168.835938 158.53125 163.117188 C 157.320312 161.03125 155.730469 159.410156 153.828125 158.230469 Z M 163.582031 164.078125 L 163.699219 164.382812 C 165.148438 168.15625 165.992188 172.902344 166.261719 178.621094 C 170.414062 179.777344 175.195312 180.796875 180.601562 181.648438 L 181.25 181.746094 L 181.152344 181.097656 L 180.796875 178.914062 C 180.730469 178.558594 180.664062 178.199219 180.601562 177.855469 L 180.222656 175.777344 L 179.820312 173.765625 C 179.292969 171.257812 178.730469 168.921875 178.125 166.761719 C 172.253906 166.492188 167.410156 165.605469 163.582031 164.078125 Z M 62.917969 164.078125 L 62.617188 164.199219 C 58.832031 165.648438 54.09375 166.492188 48.375 166.761719 C 47.769531 168.921875 47.207031 171.257812 46.679688 173.765625 L 46.277344 175.777344 L 45.898438 177.855469 C 45.703125 178.902344 45.519531 179.984375 45.347656 181.097656 L 45.25 181.746094 L 47.003906 181.464844 C 51.953125 180.65625 56.375 179.703125 60.238281 178.621094 C 60.507812 172.75 61.394531 167.90625 62.917969 164.078125 Z M 113.25 57.695312 C 82.292969 57.695312 57.199219 82.792969 57.199219 113.746094 C 57.199219 144.703125 82.292969 169.800781 113.25 169.800781 C 144.207031 169.800781 169.300781 144.703125 169.300781 113.746094 C 169.300781 82.792969 144.207031 57.695312 113.25 57.695312 Z M 177.152344 133.859375 C 175.066406 132.660156 172.878906 132.054688 170.640625 131.976562 C 167.984375 140.378906 163.527344 147.96875 157.730469 154.316406 C 158.910156 156.230469 160.53125 157.820312 162.621094 159.03125 C 168.339844 162.339844 178.363281 163.429688 192.601562 162.21875 L 194.765625 162.015625 L 195.878906 161.90625 L 196.539062 161.832031 L 195.8125 160.207031 L 194.90625 158.230469 C 188.839844 145.296875 182.871094 137.167969 177.152344 133.859375 Z M 55.859375 131.976562 C 53.609375 132.054688 51.425781 132.660156 49.347656 133.859375 C 43.628906 137.167969 37.660156 145.296875 31.59375 158.230469 L 30.6875 160.207031 L 29.960938 161.832031 L 30.621094 161.90625 C 31 161.9375 31.367188 161.980469 31.734375 162.015625 L 33.898438 162.21875 C 48.136719 163.429688 58.160156 162.339844 63.878906 159.03125 C 65.96875 157.820312 67.589844 156.230469 68.769531 154.328125 C 62.972656 147.96875 58.515625 140.378906 55.859375 131.976562 Z M 195.941406 127.21875 L 195.347656 127.523438 C 190.363281 130.042969 185.929688 131.597656 182.007812 132.171875 C 185.238281 134.734375 188.429688 138.476562 191.597656 143.429688 C 194.34375 142.726562 197.292969 141.828125 200.453125 140.734375 L 202.441406 140.023438 L 204.484375 139.277344 L 206.140625 138.636719 L 205.730469 138.117188 L 204.324219 136.410156 C 204.097656 136.128906 203.859375 135.859375 203.632812 135.589844 L 202.257812 133.976562 L 200.90625 132.441406 C 199.207031 130.539062 197.542969 128.789062 195.941406 127.21875 Z M 30.558594 127.21875 C 28.957031 128.789062 27.292969 130.539062 25.59375 132.441406 L 24.242188 133.976562 L 22.867188 135.589844 C 22.175781 136.398438 21.472656 137.253906 20.769531 138.117188 L 20.359375 138.636719 L 22.015625 139.277344 L 24.058594 140.023438 L 26.046875 140.734375 C 29.207031 141.828125 32.15625 142.726562 34.902344 143.429688 C 38.070312 138.476562 41.261719 134.734375 44.492188 132.171875 C 40.417969 131.566406 35.777344 129.921875 30.558594 127.21875 Z M 47.855469 99.214844 C 41.25 99.214844 32.015625 103.269531 20.296875 111.445312 L 18.523438 112.710938 L 17.613281 113.359375 L 17.085938 113.746094 L 18.523438 114.785156 L 20.296875 116.050781 C 32.015625 124.226562 41.25 128.28125 47.855469 128.28125 C 50.269531 128.28125 52.460938 127.707031 54.429688 126.648438 C 53.523438 122.496094 53.046875 118.179688 53.046875 113.746094 C 53.046875 109.316406 53.523438 105 54.429688 100.847656 C 52.460938 99.789062 50.269531 99.214844 47.855469 99.214844 Z M 178.644531 99.214844 C 176.230469 99.214844 174.039062 99.789062 172.070312 100.847656 C 172.976562 105 173.453125 109.316406 173.453125 113.746094 C 173.453125 118.179688 172.976562 122.496094 172.070312 126.648438 C 174.039062 127.707031 176.230469 128.28125 178.644531 128.28125 C 185.25 128.28125 194.484375 124.226562 206.203125 116.050781 L 207.976562 114.785156 L 209.414062 113.746094 L 208.886719 113.359375 C 208.582031 113.140625 208.28125 112.914062 207.976562 112.710938 L 206.203125 111.445312 C 194.484375 103.269531 185.25 99.214844 178.644531 99.214844 Z M 34.902344 84.066406 C 32.71875 84.628906 30.417969 85.3125 27.984375 86.109375 L 26.046875 86.761719 L 24.058594 87.472656 C 23.054688 87.832031 22.027344 88.21875 20.976562 88.621094 L 20.359375 88.859375 L 21.472656 90.242188 L 22.867188 91.90625 C 25.550781 95.085938 28.113281 97.875 30.558594 100.277344 C 35.777344 97.582031 40.417969 95.929688 44.492188 95.324219 C 41.390625 92.867188 38.320312 89.300781 35.261719 84.628906 Z M 191.597656 84.066406 L 191.238281 84.628906 C 188.179688 89.300781 185.109375 92.867188 182.007812 95.324219 C 186.082031 95.929688 190.722656 97.582031 195.941406 100.277344 C 198.386719 97.875 200.949219 95.085938 203.632812 91.90625 L 205.027344 90.242188 L 206.140625 88.859375 L 204.484375 88.21875 C 203.792969 87.960938 203.113281 87.710938 202.441406 87.472656 L 200.453125 86.761719 L 198.515625 86.109375 C 196.082031 85.3125 193.78125 84.628906 191.597656 84.066406 Z M 63.878906 68.464844 C 58.160156 65.15625 48.136719 64.066406 33.898438 65.277344 L 31.734375 65.480469 L 29.960938 65.664062 L 30.230469 66.269531 C 30.382812 66.605469 30.535156 66.953125 30.6875 67.285156 L 31.59375 69.265625 C 37.660156 82.195312 43.628906 90.328125 49.347656 93.636719 C 51.433594 94.835938 53.621094 95.441406 55.859375 95.519531 C 58.515625 87.117188 62.972656 79.527344 68.769531 73.179688 C 67.589844 71.265625 65.96875 69.675781 63.878906 68.464844 Z M 192.601562 65.277344 C 178.363281 64.066406 168.339844 65.15625 162.621094 68.464844 C 160.53125 69.675781 158.910156 71.265625 157.730469 73.167969 C 163.527344 79.527344 167.984375 87.117188 170.640625 95.519531 C 172.878906 95.441406 175.066406 94.835938 177.152344 93.636719 C 182.871094 90.328125 188.839844 82.195312 194.90625 69.265625 L 195.8125 67.285156 L 196.269531 66.269531 L 196.539062 65.664062 L 194.765625 65.480469 Z M 65.167969 30.460938 L 65.089844 31.121094 C 65.058594 31.496094 65.015625 31.867188 64.984375 32.234375 L 64.777344 34.394531 C 63.566406 48.636719 64.660156 58.660156 67.96875 64.378906 C 69.179688 66.464844 70.769531 68.085938 72.671875 69.265625 C 79.027344 63.46875 86.617188 59.015625 95.019531 56.355469 C 94.945312 54.117188 94.339844 51.933594 93.140625 49.847656 C 89.832031 44.125 81.699219 38.15625 68.769531 32.09375 L 66.789062 31.183594 Z M 161.332031 30.460938 L 160.726562 30.730469 C 160.390625 30.882812 160.046875 31.03125 159.710938 31.183594 L 157.730469 32.09375 C 144.800781 38.15625 136.667969 44.125 133.359375 49.847656 C 132.160156 51.933594 131.554688 54.117188 131.480469 56.355469 C 139.882812 59.015625 147.472656 63.46875 153.816406 69.265625 C 155.730469 68.085938 157.320312 66.464844 158.53125 64.378906 C 161.839844 58.660156 162.933594 48.636719 161.722656 34.394531 L 161.515625 32.234375 Z M 181.25 45.75 L 179.496094 46.03125 C 178.773438 46.148438 178.058594 46.265625 177.355469 46.398438 L 175.28125 46.777344 L 173.269531 47.175781 C 170.761719 47.707031 168.425781 48.269531 166.261719 48.875 C 165.992188 54.746094 165.105469 59.589844 163.582031 63.414062 C 167.410156 61.890625 172.253906 61.003906 178.125 60.734375 C 179.28125 56.582031 180.296875 51.804688 181.152344 46.398438 Z M 45.25 45.75 L 45.53125 47.5 C 46.34375 52.453125 47.292969 56.875 48.375 60.734375 C 54.246094 61.003906 59.089844 61.890625 62.917969 63.414062 C 61.394531 59.589844 60.507812 54.746094 60.238281 48.875 C 58.074219 48.269531 55.738281 47.707031 53.230469 47.175781 L 51.21875 46.777344 L 49.144531 46.398438 C 48.09375 46.203125 47.011719 46.019531 45.898438 45.847656 Z M 113.25 17.582031 L 112.859375 18.113281 C 112.644531 18.414062 112.417969 18.71875 112.210938 19.019531 L 110.945312 20.792969 C 102.773438 32.515625 98.71875 41.746094 98.71875 48.355469 C 98.71875 50.765625 99.292969 52.960938 100.351562 54.929688 C 104.503906 54.019531 108.816406 53.542969 113.25 53.542969 C 117.683594 53.542969 121.996094 54.019531 126.148438 54.929688 C 127.207031 52.960938 127.78125 50.765625 127.78125 48.355469 C 127.78125 41.746094 123.726562 32.515625 115.554688 20.792969 L 114.289062 19.019531 Z M 88.359375 20.859375 L 88.121094 21.476562 C 86.910156 24.609375 85.871094 27.582031 85.007812 30.363281 L 84.457031 32.199219 C 84.132812 33.292969 83.839844 34.363281 83.570312 35.402344 C 88.523438 38.570312 92.273438 41.757812 94.824219 44.992188 C 95.429688 40.914062 97.074219 36.277344 99.777344 31.054688 C 99.03125 30.296875 98.242188 29.519531 97.421875 28.730469 L 96.015625 27.421875 C 93.875 25.433594 91.496094 23.386719 88.878906 21.269531 Z M 138.140625 20.859375 L 137.621094 21.269531 C 135.003906 23.386719 132.625 25.433594 130.484375 27.421875 L 129.078125 28.730469 C 128.257812 29.519531 127.46875 30.296875 126.722656 31.054688 C 129.425781 36.277344 131.070312 40.914062 131.675781 44.992188 C 134.226562 41.757812 137.976562 38.570312 142.929688 35.402344 C 142.660156 34.363281 142.367188 33.292969 142.042969 32.199219 L 141.492188 30.363281 C 140.628906 27.582031 139.589844 24.609375 138.378906 21.476562 Z M 138.140625 20.859375 " fill-opacity="1" fill-rule="nonzero"/></g><g clip-path="url(#ea57c50a1a)"><path fill="#001528" d="M 113.554688 33.691406 C 114.6875 33.867188 115.476562 34.925781 115.304688 36.0625 C 114.34375 42.472656 114.34375 48.894531 115.304688 55.316406 C 115.476562 56.441406 114.6875 57.5 113.554688 57.675781 C 112.429688 57.847656 111.367188 57.058594 111.195312 55.921875 C 110.167969 49.101562 110.167969 42.265625 111.195312 35.445312 C 111.359375 34.382812 112.277344 33.636719 113.316406 33.671875 Z M 113.554688 33.691406 " fill-opacity="1" fill-rule="nonzero"/></g><g clip-path="url(#731da7fe75)"><path fill="#001528" d="M 112.203125 193.804688 C 111.066406 193.628906 110.289062 192.570312 110.449219 191.433594 C 111.410156 185.023438 111.410156 178.601562 110.449219 172.179688 C 110.289062 171.054688 111.066406 169.992188 112.203125 169.820312 C 113.335938 169.648438 114.386719 170.4375 114.558594 171.574219 C 115.585938 178.394531 115.585938 185.230469 114.558594 192.050781 C 114.394531 193.109375 113.476562 193.855469 112.4375 193.824219 Z M 112.203125 193.804688 " fill-opacity="1" fill-rule="nonzero"/></g><path fill="#001528" d="M 72.261719 182.730469 C 71.363281 182.015625 71.222656 180.710938 71.9375 179.824219 C 75.980469 174.742188 79.179688 169.183594 81.558594 163.140625 C 81.980469 162.078125 83.179688 161.550781 84.25 161.972656 C 85.320312 162.394531 85.839844 163.59375 85.417969 164.664062 C 82.898438 171.085938 79.484375 177 75.179688 182.40625 C 74.519531 183.238281 73.339844 183.421875 72.464844 182.871094 Z M 72.261719 182.730469 " fill-opacity="1" fill-rule="nonzero"/><path fill="#001528" d="M 43.207031 153.179688 C 42.796875 152.121094 43.316406 150.910156 44.386719 150.488281 C 50.417969 148.121094 55.976562 144.910156 61.058594 140.867188 C 61.957031 140.152344 63.265625 140.304688 63.976562 141.199219 C 64.691406 142.097656 64.539062 143.394531 63.644531 144.109375 C 58.246094 148.414062 52.332031 151.828125 45.898438 154.359375 C 44.914062 154.75 43.800781 154.328125 43.316406 153.40625 Z M 43.207031 153.179688 " fill-opacity="1" fill-rule="nonzero"/><path fill="#001528" d="M 32.828125 113.066406 C 33 111.929688 34.050781 111.152344 35.183594 111.324219 C 41.605469 112.289062 48.019531 112.289062 54.441406 111.324219 C 55.578125 111.152344 56.636719 111.929688 56.796875 113.066406 C 56.972656 114.203125 56.191406 115.261719 55.058594 115.421875 C 48.234375 116.449219 41.402344 116.449219 34.566406 115.421875 C 33.519531 115.273438 32.773438 114.351562 32.804688 113.304688 Z M 32.828125 113.066406 " fill-opacity="1" fill-rule="nonzero"/><path fill="#001528" d="M 43.886719 73.136719 C 44.601562 72.238281 45.910156 72.085938 46.808594 72.800781 C 51.890625 76.84375 57.445312 80.054688 63.480469 82.433594 C 64.550781 82.847656 65.082031 84.058594 64.660156 85.117188 C 64.238281 86.1875 63.027344 86.714844 61.964844 86.296875 C 55.542969 83.765625 49.617188 80.347656 44.222656 76.054688 C 43.390625 75.386719 43.207031 74.21875 43.746094 73.332031 Z M 43.886719 73.136719 " fill-opacity="1" fill-rule="nonzero"/><path fill="#001528" d="M 73.4375 44.082031 C 74.507812 43.660156 75.710938 44.191406 76.132812 45.25 C 78.507812 51.296875 81.722656 56.851562 85.765625 61.925781 C 86.476562 62.820312 86.328125 64.128906 85.429688 64.84375 C 84.53125 65.558594 83.222656 65.417969 82.511719 64.519531 C 78.207031 59.113281 74.800781 53.199219 72.269531 46.777344 C 71.882812 45.78125 72.304688 44.667969 73.222656 44.179688 Z M 73.4375 44.082031 " fill-opacity="1" fill-rule="nonzero"/><g clip-path="url(#507644de97)"><path fill="#001528" d="M 122.820312 132.324219 C 123.261719 131.265625 124.484375 130.777344 125.53125 131.21875 C 126.59375 131.664062 127.078125 132.886719 126.636719 133.945312 C 124.375 139.277344 119.144531 142.8125 113.25 142.8125 C 107.355469 142.8125 102.125 139.277344 99.863281 133.945312 C 99.421875 132.886719 99.90625 131.664062 100.96875 131.21875 C 102.015625 130.777344 103.238281 131.265625 103.679688 132.324219 C 105.304688 136.128906 109.042969 138.660156 113.25 138.660156 C 117.457031 138.660156 121.195312 136.128906 122.820312 132.324219 Z M 122.820312 132.324219 " fill-opacity="1" fill-rule="nonzero"/></g><path fill="#001528" d="M 82.132812 105.28125 C 75.039062 102.664062 68.226562 108.742188 70.496094 115.953125 C 71.71875 119.835938 74.972656 122.917969 79.484375 125.402344 C 80.984375 126.234375 82.53125 126.9375 84.035156 127.523438 C 84.953125 127.867188 85.65625 128.105469 85.949219 128.191406 C 88.109375 128.984375 90.769531 128.128906 92.089844 126.246094 C 92.359375 125.878906 92.792969 125.273438 93.324219 124.453125 C 94.21875 123.046875 95.085938 121.511719 95.832031 119.910156 C 98.035156 115.1875 98.902344 110.761719 97.691406 106.914062 C 95.410156 99.648438 86.359375 98.859375 82.132812 105.28125 Z M 93.734375 108.167969 C 94.554688 110.796875 93.886719 114.289062 92.070312 118.148438 C 91.410156 119.574219 90.628906 120.949219 89.820312 122.203125 C 89.34375 122.960938 88.964844 123.5 88.75 123.769531 L 88.695312 123.855469 C 88.457031 124.214844 87.765625 124.429688 87.246094 124.246094 C 86.933594 124.148438 86.328125 123.953125 85.539062 123.640625 C 84.1875 123.132812 82.8125 122.503906 81.484375 121.769531 C 77.816406 119.75 75.289062 117.347656 74.453125 114.710938 C 73.136719 110.492188 77.492188 107.085938 81.9375 109.78125 C 83.019531 110.4375 84.433594 109.984375 84.933594 108.816406 C 87.019531 103.886719 92.414062 103.996094 93.734375 108.167969 Z M 93.734375 108.167969 " fill-opacity="1" fill-rule="nonzero"/></svg>