<svg xmlns="http://www.w3.org/2000/svg" xmlns:xlink="http://www.w3.org/1999/xlink" width="50" zoomAndPan="magnify" viewBox="0 0 37.5 37.499999" height="50" preserveAspectRatio="xMidYMid meet" version="1.0"><defs><clipPath id="739fddeb44"><path d="M 0 0 L 37.007812 0 L 37.007812 37.007812 L 0 37.007812 Z M 0 0 " clip-rule="nonzero"/></clipPath><clipPath id="7bafff7141"><path d="M 18.75 0 C 8.394531 0 0 8.394531 0 18.75 C 0 29.105469 8.394531 37.5 18.75 37.5 C 29.105469 37.5 37.5 29.105469 37.5 18.75 C 37.5 8.394531 29.105469 0 18.75 0 " clip-rule="nonzero"/></clipPath><clipPath id="f0d97e4cae"><path d="M 1.425781 1.425781 L 35.925781 1.425781 L 35.925781 35.925781 L 1.425781 35.925781 Z M 1.425781 1.425781 " clip-rule="nonzero"/></clipPath><clipPath id="8e17af6e6b"><path d="M 0 0 L 37.007812 0 L 37.007812 37.007812 L 0 37.007812 Z M 0 0 " clip-rule="nonzero"/></clipPath></defs><g clip-path="url(#739fddeb44)"><g clip-path="url(#7bafff7141)"><path fill="#1776ff" d="M 0 0 L 37.5 0 L 37.5 37.5 L 0 37.5 Z M 0 0 " fill-opacity="1" fill-rule="nonzero"/><path stroke-linecap="butt" transform="matrix(0.75, 0, 0, 0.75, 0.0000005, 0.000000000000002665)" fill="none" stroke-linejoin="miter" d="M 25.000002 -0.000000000000003553 C 11.192709 -0.000000000000003553 -0.000000666667 11.19271 -0.000000666667 25.000003 C -0.000000666667 38.807296 11.192709 50.000006 25.000002 50.000006 C 38.807296 50.000006 50.000005 38.807296 50.000005 25.000003 C 50.000005 11.19271 38.807296 -0.000000000000003553 25.000002 -0.000000000000003553 " stroke="#fafafa" stroke-width="4" stroke-opacity="1" stroke-miterlimit="4"/></g></g><g clip-path="url(#f0d97e4cae)"><path fill="#001528" d="M 18.675781 1.425781 C 23.421875 1.425781 27.484375 3.113281 30.859375 6.492188 C 34.234375 9.867188 35.925781 13.929688 35.925781 18.675781 C 35.925781 23.421875 34.234375 27.484375 30.859375 30.859375 C 27.484375 34.234375 23.421875 35.925781 18.675781 35.925781 C 13.929688 35.925781 9.867188 34.234375 6.492188 30.859375 C 3.113281 27.484375 1.425781 23.421875 1.425781 18.675781 C 1.425781 13.929688 3.113281 9.867188 6.492188 6.492188 C 9.867188 3.113281 13.929688 1.425781 18.675781 1.425781 Z M 18.675781 34.691406 C 20.84375 34.691406 22.914062 34.269531 24.886719 33.425781 C 26.863281 32.582031 28.566406 31.441406 30.003906 30.003906 C 31.441406 28.566406 32.582031 26.859375 33.425781 24.886719 C 34.269531 22.914062 34.691406 20.84375 34.691406 18.675781 C 34.691406 16.507812 34.269531 14.4375 33.425781 12.460938 C 32.582031 10.488281 31.441406 8.78125 30.003906 7.347656 C 28.566406 5.910156 26.859375 4.769531 24.886719 3.925781 C 22.914062 3.078125 20.84375 2.65625 18.675781 2.65625 C 16.507812 2.65625 14.4375 3.078125 12.460938 3.925781 C 10.488281 4.769531 8.78125 5.910156 7.347656 7.347656 C 5.910156 8.78125 4.769531 10.488281 3.925781 12.460938 C 3.078125 14.433594 2.65625 16.507812 2.65625 18.675781 C 2.65625 20.84375 3.078125 22.914062 3.925781 24.886719 C 4.769531 26.863281 5.910156 28.566406 7.347656 30.003906 C 8.78125 31.441406 10.488281 32.582031 12.460938 33.425781 C 14.433594 34.269531 16.507812 34.691406 18.675781 34.691406 Z M 13.746094 14.363281 C 13.242188 14.363281 12.808594 14.179688 12.449219 13.8125 C 12.082031 13.445312 11.898438 13.015625 11.898438 12.515625 C 11.898438 12.015625 12.082031 11.578125 12.449219 11.214844 C 12.8125 10.847656 13.246094 10.667969 13.746094 10.667969 C 14.25 10.667969 14.683594 10.847656 15.046875 11.214844 C 15.410156 11.582031 15.59375 12.015625 15.59375 12.515625 C 15.59375 13.015625 15.410156 13.449219 15.046875 13.8125 C 14.683594 14.179688 14.25 14.363281 13.746094 14.363281 Z M 23.605469 14.363281 C 23.101562 14.363281 22.667969 14.179688 22.304688 13.8125 C 21.9375 13.445312 21.753906 13.015625 21.753906 12.515625 C 21.753906 12.015625 21.9375 11.578125 22.304688 11.214844 C 22.671875 10.847656 23.105469 10.667969 23.605469 10.667969 C 24.105469 10.667969 24.539062 10.847656 24.902344 11.214844 C 25.269531 11.582031 25.453125 12.015625 25.453125 12.515625 C 25.453125 13.015625 25.269531 13.449219 24.902344 13.8125 C 24.539062 14.179688 24.105469 14.363281 23.605469 14.363281 Z M 18.675781 28.53125 C 21.390625 28.53125 23.710938 27.566406 25.636719 25.636719 C 27.566406 23.710938 28.53125 21.390625 28.53125 18.675781 L 29.765625 18.675781 C 29.765625 21.734375 28.679688 24.347656 26.511719 26.511719 C 24.347656 28.679688 21.734375 29.765625 18.675781 29.765625 C 15.617188 29.765625 13.003906 28.679688 10.839844 26.511719 C 8.671875 24.347656 7.585938 21.734375 7.585938 18.675781 L 8.816406 18.675781 C 8.816406 21.390625 9.78125 23.710938 11.710938 25.636719 C 13.636719 27.566406 15.960938 28.53125 18.675781 28.53125 Z M 18.675781 28.53125 " fill-opacity="1" fill-rule="nonzero"/></g><g clip-path="url(#8e17af6e6b)"><path fill="#fafafa" d="M 18.714844 38.210938 C 13.511719 38.210938 8.605469 36.183594 4.921875 32.5 C 1.242188 28.816406 -0.789062 23.921875 -0.789062 18.714844 C -0.789062 13.511719 1.242188 8.605469 4.921875 4.921875 C 8.605469 1.242188 13.503906 -0.789062 18.714844 -0.789062 C 23.929688 -0.789062 28.816406 1.242188 32.5 4.921875 C 36.183594 8.605469 38.210938 13.503906 38.210938 18.714844 C 38.210938 23.929688 36.183594 28.816406 32.5 32.5 C 28.816406 36.183594 23.921875 38.210938 18.714844 38.210938 Z M 18.714844 0.378906 C 13.820312 0.378906 9.214844 2.28125 5.746094 5.746094 C 2.28125 9.214844 0.378906 13.8125 0.378906 18.714844 C 0.378906 23.621094 2.28125 28.21875 5.746094 31.683594 C 9.214844 35.152344 13.8125 37.054688 18.714844 37.054688 C 23.621094 37.054688 28.21875 35.152344 31.683594 31.683594 C 35.152344 28.21875 37.054688 23.621094 37.054688 18.714844 C 37.054688 13.8125 35.152344 9.214844 31.683594 5.746094 C 28.210938 2.28125 23.613281 0.378906 18.714844 0.378906 Z M 18.714844 0.378906 " fill-opacity="1" fill-rule="nonzero"/></g><path fill="#fafafa" d="M 18.328125 35.78125 L 18.28125 35.78125 C 18.109375 35.773438 17.976562 35.632812 17.984375 35.46875 C 17.992188 35.304688 18.125 35.175781 18.289062 35.175781 C 18.289062 35.175781 18.296875 35.175781 18.296875 35.175781 L 18.335938 35.175781 C 18.507812 35.183594 18.640625 35.320312 18.632812 35.484375 C 18.632812 35.648438 18.5 35.78125 18.328125 35.78125 Z M 19.867188 35.742188 C 19.703125 35.742188 19.570312 35.617188 19.5625 35.453125 C 19.554688 35.28125 19.679688 35.144531 19.851562 35.128906 L 19.882812 35.128906 C 20.054688 35.113281 20.199219 35.246094 20.207031 35.40625 C 20.222656 35.578125 20.089844 35.726562 19.929688 35.734375 L 19.890625 35.734375 C 19.875 35.742188 19.867188 35.742188 19.867188 35.742188 Z M 16.765625 35.671875 C 16.757812 35.671875 16.742188 35.671875 16.726562 35.671875 L 16.6875 35.664062 C 16.515625 35.640625 16.402344 35.492188 16.425781 35.320312 C 16.449219 35.152344 16.59375 35.035156 16.765625 35.058594 L 16.804688 35.066406 C 16.976562 35.082031 17.09375 35.238281 17.078125 35.40625 C 17.046875 35.554688 16.914062 35.671875 16.765625 35.671875 Z M 21.421875 35.5625 C 21.273438 35.5625 21.140625 35.453125 21.117188 35.304688 C 21.085938 35.144531 21.203125 34.980469 21.375 34.957031 L 21.414062 34.949219 C 21.574219 34.925781 21.738281 35.035156 21.761719 35.207031 C 21.785156 35.375 21.675781 35.53125 21.507812 35.554688 L 21.46875 35.5625 C 21.460938 35.5625 21.445312 35.5625 21.421875 35.5625 Z M 15.210938 35.414062 C 15.1875 35.414062 15.171875 35.414062 15.148438 35.40625 L 15.109375 35.398438 C 14.949219 35.359375 14.839844 35.199219 14.878906 35.035156 C 14.917969 34.871094 15.078125 34.761719 15.242188 34.800781 L 15.28125 34.808594 C 15.445312 34.847656 15.554688 35.003906 15.515625 35.175781 C 15.484375 35.320312 15.351562 35.414062 15.210938 35.414062 Z M 22.960938 35.246094 C 22.820312 35.246094 22.695312 35.152344 22.664062 35.011719 C 22.625 34.847656 22.71875 34.675781 22.890625 34.636719 L 22.921875 34.628906 C 23.082031 34.582031 23.253906 34.683594 23.292969 34.847656 C 23.339844 35.011719 23.238281 35.183594 23.074219 35.222656 L 23.035156 35.230469 C 23.011719 35.238281 22.980469 35.246094 22.960938 35.246094 Z M 13.695312 35.019531 C 13.664062 35.019531 13.632812 35.011719 13.601562 35.003906 L 13.574219 34.996094 C 13.410156 34.941406 13.316406 34.769531 13.371094 34.605469 C 13.425781 34.445312 13.585938 34.359375 13.75 34.40625 L 13.789062 34.414062 C 13.953125 34.460938 14.039062 34.636719 13.992188 34.792969 C 13.945312 34.933594 13.820312 35.019531 13.695312 35.019531 Z M 24.457031 34.769531 C 24.335938 34.769531 24.21875 34.691406 24.171875 34.566406 C 24.117188 34.414062 24.195312 34.234375 24.359375 34.179688 L 24.390625 34.164062 C 24.542969 34.109375 24.722656 34.1875 24.785156 34.34375 C 24.839844 34.5 24.761719 34.675781 24.605469 34.738281 L 24.566406 34.753906 C 24.527344 34.769531 24.496094 34.769531 24.457031 34.769531 Z M 12.21875 34.484375 C 12.179688 34.484375 12.140625 34.476562 12.105469 34.460938 L 12.066406 34.445312 C 11.910156 34.375 11.839844 34.195312 11.902344 34.039062 C 11.972656 33.882812 12.148438 33.8125 12.304688 33.875 L 12.335938 33.890625 C 12.492188 33.953125 12.570312 34.132812 12.5 34.296875 C 12.453125 34.40625 12.335938 34.484375 12.21875 34.484375 Z M 25.910156 34.164062 C 25.796875 34.164062 25.6875 34.101562 25.640625 33.992188 C 25.570312 33.835938 25.632812 33.660156 25.78125 33.582031 L 25.820312 33.566406 C 25.972656 33.496094 26.152344 33.558594 26.230469 33.714844 C 26.300781 33.867188 26.238281 34.046875 26.082031 34.117188 L 26.050781 34.132812 C 25.996094 34.15625 25.949219 34.164062 25.910156 34.164062 Z M 10.796875 33.800781 C 10.75 33.800781 10.695312 33.785156 10.652344 33.761719 L 10.621094 33.746094 C 10.472656 33.667969 10.417969 33.480469 10.496094 33.332031 C 10.574219 33.183594 10.757812 33.128906 10.90625 33.207031 L 10.9375 33.222656 C 11.085938 33.300781 11.140625 33.488281 11.0625 33.636719 C 11.015625 33.746094 10.90625 33.800781 10.796875 33.800781 Z M 27.296875 33.425781 C 27.195312 33.425781 27.09375 33.371094 27.03125 33.277344 C 26.945312 33.128906 26.992188 32.945312 27.132812 32.859375 L 27.164062 32.835938 C 27.308594 32.75 27.496094 32.796875 27.582031 32.945312 C 27.667969 33.089844 27.621094 33.277344 27.472656 33.363281 L 27.441406 33.378906 C 27.402344 33.410156 27.347656 33.425781 27.296875 33.425781 Z M 9.445312 32.992188 C 9.390625 32.992188 9.328125 32.976562 9.273438 32.9375 L 9.246094 32.914062 C 9.105469 32.820312 9.066406 32.632812 9.160156 32.484375 C 9.25 32.347656 9.4375 32.308594 9.585938 32.398438 L 9.617188 32.421875 C 9.757812 32.515625 9.796875 32.703125 9.703125 32.851562 C 9.648438 32.945312 9.546875 32.992188 9.445312 32.992188 Z M 28.609375 32.554688 C 28.515625 32.554688 28.421875 32.507812 28.359375 32.429688 C 28.257812 32.300781 28.289062 32.105469 28.421875 32.003906 L 28.453125 31.980469 C 28.59375 31.878906 28.777344 31.910156 28.878906 32.042969 C 28.980469 32.183594 28.949219 32.367188 28.816406 32.46875 L 28.785156 32.492188 C 28.734375 32.539062 28.671875 32.554688 28.609375 32.554688 Z M 8.179688 32.066406 C 8.109375 32.066406 8.039062 32.042969 7.984375 31.996094 L 7.953125 31.972656 C 7.820312 31.863281 7.800781 31.675781 7.90625 31.546875 C 8.015625 31.414062 8.203125 31.390625 8.335938 31.5 L 8.367188 31.523438 C 8.5 31.632812 8.515625 31.824219 8.414062 31.949219 C 8.359375 32.027344 8.273438 32.066406 8.179688 32.066406 Z M 29.828125 31.570312 C 29.742188 31.570312 29.65625 31.539062 29.601562 31.46875 C 29.492188 31.34375 29.5 31.148438 29.625 31.039062 L 29.65625 31.015625 C 29.78125 30.902344 29.976562 30.917969 30.09375 31.039062 C 30.207031 31.164062 30.195312 31.359375 30.070312 31.476562 L 30.046875 31.5 C 29.976562 31.546875 29.898438 31.570312 29.828125 31.570312 Z M 7.007812 31.015625 C 6.929688 31.015625 6.851562 30.984375 6.796875 30.929688 L 6.765625 30.902344 C 6.640625 30.785156 6.640625 30.589844 6.765625 30.464844 C 6.882812 30.339844 7.078125 30.339844 7.199219 30.464844 L 7.222656 30.488281 C 7.347656 30.605469 7.347656 30.800781 7.230469 30.921875 C 7.167969 30.992188 7.085938 31.015625 7.007812 31.015625 Z M 30.953125 30.472656 C 30.878906 30.472656 30.808594 30.449219 30.746094 30.386719 C 30.621094 30.269531 30.613281 30.078125 30.730469 29.953125 L 30.753906 29.921875 C 30.871094 29.796875 31.0625 29.789062 31.1875 29.90625 C 31.3125 30.023438 31.320312 30.214844 31.203125 30.339844 L 31.179688 30.363281 C 31.117188 30.441406 31.03125 30.472656 30.953125 30.472656 Z M 5.933594 29.875 C 5.847656 29.875 5.761719 29.835938 5.699219 29.765625 L 5.675781 29.734375 C 5.570312 29.601562 5.585938 29.417969 5.714844 29.300781 C 5.847656 29.191406 6.035156 29.207031 6.152344 29.339844 L 6.175781 29.371094 C 6.285156 29.5 6.269531 29.6875 6.136719 29.804688 C 6.074219 29.851562 6.003906 29.875 5.933594 29.875 Z M 31.972656 29.277344 C 31.910156 29.277344 31.839844 29.253906 31.785156 29.214844 C 31.652344 29.113281 31.625 28.917969 31.730469 28.785156 L 31.753906 28.753906 C 31.855469 28.625 32.050781 28.601562 32.183594 28.703125 C 32.316406 28.800781 32.339844 28.996094 32.238281 29.128906 L 32.214844 29.160156 C 32.160156 29.238281 32.066406 29.277344 31.972656 29.277344 Z M 4.976562 28.632812 C 4.886719 28.632812 4.785156 28.585938 4.730469 28.5 L 4.707031 28.46875 C 4.613281 28.328125 4.644531 28.140625 4.785156 28.039062 C 4.921875 27.949219 5.109375 27.980469 5.210938 28.117188 L 5.234375 28.148438 C 5.328125 28.289062 5.296875 28.476562 5.15625 28.578125 C 5.09375 28.609375 5.03125 28.632812 4.976562 28.632812 Z M 32.875 27.996094 C 32.820312 27.996094 32.765625 27.980469 32.710938 27.949219 C 32.570312 27.855469 32.523438 27.667969 32.617188 27.527344 L 32.640625 27.496094 C 32.734375 27.355469 32.921875 27.308594 33.0625 27.402344 C 33.199219 27.496094 33.246094 27.683594 33.152344 27.824219 L 33.128906 27.855469 C 33.078125 27.941406 32.976562 27.996094 32.875 27.996094 Z M 4.132812 27.304688 C 4.023438 27.304688 3.921875 27.25 3.867188 27.148438 L 3.851562 27.117188 C 3.765625 26.96875 3.820312 26.78125 3.96875 26.695312 C 4.117188 26.609375 4.300781 26.664062 4.386719 26.8125 L 4.402344 26.84375 C 4.488281 26.992188 4.433594 27.179688 4.285156 27.265625 C 4.238281 27.289062 4.1875 27.304688 4.132812 27.304688 Z M 33.660156 26.625 C 33.613281 26.625 33.566406 26.617188 33.519531 26.59375 C 33.371094 26.519531 33.308594 26.332031 33.386719 26.183594 L 33.402344 26.152344 C 33.480469 26.003906 33.667969 25.941406 33.8125 26.019531 C 33.960938 26.097656 34.023438 26.285156 33.945312 26.433594 L 33.929688 26.464844 C 33.875 26.566406 33.769531 26.625 33.660156 26.625 Z M 3.425781 25.902344 C 3.308594 25.902344 3.199219 25.835938 3.144531 25.726562 L 3.128906 25.695312 C 3.058594 25.539062 3.128906 25.359375 3.285156 25.289062 C 3.441406 25.21875 3.617188 25.289062 3.6875 25.445312 L 3.703125 25.476562 C 3.773438 25.632812 3.703125 25.8125 3.546875 25.878906 C 3.507812 25.894531 3.464844 25.902344 3.425781 25.902344 Z M 34.304688 25.195312 C 34.265625 25.195312 34.226562 25.1875 34.195312 25.171875 C 34.039062 25.113281 33.960938 24.933594 34.023438 24.777344 L 34.039062 24.738281 C 34.101562 24.582031 34.28125 24.503906 34.4375 24.566406 C 34.589844 24.628906 34.667969 24.808594 34.605469 24.964844 L 34.589844 25.003906 C 34.535156 25.121094 34.429688 25.195312 34.304688 25.195312 Z M 2.839844 24.441406 C 2.71875 24.441406 2.59375 24.367188 2.554688 24.234375 L 2.539062 24.195312 C 2.484375 24.03125 2.570312 23.859375 2.734375 23.804688 C 2.894531 23.75 3.066406 23.835938 3.121094 24 L 3.136719 24.039062 C 3.191406 24.203125 3.105469 24.375 2.949219 24.425781 C 2.910156 24.433594 2.878906 24.441406 2.839844 24.441406 Z M 34.816406 23.710938 C 34.785156 23.710938 34.761719 23.703125 34.730469 23.695312 C 34.566406 23.652344 34.476562 23.480469 34.523438 23.316406 L 34.527344 23.277344 C 34.574219 23.113281 34.746094 23.019531 34.910156 23.066406 C 35.074219 23.113281 35.167969 23.285156 35.121094 23.449219 L 35.113281 23.488281 C 35.066406 23.621094 34.949219 23.710938 34.816406 23.710938 Z M 2.40625 22.929688 C 2.265625 22.929688 2.140625 22.835938 2.109375 22.695312 L 2.101562 22.65625 C 2.0625 22.492188 2.164062 22.328125 2.328125 22.289062 C 2.492188 22.25 2.65625 22.351562 2.695312 22.515625 L 2.703125 22.554688 C 2.742188 22.71875 2.640625 22.882812 2.476562 22.921875 C 2.453125 22.929688 2.429688 22.929688 2.40625 22.929688 Z M 35.183594 22.183594 C 35.167969 22.183594 35.144531 22.183594 35.121094 22.175781 C 34.957031 22.144531 34.847656 21.980469 34.878906 21.816406 L 34.886719 21.777344 C 34.917969 21.613281 35.082031 21.507812 35.246094 21.535156 C 35.40625 21.566406 35.515625 21.730469 35.484375 21.894531 L 35.476562 21.933594 C 35.453125 22.082031 35.320312 22.183594 35.183594 22.183594 Z M 2.109375 21.390625 C 1.964844 21.390625 1.832031 21.28125 1.808594 21.125 L 1.800781 21.085938 C 1.777344 20.914062 1.894531 20.769531 2.0625 20.746094 C 2.234375 20.722656 2.382812 20.835938 2.40625 21.007812 L 2.414062 21.046875 C 2.4375 21.21875 2.320312 21.367188 2.15625 21.398438 C 2.140625 21.390625 2.125 21.390625 2.109375 21.390625 Z M 35.398438 20.628906 C 35.390625 20.628906 35.375 20.628906 35.367188 20.628906 C 35.199219 20.613281 35.074219 20.464844 35.097656 20.292969 L 35.097656 20.253906 C 35.113281 20.085938 35.257812 19.960938 35.429688 19.984375 C 35.601562 20 35.726562 20.144531 35.703125 20.316406 L 35.703125 20.355469 C 35.695312 20.511719 35.554688 20.628906 35.398438 20.628906 Z M 1.972656 19.828125 C 1.808594 19.828125 1.675781 19.703125 1.667969 19.53125 L 1.667969 19.492188 C 1.660156 19.324219 1.792969 19.183594 1.957031 19.175781 C 2.125 19.167969 2.265625 19.300781 2.273438 19.460938 L 2.273438 19.5 C 2.28125 19.671875 2.148438 19.8125 1.988281 19.820312 C 1.980469 19.828125 1.972656 19.828125 1.972656 19.828125 Z M 35.476562 19.019531 C 35.304688 19.019531 35.160156 18.917969 35.160156 18.746094 L 35.160156 18.714844 C 35.160156 18.714844 35.160156 18.707031 35.160156 18.707031 L 35.160156 18.667969 C 35.160156 18.5 35.296875 18.367188 35.46875 18.367188 C 35.640625 18.367188 35.78125 18.507812 35.78125 18.667969 L 35.78125 18.699219 C 35.78125 18.699219 35.78125 18.707031 35.78125 18.707031 L 35.78125 18.746094 C 35.78125 18.917969 35.648438 19.019531 35.476562 19.019531 Z M 1.964844 18.25 C 1.957031 18.25 1.957031 18.25 1.949219 18.25 C 1.777344 18.242188 1.644531 18.101562 1.652344 17.929688 L 1.652344 17.894531 C 1.660156 17.722656 1.808594 17.597656 1.972656 17.605469 C 2.140625 17.613281 2.273438 17.753906 2.257812 17.921875 L 2.257812 17.960938 C 2.265625 18.125 2.125 18.25 1.964844 18.25 Z M 35.40625 17.449219 C 35.25 17.449219 35.121094 17.332031 35.105469 17.171875 L 35.105469 17.132812 C 35.089844 16.960938 35.214844 16.8125 35.375 16.796875 C 35.546875 16.78125 35.695312 16.90625 35.710938 17.070312 L 35.710938 17.109375 C 35.726562 17.277344 35.601562 17.425781 35.429688 17.441406 C 35.421875 17.449219 35.414062 17.449219 35.40625 17.449219 Z M 2.109375 16.6875 C 2.09375 16.6875 2.078125 16.6875 2.070312 16.6875 C 1.902344 16.664062 1.785156 16.507812 1.808594 16.347656 L 1.816406 16.308594 C 1.839844 16.136719 1.996094 16.019531 2.164062 16.050781 C 2.335938 16.074219 2.453125 16.230469 2.421875 16.402344 L 2.414062 16.441406 C 2.390625 16.578125 2.257812 16.6875 2.109375 16.6875 Z M 35.191406 15.894531 C 35.042969 15.894531 34.917969 15.792969 34.886719 15.648438 L 34.878906 15.609375 C 34.847656 15.445312 34.957031 15.28125 35.121094 15.25 C 35.28125 15.21875 35.445312 15.328125 35.476562 15.492188 L 35.484375 15.53125 C 35.515625 15.695312 35.40625 15.855469 35.246094 15.886719 C 35.222656 15.894531 35.207031 15.894531 35.191406 15.894531 Z M 2.398438 15.140625 C 2.375 15.140625 2.351562 15.140625 2.328125 15.132812 C 2.164062 15.09375 2.0625 14.933594 2.101562 14.769531 L 2.109375 14.730469 C 2.148438 14.566406 2.3125 14.464844 2.476562 14.503906 C 2.640625 14.542969 2.742188 14.707031 2.703125 14.871094 L 2.695312 14.910156 C 2.664062 15.046875 2.539062 15.140625 2.398438 15.140625 Z M 34.824219 14.363281 C 34.691406 14.363281 34.566406 14.28125 34.527344 14.140625 L 34.523438 14.101562 C 34.476562 13.9375 34.566406 13.765625 34.730469 13.71875 C 34.894531 13.671875 35.066406 13.765625 35.113281 13.929688 L 35.121094 13.96875 C 35.167969 14.132812 35.074219 14.304688 34.910156 14.347656 C 34.878906 14.363281 34.847656 14.363281 34.824219 14.363281 Z M 2.832031 13.632812 C 2.800781 13.632812 2.769531 13.625 2.734375 13.617188 C 2.570312 13.566406 2.484375 13.394531 2.539062 13.230469 L 2.554688 13.199219 C 2.609375 13.035156 2.785156 12.949219 2.941406 13.003906 C 3.105469 13.058594 3.191406 13.230469 3.136719 13.394531 L 3.121094 13.433594 C 3.082031 13.558594 2.957031 13.632812 2.832031 13.632812 Z M 34.320312 12.878906 C 34.195312 12.878906 34.078125 12.804688 34.03125 12.6875 L 34.015625 12.65625 C 33.953125 12.5 34.03125 12.320312 34.1875 12.257812 C 34.34375 12.195312 34.523438 12.273438 34.582031 12.429688 L 34.597656 12.46875 C 34.660156 12.625 34.582031 12.804688 34.429688 12.863281 C 34.390625 12.871094 34.359375 12.878906 34.320312 12.878906 Z M 3.410156 12.171875 C 3.371094 12.171875 3.324219 12.164062 3.285156 12.148438 C 3.128906 12.082031 3.058594 11.902344 3.128906 11.746094 L 3.144531 11.707031 C 3.214844 11.550781 3.394531 11.480469 3.546875 11.550781 C 3.703125 11.621094 3.773438 11.800781 3.703125 11.957031 L 3.6875 11.988281 C 3.632812 12.105469 3.523438 12.171875 3.410156 12.171875 Z M 33.675781 11.441406 C 33.566406 11.441406 33.457031 11.382812 33.402344 11.273438 L 33.386719 11.242188 C 33.308594 11.09375 33.371094 10.90625 33.519531 10.828125 C 33.667969 10.75 33.851562 10.8125 33.929688 10.960938 L 33.945312 10.992188 C 34.023438 11.140625 33.960938 11.328125 33.8125 11.40625 C 33.769531 11.433594 33.722656 11.441406 33.675781 11.441406 Z M 4.117188 10.765625 C 4.0625 10.765625 4.015625 10.75 3.96875 10.726562 C 3.820312 10.644531 3.765625 10.457031 3.851562 10.308594 L 3.867188 10.277344 C 3.953125 10.128906 4.140625 10.082031 4.285156 10.160156 C 4.433594 10.246094 4.480469 10.433594 4.402344 10.582031 L 4.386719 10.613281 C 4.324219 10.710938 4.222656 10.765625 4.117188 10.765625 Z M 32.898438 10.074219 C 32.796875 10.074219 32.695312 10.019531 32.640625 9.9375 L 32.625 9.90625 C 32.53125 9.765625 32.578125 9.570312 32.71875 9.484375 C 32.859375 9.390625 33.054688 9.4375 33.136719 9.578125 L 33.160156 9.609375 C 33.253906 9.75 33.207031 9.945312 33.070312 10.027344 C 33.007812 10.066406 32.953125 10.074219 32.898438 10.074219 Z M 4.953125 9.4375 C 4.894531 9.4375 4.832031 9.421875 4.785156 9.382812 C 4.644531 9.289062 4.613281 9.097656 4.707031 8.957031 L 4.730469 8.925781 C 4.824219 8.785156 5.015625 8.753906 5.15625 8.847656 C 5.296875 8.949219 5.328125 9.136719 5.234375 9.273438 L 5.210938 9.304688 C 5.148438 9.390625 5.046875 9.4375 4.953125 9.4375 Z M 31.996094 8.792969 C 31.902344 8.792969 31.808594 8.753906 31.753906 8.675781 L 31.730469 8.644531 C 31.632812 8.515625 31.652344 8.320312 31.785156 8.21875 C 31.917969 8.117188 32.113281 8.140625 32.214844 8.273438 L 32.238281 8.304688 C 32.339844 8.4375 32.316406 8.628906 32.183594 8.730469 C 32.128906 8.769531 32.066406 8.792969 31.996094 8.792969 Z M 5.910156 8.195312 C 5.839844 8.195312 5.769531 8.171875 5.714844 8.125 C 5.585938 8.015625 5.570312 7.820312 5.675781 7.699219 L 5.699219 7.667969 C 5.808594 7.535156 6.003906 7.527344 6.136719 7.636719 C 6.269531 7.746094 6.277344 7.9375 6.167969 8.070312 L 6.144531 8.101562 C 6.089844 8.15625 5.996094 8.195312 5.910156 8.195312 Z M 30.976562 7.597656 C 30.894531 7.597656 30.816406 7.566406 30.753906 7.496094 L 30.730469 7.472656 C 30.613281 7.347656 30.621094 7.152344 30.746094 7.039062 C 30.871094 6.921875 31.0625 6.929688 31.179688 7.054688 L 31.210938 7.085938 C 31.328125 7.207031 31.320312 7.402344 31.195312 7.519531 C 31.132812 7.566406 31.054688 7.597656 30.976562 7.597656 Z M 6.984375 7.046875 C 6.90625 7.046875 6.828125 7.015625 6.765625 6.953125 C 6.648438 6.828125 6.648438 6.640625 6.773438 6.515625 L 6.804688 6.484375 C 6.929688 6.367188 7.121094 6.367188 7.238281 6.492188 C 7.355469 6.617188 7.355469 6.8125 7.230469 6.929688 L 7.207031 6.953125 C 7.136719 7.015625 7.0625 7.046875 6.984375 7.046875 Z M 29.859375 6.492188 C 29.789062 6.492188 29.710938 6.46875 29.65625 6.414062 L 29.632812 6.390625 C 29.507812 6.285156 29.492188 6.089844 29.609375 5.957031 C 29.71875 5.832031 29.914062 5.816406 30.046875 5.933594 L 30.078125 5.957031 C 30.199219 6.074219 30.214844 6.261719 30.101562 6.390625 C 30.023438 6.460938 29.945312 6.492188 29.859375 6.492188 Z M 8.15625 5.996094 C 8.070312 5.996094 7.976562 5.957031 7.914062 5.878906 C 7.808594 5.746094 7.828125 5.554688 7.960938 5.453125 L 7.992188 5.429688 C 8.125 5.320312 8.320312 5.34375 8.421875 5.476562 C 8.527344 5.609375 8.507812 5.800781 8.375 5.902344 L 8.34375 5.925781 C 8.289062 5.972656 8.226562 5.996094 8.15625 5.996094 Z M 28.640625 5.507812 C 28.578125 5.507812 28.515625 5.492188 28.460938 5.445312 L 28.429688 5.421875 C 28.289062 5.320312 28.265625 5.132812 28.359375 4.992188 C 28.460938 4.855469 28.65625 4.832031 28.785156 4.921875 L 28.816406 4.945312 C 28.957031 5.046875 28.980469 5.242188 28.878906 5.375 C 28.824219 5.460938 28.734375 5.507812 28.640625 5.507812 Z M 9.421875 5.0625 C 9.320312 5.0625 9.230469 5.015625 9.167969 4.921875 C 9.074219 4.785156 9.113281 4.589844 9.25 4.496094 L 9.28125 4.472656 C 9.421875 4.378906 9.617188 4.417969 9.710938 4.558594 C 9.804688 4.699219 9.765625 4.894531 9.625 4.984375 L 9.59375 5.007812 C 9.539062 5.046875 9.476562 5.0625 9.421875 5.0625 Z M 27.324219 4.636719 C 27.273438 4.636719 27.21875 4.621094 27.171875 4.589844 L 27.140625 4.566406 C 26.992188 4.480469 26.945312 4.292969 27.03125 4.148438 C 27.117188 4 27.304688 3.953125 27.449219 4.039062 L 27.480469 4.0625 C 27.628906 4.148438 27.675781 4.332031 27.589844 4.480469 C 27.535156 4.582031 27.433594 4.636719 27.324219 4.636719 Z M 10.765625 4.253906 C 10.660156 4.253906 10.550781 4.195312 10.496094 4.09375 C 10.417969 3.945312 10.472656 3.757812 10.621094 3.679688 L 10.652344 3.664062 C 10.796875 3.585938 10.984375 3.640625 11.0625 3.789062 C 11.140625 3.9375 11.085938 4.125 10.9375 4.199219 L 10.90625 4.214844 C 10.867188 4.238281 10.8125 4.253906 10.765625 4.253906 Z M 25.941406 3.890625 C 25.894531 3.890625 25.859375 3.882812 25.8125 3.859375 L 25.78125 3.84375 C 25.625 3.773438 25.5625 3.585938 25.632812 3.433594 C 25.703125 3.277344 25.886719 3.214844 26.042969 3.285156 L 26.074219 3.300781 C 26.230469 3.371094 26.292969 3.554688 26.222656 3.710938 C 26.167969 3.828125 26.058594 3.890625 25.941406 3.890625 Z M 12.179688 3.570312 C 12.066406 3.570312 11.949219 3.5 11.902344 3.386719 C 11.839844 3.230469 11.910156 3.050781 12.066406 2.980469 L 12.105469 2.964844 C 12.257812 2.902344 12.4375 2.972656 12.507812 3.128906 C 12.570312 3.285156 12.5 3.464844 12.34375 3.53125 L 12.3125 3.546875 C 12.257812 3.5625 12.21875 3.570312 12.179688 3.570312 Z M 24.496094 3.277344 C 24.464844 3.277344 24.425781 3.269531 24.398438 3.261719 L 24.359375 3.246094 C 24.203125 3.191406 24.117188 3.011719 24.179688 2.847656 C 24.234375 2.695312 24.414062 2.609375 24.574219 2.671875 L 24.613281 2.6875 C 24.769531 2.742188 24.855469 2.917969 24.800781 3.082031 C 24.738281 3.199219 24.621094 3.277344 24.496094 3.277344 Z M 13.65625 3.027344 C 13.527344 3.027344 13.410156 2.941406 13.363281 2.808594 C 13.308594 2.648438 13.402344 2.476562 13.566406 2.429688 L 13.601562 2.421875 C 13.765625 2.367188 13.9375 2.460938 13.984375 2.625 C 14.039062 2.785156 13.945312 2.957031 13.78125 3.003906 L 13.742188 3.011719 C 13.71875 3.027344 13.6875 3.027344 13.65625 3.027344 Z M 22.996094 2.808594 C 22.972656 2.808594 22.945312 2.808594 22.921875 2.800781 L 22.882812 2.792969 C 22.71875 2.753906 22.617188 2.585938 22.664062 2.421875 C 22.703125 2.257812 22.875 2.15625 23.035156 2.203125 L 23.074219 2.210938 C 23.238281 2.257812 23.339844 2.421875 23.292969 2.585938 C 23.253906 2.71875 23.128906 2.808594 22.996094 2.808594 Z M 15.171875 2.632812 C 15.03125 2.632812 14.910156 2.53125 14.878906 2.390625 C 14.839844 2.226562 14.949219 2.0625 15.109375 2.027344 L 15.140625 2.019531 C 15.304688 1.980469 15.476562 2.085938 15.507812 2.25 C 15.546875 2.414062 15.4375 2.578125 15.273438 2.617188 L 15.234375 2.625 C 15.21875 2.625 15.195312 2.632812 15.171875 2.632812 Z M 21.460938 2.476562 C 21.445312 2.476562 21.429688 2.476562 21.414062 2.46875 L 21.375 2.460938 C 21.210938 2.4375 21.09375 2.273438 21.117188 2.109375 C 21.148438 1.949219 21.304688 1.832031 21.46875 1.855469 L 21.507812 1.863281 C 21.667969 1.894531 21.785156 2.046875 21.753906 2.210938 C 21.738281 2.375 21.605469 2.476562 21.460938 2.476562 Z M 16.726562 2.375 C 16.570312 2.375 16.441406 2.257812 16.425781 2.101562 C 16.402344 1.933594 16.523438 1.785156 16.695312 1.761719 L 16.734375 1.753906 C 16.90625 1.730469 17.054688 1.855469 17.078125 2.027344 C 17.101562 2.195312 16.976562 2.34375 16.804688 2.367188 L 16.765625 2.375 C 16.75 2.367188 16.734375 2.375 16.726562 2.375 Z M 19.898438 2.296875 C 19.890625 2.296875 19.882812 2.296875 19.875 2.296875 L 19.835938 2.296875 C 19.664062 2.289062 19.539062 2.140625 19.546875 1.972656 C 19.554688 1.800781 19.703125 1.675781 19.875 1.683594 L 19.914062 1.683594 C 20.085938 1.691406 20.207031 1.839844 20.199219 2.011719 C 20.191406 2.171875 20.0625 2.296875 19.898438 2.296875 Z M 18.289062 2.265625 C 18.125 2.265625 17.984375 2.132812 17.984375 1.964844 C 17.976562 1.792969 18.117188 1.652344 18.28125 1.644531 L 18.320312 1.644531 C 18.484375 1.636719 18.632812 1.777344 18.632812 1.941406 C 18.640625 2.109375 18.5 2.25 18.335938 2.257812 L 18.289062 2.265625 C 18.296875 2.265625 18.296875 2.265625 18.289062 2.265625 Z M 18.289062 2.265625 " fill-opacity="1" fill-rule="nonzero"/></svg>