<svg xmlns="http://www.w3.org/2000/svg" xmlns:xlink="http://www.w3.org/1999/xlink" width="150" zoomAndPan="magnify" viewBox="0 0 112.5 224.999993" height="300" preserveAspectRatio="xMidYMid meet" version="1.0"><defs><clipPath id="5fa804731a"><path d="M 0 2.453125 L 112.003906 2.453125 L 112.003906 223 L 0 223 Z M 0 2.453125 " clip-rule="nonzero"/></clipPath><clipPath id="48797e7899"><path d="M 111.601562 2.453125 C 49.964844 2.453125 0 51.945312 0 112.996094 C 0 174.050781 49.964844 223.542969 111.601562 223.542969 C 173.234375 223.542969 223.199219 174.050781 223.199219 112.996094 C 223.199219 51.945312 173.234375 2.453125 111.601562 2.453125 " clip-rule="nonzero"/></clipPath><clipPath id="80f96d2548"><path d="M 0 2.453125 L 112.003906 2.453125 L 112.003906 223.703125 L 0 223.703125 Z M 0 2.453125 " clip-rule="nonzero"/></clipPath><clipPath id="c88102921a"><path d="M 111.75 2.453125 C 50.03125 2.453125 0 51.984375 0 113.078125 C 0 174.175781 50.03125 223.703125 111.75 223.703125 C 173.46875 223.703125 223.5 174.175781 223.5 113.078125 C 223.5 51.984375 173.46875 2.453125 111.75 2.453125 " clip-rule="nonzero"/></clipPath><clipPath id="9a25fb0459"><path d="M 9.371094 10 L 112.003906 10 L 112.003906 216 L 9.371094 216 Z M 9.371094 10 " clip-rule="nonzero"/></clipPath><clipPath id="d10efce92e"><path d="M 109 32 L 112.003906 32 L 112.003906 57 L 109 57 Z M 109 32 " clip-rule="nonzero"/></clipPath><clipPath id="fc35bfd0cc"><path d="M 109 169 L 112.003906 169 L 112.003906 194 L 109 194 Z M 109 169 " clip-rule="nonzero"/></clipPath><clipPath id="ff05a1a492"><path d="M 98 130 L 112.003906 130 L 112.003906 143 L 98 143 Z M 98 130 " clip-rule="nonzero"/></clipPath></defs><g clip-path="url(#5fa804731a)"><g clip-path="url(#48797e7899)"><path fill="#38b6ff" d="M 0 2.453125 L 223.277344 2.453125 L 223.277344 222.242188 L 0 222.242188 Z M 0 2.453125 " fill-opacity="1" fill-rule="nonzero"/></g></g><g clip-path="url(#80f96d2548)"><g clip-path="url(#c88102921a)"><path stroke-linecap="butt" transform="matrix(0.751024, 0, 0, 0.750557, 0, 2.455073)" fill="none" stroke-linejoin="miter" d="M 148.796888 -0.00259547 C 66.617399 -0.00259547 0 65.990102 0 147.388035 C 0 228.791172 66.617399 294.778665 148.796888 294.778665 C 230.976377 294.778665 297.593775 228.791172 297.593775 147.388035 C 297.593775 65.990102 230.976377 -0.00259547 148.796888 -0.00259547 " stroke="#fafafa" stroke-width="12" stroke-opacity="1" stroke-miterlimit="4"/></g></g><g clip-path="url(#9a25fb0459)"><path fill="#001528" d="M 110.824219 10.980469 C 111.667969 9.875 113.328125 9.875 114.171875 10.980469 C 114.421875 11.308594 114.660156 11.625 114.890625 11.941406 L 116.289062 13.84375 L 117.636719 15.714844 C 120.082031 19.179688 122.214844 22.460938 124.007812 25.554688 C 127.222656 22.359375 131.027344 19.015625 135.398438 15.507812 L 137.28125 14.03125 C 138.382812 13.167969 139.992188 13.605469 140.515625 14.894531 L 141.402344 17.113281 C 143.445312 22.339844 145.0625 27.136719 146.242188 31.511719 C 149.347656 29.730469 152.835938 27.957031 156.695312 26.175781 L 158.78125 25.234375 L 160.945312 24.285156 L 162.050781 23.816406 C 163.339844 23.269531 164.785156 24.109375 164.957031 25.488281 C 165.003906 25.890625 165.046875 26.285156 165.101562 26.691406 L 165.363281 29.027344 L 165.582031 31.3125 C 165.976562 35.542969 166.183594 39.445312 166.183594 43.03125 C 168.105469 42.519531 170.140625 42.039062 172.292969 41.589844 L 174.382812 41.175781 C 175.09375 41.03125 175.8125 40.902344 176.546875 40.769531 L 178.777344 40.386719 C 180.285156 40.136719 181.847656 39.90625 183.445312 39.675781 C 184.820312 39.492188 186 40.671875 185.816406 42.046875 L 185.464844 44.410156 L 185.105469 46.714844 C 184.546875 50.105469 183.925781 53.277344 183.234375 56.207031 L 182.765625 58.128906 C 182.667969 58.535156 182.570312 58.917969 182.472656 59.308594 C 186.046875 59.308594 189.949219 59.515625 194.179688 59.910156 L 196.464844 60.128906 L 198.804688 60.390625 L 200.003906 60.535156 C 201.382812 60.710938 202.222656 62.152344 201.679688 63.441406 C 201.523438 63.8125 201.359375 64.183594 201.207031 64.546875 L 200.257812 66.710938 L 199.316406 68.796875 C 197.535156 72.65625 195.765625 76.144531 193.980469 79.25 C 197.4375 80.179688 201.152344 81.378906 205.132812 82.855469 L 207.285156 83.664062 L 209.484375 84.527344 L 210.597656 84.976562 C 211.886719 85.503906 212.324219 87.109375 211.460938 88.214844 L 209.984375 90.09375 C 209.242188 91.011719 208.519531 91.90625 207.789062 92.78125 L 206.355469 94.488281 C 204.925781 96.160156 203.527344 97.722656 202.160156 99.1875 L 200.792969 100.621094 C 200.507812 100.914062 200.222656 101.199219 199.941406 101.484375 C 203.035156 103.277344 206.3125 105.410156 209.777344 107.855469 L 211.648438 109.203125 L 213.550781 110.601562 L 214.511719 111.324219 C 215.617188 112.164062 215.617188 113.824219 214.511719 114.667969 C 214.183594 114.917969 213.867188 115.160156 213.550781 115.390625 L 211.648438 116.789062 L 209.777344 118.132812 C 206.3125 120.582031 203.035156 122.714844 199.941406 124.507812 C 201.339844 125.917969 202.769531 127.4375 204.234375 129.074219 L 205.644531 130.683594 C 206.355469 131.503906 207.066406 132.34375 207.789062 133.207031 L 209.253906 134.988281 L 210.71875 136.835938 L 211.460938 137.777344 C 212.324219 138.882812 211.886719 140.488281 210.597656 141.011719 L 208.378906 141.898438 C 207.273438 142.335938 206.191406 142.742188 205.132812 143.132812 L 203.035156 143.886719 C 200.96875 144.632812 198.96875 145.289062 197.042969 145.867188 L 195.152344 146.425781 C 194.757812 146.535156 194.363281 146.644531 193.980469 146.742188 C 195.765625 149.847656 197.535156 153.332031 199.316406 157.191406 L 200.257812 159.28125 L 201.207031 161.445312 L 201.679688 162.546875 C 202.222656 163.839844 201.382812 165.28125 200.003906 165.457031 C 199.601562 165.5 199.207031 165.542969 198.804688 165.597656 L 196.464844 165.859375 L 194.179688 166.078125 C 189.949219 166.472656 186.046875 166.679688 182.460938 166.679688 C 182.972656 168.605469 183.453125 170.636719 183.902344 172.792969 L 184.320312 174.878906 C 184.875 177.722656 185.367188 180.738281 185.816406 183.941406 C 186 185.320312 184.820312 186.5 183.445312 186.3125 C 182.644531 186.203125 181.859375 186.085938 181.082031 185.964844 L 178.777344 185.601562 C 178.40625 185.539062 178.023438 185.484375 177.648438 185.417969 L 175.464844 185.023438 C 172.117188 184.402344 169.023438 183.722656 166.183594 182.96875 C 166.183594 186.542969 165.976562 190.445312 165.582031 194.675781 L 165.363281 196.960938 L 165.101562 199.300781 L 164.957031 200.503906 C 164.785156 201.878906 163.339844 202.722656 162.050781 202.175781 C 161.679688 202.023438 161.308594 201.859375 160.945312 201.707031 L 158.78125 200.753906 L 156.695312 199.816406 C 152.835938 198.03125 149.347656 196.261719 146.242188 194.480469 C 144.898438 199.464844 142.984375 205.007812 140.515625 211.097656 C 139.992188 212.386719 138.382812 212.824219 137.28125 211.960938 C 132.097656 207.925781 127.671875 204.078125 124.007812 200.4375 C 122.214844 203.53125 120.082031 206.8125 117.636719 210.277344 L 116.289062 212.144531 L 114.890625 214.046875 L 114.171875 215.007812 C 113.328125 216.113281 111.667969 216.113281 110.824219 215.007812 C 110.574219 214.679688 110.332031 214.363281 110.101562 214.046875 L 108.703125 212.144531 L 107.359375 210.277344 C 104.910156 206.8125 102.777344 203.53125 100.988281 200.4375 C 97.324219 204.078125 92.898438 207.925781 87.714844 211.960938 C 86.609375 212.824219 85.003906 212.386719 84.480469 211.097656 C 82.007812 205.007812 80.097656 199.464844 78.742188 194.46875 C 75.648438 196.261719 72.160156 198.03125 68.300781 199.816406 L 66.210938 200.753906 L 64.046875 201.707031 L 62.945312 202.175781 C 61.652344 202.722656 60.210938 201.878906 60.035156 200.503906 C 59.992188 200.097656 59.949219 199.707031 59.894531 199.300781 L 59.632812 196.960938 L 59.414062 194.675781 C 59.019531 190.445312 58.8125 186.542969 58.8125 182.957031 C 55.96875 183.722656 52.875 184.402344 49.53125 185.023438 L 47.34375 185.417969 C 46.972656 185.484375 46.589844 185.539062 46.21875 185.601562 L 43.910156 185.964844 C 43.136719 186.085938 42.347656 186.203125 41.550781 186.3125 C 40.171875 186.5 38.992188 185.320312 39.179688 183.941406 C 39.625 180.738281 40.117188 177.722656 40.675781 174.878906 L 41.089844 172.792969 C 41.539062 170.636719 42.019531 168.605469 42.523438 166.679688 C 38.949219 166.679688 35.046875 166.472656 30.816406 166.078125 L 28.53125 165.859375 L 26.191406 165.597656 L 24.988281 165.457031 C 23.613281 165.28125 22.769531 163.839844 23.316406 162.546875 C 23.46875 162.175781 23.632812 161.804688 23.785156 161.445312 L 24.738281 159.28125 L 25.679688 157.191406 C 27.460938 153.332031 29.230469 149.847656 31.011719 146.742188 C 30.628906 146.644531 30.238281 146.535156 29.84375 146.425781 L 27.953125 145.867188 C 26.027344 145.289062 24.027344 144.632812 21.960938 143.886719 L 19.863281 143.132812 C 18.800781 142.742188 17.71875 142.335938 16.617188 141.898438 L 14.398438 141.011719 C 13.105469 140.488281 12.667969 138.882812 13.53125 137.777344 C 13.773438 137.460938 14.023438 137.144531 14.277344 136.835938 L 15.742188 134.988281 L 17.207031 133.207031 C 17.925781 132.34375 18.636719 131.503906 19.347656 130.683594 L 20.757812 129.074219 C 22.222656 127.4375 23.65625 125.917969 25.054688 124.507812 C 21.960938 122.714844 18.683594 120.582031 15.214844 118.132812 L 13.347656 116.789062 L 11.445312 115.390625 L 10.484375 114.667969 C 9.378906 113.824219 9.378906 112.164062 10.484375 111.324219 C 10.8125 111.070312 11.128906 110.832031 11.445312 110.601562 L 13.347656 109.203125 L 15.214844 107.855469 C 18.683594 105.410156 21.960938 103.277344 25.054688 101.484375 C 24.769531 101.199219 24.488281 100.914062 24.203125 100.621094 L 22.835938 99.1875 C 21.46875 97.722656 20.070312 96.160156 18.636719 94.488281 L 17.207031 92.78125 C 16.472656 91.90625 15.753906 91.011719 15.007812 90.09375 L 13.53125 88.214844 C 12.667969 87.109375 13.105469 85.503906 14.398438 84.976562 C 14.769531 84.824219 15.140625 84.671875 15.511719 84.527344 L 17.707031 83.664062 L 19.863281 82.855469 C 23.839844 81.378906 27.558594 80.179688 31.023438 79.238281 C 29.230469 76.144531 27.460938 72.65625 25.679688 68.796875 L 24.738281 66.710938 L 23.785156 64.546875 L 23.316406 63.441406 C 22.769531 62.152344 23.613281 60.710938 24.988281 60.535156 C 25.394531 60.492188 25.789062 60.445312 26.191406 60.390625 L 28.53125 60.128906 L 30.816406 59.910156 C 35.046875 59.515625 38.949219 59.308594 42.535156 59.308594 C 42.425781 58.917969 42.328125 58.535156 42.230469 58.128906 L 41.757812 56.207031 C 41.070312 53.277344 40.445312 50.105469 39.890625 46.714844 L 39.527344 44.410156 L 39.179688 42.046875 C 38.992188 40.671875 40.171875 39.492188 41.550781 39.675781 C 43.148438 39.90625 44.710938 40.136719 46.21875 40.386719 L 48.449219 40.769531 C 49.179688 40.902344 49.902344 41.03125 50.613281 41.175781 L 52.699219 41.589844 C 54.855469 42.039062 56.886719 42.519531 58.8125 43.023438 C 58.8125 39.445312 59.019531 35.542969 59.414062 31.3125 L 59.632812 29.027344 L 59.894531 26.691406 L 60.035156 25.488281 C 60.210938 24.109375 61.652344 23.269531 62.945312 23.816406 C 63.316406 23.96875 63.6875 24.132812 64.046875 24.285156 L 66.210938 25.234375 L 68.300781 26.175781 C 72.160156 27.957031 75.648438 29.730469 78.75 31.511719 C 79.933594 27.136719 81.550781 22.339844 83.59375 17.113281 L 84.480469 14.894531 C 85.003906 13.605469 86.609375 13.167969 87.714844 14.03125 L 89.59375 15.507812 C 93.96875 19.015625 97.773438 22.359375 100.988281 25.554688 C 102.777344 22.460938 104.910156 19.179688 107.359375 15.714844 L 108.703125 13.84375 L 110.101562 11.941406 Z M 125.539062 172.464844 L 125.242188 172.527344 C 121.132812 173.402344 116.871094 173.863281 112.496094 173.863281 C 108.015625 173.863281 103.652344 173.382812 99.457031 172.464844 C 98.382812 174.453125 97.804688 176.671875 97.804688 179.109375 C 97.804688 185.789062 101.90625 195.125 110.167969 206.976562 L 111.449219 208.765625 L 112.496094 210.222656 L 112.890625 209.6875 C 113.109375 209.378906 113.339844 209.074219 113.546875 208.765625 L 114.824219 206.976562 C 123.089844 195.125 127.191406 185.789062 127.191406 179.109375 C 127.191406 176.671875 126.609375 174.453125 125.539062 172.464844 Z M 93.871094 182.507812 L 93.671875 182.761719 C 91.09375 185.941406 87.367188 189.078125 82.488281 192.207031 C 83.570312 196.425781 85.101562 201.125 87.09375 206.285156 L 87.332031 206.910156 L 88.730469 205.78125 C 92.65625 202.558594 96.035156 199.496094 98.875 196.601562 C 96.144531 191.320312 94.480469 186.632812 93.871094 182.507812 Z M 131.125 182.507812 L 131.082031 182.828125 C 130.425781 186.871094 128.773438 191.453125 126.117188 196.601562 C 129.167969 199.707031 132.839844 203.007812 137.136719 206.492188 L 137.660156 206.910156 L 138.308594 205.238281 C 140.101562 200.480469 141.5 196.140625 142.503906 192.207031 C 137.5 189.003906 133.714844 185.777344 131.125 182.507812 Z M 71.480469 157.96875 L 71.449219 157.980469 C 69.535156 159.171875 67.929688 160.808594 66.714844 162.910156 C 63.371094 168.691406 62.265625 178.824219 63.492188 193.222656 L 63.699219 195.410156 L 63.808594 196.535156 L 63.882812 197.203125 L 65.523438 196.46875 L 67.523438 195.550781 C 80.597656 189.417969 88.820312 183.382812 92.164062 177.601562 C 93.378906 175.492188 93.988281 173.285156 94.066406 171.019531 C 85.574219 168.332031 77.898438 163.828125 71.480469 157.96875 Z M 153.523438 157.96875 C 147.097656 163.828125 139.410156 168.332031 130.929688 171.019531 C 131.003906 173.285156 131.617188 175.492188 132.832031 177.601562 C 136.175781 183.382812 144.394531 189.417969 157.46875 195.550781 L 159.472656 196.46875 L 160.5 196.929688 L 161.109375 197.191406 L 161.296875 195.410156 L 161.503906 193.222656 C 162.726562 178.824219 161.625 168.691406 158.277344 162.910156 C 157.054688 160.800781 155.449219 159.160156 153.523438 157.96875 Z M 163.382812 163.882812 L 163.503906 164.1875 C 164.96875 168.003906 165.820312 172.800781 166.09375 178.585938 C 170.292969 179.753906 175.125 180.78125 180.589844 181.644531 L 181.246094 181.746094 L 181.148438 181.089844 L 180.789062 178.878906 C 180.722656 178.519531 180.65625 178.160156 180.589844 177.808594 L 180.207031 175.710938 L 179.804688 173.675781 C 179.269531 171.140625 178.699219 168.78125 178.085938 166.59375 C 172.152344 166.320312 167.253906 165.421875 163.382812 163.882812 Z M 61.609375 163.882812 L 61.304688 164.003906 C 57.476562 165.46875 52.691406 166.320312 46.90625 166.59375 C 46.296875 168.78125 45.726562 171.140625 45.191406 173.675781 L 44.785156 175.710938 L 44.402344 177.808594 C 44.207031 178.871094 44.019531 179.960938 43.847656 181.089844 L 43.75 181.746094 L 45.519531 181.460938 C 50.527344 180.640625 54.996094 179.679688 58.898438 178.585938 C 59.171875 172.648438 60.070312 167.75 61.609375 163.882812 Z M 112.496094 56.324219 C 81.199219 56.324219 55.828125 81.699219 55.828125 112.996094 C 55.828125 144.292969 81.199219 169.664062 112.496094 169.664062 C 143.792969 169.664062 169.167969 144.292969 169.167969 112.996094 C 169.167969 81.699219 143.792969 56.324219 112.496094 56.324219 Z M 177.105469 133.328125 C 174.992188 132.113281 172.785156 131.503906 170.523438 131.425781 C 167.832031 139.917969 163.328125 147.59375 157.46875 154.011719 C 158.660156 155.945312 160.300781 157.550781 162.410156 158.777344 C 168.195312 162.121094 178.328125 163.226562 192.726562 162 L 194.910156 161.792969 L 196.039062 161.683594 L 196.703125 161.609375 L 195.972656 159.96875 L 195.054688 157.96875 C 188.921875 144.894531 182.886719 136.671875 177.105469 133.328125 Z M 54.472656 131.425781 C 52.199219 131.503906 49.988281 132.113281 47.890625 133.328125 C 42.109375 136.671875 36.074219 144.894531 29.941406 157.96875 L 29.023438 159.96875 L 28.289062 161.609375 L 28.957031 161.683594 C 29.339844 161.71875 29.710938 161.761719 30.082031 161.792969 L 32.269531 162 C 46.667969 163.226562 56.800781 162.121094 62.582031 158.777344 C 64.691406 157.550781 66.332031 155.945312 67.523438 154.023438 C 61.664062 147.59375 57.160156 139.917969 54.472656 131.425781 Z M 196.101562 126.617188 L 195.5 126.921875 C 190.460938 129.46875 185.980469 131.042969 182.011719 131.621094 C 185.28125 134.214844 188.503906 137.996094 191.707031 143.003906 C 194.484375 142.292969 197.46875 141.382812 200.660156 140.28125 L 202.671875 139.558594 L 204.738281 138.804688 L 206.410156 138.160156 L 205.996094 137.636719 L 204.574219 135.90625 C 204.34375 135.625 204.105469 135.351562 203.875 135.078125 L 202.488281 133.449219 L 201.121094 131.894531 C 199.402344 129.972656 197.71875 128.199219 196.101562 126.617188 Z M 28.890625 126.617188 C 27.273438 128.199219 25.589844 129.972656 23.875 131.894531 L 22.507812 133.449219 L 21.121094 135.078125 C 20.421875 135.898438 19.710938 136.761719 19 137.636719 L 18.582031 138.160156 L 20.257812 138.804688 L 22.320312 139.558594 L 24.332031 140.28125 C 27.527344 141.382812 30.511719 142.292969 33.285156 143.003906 C 36.488281 137.996094 39.714844 134.214844 42.984375 131.621094 C 38.863281 131.011719 34.171875 129.347656 28.890625 126.617188 Z M 46.382812 98.304688 C 39.703125 98.304688 30.367188 102.402344 18.519531 110.667969 L 16.726562 111.945312 L 15.808594 112.601562 L 15.269531 112.996094 L 16.726562 114.042969 L 18.519531 115.324219 C 30.367188 123.589844 39.703125 127.6875 46.382812 127.6875 C 48.820312 127.6875 51.039062 127.109375 53.027344 126.035156 C 52.109375 121.839844 51.628906 117.476562 51.628906 112.996094 C 51.628906 108.511719 52.109375 104.152344 53.027344 99.953125 C 51.039062 98.882812 48.820312 98.304688 46.382812 98.304688 Z M 178.613281 98.304688 C 176.175781 98.304688 173.957031 98.882812 171.964844 99.953125 C 172.882812 104.152344 173.363281 108.511719 173.363281 112.996094 C 173.363281 117.476562 172.882812 121.839844 171.964844 126.035156 C 173.957031 127.109375 176.175781 127.6875 178.613281 127.6875 C 185.292969 127.6875 194.628906 123.589844 206.476562 115.324219 L 208.269531 114.042969 L 209.722656 112.996094 L 209.1875 112.601562 C 208.882812 112.382812 208.574219 112.152344 208.269531 111.945312 L 206.476562 110.667969 C 194.628906 102.402344 185.292969 98.304688 178.613281 98.304688 Z M 33.285156 82.988281 C 31.078125 83.554688 28.75 84.246094 26.289062 85.054688 L 24.332031 85.710938 L 22.320312 86.429688 C 21.304688 86.792969 20.265625 87.183594 19.207031 87.589844 L 18.582031 87.832031 L 19.710938 89.230469 L 21.121094 90.914062 C 23.832031 94.128906 26.421875 96.949219 28.890625 99.375 C 34.171875 96.652344 38.863281 94.980469 42.984375 94.367188 C 39.84375 91.886719 36.742188 88.277344 33.648438 83.554688 Z M 191.707031 82.988281 L 191.347656 83.554688 C 188.253906 88.277344 185.148438 91.886719 182.011719 94.367188 C 186.132812 94.980469 190.824219 96.652344 196.101562 99.375 C 198.574219 96.949219 201.164062 94.128906 203.875 90.914062 L 205.285156 89.230469 L 206.410156 87.832031 L 204.738281 87.183594 C 204.039062 86.921875 203.351562 86.671875 202.671875 86.429688 L 200.660156 85.710938 L 198.703125 85.054688 C 196.246094 84.246094 193.917969 83.554688 191.707031 82.988281 Z M 62.582031 67.214844 C 56.800781 63.867188 46.667969 62.765625 32.269531 63.988281 L 30.082031 64.195312 L 28.289062 64.382812 L 28.5625 64.996094 C 28.71875 65.332031 28.871094 65.683594 29.023438 66.023438 L 29.941406 68.023438 C 36.074219 81.097656 42.109375 89.316406 47.890625 92.664062 C 50 93.875 52.210938 94.488281 54.472656 94.5625 C 57.160156 86.070312 61.664062 78.394531 67.523438 71.980469 C 66.332031 70.042969 64.691406 68.4375 62.582031 67.214844 Z M 192.726562 63.988281 C 178.328125 62.765625 168.195312 63.867188 162.410156 67.214844 C 160.300781 68.4375 158.660156 70.042969 157.46875 71.96875 C 163.328125 78.394531 167.832031 86.070312 170.523438 94.5625 C 172.785156 94.488281 174.992188 93.875 177.105469 92.664062 C 182.886719 89.316406 188.921875 81.097656 195.054688 68.023438 L 195.972656 66.023438 L 196.429688 64.996094 L 196.703125 64.382812 L 194.910156 64.195312 Z M 63.882812 28.789062 L 63.808594 29.457031 C 63.773438 29.839844 63.730469 30.210938 63.699219 30.582031 L 63.492188 32.769531 C 62.265625 47.164062 63.371094 57.296875 66.714844 63.082031 C 67.941406 65.191406 69.546875 66.832031 71.472656 68.023438 C 77.898438 62.164062 85.574219 57.660156 94.066406 54.96875 C 93.988281 52.707031 93.378906 50.5 92.164062 48.390625 C 88.820312 42.605469 80.597656 36.570312 67.523438 30.4375 L 65.523438 29.519531 Z M 161.109375 28.789062 L 160.5 29.0625 C 160.160156 29.214844 159.808594 29.367188 159.472656 29.519531 L 157.46875 30.4375 C 144.394531 36.570312 136.175781 42.605469 132.832031 48.390625 C 131.617188 50.5 131.003906 52.707031 130.929688 54.96875 C 139.421875 57.660156 147.097656 62.164062 153.511719 68.023438 C 155.449219 66.832031 157.054688 65.191406 158.277344 63.082031 C 161.625 57.296875 162.726562 47.164062 161.503906 32.769531 L 161.296875 30.582031 Z M 181.246094 44.246094 L 179.476562 44.53125 C 178.742188 44.648438 178.023438 44.769531 177.3125 44.902344 L 175.210938 45.285156 L 173.179688 45.6875 C 170.644531 46.222656 168.28125 46.792969 166.09375 47.40625 C 165.820312 53.339844 164.925781 58.238281 163.382812 62.109375 C 167.253906 60.566406 172.152344 59.671875 178.085938 59.398438 C 179.257812 55.199219 180.285156 50.367188 181.148438 44.902344 Z M 43.75 44.246094 L 44.03125 46.015625 C 44.851562 51.023438 45.8125 55.496094 46.90625 59.398438 C 52.84375 59.671875 57.742188 60.566406 61.609375 62.109375 C 60.070312 58.238281 59.171875 53.339844 58.898438 47.40625 C 56.714844 46.792969 54.351562 46.222656 51.816406 45.6875 L 49.78125 45.285156 L 47.683594 44.902344 C 46.625 44.703125 45.53125 44.519531 44.402344 44.34375 Z M 112.496094 15.769531 L 112.105469 16.304688 C 111.886719 16.609375 111.65625 16.917969 111.449219 17.222656 L 110.167969 19.015625 C 101.90625 30.867188 97.804688 40.203125 97.804688 46.878906 C 97.804688 49.316406 98.382812 51.539062 99.457031 53.527344 C 103.652344 52.609375 108.015625 52.128906 112.496094 52.128906 C 116.980469 52.128906 121.339844 52.609375 125.539062 53.527344 C 126.609375 51.539062 127.191406 49.316406 127.191406 46.878906 C 127.191406 40.203125 123.089844 30.867188 114.824219 19.015625 L 113.546875 17.222656 Z M 87.332031 19.082031 L 87.09375 19.703125 C 85.867188 22.875 84.820312 25.878906 83.945312 28.691406 L 83.386719 30.546875 C 83.058594 31.652344 82.761719 32.734375 82.488281 33.785156 C 87.496094 36.988281 91.289062 40.210938 93.871094 43.480469 C 94.480469 39.359375 96.144531 34.667969 98.875 29.390625 C 98.121094 28.625 97.324219 27.835938 96.492188 27.039062 L 95.074219 25.714844 C 92.90625 23.707031 90.503906 21.640625 87.855469 19.496094 Z M 137.660156 19.082031 L 137.136719 19.496094 C 134.492188 21.640625 132.085938 23.707031 129.921875 25.714844 L 128.5 27.039062 C 127.671875 27.835938 126.871094 28.625 126.117188 29.390625 C 128.851562 34.667969 130.511719 39.359375 131.125 43.480469 C 133.703125 40.210938 137.5 36.988281 142.503906 33.785156 C 142.230469 32.734375 141.9375 31.652344 141.609375 30.546875 L 141.050781 28.691406 C 140.175781 25.878906 139.125 22.875 137.902344 19.703125 Z M 137.660156 19.082031 " fill-opacity="1" fill-rule="nonzero"/></g><g clip-path="url(#d10efce92e)"><path fill="#001528" d="M 112.804688 32.058594 C 113.953125 32.230469 114.75 33.304688 114.574219 34.449219 C 113.601562 40.933594 113.601562 47.425781 114.574219 53.921875 C 114.75 55.058594 113.953125 56.128906 112.804688 56.304688 C 111.667969 56.476562 110.59375 55.679688 110.421875 54.53125 C 109.382812 47.632812 109.382812 40.726562 110.421875 33.828125 C 110.585938 32.757812 111.511719 32.003906 112.5625 32.035156 Z M 112.804688 32.058594 " fill-opacity="1" fill-rule="nonzero"/></g><g clip-path="url(#fc35bfd0cc)"><path fill="#001528" d="M 111.4375 193.933594 C 110.289062 193.757812 109.503906 192.6875 109.667969 191.539062 C 110.640625 185.058594 110.640625 178.5625 109.667969 172.070312 C 109.503906 170.933594 110.289062 169.863281 111.4375 169.6875 C 112.585938 169.511719 113.644531 170.308594 113.820312 171.457031 C 114.859375 178.355469 114.859375 185.265625 113.820312 192.164062 C 113.65625 193.234375 112.726562 193.988281 111.675781 193.957031 Z M 111.4375 193.933594 " fill-opacity="1" fill-rule="nonzero"/></g><path fill="#001528" d="M 71.054688 182.738281 C 70.148438 182.019531 70.007812 180.695312 70.726562 179.796875 C 74.816406 174.660156 78.050781 169.042969 80.457031 162.929688 C 80.882812 161.859375 82.097656 161.324219 83.179688 161.75 C 84.261719 162.175781 84.785156 163.390625 84.359375 164.472656 C 81.8125 170.964844 78.359375 176.945312 74.007812 182.410156 C 73.339844 183.253906 72.148438 183.4375 71.261719 182.882812 Z M 71.054688 182.738281 " fill-opacity="1" fill-rule="nonzero"/><path fill="#001528" d="M 41.683594 152.863281 C 41.265625 151.792969 41.792969 150.566406 42.875 150.140625 C 48.972656 147.746094 54.59375 144.5 59.730469 140.410156 C 60.636719 139.691406 61.960938 139.84375 62.683594 140.75 C 63.402344 141.65625 63.25 142.96875 62.34375 143.691406 C 56.886719 148.042969 50.910156 151.496094 44.402344 154.054688 C 43.410156 154.449219 42.285156 154.023438 41.792969 153.09375 Z M 41.683594 152.863281 " fill-opacity="1" fill-rule="nonzero"/><path fill="#001528" d="M 31.1875 112.304688 C 31.363281 111.160156 32.421875 110.371094 33.570312 110.546875 C 40.0625 111.519531 46.546875 111.519531 53.039062 110.546875 C 54.1875 110.371094 55.257812 111.160156 55.421875 112.304688 C 55.597656 113.453125 54.8125 114.527344 53.664062 114.691406 C 46.765625 115.726562 39.855469 115.726562 32.949219 114.691406 C 31.886719 114.535156 31.132812 113.605469 31.164062 112.546875 Z M 31.1875 112.304688 " fill-opacity="1" fill-rule="nonzero"/><path fill="#001528" d="M 42.371094 71.9375 C 43.09375 71.027344 44.414062 70.875 45.324219 71.597656 C 50.460938 75.683594 56.078125 78.933594 62.179688 81.335938 C 63.261719 81.753906 63.796875 82.976562 63.371094 84.046875 C 62.945312 85.128906 61.71875 85.664062 60.648438 85.238281 C 54.15625 82.683594 48.164062 79.226562 42.710938 74.886719 C 41.867188 74.210938 41.683594 73.027344 42.230469 72.132812 Z M 42.371094 71.9375 " fill-opacity="1" fill-rule="nonzero"/><path fill="#001528" d="M 72.246094 42.5625 C 73.328125 42.136719 74.542969 42.671875 74.96875 43.742188 C 77.375 49.855469 80.621094 55.472656 84.710938 60.601562 C 85.429688 61.507812 85.277344 62.828125 84.371094 63.550781 C 83.460938 64.273438 82.140625 64.128906 81.417969 63.222656 C 77.066406 57.757812 73.625 51.777344 71.066406 45.285156 C 70.671875 44.277344 71.097656 43.152344 72.027344 42.660156 Z M 72.246094 42.5625 " fill-opacity="1" fill-rule="nonzero"/><g clip-path="url(#ff05a1a492)"><path fill="#001528" d="M 122.171875 131.777344 C 122.621094 130.703125 123.855469 130.210938 124.914062 130.660156 C 125.988281 131.109375 126.480469 132.34375 126.03125 133.414062 C 123.746094 138.804688 118.457031 142.378906 112.496094 142.378906 C 106.539062 142.378906 101.25 138.804688 98.964844 133.414062 C 98.515625 132.34375 99.007812 131.109375 100.078125 130.660156 C 101.140625 130.210938 102.375 130.703125 102.824219 131.777344 C 104.460938 135.625 108.246094 138.183594 112.496094 138.183594 C 116.75 138.183594 120.53125 135.625 122.171875 131.777344 Z M 122.171875 131.777344 " fill-opacity="1" fill-rule="nonzero"/></g><path fill="#001528" d="M 81.035156 104.4375 C 73.863281 101.789062 66.976562 107.933594 69.273438 115.226562 C 70.507812 119.148438 73.800781 122.265625 78.359375 124.78125 C 79.878906 125.621094 81.441406 126.332031 82.960938 126.921875 C 83.890625 127.273438 84.601562 127.511719 84.894531 127.601562 C 87.082031 128.398438 89.769531 127.535156 91.105469 125.632812 C 91.378906 125.261719 91.816406 124.648438 92.351562 123.816406 C 93.257812 122.394531 94.132812 120.84375 94.886719 119.226562 C 97.117188 114.449219 97.992188 109.976562 96.765625 106.085938 C 94.460938 98.742188 85.308594 97.941406 81.035156 104.4375 Z M 92.765625 107.355469 C 93.597656 110.011719 92.917969 113.542969 91.082031 117.445312 C 90.414062 118.886719 89.628906 120.277344 88.808594 121.542969 C 88.328125 122.308594 87.945312 122.855469 87.726562 123.128906 L 87.671875 123.214844 C 87.429688 123.578125 86.730469 123.796875 86.207031 123.609375 C 85.890625 123.511719 85.277344 123.316406 84.480469 122.996094 C 83.113281 122.484375 81.726562 121.851562 80.378906 121.105469 C 76.675781 119.0625 74.117188 116.636719 73.273438 113.96875 C 71.941406 109.703125 76.347656 106.261719 80.839844 108.984375 C 81.933594 109.648438 83.363281 109.191406 83.867188 108.011719 C 85.976562 103.027344 91.433594 103.136719 92.765625 107.355469 Z M 92.765625 107.355469 " fill-opacity="1" fill-rule="nonzero"/></svg>