<svg xmlns="http://www.w3.org/2000/svg" xmlns:xlink="http://www.w3.org/1999/xlink" width="40" zoomAndPan="magnify" viewBox="0 0 30 37.5" height="50" preserveAspectRatio="xMidYMid meet" version="1.0"><defs><clipPath id="4f31346346"><path d="M 1 0 L 29.800781 0 L 29.800781 36 L 1 36 Z M 1 0 " clip-rule="nonzero"/></clipPath></defs><g clip-path="url(#4f31346346)"><path fill="#fafafa" d="M 29.492188 0 L 8.246094 4.871094 L 8.246094 28.640625 C 7.574219 28.386719 6.882812 28.277344 6.167969 28.308594 C 5.453125 28.335938 4.773438 28.507812 4.125 28.816406 C 1.773438 29.910156 0.488281 32.160156 1.269531 33.941406 C 2.054688 35.71875 4.617188 36.300781 6.980469 35.25 C 7.742188 34.953125 8.390625 34.492188 8.929688 33.875 C 9.464844 33.253906 9.824219 32.542969 10.007812 31.742188 L 10.007812 31.679688 C 10.046875 31.382812 10.046875 31.089844 10.007812 30.792969 L 10.007812 10.039062 L 27.660156 5.8125 L 27.660156 24.128906 C 26.988281 23.871094 26.292969 23.757812 25.574219 23.785156 C 24.855469 23.8125 24.171875 23.984375 23.519531 24.292969 C 21.15625 25.386719 19.882812 27.648438 20.65625 29.417969 C 21.429688 31.1875 24 31.789062 26.363281 30.738281 C 26.800781 30.582031 27.203125 30.367188 27.570312 30.089844 C 27.941406 29.8125 28.261719 29.484375 28.535156 29.113281 C 28.808594 28.738281 29.019531 28.332031 29.171875 27.894531 C 29.324219 27.457031 29.410156 27.007812 29.425781 26.542969 L 29.425781 5.332031 Z M 29.492188 0 " fill-opacity="1" fill-rule="nonzero"/></g></svg>