<svg xmlns="http://www.w3.org/2000/svg" xmlns:xlink="http://www.w3.org/1999/xlink" width="300" zoomAndPan="magnify" viewBox="0 0 224.87999 225" height="300" preserveAspectRatio="xMidYMid meet" version="1.0"><defs><clipPath id="01a9a2cf81"><path d="M 3.347656 3.40625 L 219.230469 3.40625 L 219.230469 219.292969 L 3.347656 219.292969 Z M 3.347656 3.40625 " clip-rule="nonzero"/></clipPath></defs><g clip-path="url(#01a9a2cf81)"><path fill="#fafafa" d="M 111.289062 3.40625 C 122.035156 3.40625 131.539062 5.34375 137.613281 10.515625 C 142.109375 14.351562 144.871094 19.921875 144.871094 27.90625 C 144.871094 28.792969 144.820312 29.71875 144.707031 30.667969 C 145.308594 29.917969 145.921875 29.230469 146.546875 28.605469 C 152.191406 22.957031 158.078125 20.960938 163.984375 21.433594 C 171.917969 22.070312 180.015625 27.429688 187.609375 35.027344 C 195.207031 42.625 200.566406 50.71875 201.203125 58.652344 C 201.679688 64.5625 199.679688 70.445312 194.03125 76.09375 C 193.40625 76.71875 192.71875 77.328125 191.972656 77.929688 C 192.921875 77.816406 193.84375 77.765625 194.730469 77.765625 C 202.714844 77.765625 208.289062 80.527344 212.121094 85.027344 C 217.296875 91.097656 219.230469 100.605469 219.230469 111.347656 C 219.230469 122.09375 217.296875 131.601562 212.121094 137.671875 C 208.289062 142.171875 202.714844 144.929688 194.730469 144.929688 C 193.84375 144.929688 192.921875 144.882812 191.972656 144.769531 C 192.71875 145.367188 193.40625 145.980469 194.03125 146.605469 C 199.679688 152.253906 201.679688 158.136719 201.203125 164.046875 C 200.566406 171.980469 195.207031 180.074219 187.609375 187.671875 C 180.015625 195.265625 171.917969 200.625 163.984375 201.261719 C 158.078125 201.738281 152.191406 199.738281 146.546875 194.09375 C 145.921875 193.46875 145.308594 192.78125 144.707031 192.03125 C 144.820312 192.980469 144.871094 193.90625 144.871094 194.792969 C 144.871094 202.773438 142.109375 208.347656 137.613281 212.183594 C 131.539062 217.355469 122.035156 219.292969 111.289062 219.292969 C 100.542969 219.292969 91.039062 217.355469 84.964844 212.183594 C 80.46875 208.347656 77.707031 202.773438 77.707031 194.792969 C 77.707031 193.90625 77.757812 192.980469 77.871094 192.03125 C 77.269531 192.78125 76.65625 193.46875 76.03125 194.09375 C 70.386719 199.738281 64.5 201.738281 58.59375 201.261719 C 50.660156 200.625 42.5625 195.265625 34.96875 187.671875 C 27.371094 180.074219 22.011719 171.980469 21.375 164.046875 C 20.898438 158.136719 22.898438 152.253906 28.546875 146.605469 C 29.171875 145.980469 29.859375 145.367188 30.605469 144.769531 C 29.65625 144.882812 28.734375 144.929688 27.847656 144.929688 C 19.863281 144.929688 14.289062 142.171875 10.457031 137.671875 C 5.28125 131.601562 3.347656 122.09375 3.347656 111.347656 C 3.347656 100.605469 5.28125 91.097656 10.457031 85.027344 C 14.289062 80.527344 19.863281 77.765625 27.847656 77.765625 C 28.734375 77.765625 29.65625 77.816406 30.605469 77.929688 C 29.859375 77.328125 29.171875 76.71875 28.546875 76.09375 C 22.898438 70.445312 20.898438 64.5625 21.375 58.652344 C 22.011719 50.71875 27.371094 42.625 34.96875 35.027344 C 42.5625 27.429688 50.660156 22.070312 58.59375 21.433594 C 64.5 20.960938 70.386719 22.957031 76.03125 28.605469 C 76.65625 29.230469 77.269531 29.917969 77.871094 30.667969 C 77.757812 29.71875 77.707031 28.792969 77.707031 27.90625 C 77.707031 19.921875 80.46875 14.351562 84.964844 10.515625 C 91.039062 5.34375 100.542969 3.40625 111.289062 3.40625 Z M 134.550781 176.925781 L 134.3125 177.015625 C 130.277344 178.425781 126.070312 179.476562 121.734375 180.136719 C 123.332031 183.796875 124.65625 188.71875 125.65625 194.929688 C 125.855469 196.230469 124.96875 197.464844 123.65625 197.679688 C 122.359375 197.878906 121.121094 196.992188 120.910156 195.679688 C 119.910156 189.394531 118.585938 184.535156 116.910156 181.125 C 116.835938 180.988281 116.773438 180.835938 116.699219 180.699219 C 114.910156 180.835938 113.113281 180.910156 111.289062 180.910156 C 109.488281 180.910156 107.703125 180.847656 105.941406 180.710938 L 105.730469 181.136719 C 104.03125 184.546875 102.695312 189.40625 101.65625 195.691406 C 101.445312 197.003906 100.207031 197.890625 98.90625 197.664062 C 97.597656 197.453125 96.710938 196.214844 96.933594 194.917969 C 97.945312 188.71875 99.28125 183.796875 100.90625 180.136719 C 96.460938 179.476562 92.160156 178.386719 88.027344 176.925781 C 84.652344 183.109375 82.503906 189.621094 82.503906 194.792969 C 82.503906 201.0625 84.527344 205.511719 88.078125 208.535156 C 93.410156 213.082031 101.84375 214.492188 111.289062 214.492188 C 120.734375 214.492188 129.167969 213.082031 134.5 208.535156 C 138.050781 205.511719 140.074219 201.0625 140.074219 194.792969 C 140.074219 189.621094 137.925781 183.109375 134.550781 176.925781 Z M 174.105469 141.269531 L 174.054688 141.382812 C 172.15625 145.34375 169.882812 149.105469 167.308594 152.601562 C 171.03125 154.050781 175.453125 156.601562 180.539062 160.285156 C 181.613281 161.074219 181.851562 162.570312 181.078125 163.644531 C 180.300781 164.707031 178.804688 164.957031 177.730469 164.171875 C 172.570312 160.449219 168.207031 157.9375 164.609375 156.710938 C 164.449219 156.664062 164.296875 156.613281 164.148438 156.5625 C 161.824219 159.285156 159.277344 161.835938 156.550781 164.171875 L 156.703125 164.632812 C 157.914062 168.242188 160.398438 172.617188 164.125 177.800781 C 164.898438 178.875 164.648438 180.375 163.574219 181.148438 C 162.5 181.910156 161 181.675781 160.226562 180.597656 C 156.566406 175.488281 154.027344 171.066406 152.578125 167.332031 C 149.042969 169.957031 145.234375 172.242188 141.210938 174.164062 C 143.195312 180.925781 146.28125 187.046875 149.929688 190.707031 C 154.378906 195.140625 158.949219 196.851562 163.597656 196.480469 C 170.582031 195.929688 177.542969 190.957031 184.226562 184.285156 C 190.898438 177.601562 195.867188 170.640625 196.417969 163.660156 C 196.792969 159.011719 195.082031 154.4375 190.648438 149.992188 C 186.984375 146.34375 180.863281 143.257812 174.105469 141.269531 Z M 48.472656 141.269531 L 48.359375 141.308594 C 41.640625 143.292969 35.566406 146.367188 31.929688 149.992188 C 27.496094 154.4375 25.785156 159.011719 26.160156 163.660156 C 26.710938 170.640625 31.679688 177.601562 38.351562 184.285156 C 45.035156 190.957031 51.996094 195.929688 58.980469 196.480469 C 63.625 196.851562 68.199219 195.140625 72.648438 190.707031 C 76.296875 187.046875 79.382812 180.925781 81.367188 174.164062 C 77.355469 172.253906 73.570312 169.96875 70.035156 167.367188 C 68.585938 171.09375 66.039062 175.515625 62.351562 180.597656 C 61.566406 181.675781 60.066406 181.910156 58.992188 181.136719 C 57.929688 180.363281 57.679688 178.863281 58.46875 177.789062 C 62.191406 172.628906 64.703125 168.269531 65.925781 164.671875 C 65.976562 164.507812 66.027344 164.359375 66.074219 164.207031 C 63.351562 161.882812 60.804688 159.335938 58.46875 156.613281 L 58.003906 156.761719 C 54.394531 157.972656 50.023438 160.460938 44.835938 164.183594 C 43.761719 164.957031 42.261719 164.707031 41.488281 163.632812 C 40.726562 162.558594 40.964844 161.058594 42.039062 160.285156 C 47.148438 156.625 51.570312 154.089844 55.304688 152.640625 C 52.683594 149.105469 50.398438 145.292969 48.472656 141.269531 Z M 111.289062 46.582031 C 75.519531 46.582031 46.523438 75.582031 46.523438 111.347656 C 46.523438 147.117188 75.519531 176.113281 111.289062 176.113281 C 147.058594 176.113281 176.054688 147.117188 176.054688 111.347656 C 176.054688 75.582031 147.058594 46.582031 111.289062 46.582031 Z M 194.730469 82.5625 C 189.558594 82.5625 183.050781 84.714844 176.867188 88.085938 C 178.328125 92.195312 179.402344 96.480469 180.078125 100.90625 C 183.738281 99.304688 188.660156 97.980469 194.871094 96.980469 C 196.167969 96.78125 197.40625 97.667969 197.617188 98.980469 C 197.816406 100.28125 196.929688 101.515625 195.617188 101.730469 C 189.335938 102.730469 184.476562 104.054688 181.0625 105.726562 C 180.925781 105.800781 180.777344 105.863281 180.640625 105.9375 C 180.777344 107.726562 180.851562 109.523438 180.851562 111.347656 C 180.851562 113.148438 180.789062 114.933594 180.652344 116.695312 L 181.078125 116.910156 C 184.488281 118.609375 189.347656 119.945312 195.632812 120.980469 C 196.941406 121.195312 197.832031 122.429688 197.605469 123.730469 C 197.394531 125.042969 196.15625 125.929688 194.855469 125.703125 C 188.660156 124.691406 183.738281 123.355469 180.078125 121.730469 C 179.414062 126.179688 178.328125 130.476562 176.867188 134.613281 C 183.050781 137.984375 189.558594 140.132812 194.730469 140.132812 C 201.003906 140.132812 205.453125 138.109375 208.476562 134.5625 C 213.023438 129.226562 214.433594 120.792969 214.433594 111.347656 C 214.433594 101.902344 213.023438 93.472656 208.476562 88.136719 C 205.453125 84.589844 201.003906 82.5625 194.730469 82.5625 Z M 27.847656 82.5625 C 21.574219 82.5625 17.125 84.589844 14.101562 88.136719 C 9.554688 93.472656 8.144531 101.902344 8.144531 111.347656 C 8.144531 120.792969 9.554688 129.226562 14.101562 134.5625 C 17.125 138.109375 21.574219 140.132812 27.847656 140.132812 C 33.019531 140.132812 39.527344 137.984375 45.710938 134.613281 C 44.25 130.5 43.175781 126.214844 42.5 121.792969 C 38.839844 123.394531 33.917969 124.71875 27.707031 125.714844 C 26.410156 125.917969 25.171875 125.027344 24.960938 123.71875 C 24.761719 122.417969 25.648438 121.179688 26.960938 120.96875 C 33.242188 119.96875 38.101562 118.644531 41.515625 116.972656 C 41.652344 116.894531 41.800781 116.832031 41.9375 116.757812 C 41.800781 114.972656 41.726562 113.171875 41.726562 111.347656 C 41.726562 109.550781 41.789062 107.761719 41.925781 106 L 41.5 105.789062 C 38.089844 104.089844 33.230469 102.753906 26.945312 101.714844 C 25.632812 101.503906 24.746094 100.265625 24.972656 98.96875 C 25.183594 97.65625 26.421875 96.769531 27.722656 96.996094 C 33.917969 98.007812 38.839844 99.34375 42.5 100.96875 C 43.164062 96.519531 44.25 92.222656 45.710938 88.085938 C 39.527344 84.714844 33.019531 82.5625 27.847656 82.5625 Z M 72.648438 31.992188 C 68.199219 27.554688 63.625 25.84375 58.980469 26.21875 C 51.996094 26.769531 45.035156 31.742188 38.351562 38.414062 C 31.679688 45.097656 26.710938 52.054688 26.160156 59.039062 C 25.785156 63.6875 27.496094 68.257812 31.929688 72.707031 C 35.59375 76.355469 41.714844 79.441406 48.472656 81.425781 C 50.382812 77.417969 52.671875 73.632812 55.269531 70.097656 C 51.546875 68.648438 47.125 66.097656 42.039062 62.414062 C 40.964844 61.625 40.726562 60.125 41.5 59.050781 C 42.277344 57.988281 43.773438 57.738281 44.847656 58.527344 C 50.007812 62.25 54.371094 64.761719 57.96875 65.984375 C 58.128906 66.035156 58.28125 66.085938 58.429688 66.136719 C 60.753906 63.410156 63.300781 60.863281 66.027344 58.527344 L 65.875 58.066406 C 64.664062 54.453125 62.175781 50.082031 58.453125 44.898438 C 57.679688 43.824219 57.929688 42.324219 59.003906 41.546875 C 60.078125 40.785156 61.578125 41.023438 62.351562 42.097656 C 66.011719 47.207031 68.550781 51.632812 70 55.367188 C 73.535156 52.742188 77.34375 50.457031 81.367188 48.53125 C 79.382812 41.773438 76.296875 35.652344 72.648438 31.992188 Z M 163.597656 26.21875 C 158.949219 25.84375 154.378906 27.554688 149.929688 31.992188 C 146.28125 35.652344 143.195312 41.773438 141.210938 48.53125 C 145.222656 50.445312 149.007812 52.730469 152.542969 55.328125 C 153.992188 51.605469 156.539062 47.183594 160.226562 42.097656 C 161.011719 41.023438 162.511719 40.785156 163.585938 41.5625 C 164.648438 42.335938 164.898438 43.835938 164.109375 44.910156 C 160.386719 50.070312 157.875 54.429688 156.652344 58.027344 C 156.601562 58.191406 156.550781 58.339844 156.503906 58.488281 C 159.226562 60.8125 161.773438 63.363281 164.109375 66.085938 L 164.574219 65.9375 C 168.183594 64.722656 172.554688 62.238281 177.742188 58.515625 C 178.816406 57.738281 180.316406 57.988281 181.089844 59.0625 C 181.851562 60.140625 181.613281 61.636719 180.539062 62.414062 C 175.429688 66.074219 171.007812 68.609375 167.273438 70.058594 C 169.894531 73.59375 172.179688 77.40625 174.105469 81.425781 C 180.863281 79.441406 186.984375 76.355469 190.648438 72.707031 C 195.082031 68.257812 196.792969 63.6875 196.417969 59.039062 C 195.867188 52.054688 190.898438 45.097656 184.226562 38.414062 C 177.542969 31.742188 170.582031 26.769531 163.597656 26.21875 Z M 111.289062 8.203125 C 101.84375 8.203125 93.410156 9.617188 88.078125 14.164062 C 84.527344 17.1875 82.503906 21.632812 82.503906 27.90625 C 82.503906 33.078125 84.652344 39.585938 88.027344 45.773438 C 92.136719 44.308594 96.421875 43.234375 100.84375 42.5625 C 99.246094 38.898438 97.921875 33.976562 96.921875 27.769531 C 96.722656 26.46875 97.609375 25.234375 98.921875 25.019531 C 100.21875 24.820312 101.457031 25.707031 101.667969 27.019531 C 102.667969 33.304688 103.992188 38.164062 105.667969 41.574219 C 105.742188 41.710938 105.804688 41.859375 105.878906 42 C 107.664062 41.859375 109.464844 41.785156 111.289062 41.785156 C 113.089844 41.785156 114.875 41.847656 116.636719 41.984375 L 116.847656 41.5625 C 118.546875 38.152344 119.882812 33.289062 120.921875 27.007812 C 121.132812 25.695312 122.371094 24.808594 123.667969 25.03125 C 124.980469 25.246094 125.867188 26.480469 125.644531 27.78125 C 124.632812 33.976562 123.296875 38.898438 121.671875 42.5625 C 126.117188 43.222656 130.417969 44.308594 134.550781 45.773438 C 137.925781 39.585938 140.074219 33.078125 140.074219 27.90625 C 140.074219 21.632812 138.050781 17.1875 134.5 14.164062 C 129.167969 9.617188 120.734375 8.203125 111.289062 8.203125 Z M 111.289062 8.203125 " fill-opacity="1" fill-rule="evenodd"/></g><path fill="#fafafa" d="M 118.824219 144.929688 C 118.824219 148.640625 115.648438 151.566406 111.601562 152.101562 C 110.289062 152.277344 109.089844 151.351562 108.914062 150.039062 C 108.742188 148.730469 109.664062 147.53125 110.976562 147.355469 C 112.824219 147.105469 114.023438 145.992188 114.023438 144.929688 C 114.023438 143.871094 112.824219 142.757812 110.976562 142.507812 C 108.191406 142.144531 108.191406 138.121094 110.976562 137.761719 C 112.824219 137.511719 114.023438 136.398438 114.023438 135.335938 C 114.023438 134.273438 112.824219 133.164062 110.976562 132.914062 C 109.664062 132.738281 108.742188 131.539062 108.914062 130.226562 C 109.089844 128.914062 110.289062 127.988281 111.601562 128.164062 C 115.648438 128.703125 118.824219 131.625 118.824219 135.335938 C 118.824219 137.199219 118.023438 138.871094 116.710938 140.132812 C 118.023438 141.394531 118.824219 143.070312 118.824219 144.929688 Z M 118.824219 144.929688 " fill-opacity="1" fill-rule="nonzero"/><path fill="#fafafa" d="M 149.644531 101.566406 C 157.839844 98.542969 165.710938 105.566406 163.085938 113.898438 C 161.675781 118.382812 157.914062 121.945312 152.703125 124.816406 C 150.96875 125.777344 149.179688 126.589844 147.445312 127.265625 C 146.382812 127.664062 145.570312 127.941406 145.234375 128.039062 C 142.734375 128.953125 139.660156 127.964844 138.136719 125.792969 C 137.824219 125.367188 137.324219 124.667969 136.714844 123.71875 C 135.675781 122.09375 134.675781 120.320312 133.816406 118.46875 C 131.265625 113.011719 130.265625 107.902344 131.664062 103.453125 C 134.300781 95.058594 144.757812 94.144531 149.644531 101.566406 Z M 136.238281 104.902344 C 135.289062 107.9375 136.0625 111.972656 138.164062 116.433594 C 138.925781 118.082031 139.824219 119.667969 140.761719 121.117188 C 141.308594 121.992188 141.746094 122.617188 141.996094 122.929688 L 142.058594 123.03125 C 142.335938 123.441406 143.132812 123.691406 143.734375 123.480469 C 144.097656 123.367188 144.796875 123.144531 145.707031 122.78125 C 147.269531 122.191406 148.855469 121.46875 150.394531 120.617188 C 154.628906 118.28125 157.550781 115.507812 158.515625 112.460938 C 160.039062 107.589844 155.003906 103.652344 149.867188 106.765625 C 148.617188 107.527344 146.984375 107 146.40625 105.652344 C 143.996094 99.957031 137.761719 100.078125 136.238281 104.902344 Z M 136.238281 104.902344 " fill-opacity="1" fill-rule="nonzero"/><path fill="#fafafa" d="M 75.332031 101.566406 C 67.136719 98.542969 59.265625 105.566406 61.890625 113.898438 C 63.300781 118.382812 67.0625 121.945312 72.273438 124.816406 C 74.007812 125.777344 75.796875 126.589844 77.53125 127.265625 C 78.59375 127.664062 79.40625 127.941406 79.742188 128.039062 C 82.242188 128.953125 85.316406 127.964844 86.839844 125.792969 C 87.152344 125.367188 87.652344 124.667969 88.265625 123.71875 C 89.300781 122.09375 90.300781 120.320312 91.164062 118.46875 C 93.710938 113.011719 94.710938 107.902344 93.3125 103.453125 C 90.675781 95.058594 80.21875 94.144531 75.332031 101.566406 Z M 88.738281 104.902344 C 89.6875 107.9375 88.914062 111.972656 86.816406 116.433594 C 86.050781 118.082031 85.152344 119.667969 84.214844 121.117188 C 83.667969 121.992188 83.230469 122.617188 82.980469 122.929688 L 82.917969 123.03125 C 82.640625 123.441406 81.84375 123.691406 81.242188 123.480469 C 80.878906 123.367188 80.179688 123.144531 79.269531 122.78125 C 77.707031 122.191406 76.121094 121.46875 74.582031 120.617188 C 70.347656 118.28125 67.425781 115.507812 66.464844 112.460938 C 64.9375 107.589844 69.972656 103.652344 75.109375 106.765625 C 76.359375 107.527344 77.996094 107 78.570312 105.652344 C 80.980469 99.957031 87.214844 100.078125 88.738281 104.902344 Z M 88.738281 104.902344 " fill-opacity="1" fill-rule="nonzero"/></svg>