<svg xmlns="http://www.w3.org/2000/svg" xmlns:xlink="http://www.w3.org/1999/xlink" width="50" zoomAndPan="magnify" viewBox="0 0 37.5 37.499999" height="50" preserveAspectRatio="xMidYMid meet" version="1.0"><defs><clipPath id="3a456b70a1"><path d="M 0.675781 0.675781 L 37.007812 0.675781 L 37.007812 37.007812 L 0.675781 37.007812 Z M 0.675781 0.675781 " clip-rule="nonzero"/></clipPath></defs><g clip-path="url(#3a456b70a1)"><path fill="#fafafa" d="M 19.050781 0.675781 C 20.878906 0.675781 22.496094 1.003906 23.53125 1.886719 C 24.296875 2.539062 24.765625 3.488281 24.765625 4.84375 C 24.765625 4.996094 24.757812 5.152344 24.738281 5.316406 C 24.839844 5.1875 24.945312 5.070312 25.050781 4.964844 C 26.011719 4.003906 27.015625 3.664062 28.019531 3.742188 C 29.371094 3.851562 30.75 4.765625 32.042969 6.058594 C 33.335938 7.351562 34.246094 8.730469 34.355469 10.078125 C 34.4375 11.085938 34.097656 12.085938 33.136719 13.046875 C 33.027344 13.15625 32.910156 13.257812 32.785156 13.359375 C 32.945312 13.34375 33.101562 13.332031 33.253906 13.332031 C 34.613281 13.332031 35.5625 13.804688 36.214844 14.570312 C 37.09375 15.601562 37.425781 17.222656 37.425781 19.050781 C 37.425781 20.878906 37.09375 22.496094 36.214844 23.53125 C 35.5625 24.296875 34.613281 24.765625 33.253906 24.765625 C 33.101562 24.765625 32.945312 24.757812 32.785156 24.738281 C 32.910156 24.839844 33.027344 24.945312 33.136719 25.050781 C 34.097656 26.011719 34.4375 27.015625 34.355469 28.019531 C 34.246094 29.371094 33.335938 30.75 32.042969 32.042969 C 30.75 33.335938 29.371094 34.246094 28.019531 34.355469 C 27.015625 34.4375 26.011719 34.097656 25.050781 33.136719 C 24.945312 33.027344 24.839844 32.910156 24.738281 32.785156 C 24.757812 32.945312 24.765625 33.101562 24.765625 33.253906 C 24.765625 34.613281 24.296875 35.5625 23.53125 36.214844 C 22.496094 37.09375 20.878906 37.425781 19.050781 37.425781 C 17.222656 37.425781 15.601562 37.09375 14.570312 36.214844 C 13.804688 35.5625 13.332031 34.613281 13.332031 33.253906 C 13.332031 33.101562 13.34375 32.945312 13.359375 32.785156 C 13.257812 32.910156 13.15625 33.027344 13.046875 33.136719 C 12.085938 34.097656 11.085938 34.4375 10.078125 34.355469 C 8.730469 34.246094 7.351562 33.335938 6.058594 32.042969 C 4.765625 30.75 3.851562 29.371094 3.742188 28.019531 C 3.664062 27.015625 4.003906 26.011719 4.964844 25.050781 C 5.070312 24.945312 5.1875 24.839844 5.316406 24.738281 C 5.152344 24.757812 4.996094 24.765625 4.84375 24.765625 C 3.488281 24.765625 2.539062 24.296875 1.886719 23.53125 C 1.003906 22.496094 0.675781 20.878906 0.675781 19.050781 C 0.675781 17.222656 1.003906 15.601562 1.886719 14.570312 C 2.539062 13.804688 3.488281 13.332031 4.84375 13.332031 C 4.996094 13.332031 5.152344 13.34375 5.316406 13.359375 C 5.1875 13.257812 5.070312 13.15625 4.964844 13.046875 C 4.003906 12.085938 3.664062 11.085938 3.742188 10.078125 C 3.851562 8.730469 4.765625 7.351562 6.058594 6.058594 C 7.351562 4.765625 8.730469 3.851562 10.078125 3.742188 C 11.085938 3.664062 12.085938 4.003906 13.046875 4.964844 C 13.15625 5.070312 13.257812 5.1875 13.359375 5.316406 C 13.34375 5.152344 13.332031 4.996094 13.332031 4.84375 C 13.332031 3.488281 13.804688 2.539062 14.570312 1.886719 C 15.601562 1.003906 17.222656 0.675781 19.050781 0.675781 Z M 23.011719 30.214844 L 22.96875 30.226562 C 22.28125 30.46875 21.566406 30.648438 20.828125 30.761719 C 21.101562 31.382812 21.324219 32.222656 21.496094 33.277344 C 21.53125 33.5 21.378906 33.710938 21.15625 33.746094 C 20.933594 33.78125 20.722656 33.628906 20.6875 33.40625 C 20.515625 32.335938 20.292969 31.507812 20.007812 30.929688 C 19.996094 30.90625 19.984375 30.878906 19.972656 30.855469 C 19.667969 30.878906 19.359375 30.890625 19.050781 30.890625 C 18.742188 30.890625 18.441406 30.882812 18.140625 30.859375 L 18.105469 30.929688 C 17.8125 31.511719 17.585938 32.335938 17.410156 33.40625 C 17.375 33.632812 17.164062 33.78125 16.941406 33.742188 C 16.71875 33.707031 16.566406 33.496094 16.605469 33.277344 C 16.777344 32.222656 17.007812 31.382812 17.28125 30.761719 C 16.527344 30.648438 15.792969 30.460938 15.089844 30.214844 C 14.515625 31.265625 14.148438 32.375 14.148438 33.253906 C 14.148438 34.320312 14.496094 35.078125 15.097656 35.59375 C 16.007812 36.367188 17.441406 36.609375 19.050781 36.609375 C 20.65625 36.609375 22.09375 36.367188 23 35.59375 C 23.605469 35.078125 23.949219 34.320312 23.949219 33.253906 C 23.949219 32.375 23.585938 31.265625 23.011719 30.214844 Z M 29.742188 24.144531 L 29.734375 24.164062 C 29.410156 24.835938 29.023438 25.476562 28.585938 26.074219 C 29.21875 26.320312 29.972656 26.753906 30.839844 27.378906 C 31.019531 27.515625 31.0625 27.769531 30.929688 27.953125 C 30.796875 28.132812 30.542969 28.175781 30.359375 28.042969 C 29.480469 27.40625 28.738281 26.980469 28.125 26.773438 C 28.097656 26.761719 28.074219 26.753906 28.046875 26.746094 C 27.652344 27.210938 27.21875 27.644531 26.753906 28.042969 L 26.78125 28.121094 C 26.988281 28.734375 27.410156 29.480469 28.042969 30.363281 C 28.175781 30.546875 28.132812 30.800781 27.949219 30.933594 C 27.765625 31.0625 27.511719 31.019531 27.378906 30.839844 C 26.757812 29.96875 26.324219 29.214844 26.078125 28.578125 C 25.476562 29.027344 24.828125 29.414062 24.144531 29.742188 C 24.480469 30.894531 25.007812 31.9375 25.628906 32.558594 C 26.386719 33.3125 27.164062 33.605469 27.953125 33.542969 C 29.144531 33.449219 30.328125 32.601562 31.464844 31.464844 C 32.601562 30.328125 33.449219 29.144531 33.542969 27.953125 C 33.605469 27.164062 33.3125 26.386719 32.558594 25.628906 C 31.9375 25.007812 30.894531 24.480469 29.742188 24.144531 Z M 8.355469 24.144531 L 8.335938 24.148438 C 7.195312 24.488281 6.160156 25.011719 5.539062 25.628906 C 4.785156 26.386719 4.496094 27.164062 4.558594 27.953125 C 4.652344 29.144531 5.5 30.328125 6.632812 31.464844 C 7.773438 32.601562 8.957031 33.449219 10.144531 33.542969 C 10.9375 33.605469 11.714844 33.3125 12.472656 32.558594 C 13.09375 31.9375 13.617188 30.894531 13.957031 29.742188 C 13.273438 29.417969 12.628906 29.027344 12.027344 28.585938 C 11.78125 29.21875 11.347656 29.972656 10.71875 30.839844 C 10.585938 31.019531 10.332031 31.0625 10.148438 30.929688 C 9.964844 30.796875 9.925781 30.542969 10.058594 30.359375 C 10.691406 29.480469 11.121094 28.738281 11.328125 28.125 C 11.335938 28.097656 11.34375 28.074219 11.351562 28.046875 C 10.890625 27.652344 10.457031 27.21875 10.058594 26.753906 L 9.980469 26.78125 C 9.363281 26.988281 8.621094 27.410156 7.738281 28.042969 C 7.554688 28.175781 7.300781 28.132812 7.167969 27.949219 C 7.039062 27.765625 7.078125 27.511719 7.261719 27.378906 C 8.132812 26.757812 8.882812 26.324219 9.519531 26.078125 C 9.074219 25.476562 8.683594 24.828125 8.355469 24.144531 Z M 19.050781 8.023438 C 12.960938 8.023438 8.023438 12.960938 8.023438 19.050781 C 8.023438 25.140625 12.960938 30.074219 19.050781 30.074219 C 25.140625 30.074219 30.074219 25.140625 30.074219 19.050781 C 30.074219 12.960938 25.140625 8.023438 19.050781 8.023438 Z M 33.253906 14.148438 C 32.375 14.148438 31.265625 14.515625 30.214844 15.089844 C 30.460938 15.789062 30.644531 16.519531 30.761719 17.273438 C 31.382812 17 32.222656 16.773438 33.277344 16.605469 C 33.5 16.570312 33.710938 16.722656 33.746094 16.945312 C 33.78125 17.164062 33.628906 17.375 33.40625 17.414062 C 32.335938 17.582031 31.507812 17.808594 30.929688 18.09375 C 30.90625 18.105469 30.878906 18.117188 30.855469 18.128906 C 30.878906 18.433594 30.890625 18.738281 30.890625 19.050781 C 30.890625 19.355469 30.882812 19.660156 30.859375 19.960938 L 30.929688 19.996094 C 31.511719 20.285156 32.335938 20.511719 33.40625 20.691406 C 33.632812 20.726562 33.78125 20.9375 33.742188 21.15625 C 33.707031 21.382812 33.496094 21.53125 33.277344 21.492188 C 32.222656 21.320312 31.382812 21.09375 30.761719 20.816406 C 30.648438 21.574219 30.460938 22.304688 30.214844 23.011719 C 31.265625 23.585938 32.375 23.949219 33.253906 23.949219 C 34.320312 23.949219 35.078125 23.605469 35.59375 23 C 36.367188 22.09375 36.609375 20.65625 36.609375 19.050781 C 36.609375 17.441406 36.367188 16.007812 35.59375 15.097656 C 35.078125 14.496094 34.320312 14.148438 33.253906 14.148438 Z M 4.84375 14.148438 C 3.777344 14.148438 3.019531 14.496094 2.507812 15.097656 C 1.730469 16.007812 1.492188 17.441406 1.492188 19.050781 C 1.492188 20.65625 1.730469 22.09375 2.507812 23 C 3.019531 23.605469 3.777344 23.949219 4.84375 23.949219 C 5.726562 23.949219 6.835938 23.585938 7.886719 23.011719 C 7.636719 22.308594 7.453125 21.582031 7.339844 20.828125 C 6.71875 21.101562 5.878906 21.324219 4.820312 21.496094 C 4.601562 21.53125 4.390625 21.378906 4.355469 21.15625 C 4.320312 20.933594 4.472656 20.722656 4.695312 20.6875 C 5.765625 20.515625 6.589844 20.292969 7.171875 20.007812 C 7.195312 19.996094 7.222656 19.984375 7.246094 19.972656 C 7.222656 19.667969 7.207031 19.359375 7.207031 19.050781 C 7.207031 18.742188 7.21875 18.441406 7.242188 18.140625 L 7.171875 18.105469 C 6.589844 17.8125 5.761719 17.585938 4.691406 17.410156 C 4.46875 17.375 4.316406 17.164062 4.355469 16.941406 C 4.390625 16.71875 4.601562 16.566406 4.824219 16.605469 C 5.878906 16.777344 6.71875 17.007812 7.339844 17.28125 C 7.453125 16.527344 7.636719 15.792969 7.886719 15.089844 C 6.835938 14.515625 5.726562 14.148438 4.84375 14.148438 Z M 12.472656 5.539062 C 11.714844 4.785156 10.9375 4.496094 10.144531 4.558594 C 8.957031 4.652344 7.773438 5.5 6.632812 6.632812 C 5.5 7.773438 4.652344 8.957031 4.558594 10.144531 C 4.496094 10.9375 4.785156 11.714844 5.539062 12.472656 C 6.164062 13.09375 7.207031 13.617188 8.355469 13.957031 C 8.683594 13.273438 9.070312 12.628906 9.515625 12.027344 C 8.878906 11.78125 8.128906 11.347656 7.261719 10.71875 C 7.078125 10.585938 7.039062 10.332031 7.171875 10.148438 C 7.300781 9.964844 7.558594 9.925781 7.738281 10.058594 C 8.617188 10.691406 9.359375 11.121094 9.972656 11.328125 C 10 11.335938 10.027344 11.34375 10.050781 11.351562 C 10.449219 10.890625 10.882812 10.457031 11.34375 10.058594 L 11.320312 9.980469 C 11.113281 9.363281 10.691406 8.621094 10.054688 7.738281 C 9.925781 7.554688 9.964844 7.300781 10.148438 7.167969 C 10.332031 7.039062 10.585938 7.078125 10.71875 7.261719 C 11.34375 8.132812 11.773438 8.882812 12.019531 9.519531 C 12.621094 9.074219 13.273438 8.683594 13.957031 8.355469 C 13.617188 7.207031 13.09375 6.164062 12.472656 5.539062 Z M 27.953125 4.558594 C 27.164062 4.496094 26.386719 4.785156 25.628906 5.539062 C 25.007812 6.164062 24.480469 7.207031 24.144531 8.355469 C 24.828125 8.683594 25.46875 9.070312 26.074219 9.515625 C 26.320312 8.878906 26.753906 8.128906 27.378906 7.261719 C 27.515625 7.078125 27.769531 7.039062 27.953125 7.171875 C 28.132812 7.300781 28.175781 7.558594 28.042969 7.738281 C 27.40625 8.617188 26.980469 9.359375 26.773438 9.972656 C 26.761719 10 26.753906 10.027344 26.746094 10.050781 C 27.210938 10.449219 27.644531 10.882812 28.042969 11.34375 L 28.121094 11.320312 C 28.734375 11.113281 29.480469 10.691406 30.363281 10.054688 C 30.546875 9.925781 30.800781 9.964844 30.933594 10.148438 C 31.0625 10.332031 31.019531 10.585938 30.839844 10.71875 C 29.96875 11.34375 29.214844 11.773438 28.578125 12.019531 C 29.027344 12.621094 29.414062 13.273438 29.742188 13.957031 C 30.894531 13.617188 31.9375 13.09375 32.558594 12.472656 C 33.3125 11.714844 33.605469 10.9375 33.542969 10.144531 C 33.449219 8.957031 32.601562 7.773438 31.464844 6.632812 C 30.328125 5.5 29.144531 4.652344 27.953125 4.558594 Z M 19.050781 1.492188 C 17.441406 1.492188 16.007812 1.730469 15.097656 2.507812 C 14.496094 3.019531 14.148438 3.777344 14.148438 4.84375 C 14.148438 5.726562 14.515625 6.835938 15.089844 7.886719 C 15.789062 7.636719 16.519531 7.453125 17.273438 7.339844 C 17 6.71875 16.773438 5.878906 16.605469 4.820312 C 16.570312 4.601562 16.722656 4.390625 16.945312 4.355469 C 17.164062 4.320312 17.375 4.472656 17.414062 4.695312 C 17.582031 5.765625 17.808594 6.589844 18.09375 7.171875 C 18.105469 7.195312 18.117188 7.222656 18.128906 7.246094 C 18.433594 7.222656 18.738281 7.207031 19.050781 7.207031 C 19.355469 7.207031 19.660156 7.21875 19.960938 7.242188 L 19.996094 7.171875 C 20.285156 6.589844 20.511719 5.761719 20.691406 4.691406 C 20.726562 4.46875 20.9375 4.316406 21.15625 4.355469 C 21.382812 4.390625 21.53125 4.601562 21.492188 4.824219 C 21.320312 5.878906 21.09375 6.71875 20.816406 7.339844 C 21.574219 7.453125 22.304688 7.636719 23.011719 7.886719 C 23.585938 6.835938 23.949219 5.726562 23.949219 4.84375 C 23.949219 3.777344 23.605469 3.019531 23 2.507812 C 22.09375 1.730469 20.65625 1.492188 19.050781 1.492188 Z M 19.050781 1.492188 " fill-opacity="1" fill-rule="evenodd"/></g><path fill="#fafafa" d="M 23.867188 21.847656 C 23.589844 23.089844 22.652344 24.113281 21.390625 24.679688 C 21.078125 25.675781 20.148438 26.398438 19.050781 26.398438 C 17.949219 26.398438 17.019531 25.675781 16.710938 24.679688 C 15.449219 24.113281 14.511719 23.089844 14.234375 21.847656 C 14.160156 21.507812 14.511719 21.234375 14.820312 21.394531 C 15.546875 21.769531 16.417969 22.042969 17.371094 22.1875 C 17.417969 22.199219 17.464844 22.203125 17.515625 22.210938 L 17.371094 22.1875 C 17.441406 22.199219 17.515625 22.210938 17.585938 22.222656 L 17.515625 22.210938 C 17.589844 22.222656 17.667969 22.230469 17.746094 22.238281 L 17.585938 22.222656 C 17.664062 22.230469 17.742188 22.238281 17.820312 22.25 L 17.746094 22.238281 C 17.84375 22.253906 17.941406 22.261719 18.039062 22.273438 L 17.820312 22.25 C 17.90625 22.257812 17.992188 22.269531 18.082031 22.273438 L 18.039062 22.273438 C 18.117188 22.277344 18.199219 22.285156 18.28125 22.292969 L 18.082031 22.273438 C 18.164062 22.28125 18.25 22.289062 18.332031 22.292969 L 18.28125 22.292969 C 18.351562 22.296875 18.425781 22.300781 18.496094 22.304688 L 18.332031 22.292969 C 18.417969 22.300781 18.5 22.304688 18.585938 22.308594 L 18.496094 22.304688 C 18.574219 22.304688 18.648438 22.308594 18.726562 22.3125 L 18.585938 22.308594 C 18.664062 22.308594 18.742188 22.3125 18.824219 22.316406 L 18.726562 22.3125 C 18.835938 22.316406 18.941406 22.316406 19.050781 22.316406 L 19.277344 22.316406 C 19.308594 22.316406 19.339844 22.3125 19.375 22.3125 C 19.421875 22.308594 19.46875 22.308594 19.511719 22.308594 L 19.375 22.3125 C 19.449219 22.308594 19.527344 22.304688 19.601562 22.304688 L 19.511719 22.308594 C 19.597656 22.304688 19.683594 22.300781 19.765625 22.292969 L 19.601562 22.304688 C 19.675781 22.300781 19.746094 22.296875 19.820312 22.292969 L 19.765625 22.292969 C 19.851562 22.289062 19.933594 22.28125 20.019531 22.273438 L 19.820312 22.292969 C 19.902344 22.285156 19.980469 22.277344 20.0625 22.273438 L 20.019531 22.273438 C 20.105469 22.269531 20.195312 22.257812 20.28125 22.25 L 20.0625 22.273438 C 20.160156 22.261719 20.253906 22.253906 20.355469 22.238281 L 20.28125 22.25 C 20.359375 22.238281 20.4375 22.230469 20.511719 22.222656 L 20.355469 22.238281 C 20.433594 22.230469 20.511719 22.222656 20.589844 22.210938 L 20.511719 22.222656 C 20.582031 22.210938 20.652344 22.203125 20.722656 22.191406 L 20.589844 22.210938 C 20.671875 22.199219 20.75 22.1875 20.828125 22.175781 L 20.722656 22.191406 C 20.800781 22.179688 20.878906 22.164062 20.957031 22.152344 L 20.828125 22.175781 C 21.742188 22.023438 22.582031 21.757812 23.28125 21.394531 C 23.589844 21.234375 23.941406 21.507812 23.867188 21.847656 Z M 20.683594 23.019531 C 20.152344 23.09375 19.605469 23.132812 19.050781 23.132812 C 18.496094 23.132812 17.945312 23.09375 17.417969 23.019531 L 17.417969 23.949219 C 17.417969 24.851562 18.148438 25.582031 19.050781 25.582031 C 19.953125 25.582031 20.683594 24.851562 20.683594 23.949219 Z M 15.382812 22.527344 C 15.667969 22.992188 16.085938 23.394531 16.601562 23.703125 L 16.601562 22.875 C 16.175781 22.785156 15.769531 22.667969 15.382812 22.527344 Z M 22.714844 22.527344 C 22.332031 22.667969 21.925781 22.785156 21.5 22.875 L 21.5 23.703125 C 22.011719 23.394531 22.429688 22.992188 22.714844 22.527344 Z M 22.714844 22.527344 " fill-opacity="1" fill-rule="nonzero"/><path fill="#fafafa" d="M 14.519531 19.75 C 14.550781 19.972656 14.398438 20.179688 14.175781 20.214844 C 13.953125 20.246094 13.746094 20.089844 13.710938 19.867188 C 13.640625 19.386719 13.296875 19.050781 12.90625 19.050781 C 12.519531 19.050781 12.175781 19.386719 12.105469 19.867188 C 12.070312 20.089844 11.863281 20.246094 11.640625 20.214844 C 11.417969 20.179688 11.265625 19.972656 11.296875 19.75 C 11.421875 18.886719 12.09375 18.234375 12.90625 18.234375 C 13.722656 18.234375 14.394531 18.886719 14.519531 19.75 Z M 14.519531 19.75 " fill-opacity="1" fill-rule="nonzero"/><path fill="#fafafa" d="M 25.175781 17.007812 C 26.300781 17.007812 27.214844 17.921875 27.214844 19.050781 C 27.214844 20.175781 26.300781 21.089844 25.175781 21.089844 C 24.046875 21.089844 23.132812 20.175781 23.132812 19.050781 C 23.132812 17.921875 24.046875 17.007812 25.175781 17.007812 Z M 25.175781 17.824219 C 24.5 17.824219 23.949219 18.375 23.949219 19.050781 C 23.949219 19.726562 24.5 20.273438 25.175781 20.273438 C 25.851562 20.273438 26.398438 19.726562 26.398438 19.050781 C 26.398438 18.375 25.851562 17.824219 25.175781 17.824219 Z M 25.175781 17.824219 " fill-opacity="1" fill-rule="nonzero"/><path fill="#fafafa" d="M 25.582031 19.050781 C 25.582031 19.277344 25.402344 19.457031 25.175781 19.457031 C 24.949219 19.457031 24.765625 19.277344 24.765625 19.050781 C 24.765625 18.824219 24.949219 18.640625 25.175781 18.640625 C 25.402344 18.640625 25.582031 18.824219 25.582031 19.050781 Z M 25.582031 19.050781 " fill-opacity="1" fill-rule="nonzero"/></svg>