<svg xmlns="http://www.w3.org/2000/svg" xmlns:xlink="http://www.w3.org/1999/xlink" width="50" zoomAndPan="magnify" viewBox="0 0 37.5 37.499999" height="50" preserveAspectRatio="xMidYMid meet" version="1.0"><defs><clipPath id="38b36f5b03"><path d="M 0 0 L 37.007812 0 L 37.007812 37.007812 L 0 37.007812 Z M 0 0 " clip-rule="nonzero"/></clipPath><clipPath id="c1f277539c"><path d="M 18.75 0 C 8.394531 0 0 8.394531 0 18.75 C 0 29.105469 8.394531 37.5 18.75 37.5 C 29.105469 37.5 37.5 29.105469 37.5 18.75 C 37.5 8.394531 29.105469 0 18.75 0 " clip-rule="nonzero"/></clipPath><clipPath id="5c20fc453e"><path d="M 4.273438 4.800781 L 33.523438 4.800781 L 33.523438 34.050781 L 4.273438 34.050781 Z M 4.273438 4.800781 " clip-rule="nonzero"/></clipPath></defs><g clip-path="url(#38b36f5b03)"><g clip-path="url(#c1f277539c)"><path fill="#1776ff" d="M 0 0 L 37.5 0 L 37.5 37.5 L 0 37.5 Z M 0 0 " fill-opacity="1" fill-rule="nonzero"/><path stroke-linecap="butt" transform="matrix(0.75, 0, 0, 0.75, 0.0000005, 0.000000000000002665)" fill="none" stroke-linejoin="miter" d="M 25.000002 -0.000000000000003553 C 11.192709 -0.000000000000003553 -0.000000666667 11.19271 -0.000000666667 25.000003 C -0.000000666667 38.807296 11.192709 50.000006 25.000002 50.000006 C 38.807296 50.000006 50.000005 38.807296 50.000005 25.000003 C 50.000005 11.19271 38.807296 -0.000000000000003553 25.000002 -0.000000000000003553 " stroke="#fafafa" stroke-width="4" stroke-opacity="1" stroke-miterlimit="4"/></g></g><g clip-path="url(#5c20fc453e)"><path fill="#001528" d="M 18.664062 4.957031 C 18.78125 4.800781 19.019531 4.800781 19.136719 4.957031 C 19.171875 5.003906 19.207031 5.050781 19.238281 5.09375 L 19.4375 5.363281 L 19.628906 5.628906 C 19.976562 6.121094 20.277344 6.585938 20.53125 7.023438 C 20.988281 6.570312 21.527344 6.097656 22.148438 5.597656 L 22.414062 5.390625 C 22.570312 5.265625 22.800781 5.328125 22.875 5.511719 L 23 5.828125 C 23.289062 6.566406 23.519531 7.25 23.6875 7.867188 C 24.125 7.617188 24.621094 7.363281 25.167969 7.113281 L 25.464844 6.980469 L 25.769531 6.84375 L 25.925781 6.777344 C 26.109375 6.699219 26.316406 6.820312 26.339844 7.015625 C 26.347656 7.070312 26.351562 7.128906 26.359375 7.183594 L 26.398438 7.515625 L 26.429688 7.839844 C 26.484375 8.441406 26.511719 8.996094 26.511719 9.503906 C 26.785156 9.429688 27.074219 9.363281 27.378906 9.296875 L 27.675781 9.238281 C 27.777344 9.21875 27.878906 9.199219 27.984375 9.183594 L 28.300781 9.128906 C 28.511719 9.09375 28.734375 9.058594 28.960938 9.027344 C 29.15625 9 29.324219 9.167969 29.296875 9.363281 L 29.25 9.699219 L 29.195312 10.027344 C 29.117188 10.507812 29.03125 10.957031 28.933594 11.371094 L 28.867188 11.644531 C 28.851562 11.703125 28.835938 11.753906 28.824219 11.8125 C 29.332031 11.8125 29.882812 11.839844 30.484375 11.898438 L 30.808594 11.925781 L 31.140625 11.964844 L 31.308594 11.984375 C 31.503906 12.011719 31.625 12.214844 31.546875 12.398438 C 31.527344 12.449219 31.503906 12.503906 31.480469 12.554688 L 31.347656 12.859375 L 31.210938 13.15625 C 30.960938 13.703125 30.707031 14.199219 30.457031 14.640625 C 30.945312 14.769531 31.472656 14.941406 32.039062 15.152344 L 32.34375 15.265625 L 32.65625 15.386719 L 32.8125 15.453125 C 32.996094 15.527344 33.058594 15.753906 32.933594 15.910156 L 32.726562 16.175781 C 32.621094 16.308594 32.519531 16.433594 32.414062 16.558594 L 32.210938 16.800781 C 32.007812 17.039062 31.808594 17.257812 31.617188 17.46875 L 31.421875 17.671875 C 31.382812 17.710938 31.339844 17.753906 31.300781 17.792969 C 31.738281 18.046875 32.203125 18.347656 32.695312 18.695312 L 32.960938 18.886719 L 33.230469 19.085938 L 33.367188 19.1875 C 33.523438 19.308594 33.523438 19.542969 33.367188 19.664062 C 33.320312 19.699219 33.277344 19.730469 33.230469 19.765625 L 32.960938 19.964844 L 32.695312 20.152344 C 32.203125 20.5 31.738281 20.804688 31.300781 21.058594 C 31.5 21.257812 31.703125 21.472656 31.910156 21.707031 L 32.109375 21.933594 C 32.210938 22.050781 32.3125 22.167969 32.414062 22.292969 L 32.621094 22.542969 L 32.828125 22.804688 L 32.933594 22.941406 C 33.058594 23.097656 32.996094 23.324219 32.8125 23.398438 L 32.496094 23.523438 C 32.339844 23.585938 32.1875 23.644531 32.039062 23.699219 L 31.738281 23.804688 C 31.445312 23.910156 31.164062 24.003906 30.890625 24.085938 L 30.621094 24.164062 C 30.566406 24.179688 30.511719 24.195312 30.457031 24.210938 C 30.707031 24.652344 30.960938 25.144531 31.210938 25.691406 L 31.347656 25.988281 L 31.480469 26.296875 L 31.546875 26.453125 C 31.625 26.636719 31.503906 26.839844 31.308594 26.863281 C 31.253906 26.871094 31.195312 26.878906 31.140625 26.886719 L 30.808594 26.921875 L 30.484375 26.953125 C 29.882812 27.007812 29.332031 27.039062 28.820312 27.039062 C 28.894531 27.3125 28.964844 27.601562 29.027344 27.90625 L 29.085938 28.203125 C 29.164062 28.605469 29.234375 29.03125 29.296875 29.488281 C 29.324219 29.683594 29.15625 29.847656 28.960938 29.824219 C 28.847656 29.808594 28.738281 29.789062 28.625 29.773438 L 28.300781 29.722656 C 28.246094 29.710938 28.191406 29.707031 28.140625 29.695312 L 27.828125 29.640625 C 27.355469 29.550781 26.917969 29.457031 26.511719 29.347656 C 26.511719 29.855469 26.484375 30.410156 26.429688 31.007812 L 26.398438 31.332031 L 26.359375 31.664062 L 26.339844 31.835938 C 26.316406 32.03125 26.109375 32.148438 25.925781 32.074219 C 25.875 32.050781 25.820312 32.027344 25.769531 32.003906 L 25.464844 31.871094 L 25.167969 31.738281 C 24.621094 31.484375 24.125 31.234375 23.6875 30.980469 C 23.496094 31.6875 23.222656 32.472656 22.875 33.335938 C 22.800781 33.519531 22.570312 33.582031 22.414062 33.460938 C 21.679688 32.886719 21.050781 32.34375 20.53125 31.824219 C 20.277344 32.265625 19.976562 32.730469 19.628906 33.222656 L 19.4375 33.484375 L 19.238281 33.757812 L 19.136719 33.890625 C 19.019531 34.050781 18.78125 34.050781 18.664062 33.890625 C 18.628906 33.847656 18.59375 33.800781 18.558594 33.757812 L 18.363281 33.484375 L 18.171875 33.222656 C 17.824219 32.730469 17.523438 32.265625 17.265625 31.824219 C 16.75 32.34375 16.121094 32.886719 15.386719 33.460938 C 15.230469 33.582031 15 33.519531 14.925781 33.335938 C 14.578125 32.472656 14.304688 31.6875 14.113281 30.980469 C 13.675781 31.234375 13.179688 31.484375 12.632812 31.738281 L 12.335938 31.871094 L 12.027344 32.003906 L 11.871094 32.074219 C 11.691406 32.148438 11.484375 32.03125 11.460938 31.835938 C 11.453125 31.777344 11.449219 31.722656 11.441406 31.664062 L 11.402344 31.332031 L 11.371094 31.007812 C 11.316406 30.410156 11.285156 29.855469 11.285156 29.347656 C 10.882812 29.457031 10.445312 29.550781 9.96875 29.640625 L 9.660156 29.695312 C 9.609375 29.707031 9.554688 29.710938 9.5 29.722656 L 9.171875 29.773438 C 9.0625 29.789062 8.953125 29.808594 8.839844 29.824219 C 8.644531 29.847656 8.476562 29.683594 8.503906 29.488281 C 8.566406 29.03125 8.636719 28.605469 8.714844 28.203125 L 8.773438 27.90625 C 8.835938 27.601562 8.90625 27.3125 8.976562 27.039062 C 8.46875 27.039062 7.917969 27.007812 7.316406 26.953125 L 6.992188 26.921875 L 6.660156 26.886719 L 6.488281 26.863281 C 6.292969 26.839844 6.175781 26.636719 6.253906 26.453125 C 6.273438 26.398438 6.296875 26.347656 6.320312 26.296875 L 6.453125 25.988281 L 6.585938 25.691406 C 6.839844 25.144531 7.089844 24.652344 7.34375 24.210938 C 7.289062 24.195312 7.234375 24.179688 7.179688 24.164062 L 6.910156 24.085938 C 6.636719 24.003906 6.351562 23.910156 6.058594 23.804688 L 5.761719 23.699219 C 5.613281 23.644531 5.457031 23.585938 5.300781 23.523438 L 4.988281 23.398438 C 4.804688 23.324219 4.742188 23.097656 4.863281 22.941406 C 4.898438 22.894531 4.933594 22.851562 4.96875 22.804688 L 5.179688 22.542969 L 5.386719 22.292969 C 5.488281 22.167969 5.589844 22.050781 5.691406 21.933594 L 5.890625 21.707031 C 6.097656 21.472656 6.300781 21.257812 6.5 21.058594 C 6.058594 20.804688 5.59375 20.5 5.105469 20.152344 L 4.839844 19.964844 L 4.570312 19.765625 L 4.433594 19.664062 C 4.277344 19.542969 4.277344 19.308594 4.433594 19.1875 C 4.480469 19.152344 4.523438 19.117188 4.570312 19.085938 L 4.839844 18.886719 L 5.105469 18.695312 C 5.59375 18.347656 6.058594 18.046875 6.5 17.792969 C 6.457031 17.753906 6.417969 17.710938 6.378906 17.671875 L 6.183594 17.46875 C 5.992188 17.257812 5.792969 17.039062 5.589844 16.800781 L 5.386719 16.558594 C 5.28125 16.433594 5.179688 16.308594 5.074219 16.175781 L 4.863281 15.910156 C 4.742188 15.753906 4.804688 15.527344 4.988281 15.453125 C 5.039062 15.429688 5.09375 15.40625 5.144531 15.386719 L 5.457031 15.265625 L 5.761719 15.152344 C 6.328125 14.941406 6.855469 14.769531 7.34375 14.636719 C 7.089844 14.199219 6.839844 13.703125 6.585938 13.15625 L 6.453125 12.859375 L 6.320312 12.554688 L 6.253906 12.398438 C 6.175781 12.214844 6.292969 12.011719 6.488281 11.984375 C 6.546875 11.980469 6.601562 11.972656 6.660156 11.964844 L 6.992188 11.925781 L 7.316406 11.898438 C 7.917969 11.839844 8.46875 11.8125 8.976562 11.8125 C 8.960938 11.753906 8.949219 11.703125 8.933594 11.644531 L 8.867188 11.371094 C 8.769531 10.957031 8.683594 10.507812 8.601562 10.027344 L 8.550781 9.699219 L 8.503906 9.363281 C 8.476562 9.167969 8.644531 9 8.839844 9.027344 C 9.066406 9.058594 9.285156 9.09375 9.5 9.128906 L 9.816406 9.183594 C 9.921875 9.199219 10.023438 9.21875 10.125 9.238281 L 10.417969 9.296875 C 10.726562 9.363281 11.011719 9.429688 11.285156 9.5 C 11.285156 8.996094 11.316406 8.441406 11.371094 7.839844 L 11.402344 7.515625 L 11.441406 7.183594 L 11.460938 7.015625 C 11.484375 6.820312 11.691406 6.699219 11.871094 6.777344 C 11.925781 6.800781 11.976562 6.824219 12.027344 6.84375 L 12.335938 6.980469 L 12.632812 7.113281 C 13.179688 7.363281 13.675781 7.617188 14.113281 7.867188 C 14.28125 7.25 14.511719 6.566406 14.800781 5.828125 L 14.925781 5.511719 C 15 5.328125 15.230469 5.265625 15.386719 5.390625 L 15.652344 5.597656 C 16.273438 6.097656 16.8125 6.570312 17.265625 7.023438 C 17.523438 6.585938 17.824219 6.121094 18.171875 5.628906 L 18.363281 5.363281 L 18.558594 5.09375 Z M 20.75 27.859375 L 20.707031 27.867188 C 20.125 27.992188 19.519531 28.058594 18.898438 28.058594 C 18.265625 28.058594 17.644531 27.988281 17.050781 27.859375 C 16.898438 28.140625 16.816406 28.457031 16.816406 28.800781 C 16.816406 29.75 17.398438 31.074219 18.570312 32.753906 L 18.75 33.007812 L 18.898438 33.214844 L 18.957031 33.136719 C 18.988281 33.09375 19.019531 33.050781 19.050781 33.007812 L 19.230469 32.753906 C 20.402344 31.074219 20.984375 29.75 20.984375 28.800781 C 20.984375 28.457031 20.902344 28.140625 20.75 27.859375 Z M 16.257812 29.285156 L 16.230469 29.320312 C 15.863281 29.769531 15.335938 30.214844 14.644531 30.660156 C 14.796875 31.257812 15.015625 31.921875 15.296875 32.65625 L 15.332031 32.742188 L 15.53125 32.585938 C 16.085938 32.125 16.566406 31.691406 16.96875 31.28125 C 16.582031 30.53125 16.34375 29.867188 16.257812 29.285156 Z M 21.542969 29.285156 L 21.535156 29.328125 C 21.441406 29.902344 21.207031 30.550781 20.832031 31.28125 C 21.265625 31.722656 21.785156 32.191406 22.394531 32.683594 L 22.46875 32.742188 L 22.558594 32.507812 C 22.816406 31.832031 23.011719 31.214844 23.15625 30.660156 C 22.445312 30.203125 21.910156 29.746094 21.542969 29.285156 Z M 13.082031 25.804688 L 13.078125 25.804688 C 12.808594 25.972656 12.578125 26.207031 12.40625 26.503906 C 11.933594 27.324219 11.777344 28.761719 11.949219 30.800781 L 11.980469 31.113281 L 11.996094 31.273438 L 12.003906 31.367188 L 12.238281 31.261719 L 12.523438 31.132812 C 14.375 30.261719 15.542969 29.40625 16.015625 28.585938 C 16.1875 28.289062 16.273438 27.976562 16.285156 27.652344 C 15.082031 27.273438 13.992188 26.632812 13.082031 25.804688 Z M 24.71875 25.804688 C 23.808594 26.632812 22.71875 27.273438 21.515625 27.652344 C 21.523438 27.976562 21.613281 28.289062 21.785156 28.585938 C 22.257812 29.40625 23.421875 30.261719 25.277344 31.132812 L 25.5625 31.261719 L 25.707031 31.328125 L 25.792969 31.367188 L 25.820312 31.113281 L 25.851562 30.800781 C 26.023438 28.761719 25.867188 27.324219 25.394531 26.503906 C 25.21875 26.203125 24.992188 25.972656 24.71875 25.804688 Z M 26.117188 26.640625 L 26.132812 26.683594 C 26.339844 27.226562 26.460938 27.90625 26.5 28.726562 C 27.097656 28.894531 27.78125 29.039062 28.558594 29.160156 L 28.648438 29.175781 L 28.636719 29.082031 L 28.585938 28.769531 C 28.574219 28.71875 28.566406 28.667969 28.558594 28.617188 L 28.503906 28.320312 L 28.445312 28.03125 C 28.371094 27.671875 28.289062 27.335938 28.203125 27.027344 C 27.359375 26.988281 26.664062 26.859375 26.117188 26.640625 Z M 11.683594 26.640625 L 11.640625 26.660156 C 11.097656 26.867188 10.417969 26.988281 9.597656 27.027344 C 9.511719 27.335938 9.429688 27.671875 9.355469 28.03125 L 9.296875 28.320312 L 9.242188 28.617188 C 9.214844 28.765625 9.1875 28.921875 9.164062 29.082031 L 9.148438 29.175781 L 9.402344 29.132812 C 10.109375 29.019531 10.746094 28.882812 11.300781 28.726562 C 11.335938 27.886719 11.464844 27.191406 11.683594 26.640625 Z M 18.898438 11.386719 C 14.460938 11.386719 10.863281 14.988281 10.863281 19.425781 C 10.863281 23.863281 14.460938 27.460938 18.898438 27.460938 C 23.339844 27.460938 26.9375 23.863281 26.9375 19.425781 C 26.9375 14.988281 23.339844 11.386719 18.898438 11.386719 Z M 28.0625 22.308594 C 27.761719 22.136719 27.449219 22.050781 27.128906 22.039062 C 26.746094 23.242188 26.109375 24.332031 25.277344 25.242188 C 25.445312 25.515625 25.679688 25.742188 25.980469 25.917969 C 26.796875 26.390625 28.234375 26.546875 30.277344 26.375 L 30.585938 26.34375 L 30.746094 26.328125 L 30.84375 26.320312 L 30.738281 26.085938 L 30.609375 25.804688 C 29.738281 23.949219 28.882812 22.78125 28.0625 22.308594 Z M 10.671875 22.039062 C 10.347656 22.050781 10.035156 22.136719 9.738281 22.308594 C 8.917969 22.78125 8.0625 23.949219 7.191406 25.804688 L 7.0625 26.085938 L 6.957031 26.320312 L 7.050781 26.328125 C 7.105469 26.335938 7.160156 26.339844 7.210938 26.34375 L 7.523438 26.375 C 9.5625 26.546875 11 26.390625 11.820312 25.917969 C 12.121094 25.742188 12.351562 25.515625 12.523438 25.242188 C 11.691406 24.332031 11.050781 23.242188 10.671875 22.039062 Z M 30.757812 21.355469 L 30.671875 21.398438 C 29.957031 21.761719 29.320312 21.984375 28.757812 22.066406 C 29.222656 22.433594 29.679688 22.96875 30.132812 23.679688 C 30.527344 23.578125 30.949219 23.449219 31.402344 23.292969 L 31.6875 23.191406 L 31.980469 23.085938 L 32.21875 22.992188 L 32.160156 22.917969 L 31.957031 22.675781 C 31.925781 22.632812 31.890625 22.59375 31.859375 22.554688 L 31.664062 22.324219 L 31.46875 22.105469 C 31.226562 21.832031 30.984375 21.582031 30.757812 21.355469 Z M 7.042969 21.355469 C 6.8125 21.582031 6.574219 21.832031 6.332031 22.105469 L 6.136719 22.324219 L 5.941406 22.554688 C 5.839844 22.671875 5.742188 22.796875 5.640625 22.917969 L 5.582031 22.992188 L 5.820312 23.085938 L 6.113281 23.191406 L 6.398438 23.292969 C 6.847656 23.449219 7.273438 23.578125 7.667969 23.679688 C 8.121094 22.96875 8.578125 22.433594 9.042969 22.066406 C 8.457031 21.980469 7.792969 21.746094 7.042969 21.355469 Z M 9.523438 17.339844 C 8.578125 17.339844 7.253906 17.921875 5.570312 19.09375 L 5.316406 19.277344 L 5.1875 19.371094 L 5.113281 19.425781 L 5.316406 19.574219 L 5.570312 19.753906 C 7.253906 20.925781 8.578125 21.507812 9.523438 21.507812 C 9.871094 21.507812 10.183594 21.425781 10.464844 21.273438 C 10.335938 20.679688 10.269531 20.0625 10.269531 19.425781 C 10.269531 18.789062 10.335938 18.171875 10.464844 17.574219 C 10.183594 17.421875 9.871094 17.339844 9.523438 17.339844 Z M 28.277344 17.339844 C 27.929688 17.339844 27.617188 17.421875 27.332031 17.574219 C 27.464844 18.171875 27.53125 18.789062 27.53125 19.425781 C 27.53125 20.0625 27.464844 20.679688 27.332031 21.273438 C 27.617188 21.425781 27.929688 21.507812 28.277344 21.507812 C 29.222656 21.507812 30.546875 20.925781 32.226562 19.753906 L 32.480469 19.574219 L 32.6875 19.425781 L 32.613281 19.371094 C 32.570312 19.339844 32.527344 19.304688 32.480469 19.277344 L 32.226562 19.09375 C 30.546875 17.921875 29.222656 17.339844 28.277344 17.339844 Z M 7.667969 15.167969 C 7.351562 15.25 7.023438 15.347656 6.675781 15.460938 L 6.398438 15.554688 L 6.113281 15.65625 C 5.96875 15.707031 5.820312 15.765625 5.667969 15.820312 L 5.582031 15.855469 L 5.742188 16.054688 L 5.941406 16.292969 C 6.324219 16.75 6.691406 17.148438 7.042969 17.492188 C 7.792969 17.105469 8.457031 16.871094 9.042969 16.785156 C 8.597656 16.429688 8.15625 15.917969 7.71875 15.25 Z M 30.132812 15.167969 L 30.082031 15.25 C 29.644531 15.917969 29.203125 16.429688 28.757812 16.785156 C 29.34375 16.871094 30.007812 17.105469 30.757812 17.492188 C 31.105469 17.148438 31.472656 16.75 31.859375 16.292969 L 32.058594 16.054688 L 32.21875 15.855469 L 31.980469 15.765625 C 31.882812 15.726562 31.785156 15.691406 31.6875 15.65625 L 31.402344 15.554688 L 31.125 15.460938 C 30.777344 15.347656 30.445312 15.25 30.132812 15.167969 Z M 11.820312 12.933594 C 11 12.457031 9.5625 12.300781 7.523438 12.476562 L 7.210938 12.503906 L 6.957031 12.53125 L 6.996094 12.617188 C 7.019531 12.664062 7.039062 12.714844 7.0625 12.761719 L 7.191406 13.046875 C 8.0625 14.902344 8.917969 16.066406 9.738281 16.542969 C 10.035156 16.714844 10.351562 16.800781 10.671875 16.8125 C 11.050781 15.605469 11.691406 14.519531 12.523438 13.609375 C 12.351562 13.332031 12.121094 13.105469 11.820312 12.933594 Z M 30.277344 12.476562 C 28.234375 12.300781 26.796875 12.457031 25.980469 12.933594 C 25.679688 13.105469 25.445312 13.332031 25.277344 13.605469 C 26.109375 14.519531 26.746094 15.605469 27.128906 16.8125 C 27.449219 16.800781 27.761719 16.714844 28.0625 16.542969 C 28.882812 16.066406 29.738281 14.902344 30.609375 13.046875 L 30.738281 12.761719 L 30.804688 12.617188 L 30.84375 12.53125 L 30.585938 12.503906 Z M 12.003906 7.484375 L 11.996094 7.578125 C 11.992188 7.632812 11.984375 7.683594 11.980469 7.738281 L 11.949219 8.046875 C 11.777344 10.089844 11.933594 11.527344 12.40625 12.347656 C 12.582031 12.644531 12.808594 12.878906 13.082031 13.046875 C 13.992188 12.214844 15.082031 11.578125 16.285156 11.195312 C 16.273438 10.875 16.1875 10.5625 16.015625 10.261719 C 15.542969 9.441406 14.375 8.585938 12.523438 7.71875 L 12.238281 7.585938 Z M 25.792969 7.484375 L 25.707031 7.523438 C 25.660156 7.542969 25.609375 7.566406 25.5625 7.585938 L 25.277344 7.71875 C 23.421875 8.585938 22.257812 9.441406 21.785156 10.261719 C 21.613281 10.5625 21.523438 10.875 21.515625 11.195312 C 22.71875 11.578125 23.808594 12.214844 24.714844 13.046875 C 24.992188 12.878906 25.21875 12.644531 25.394531 12.347656 C 25.867188 11.527344 26.023438 10.089844 25.851562 8.046875 L 25.820312 7.738281 Z M 28.648438 9.675781 L 28.398438 9.714844 C 28.292969 9.734375 28.191406 9.75 28.089844 9.769531 L 27.792969 9.824219 L 27.503906 9.878906 C 27.144531 9.957031 26.8125 10.035156 26.5 10.125 C 26.460938 10.964844 26.335938 11.660156 26.117188 12.207031 C 26.664062 11.988281 27.359375 11.863281 28.203125 11.824219 C 28.367188 11.226562 28.511719 10.542969 28.636719 9.769531 Z M 9.148438 9.675781 L 9.191406 9.925781 C 9.308594 10.636719 9.441406 11.269531 9.597656 11.824219 C 10.441406 11.863281 11.132812 11.988281 11.683594 12.207031 C 11.464844 11.660156 11.335938 10.964844 11.300781 10.125 C 10.988281 10.035156 10.652344 9.957031 10.292969 9.878906 L 10.007812 9.824219 L 9.707031 9.769531 C 9.558594 9.738281 9.402344 9.714844 9.242188 9.6875 Z M 18.898438 5.636719 L 18.84375 5.710938 C 18.8125 5.757812 18.78125 5.800781 18.75 5.84375 L 18.570312 6.097656 C 17.398438 7.777344 16.816406 9.101562 16.816406 10.046875 C 16.816406 10.394531 16.898438 10.710938 17.050781 10.992188 C 17.644531 10.859375 18.265625 10.792969 18.898438 10.792969 C 19.535156 10.792969 20.152344 10.859375 20.75 10.992188 C 20.902344 10.710938 20.984375 10.394531 20.984375 10.046875 C 20.984375 9.101562 20.402344 7.777344 19.230469 6.097656 L 19.050781 5.84375 Z M 15.332031 6.105469 L 15.296875 6.195312 C 15.125 6.644531 14.976562 7.070312 14.851562 7.46875 L 14.773438 7.734375 C 14.726562 7.890625 14.683594 8.042969 14.644531 8.191406 C 15.355469 8.644531 15.890625 9.101562 16.257812 9.566406 C 16.34375 8.980469 16.582031 8.316406 16.96875 7.566406 C 16.863281 7.460938 16.75 7.347656 16.628906 7.234375 L 16.429688 7.046875 C 16.121094 6.761719 15.78125 6.46875 15.40625 6.164062 Z M 22.46875 6.105469 L 22.394531 6.164062 C 22.019531 6.46875 21.679688 6.761719 21.371094 7.046875 L 21.167969 7.234375 C 21.050781 7.347656 20.9375 7.460938 20.832031 7.566406 C 21.21875 8.316406 21.453125 8.980469 21.542969 9.566406 C 21.90625 9.101562 22.445312 8.644531 23.15625 8.191406 C 23.117188 8.042969 23.074219 7.890625 23.027344 7.734375 L 22.949219 7.46875 C 22.824219 7.070312 22.675781 6.644531 22.503906 6.195312 Z M 22.46875 6.105469 " fill-opacity="1" fill-rule="nonzero"/></g><path fill="#001528" d="M 18.945312 7.945312 C 19.105469 7.972656 19.21875 8.125 19.195312 8.285156 C 19.054688 9.207031 19.054688 10.125 19.195312 11.046875 C 19.21875 11.207031 19.105469 11.359375 18.945312 11.386719 C 18.78125 11.410156 18.628906 11.296875 18.605469 11.132812 C 18.457031 10.15625 18.457031 9.175781 18.605469 8.199219 C 18.628906 8.046875 18.761719 7.9375 18.910156 7.945312 Z M 18.945312 7.945312 " fill-opacity="1" fill-rule="nonzero"/><path fill="#001528" d="M 24.640625 9.515625 L 24.671875 9.535156 C 24.800781 9.636719 24.820312 9.824219 24.714844 9.949219 C 24.136719 10.679688 23.679688 11.476562 23.335938 12.34375 C 23.277344 12.496094 23.105469 12.570312 22.949219 12.511719 C 22.796875 12.449219 22.722656 12.277344 22.785156 12.125 C 23.144531 11.203125 23.632812 10.355469 24.25 9.582031 C 24.347656 9.460938 24.515625 9.433594 24.640625 9.515625 Z M 24.640625 9.515625 " fill-opacity="1" fill-rule="nonzero"/><path fill="#001528" d="M 28.835938 13.769531 C 28.894531 13.921875 28.820312 14.097656 28.667969 14.15625 C 27.800781 14.496094 27.003906 14.957031 26.277344 15.535156 C 26.148438 15.640625 25.960938 15.617188 25.859375 15.488281 C 25.753906 15.359375 25.777344 15.175781 25.90625 15.070312 C 26.679688 14.453125 27.527344 13.964844 28.449219 13.601562 C 28.589844 13.546875 28.75 13.605469 28.820312 13.738281 Z M 28.835938 13.769531 " fill-opacity="1" fill-rule="nonzero"/><path fill="#001528" d="M 30.324219 19.523438 C 30.300781 19.683594 30.148438 19.796875 29.984375 19.773438 C 29.066406 19.632812 28.144531 19.632812 27.226562 19.773438 C 27.0625 19.796875 26.910156 19.683594 26.886719 19.523438 C 26.863281 19.359375 26.972656 19.207031 27.136719 19.183594 C 28.117188 19.039062 29.09375 19.039062 30.074219 19.183594 C 30.226562 19.207031 30.332031 19.339844 30.328125 19.488281 Z M 30.324219 19.523438 " fill-opacity="1" fill-rule="nonzero"/><path fill="#001528" d="M 28.738281 25.246094 C 28.636719 25.375 28.449219 25.398438 28.320312 25.296875 C 27.589844 24.714844 26.796875 24.253906 25.929688 23.914062 C 25.777344 23.855469 25.703125 23.683594 25.761719 23.53125 C 25.820312 23.375 25.996094 23.300781 26.144531 23.359375 C 27.070312 23.722656 27.917969 24.214844 28.691406 24.828125 C 28.808594 24.925781 28.835938 25.09375 28.757812 25.21875 Z M 28.738281 25.246094 " fill-opacity="1" fill-rule="nonzero"/><path fill="#001528" d="M 24.5 29.414062 C 24.347656 29.472656 24.175781 29.398438 24.117188 29.246094 C 23.773438 28.378906 23.3125 27.582031 22.734375 26.855469 C 22.632812 26.726562 22.652344 26.539062 22.78125 26.4375 C 22.910156 26.335938 23.097656 26.355469 23.199219 26.484375 C 23.816406 27.257812 24.308594 28.105469 24.667969 29.027344 C 24.722656 29.171875 24.664062 29.328125 24.53125 29.398438 Z M 24.5 29.414062 " fill-opacity="1" fill-rule="nonzero"/><path fill="#001528" d="M 18.75 30.902344 C 18.585938 30.878906 18.476562 30.726562 18.5 30.5625 C 18.636719 29.644531 18.636719 28.722656 18.5 27.804688 C 18.476562 27.640625 18.585938 27.488281 18.75 27.464844 C 18.914062 27.441406 19.0625 27.554688 19.085938 27.714844 C 19.234375 28.695312 19.234375 29.675781 19.085938 30.652344 C 19.0625 30.804688 18.933594 30.910156 18.785156 30.90625 Z M 18.75 30.902344 " fill-opacity="1" fill-rule="nonzero"/><path fill="#001528" d="M 13.023438 29.316406 C 12.894531 29.214844 12.875 29.027344 12.976562 28.898438 C 13.554688 28.171875 14.015625 27.375 14.355469 26.507812 C 14.417969 26.355469 14.589844 26.277344 14.742188 26.339844 C 14.894531 26.398438 14.96875 26.570312 14.910156 26.726562 C 14.546875 27.644531 14.058594 28.496094 13.441406 29.269531 C 13.347656 29.390625 13.179688 29.414062 13.050781 29.335938 Z M 13.023438 29.316406 " fill-opacity="1" fill-rule="nonzero"/><path fill="#001528" d="M 8.855469 25.078125 C 8.796875 24.925781 8.871094 24.753906 9.027344 24.691406 C 9.890625 24.351562 10.6875 23.894531 11.417969 23.3125 C 11.546875 23.210938 11.734375 23.234375 11.835938 23.359375 C 11.9375 23.488281 11.914062 23.675781 11.789062 23.777344 C 11.011719 24.394531 10.164062 24.886719 9.242188 25.246094 C 9.101562 25.304688 8.941406 25.242188 8.871094 25.113281 Z M 8.855469 25.078125 " fill-opacity="1" fill-rule="nonzero"/><path fill="#001528" d="M 7.367188 19.328125 C 7.394531 19.164062 7.542969 19.054688 7.707031 19.078125 C 8.628906 19.214844 9.546875 19.214844 10.46875 19.078125 C 10.628906 19.054688 10.78125 19.164062 10.804688 19.328125 C 10.832031 19.488281 10.71875 19.640625 10.554688 19.664062 C 9.578125 19.8125 8.597656 19.8125 7.617188 19.664062 C 7.46875 19.644531 7.359375 19.511719 7.367188 19.363281 Z M 7.367188 19.328125 " fill-opacity="1" fill-rule="nonzero"/><path fill="#001528" d="M 8.953125 13.601562 C 9.058594 13.472656 9.246094 13.453125 9.375 13.554688 C 10.101562 14.132812 10.898438 14.59375 11.765625 14.933594 C 11.917969 14.996094 11.992188 15.167969 11.933594 15.320312 C 11.871094 15.472656 11.699219 15.550781 11.546875 15.488281 C 10.625 15.125 9.777344 14.636719 9.003906 14.019531 C 8.882812 13.925781 8.855469 13.757812 8.933594 13.628906 Z M 8.953125 13.601562 " fill-opacity="1" fill-rule="nonzero"/><path fill="#001528" d="M 13.191406 9.4375 C 13.34375 9.375 13.515625 9.453125 13.578125 9.605469 C 13.917969 10.46875 14.378906 11.265625 14.960938 11.996094 C 15.0625 12.121094 15.039062 12.3125 14.910156 12.414062 C 14.78125 12.515625 14.59375 12.496094 14.492188 12.367188 C 13.875 11.589844 13.386719 10.742188 13.023438 9.824219 C 12.96875 9.679688 13.027344 9.519531 13.160156 9.449219 Z M 13.191406 9.4375 " fill-opacity="1" fill-rule="nonzero"/><path fill="#001528" d="M 15.625 20.019531 C 15.625 20.511719 15.226562 20.914062 14.734375 20.914062 C 14.238281 20.914062 13.839844 20.511719 13.839844 20.019531 C 13.839844 19.527344 14.238281 19.128906 14.734375 19.128906 C 15.226562 19.128906 15.625 19.527344 15.625 20.019531 Z M 15.625 20.019531 " fill-opacity="1" fill-rule="nonzero"/><path fill="#001528" d="M 23.960938 20.019531 C 23.960938 20.511719 23.558594 20.914062 23.066406 20.914062 C 22.574219 20.914062 22.175781 20.511719 22.175781 20.019531 C 22.175781 19.527344 22.574219 19.128906 23.066406 19.128906 C 23.558594 19.128906 23.960938 19.527344 23.960938 20.019531 Z M 23.960938 20.019531 " fill-opacity="1" fill-rule="nonzero"/><path fill="#001528" d="M 21.792969 23.089844 C 21.90625 23.207031 21.90625 23.394531 21.785156 23.507812 C 21.667969 23.625 21.476562 23.621094 21.363281 23.5 C 20.695312 22.804688 19.824219 22.414062 18.898438 22.414062 C 17.976562 22.414062 17.105469 22.804688 16.433594 23.5 C 16.320312 23.621094 16.132812 23.625 16.015625 23.507812 C 15.894531 23.394531 15.890625 23.207031 16.007812 23.089844 C 16.785156 22.277344 17.808594 21.820312 18.898438 21.820312 C 19.988281 21.820312 21.015625 22.277344 21.792969 23.089844 Z M 21.792969 23.089844 " fill-opacity="1" fill-rule="nonzero"/></svg>