<svg xmlns="http://www.w3.org/2000/svg" xmlns:xlink="http://www.w3.org/1999/xlink" width="200" zoomAndPan="magnify" viewBox="0 0 150 149.999998" height="200" preserveAspectRatio="xMidYMid meet" version="1.0"><defs><clipPath id="f92520e48d"><path d="M 1.464844 93.808594 L 16.746094 93.808594 L 16.746094 125.539062 L 1.464844 125.539062 Z M 1.464844 93.808594 " clip-rule="nonzero"/></clipPath><clipPath id="9a08da4771"><path d="M 1.464844 125.246094 L 1.464844 97.453125 C 1.464844 95.503906 3.046875 93.921875 4.996094 93.921875 L 12.953125 93.921875 C 14.902344 93.921875 16.484375 95.503906 16.484375 97.453125 L 16.484375 125.246094 L 1.464844 125.246094 " clip-rule="nonzero"/></clipPath><clipPath id="503b3ae246"><path d="M 17.917969 80.492188 L 33 80.492188 L 33 125.539062 L 17.917969 125.539062 Z M 17.917969 80.492188 " clip-rule="nonzero"/></clipPath><clipPath id="fe613e16a7"><path d="M 17.953125 125.246094 L 17.953125 84.113281 C 17.953125 82.164062 19.53125 80.582031 21.480469 80.582031 L 29.441406 80.582031 C 31.390625 80.582031 32.96875 82.164062 32.96875 84.113281 L 32.96875 125.246094 L 17.953125 125.246094 " clip-rule="nonzero"/></clipPath><clipPath id="8f4274ea55"><path d="M 34.371094 62.46875 L 49.648438 62.46875 L 49.648438 125.539062 L 34.371094 125.539062 Z M 34.371094 62.46875 " clip-rule="nonzero"/></clipPath><clipPath id="16715828f1"><path d="M 34.4375 125.246094 L 34.4375 66.324219 C 34.4375 65.390625 34.808594 64.492188 35.472656 63.832031 C 36.132812 63.167969 37.03125 62.796875 37.964844 62.796875 L 45.925781 62.796875 C 46.863281 62.796875 47.757812 63.167969 48.421875 63.832031 C 49.082031 64.492188 49.453125 65.390625 49.453125 66.324219 L 49.453125 125.246094 L 34.4375 125.246094 " clip-rule="nonzero"/></clipPath><clipPath id="801475302e"><path d="M 50.824219 36 L 66 36 L 66 125.539062 L 50.824219 125.539062 Z M 50.824219 36 " clip-rule="nonzero"/></clipPath><clipPath id="2b8c006d48"><path d="M 50.921875 125.246094 L 50.921875 39.648438 C 50.921875 37.699219 52.503906 36.117188 54.453125 36.117188 L 62.410156 36.117188 C 64.359375 36.117188 65.941406 37.699219 65.941406 39.648438 L 65.941406 125.246094 L 50.921875 125.246094 " clip-rule="nonzero"/></clipPath><clipPath id="c32134611a"><path d="M 67.277344 20.554688 L 82.554688 20.554688 L 82.554688 125.539062 L 67.277344 125.539062 Z M 67.277344 20.554688 " clip-rule="nonzero"/></clipPath><clipPath id="3a7f6a7295"><path d="M 67.410156 125.246094 L 67.410156 24.082031 C 67.410156 23.148438 67.78125 22.25 68.441406 21.589844 C 69.105469 20.925781 70.003906 20.554688 70.9375 20.554688 L 78.898438 20.554688 C 79.832031 20.554688 80.730469 20.925781 81.390625 21.589844 C 82.054688 22.25 82.425781 23.148438 82.425781 24.082031 L 82.425781 125.246094 L 67.410156 125.246094 " clip-rule="nonzero"/></clipPath><clipPath id="6e94cccd71"><path d="M 83.730469 49.152344 L 99 49.152344 L 99 125.539062 L 83.730469 125.539062 Z M 83.730469 49.152344 " clip-rule="nonzero"/></clipPath><clipPath id="73309429f0"><path d="M 83.894531 125.246094 L 83.894531 52.988281 C 83.894531 51.039062 85.476562 49.457031 87.421875 49.457031 L 95.382812 49.457031 C 97.332031 49.457031 98.910156 51.039062 98.910156 52.988281 L 98.910156 125.246094 L 83.894531 125.246094 " clip-rule="nonzero"/></clipPath><clipPath id="3f2421a7a8"><path d="M 100.183594 82.449219 L 115.460938 82.449219 L 115.460938 125.539062 L 100.183594 125.539062 Z M 100.183594 82.449219 " clip-rule="nonzero"/></clipPath><clipPath id="6b3d81055a"><path d="M 100.378906 125.246094 L 100.378906 86.335938 C 100.378906 84.386719 101.960938 82.808594 103.910156 82.808594 L 111.867188 82.808594 C 113.816406 82.808594 115.398438 84.386719 115.398438 86.335938 L 115.398438 125.246094 L 100.378906 125.246094 " clip-rule="nonzero"/></clipPath><clipPath id="7aa2a8fef9"><path d="M 116.636719 31.523438 L 131.914062 31.523438 L 131.914062 125.539062 L 116.636719 125.539062 Z M 116.636719 31.523438 " clip-rule="nonzero"/></clipPath><clipPath id="42f0589cba"><path d="M 116.867188 125.246094 L 116.867188 35.199219 C 116.867188 33.25 118.445312 31.671875 120.394531 31.671875 L 128.355469 31.671875 C 130.300781 31.671875 131.882812 33.25 131.882812 35.199219 L 131.882812 125.246094 L 116.867188 125.246094 " clip-rule="nonzero"/></clipPath><clipPath id="65a819fc8f"><path d="M 133.089844 62.46875 L 148.367188 62.46875 L 148.367188 125.539062 L 133.089844 125.539062 Z M 133.089844 62.46875 " clip-rule="nonzero"/></clipPath><clipPath id="0b6204c319"><path d="M 133.351562 125.246094 L 133.351562 66.324219 C 133.351562 65.390625 133.722656 64.492188 134.386719 63.832031 C 135.046875 63.167969 135.945312 62.796875 136.878906 62.796875 L 144.839844 62.796875 C 145.773438 62.796875 146.671875 63.167969 147.335938 63.832031 C 147.996094 64.492188 148.367188 65.390625 148.367188 66.324219 L 148.367188 125.246094 L 133.351562 125.246094 " clip-rule="nonzero"/></clipPath><clipPath id="bc1ab10bb9"><path d="M 1.464844 105.109375 L 16.484375 105.109375 L 16.484375 125.246094 L 1.464844 125.246094 Z M 1.464844 105.109375 " clip-rule="nonzero"/></clipPath><clipPath id="9499bfcf5c"><path d="M 17.953125 89.515625 L 32.96875 89.515625 L 32.96875 125.246094 L 17.953125 125.246094 Z M 17.953125 89.515625 " clip-rule="nonzero"/></clipPath><clipPath id="7660615026"><path d="M 34.4375 73.949219 L 49.453125 73.949219 L 49.453125 125.246094 L 34.4375 125.246094 Z M 34.4375 73.949219 " clip-rule="nonzero"/></clipPath><clipPath id="85f76f147e"><path d="M 50.921875 53.941406 L 65.941406 53.941406 L 65.941406 125.246094 L 50.921875 125.246094 Z M 50.921875 53.941406 " clip-rule="nonzero"/></clipPath><clipPath id="eed25b06cd"><path d="M 67.410156 38.375 L 82.425781 38.375 L 82.425781 125.246094 L 67.410156 125.246094 Z M 67.410156 38.375 " clip-rule="nonzero"/></clipPath><clipPath id="3694ccbfcc"><path d="M 1.464844 116.296875 L 16.484375 116.296875 L 16.484375 125.246094 L 1.464844 125.246094 Z M 1.464844 116.296875 " clip-rule="nonzero"/></clipPath><clipPath id="42f662288a"><path d="M 17.953125 107.378906 L 32.96875 107.378906 L 32.96875 125.246094 L 17.953125 125.246094 Z M 17.953125 107.378906 " clip-rule="nonzero"/></clipPath><clipPath id="66a20dcee8"><path d="M 34.4375 91.789062 L 49.453125 91.789062 L 49.453125 125.246094 L 34.4375 125.246094 Z M 34.4375 91.789062 " clip-rule="nonzero"/></clipPath><clipPath id="0f2de301c7"><path d="M 50.921875 85.136719 L 65.941406 85.136719 L 65.941406 125.246094 L 50.921875 125.246094 Z M 50.921875 85.136719 " clip-rule="nonzero"/></clipPath><clipPath id="4a613709f8"><path d="M 67.410156 76.242188 L 82.425781 76.242188 L 82.425781 125.246094 L 67.410156 125.246094 Z M 67.410156 76.242188 " clip-rule="nonzero"/></clipPath><clipPath id="a13a41fb08"><path d="M 83.730469 49.152344 L 99 49.152344 L 99 125.539062 L 83.730469 125.539062 Z M 83.730469 49.152344 " clip-rule="nonzero"/></clipPath><clipPath id="080d2bb3cf"><path d="M 83.894531 125.246094 L 83.894531 52.988281 C 83.894531 51.039062 85.476562 49.457031 87.421875 49.457031 L 95.382812 49.457031 C 97.332031 49.457031 98.910156 51.039062 98.910156 52.988281 L 98.910156 125.246094 L 83.894531 125.246094 " clip-rule="nonzero"/></clipPath><clipPath id="26145c2ea8"><path d="M 100.183594 82.449219 L 115.460938 82.449219 L 115.460938 125.539062 L 100.183594 125.539062 Z M 100.183594 82.449219 " clip-rule="nonzero"/></clipPath><clipPath id="d7eec8b332"><path d="M 100.378906 125.246094 L 100.378906 86.335938 C 100.378906 84.386719 101.960938 82.808594 103.910156 82.808594 L 111.867188 82.808594 C 113.816406 82.808594 115.398438 84.386719 115.398438 86.335938 L 115.398438 125.246094 L 100.378906 125.246094 " clip-rule="nonzero"/></clipPath><clipPath id="3bf68503b8"><path d="M 116.636719 31.523438 L 131.914062 31.523438 L 131.914062 125.539062 L 116.636719 125.539062 Z M 116.636719 31.523438 " clip-rule="nonzero"/></clipPath><clipPath id="b42e423005"><path d="M 116.867188 125.246094 L 116.867188 35.199219 C 116.867188 33.25 118.445312 31.671875 120.394531 31.671875 L 128.355469 31.671875 C 130.300781 31.671875 131.882812 33.25 131.882812 35.199219 L 131.882812 125.246094 L 116.867188 125.246094 " clip-rule="nonzero"/></clipPath><clipPath id="1154fcfd6e"><path d="M 133.089844 62.46875 L 148.367188 62.46875 L 148.367188 125.539062 L 133.089844 125.539062 Z M 133.089844 62.46875 " clip-rule="nonzero"/></clipPath><clipPath id="096147fb08"><path d="M 133.351562 125.246094 L 133.351562 66.324219 C 133.351562 65.390625 133.722656 64.492188 134.386719 63.832031 C 135.046875 63.167969 135.945312 62.796875 136.878906 62.796875 L 144.839844 62.796875 C 145.773438 62.796875 146.671875 63.167969 147.335938 63.832031 C 147.996094 64.492188 148.367188 65.390625 148.367188 66.324219 L 148.367188 125.246094 L 133.351562 125.246094 " clip-rule="nonzero"/></clipPath></defs><rect x="-15" width="180" fill="#ffffff" y="-15" height="179.999997" fill-opacity="1"/><rect x="-15" width="180" fill="#ffffff" y="-15" height="179.999997" fill-opacity="1"/><rect x="-15" width="180" fill="#001528" y="-15" height="179.999997" fill-opacity="1"/><g clip-path="url(#f92520e48d)"><g clip-path="url(#9a08da4771)"><path fill="#ffffff" d="M 1.464844 20.554688 L 148.367188 20.554688 L 148.367188 125.148438 L 1.464844 125.148438 Z M 1.464844 20.554688 " fill-opacity="1" fill-rule="nonzero"/></g></g><g clip-path="url(#503b3ae246)"><g clip-path="url(#fe613e16a7)"><path fill="#ffffff" d="M 1.464844 20.554688 L 148.367188 20.554688 L 148.367188 125.148438 L 1.464844 125.148438 Z M 1.464844 20.554688 " fill-opacity="1" fill-rule="nonzero"/></g></g><g clip-path="url(#8f4274ea55)"><g clip-path="url(#16715828f1)"><path fill="#ffffff" d="M 1.464844 20.554688 L 148.367188 20.554688 L 148.367188 125.148438 L 1.464844 125.148438 Z M 1.464844 20.554688 " fill-opacity="1" fill-rule="nonzero"/></g></g><g clip-path="url(#801475302e)"><g clip-path="url(#2b8c006d48)"><path fill="#ffffff" d="M 1.464844 20.554688 L 148.367188 20.554688 L 148.367188 125.148438 L 1.464844 125.148438 Z M 1.464844 20.554688 " fill-opacity="1" fill-rule="nonzero"/></g></g><g clip-path="url(#c32134611a)"><g clip-path="url(#3a7f6a7295)"><path fill="#ffffff" d="M 1.464844 20.554688 L 148.367188 20.554688 L 148.367188 125.148438 L 1.464844 125.148438 Z M 1.464844 20.554688 " fill-opacity="1" fill-rule="nonzero"/></g></g><g clip-path="url(#6e94cccd71)"><g clip-path="url(#73309429f0)"><path fill="#ffffff" d="M 1.464844 20.554688 L 148.367188 20.554688 L 148.367188 125.148438 L 1.464844 125.148438 Z M 1.464844 20.554688 " fill-opacity="1" fill-rule="nonzero"/></g></g><g clip-path="url(#3f2421a7a8)"><g clip-path="url(#6b3d81055a)"><path fill="#ffffff" d="M 1.464844 20.554688 L 148.367188 20.554688 L 148.367188 125.148438 L 1.464844 125.148438 Z M 1.464844 20.554688 " fill-opacity="1" fill-rule="nonzero"/></g></g><g clip-path="url(#7aa2a8fef9)"><g clip-path="url(#42f0589cba)"><path fill="#ffffff" d="M 1.464844 20.554688 L 148.367188 20.554688 L 148.367188 125.148438 L 1.464844 125.148438 Z M 1.464844 20.554688 " fill-opacity="1" fill-rule="nonzero"/></g></g><g clip-path="url(#65a819fc8f)"><g clip-path="url(#0b6204c319)"><path fill="#ffffff" d="M 1.464844 20.554688 L 148.367188 20.554688 L 148.367188 125.148438 L 1.464844 125.148438 Z M 1.464844 20.554688 " fill-opacity="1" fill-rule="nonzero"/></g></g><g clip-path="url(#bc1ab10bb9)"><path fill="#ffffff" d="M 1.464844 20.554688 L 148.367188 20.554688 L 148.367188 125.148438 L 1.464844 125.148438 Z M 1.464844 20.554688 " fill-opacity="1" fill-rule="nonzero"/></g><g clip-path="url(#9499bfcf5c)"><path fill="#ffffff" d="M 1.464844 20.554688 L 148.367188 20.554688 L 148.367188 125.148438 L 1.464844 125.148438 Z M 1.464844 20.554688 " fill-opacity="1" fill-rule="nonzero"/></g><g clip-path="url(#7660615026)"><path fill="#ffffff" d="M 1.464844 20.554688 L 148.367188 20.554688 L 148.367188 125.148438 L 1.464844 125.148438 Z M 1.464844 20.554688 " fill-opacity="1" fill-rule="nonzero"/></g><g clip-path="url(#85f76f147e)"><path fill="#ffffff" d="M 1.464844 20.554688 L 148.367188 20.554688 L 148.367188 125.148438 L 1.464844 125.148438 Z M 1.464844 20.554688 " fill-opacity="1" fill-rule="nonzero"/></g><g clip-path="url(#eed25b06cd)"><path fill="#ffffff" d="M 1.464844 20.554688 L 148.367188 20.554688 L 148.367188 125.148438 L 1.464844 125.148438 Z M 1.464844 20.554688 " fill-opacity="1" fill-rule="nonzero"/></g><g clip-path="url(#3694ccbfcc)"><path fill="#ffffff" d="M 1.464844 20.554688 L 148.367188 20.554688 L 148.367188 125.148438 L 1.464844 125.148438 Z M 1.464844 20.554688 " fill-opacity="1" fill-rule="nonzero"/></g><g clip-path="url(#42f662288a)"><path fill="#ffffff" d="M 1.464844 20.554688 L 148.367188 20.554688 L 148.367188 125.148438 L 1.464844 125.148438 Z M 1.464844 20.554688 " fill-opacity="1" fill-rule="nonzero"/></g><g clip-path="url(#66a20dcee8)"><path fill="#ffffff" d="M 1.464844 20.554688 L 148.367188 20.554688 L 148.367188 125.148438 L 1.464844 125.148438 Z M 1.464844 20.554688 " fill-opacity="1" fill-rule="nonzero"/></g><g clip-path="url(#0f2de301c7)"><path fill="#ffffff" d="M 1.464844 20.554688 L 148.367188 20.554688 L 148.367188 125.148438 L 1.464844 125.148438 Z M 1.464844 20.554688 " fill-opacity="1" fill-rule="nonzero"/></g><g clip-path="url(#4a613709f8)"><path fill="#ffffff" d="M 1.464844 20.554688 L 148.367188 20.554688 L 148.367188 125.148438 L 1.464844 125.148438 Z M 1.464844 20.554688 " fill-opacity="1" fill-rule="nonzero"/></g><g clip-path="url(#a13a41fb08)"><g clip-path="url(#080d2bb3cf)"><path fill="#ffffff" d="M 1.464844 20.554688 L 148.367188 20.554688 L 148.367188 125.148438 L 1.464844 125.148438 Z M 1.464844 20.554688 " fill-opacity="1" fill-rule="nonzero"/></g></g><g clip-path="url(#26145c2ea8)"><g clip-path="url(#d7eec8b332)"><path fill="#ffffff" d="M 1.464844 20.554688 L 148.367188 20.554688 L 148.367188 125.148438 L 1.464844 125.148438 Z M 1.464844 20.554688 " fill-opacity="1" fill-rule="nonzero"/></g></g><g clip-path="url(#3bf68503b8)"><g clip-path="url(#b42e423005)"><path fill="#ffffff" d="M 1.464844 20.554688 L 148.367188 20.554688 L 148.367188 125.148438 L 1.464844 125.148438 Z M 1.464844 20.554688 " fill-opacity="1" fill-rule="nonzero"/></g></g><g clip-path="url(#1154fcfd6e)"><g clip-path="url(#096147fb08)"><path fill="#ffffff" d="M 1.464844 20.554688 L 148.367188 20.554688 L 148.367188 125.148438 L 1.464844 125.148438 Z M 1.464844 20.554688 " fill-opacity="1" fill-rule="nonzero"/></g></g></svg>