<svg xmlns="http://www.w3.org/2000/svg" xmlns:xlink="http://www.w3.org/1999/xlink" width="50" zoomAndPan="magnify" viewBox="0 0 37.5 37.499999" height="50" preserveAspectRatio="xMidYMid meet" version="1.0"><defs><clipPath id="c5b63f2999"><path d="M 4 0.75 L 32 0.75 L 32 37 L 4 37 Z M 4 0.75 " clip-rule="nonzero"/></clipPath></defs><g clip-path="url(#c5b63f2999)"><path fill="#fafafa" d="M 16.257812 26.570312 C 8.398438 22.066406 3.582031 26.691406 4.835938 32.511719 C 5.640625 36.246094 12.605469 39.71875 18.386719 33.007812 C 19.230469 25.757812 20.332031 18.476562 21.171875 11.226562 C 30.0625 19.070312 27.222656 23.820312 25.386719 29.285156 C 29.164062 27.726562 35.082031 20.84375 28.617188 11.136719 C 25.558594 6.835938 25.84375 9.875 22.878906 1.296875 L 19.746094 0.777344 C 18.5 9.617188 17.503906 17.730469 16.257812 26.570312 Z M 16.257812 26.570312 " fill-opacity="1" fill-rule="nonzero"/></g></svg>