<svg xmlns="http://www.w3.org/2000/svg" xmlns:xlink="http://www.w3.org/1999/xlink" width="200" zoomAndPan="magnify" viewBox="0 0 150 149.999998" height="200" preserveAspectRatio="xMidYMid meet" version="1.0"><defs><clipPath id="72275aaaf0"><path d="M 1.464844 105.523438 L 16.746094 105.523438 L 16.746094 150 L 1.464844 150 Z M 1.464844 105.523438 " clip-rule="nonzero"/></clipPath><clipPath id="6d3439ac7c"><path d="M 1.464844 150 L 1.464844 109.105469 C 1.464844 107.15625 3.046875 105.574219 4.996094 105.574219 L 12.953125 105.574219 C 14.902344 105.574219 16.484375 107.15625 16.484375 109.105469 L 16.484375 150 L 1.464844 150 " clip-rule="nonzero"/></clipPath><clipPath id="c553a2bc6d"><path d="M 17.917969 86.328125 L 33 86.328125 L 33 150 L 17.917969 150 Z M 17.917969 86.328125 " clip-rule="nonzero"/></clipPath><clipPath id="ab3635c1ad"><path d="M 17.953125 150 L 17.953125 90.148438 C 17.953125 88.199219 19.53125 86.621094 21.480469 86.621094 L 29.441406 86.621094 C 31.390625 86.621094 32.96875 88.199219 32.96875 90.148438 L 32.96875 150 L 17.953125 150 " clip-rule="nonzero"/></clipPath><clipPath id="65e5bf6530"><path d="M 34.371094 61.257812 L 49.648438 61.257812 L 49.648438 150 L 34.371094 150 Z M 34.371094 61.257812 " clip-rule="nonzero"/></clipPath><clipPath id="182d9094b3"><path d="M 34.4375 150 L 34.4375 64.875 C 34.4375 62.925781 36.019531 61.347656 37.964844 61.347656 L 45.925781 61.347656 C 47.875 61.347656 49.453125 62.925781 49.453125 64.875 L 49.453125 150 L 34.4375 150 " clip-rule="nonzero"/></clipPath><clipPath id="270e17d8ca"><path d="M 50.824219 23.257812 L 66 23.257812 L 66 150 L 50.824219 150 Z M 50.824219 23.257812 " clip-rule="nonzero"/></clipPath><clipPath id="7df6807b2f"><path d="M 50.921875 150 L 50.921875 26.964844 C 50.921875 26.03125 51.296875 25.132812 51.957031 24.46875 C 52.617188 23.808594 53.515625 23.4375 54.453125 23.4375 L 62.410156 23.4375 C 63.347656 23.4375 64.246094 23.808594 64.90625 24.46875 C 65.566406 25.132812 65.941406 26.03125 65.941406 26.964844 L 65.941406 150 L 50.921875 150 " clip-rule="nonzero"/></clipPath><clipPath id="6c22f2481b"><path d="M 67.277344 1.324219 L 82.554688 1.324219 L 82.554688 150 L 67.277344 150 Z M 67.277344 1.324219 " clip-rule="nonzero"/></clipPath><clipPath id="358ae47da2"><path d="M 67.410156 150 L 67.410156 4.851562 C 67.410156 2.902344 68.988281 1.324219 70.9375 1.324219 L 78.898438 1.324219 C 80.847656 1.324219 82.425781 2.902344 82.425781 4.851562 L 82.425781 150 L 67.410156 150 " clip-rule="nonzero"/></clipPath><clipPath id="4eac9e8e5f"><path d="M 83.730469 42.0625 L 99 42.0625 L 99 150 L 83.730469 150 Z M 83.730469 42.0625 " clip-rule="nonzero"/></clipPath><clipPath id="5c60fe022a"><path d="M 83.894531 150 L 83.894531 45.921875 C 83.894531 43.972656 85.476562 42.390625 87.421875 42.390625 L 95.382812 42.390625 C 97.332031 42.390625 98.910156 43.972656 98.910156 45.921875 L 98.910156 150 L 83.894531 150 " clip-rule="nonzero"/></clipPath><clipPath id="41850eabc8"><path d="M 100.183594 89.464844 L 115.460938 89.464844 L 115.460938 150 L 100.183594 150 Z M 100.183594 89.464844 " clip-rule="nonzero"/></clipPath><clipPath id="cbd5a4dc97"><path d="M 100.378906 150 L 100.378906 93.308594 C 100.378906 91.359375 101.960938 89.78125 103.910156 89.78125 L 111.867188 89.78125 C 113.816406 89.78125 115.398438 91.359375 115.398438 93.308594 L 115.398438 150 L 100.378906 150 " clip-rule="nonzero"/></clipPath><clipPath id="1055aed9cc"><path d="M 116.636719 17 L 131.914062 17 L 131.914062 150 L 116.636719 150 Z M 116.636719 17 " clip-rule="nonzero"/></clipPath><clipPath id="70a6d8e718"><path d="M 116.867188 150 L 116.867188 20.648438 C 116.867188 18.699219 118.445312 17.117188 120.394531 17.117188 L 128.355469 17.117188 C 130.300781 17.117188 131.882812 18.699219 131.882812 20.648438 L 131.882812 150 L 116.867188 150 " clip-rule="nonzero"/></clipPath><clipPath id="184b6a2a7f"><path d="M 133.089844 61.257812 L 148.367188 61.257812 L 148.367188 150 L 133.089844 150 Z M 133.089844 61.257812 " clip-rule="nonzero"/></clipPath><clipPath id="028c779476"><path d="M 133.351562 150 L 133.351562 64.875 C 133.351562 62.925781 134.929688 61.347656 136.878906 61.347656 L 144.839844 61.347656 C 146.789062 61.347656 148.367188 62.925781 148.367188 64.875 L 148.367188 150 L 133.351562 150 " clip-rule="nonzero"/></clipPath><clipPath id="548204e0f7"><path d="M 1.464844 121.441406 L 16.484375 121.441406 L 16.484375 150 L 1.464844 150 Z M 1.464844 121.441406 " clip-rule="nonzero"/></clipPath><clipPath id="5f8590f5d4"><path d="M 17.953125 99.296875 L 32.96875 99.296875 L 32.96875 150 L 17.953125 150 Z M 17.953125 99.296875 " clip-rule="nonzero"/></clipPath><clipPath id="e724c825eb"><path d="M 34.4375 77.179688 L 49.453125 77.179688 L 49.453125 150 L 34.4375 150 Z M 34.4375 77.179688 " clip-rule="nonzero"/></clipPath><clipPath id="9636544a4a"><path d="M 50.921875 48.75 L 65.941406 48.75 L 65.941406 150 L 50.921875 150 Z M 50.921875 48.75 " clip-rule="nonzero"/></clipPath><clipPath id="b043a7fd41"><path d="M 67.410156 26.628906 L 82.425781 26.628906 L 82.425781 150 L 67.410156 150 Z M 67.410156 26.628906 " clip-rule="nonzero"/></clipPath><clipPath id="df48bac7ad"><path d="M 1.464844 137.308594 L 16.484375 137.308594 L 16.484375 150 L 1.464844 150 Z M 1.464844 137.308594 " clip-rule="nonzero"/></clipPath><clipPath id="636e244dd1"><path d="M 17.953125 124.648438 L 32.96875 124.648438 L 32.96875 150 L 17.953125 150 Z M 17.953125 124.648438 " clip-rule="nonzero"/></clipPath><clipPath id="156ef740bb"><path d="M 34.4375 102.507812 L 49.453125 102.507812 L 49.453125 150 L 34.4375 150 Z M 34.4375 102.507812 " clip-rule="nonzero"/></clipPath><clipPath id="d36851e4a3"><path d="M 50.921875 93.046875 L 65.941406 93.046875 L 65.941406 150 L 50.921875 150 Z M 50.921875 93.046875 " clip-rule="nonzero"/></clipPath><clipPath id="fb1518dc9c"><path d="M 67.410156 80.40625 L 82.425781 80.40625 L 82.425781 150 L 67.410156 150 Z M 67.410156 80.40625 " clip-rule="nonzero"/></clipPath><clipPath id="5410e640d3"><path d="M 83.730469 42.0625 L 99 42.0625 L 99 150 L 83.730469 150 Z M 83.730469 42.0625 " clip-rule="nonzero"/></clipPath><clipPath id="3dcb9c3193"><path d="M 83.894531 150 L 83.894531 45.921875 C 83.894531 43.972656 85.476562 42.390625 87.421875 42.390625 L 95.382812 42.390625 C 97.332031 42.390625 98.910156 43.972656 98.910156 45.921875 L 98.910156 150 L 83.894531 150 " clip-rule="nonzero"/></clipPath><clipPath id="368bb64465"><path d="M 100.183594 89.464844 L 115.460938 89.464844 L 115.460938 150 L 100.183594 150 Z M 100.183594 89.464844 " clip-rule="nonzero"/></clipPath><clipPath id="a1f5142e5e"><path d="M 100.378906 150 L 100.378906 93.308594 C 100.378906 91.359375 101.960938 89.78125 103.910156 89.78125 L 111.867188 89.78125 C 113.816406 89.78125 115.398438 91.359375 115.398438 93.308594 L 115.398438 150 L 100.378906 150 " clip-rule="nonzero"/></clipPath><clipPath id="d00900b8f5"><path d="M 116.636719 17 L 131.914062 17 L 131.914062 150 L 116.636719 150 Z M 116.636719 17 " clip-rule="nonzero"/></clipPath><clipPath id="17e0ca26b2"><path d="M 116.867188 150 L 116.867188 20.648438 C 116.867188 18.699219 118.445312 17.117188 120.394531 17.117188 L 128.355469 17.117188 C 130.300781 17.117188 131.882812 18.699219 131.882812 20.648438 L 131.882812 150 L 116.867188 150 " clip-rule="nonzero"/></clipPath><clipPath id="90cf417228"><path d="M 133.089844 61.257812 L 148.367188 61.257812 L 148.367188 150 L 133.089844 150 Z M 133.089844 61.257812 " clip-rule="nonzero"/></clipPath><clipPath id="dfbcc4451f"><path d="M 133.351562 150 L 133.351562 64.875 C 133.351562 62.925781 134.929688 61.347656 136.878906 61.347656 L 144.839844 61.347656 C 146.789062 61.347656 148.367188 62.925781 148.367188 64.875 L 148.367188 150 L 133.351562 150 " clip-rule="nonzero"/></clipPath></defs><rect x="-15" width="180" fill="#ffffff" y="-15" height="179.999997" fill-opacity="1"/><rect x="-15" width="180" fill="#ffffff" y="-15" height="179.999997" fill-opacity="1"/><rect x="-15" width="180" fill="#001528" y="-15" height="179.999997" fill-opacity="1"/><g clip-path="url(#72275aaaf0)"><g clip-path="url(#6d3439ac7c)"><path fill="#fafafa" d="M 1.464844 1.324219 L 148.367188 1.324219 L 148.367188 150.183594 L 1.464844 150.183594 Z M 1.464844 1.324219 " fill-opacity="1" fill-rule="nonzero"/></g></g><g clip-path="url(#c553a2bc6d)"><g clip-path="url(#ab3635c1ad)"><path fill="#fafafa" d="M 1.464844 1.324219 L 148.367188 1.324219 L 148.367188 150.183594 L 1.464844 150.183594 Z M 1.464844 1.324219 " fill-opacity="1" fill-rule="nonzero"/></g></g><g clip-path="url(#65e5bf6530)"><g clip-path="url(#182d9094b3)"><path fill="#fafafa" d="M 1.464844 1.324219 L 148.367188 1.324219 L 148.367188 150.183594 L 1.464844 150.183594 Z M 1.464844 1.324219 " fill-opacity="1" fill-rule="nonzero"/></g></g><g clip-path="url(#270e17d8ca)"><g clip-path="url(#7df6807b2f)"><path fill="#fafafa" d="M 1.464844 1.324219 L 148.367188 1.324219 L 148.367188 150.183594 L 1.464844 150.183594 Z M 1.464844 1.324219 " fill-opacity="1" fill-rule="nonzero"/></g></g><g clip-path="url(#6c22f2481b)"><g clip-path="url(#358ae47da2)"><path fill="#fafafa" d="M 1.464844 1.324219 L 148.367188 1.324219 L 148.367188 150.183594 L 1.464844 150.183594 Z M 1.464844 1.324219 " fill-opacity="1" fill-rule="nonzero"/></g></g><g clip-path="url(#4eac9e8e5f)"><g clip-path="url(#5c60fe022a)"><path fill="#fafafa" d="M 1.464844 1.324219 L 148.367188 1.324219 L 148.367188 150.183594 L 1.464844 150.183594 Z M 1.464844 1.324219 " fill-opacity="1" fill-rule="nonzero"/></g></g><g clip-path="url(#41850eabc8)"><g clip-path="url(#cbd5a4dc97)"><path fill="#fafafa" d="M 1.464844 1.324219 L 148.367188 1.324219 L 148.367188 150.183594 L 1.464844 150.183594 Z M 1.464844 1.324219 " fill-opacity="1" fill-rule="nonzero"/></g></g><g clip-path="url(#1055aed9cc)"><g clip-path="url(#70a6d8e718)"><path fill="#fafafa" d="M 1.464844 1.324219 L 148.367188 1.324219 L 148.367188 150.183594 L 1.464844 150.183594 Z M 1.464844 1.324219 " fill-opacity="1" fill-rule="nonzero"/></g></g><g clip-path="url(#184b6a2a7f)"><g clip-path="url(#028c779476)"><path fill="#fafafa" d="M 1.464844 1.324219 L 148.367188 1.324219 L 148.367188 150.183594 L 1.464844 150.183594 Z M 1.464844 1.324219 " fill-opacity="1" fill-rule="nonzero"/></g></g><g clip-path="url(#548204e0f7)"><path fill="#fafafa" d="M 1.464844 1.324219 L 148.367188 1.324219 L 148.367188 150.183594 L 1.464844 150.183594 Z M 1.464844 1.324219 " fill-opacity="1" fill-rule="nonzero"/></g><g clip-path="url(#5f8590f5d4)"><path fill="#fafafa" d="M 1.464844 1.324219 L 148.367188 1.324219 L 148.367188 150.183594 L 1.464844 150.183594 Z M 1.464844 1.324219 " fill-opacity="1" fill-rule="nonzero"/></g><g clip-path="url(#e724c825eb)"><path fill="#fafafa" d="M 1.464844 1.324219 L 148.367188 1.324219 L 148.367188 150.183594 L 1.464844 150.183594 Z M 1.464844 1.324219 " fill-opacity="1" fill-rule="nonzero"/></g><g clip-path="url(#9636544a4a)"><path fill="#fafafa" d="M 1.464844 1.324219 L 148.367188 1.324219 L 148.367188 150.183594 L 1.464844 150.183594 Z M 1.464844 1.324219 " fill-opacity="1" fill-rule="nonzero"/></g><g clip-path="url(#b043a7fd41)"><path fill="#fafafa" d="M 1.464844 1.324219 L 148.367188 1.324219 L 148.367188 150.183594 L 1.464844 150.183594 Z M 1.464844 1.324219 " fill-opacity="1" fill-rule="nonzero"/></g><g clip-path="url(#df48bac7ad)"><path fill="#fafafa" d="M 1.464844 1.324219 L 148.367188 1.324219 L 148.367188 150.183594 L 1.464844 150.183594 Z M 1.464844 1.324219 " fill-opacity="1" fill-rule="nonzero"/></g><g clip-path="url(#636e244dd1)"><path fill="#fafafa" d="M 1.464844 1.324219 L 148.367188 1.324219 L 148.367188 150.183594 L 1.464844 150.183594 Z M 1.464844 1.324219 " fill-opacity="1" fill-rule="nonzero"/></g><g clip-path="url(#156ef740bb)"><path fill="#fafafa" d="M 1.464844 1.324219 L 148.367188 1.324219 L 148.367188 150.183594 L 1.464844 150.183594 Z M 1.464844 1.324219 " fill-opacity="1" fill-rule="nonzero"/></g><g clip-path="url(#d36851e4a3)"><path fill="#fafafa" d="M 1.464844 1.324219 L 148.367188 1.324219 L 148.367188 150.183594 L 1.464844 150.183594 Z M 1.464844 1.324219 " fill-opacity="1" fill-rule="nonzero"/></g><g clip-path="url(#fb1518dc9c)"><path fill="#fafafa" d="M 1.464844 1.324219 L 148.367188 1.324219 L 148.367188 150.183594 L 1.464844 150.183594 Z M 1.464844 1.324219 " fill-opacity="1" fill-rule="nonzero"/></g><g clip-path="url(#5410e640d3)"><g clip-path="url(#3dcb9c3193)"><path fill="#fafafa" d="M 1.464844 1.324219 L 148.367188 1.324219 L 148.367188 150.183594 L 1.464844 150.183594 Z M 1.464844 1.324219 " fill-opacity="1" fill-rule="nonzero"/></g></g><g clip-path="url(#368bb64465)"><g clip-path="url(#a1f5142e5e)"><path fill="#fafafa" d="M 1.464844 1.324219 L 148.367188 1.324219 L 148.367188 150.183594 L 1.464844 150.183594 Z M 1.464844 1.324219 " fill-opacity="1" fill-rule="nonzero"/></g></g><g clip-path="url(#d00900b8f5)"><g clip-path="url(#17e0ca26b2)"><path fill="#fafafa" d="M 1.464844 1.324219 L 148.367188 1.324219 L 148.367188 150.183594 L 1.464844 150.183594 Z M 1.464844 1.324219 " fill-opacity="1" fill-rule="nonzero"/></g></g><g clip-path="url(#90cf417228)"><g clip-path="url(#dfbcc4451f)"><path fill="#fafafa" d="M 1.464844 1.324219 L 148.367188 1.324219 L 148.367188 150.183594 L 1.464844 150.183594 Z M 1.464844 1.324219 " fill-opacity="1" fill-rule="nonzero"/></g></g></svg>