<svg xmlns="http://www.w3.org/2000/svg" xmlns:xlink="http://www.w3.org/1999/xlink" width="300" zoomAndPan="magnify" viewBox="0 0 224.87999 225" height="300" preserveAspectRatio="xMidYMid meet" version="1.0"><defs><clipPath id="f7d77a605d"><path d="M 2.242188 2.300781 L 222.625 2.300781 L 222.625 222.683594 L 2.242188 222.683594 Z M 2.242188 2.300781 " clip-rule="nonzero"/></clipPath></defs><g clip-path="url(#f7d77a605d)"><path fill="#fafafa" d="M 112.433594 2.300781 C 123.402344 2.300781 133.105469 4.277344 139.304688 9.558594 C 143.894531 13.472656 146.714844 19.164062 146.714844 27.3125 C 146.714844 28.21875 146.664062 29.160156 146.550781 30.128906 C 147.160156 29.363281 147.785156 28.664062 148.425781 28.027344 C 154.1875 22.261719 160.195312 20.222656 166.226562 20.707031 C 174.328125 21.355469 182.589844 26.828125 190.34375 34.582031 C 198.097656 42.335938 203.570312 50.601562 204.222656 58.699219 C 204.707031 64.730469 202.664062 70.738281 196.898438 76.503906 C 196.261719 77.140625 195.5625 77.765625 194.796875 78.378906 C 195.765625 78.261719 196.710938 78.210938 197.613281 78.210938 C 205.765625 78.210938 211.453125 81.03125 215.367188 85.621094 C 220.648438 91.820312 222.625 101.523438 222.625 112.492188 C 222.625 123.460938 220.648438 133.167969 215.367188 139.363281 C 211.453125 143.957031 205.765625 146.773438 197.613281 146.773438 C 196.710938 146.773438 195.765625 146.722656 194.796875 146.609375 C 195.5625 147.222656 196.261719 147.847656 196.898438 148.484375 C 202.664062 154.25 204.707031 160.253906 204.222656 166.289062 C 203.570312 174.386719 198.097656 182.652344 190.34375 190.40625 C 182.589844 198.160156 174.328125 203.628906 166.226562 204.28125 C 160.195312 204.765625 154.1875 202.726562 148.425781 196.960938 C 147.785156 196.324219 147.160156 195.621094 146.550781 194.855469 C 146.664062 195.824219 146.714844 196.769531 146.714844 197.675781 C 146.714844 205.824219 143.894531 211.511719 139.304688 215.425781 C 133.105469 220.707031 123.402344 222.683594 112.433594 222.683594 C 101.464844 222.683594 91.757812 220.707031 85.5625 215.425781 C 80.96875 211.511719 78.152344 205.824219 78.152344 197.675781 C 78.152344 196.769531 78.203125 195.824219 78.316406 194.855469 C 77.707031 195.621094 77.082031 196.324219 76.441406 196.960938 C 70.679688 202.726562 64.671875 204.765625 58.636719 204.28125 C 50.539062 203.628906 42.277344 198.160156 34.519531 190.40625 C 26.765625 182.652344 21.296875 174.386719 20.644531 166.289062 C 20.160156 160.253906 22.203125 154.25 27.964844 148.484375 C 28.605469 147.847656 29.304688 147.222656 30.070312 146.609375 C 29.101562 146.722656 28.15625 146.773438 27.25 146.773438 C 19.101562 146.773438 13.414062 143.957031 9.5 139.363281 C 4.21875 133.167969 2.242188 123.460938 2.242188 112.492188 C 2.242188 101.523438 4.21875 91.820312 9.5 85.621094 C 13.414062 81.03125 19.101562 78.210938 27.25 78.210938 C 28.15625 78.210938 29.101562 78.261719 30.070312 78.378906 C 29.304688 77.765625 28.605469 77.140625 27.964844 76.503906 C 22.203125 70.738281 20.160156 64.730469 20.644531 58.699219 C 21.296875 50.601562 26.765625 42.335938 34.519531 34.582031 C 42.277344 26.828125 50.539062 21.355469 58.636719 20.707031 C 64.671875 20.222656 70.679688 22.261719 76.441406 28.027344 C 77.082031 28.664062 77.707031 29.363281 78.316406 30.128906 C 78.203125 29.160156 78.152344 28.21875 78.152344 27.3125 C 78.152344 19.164062 80.96875 13.472656 85.5625 9.558594 C 91.757812 4.277344 101.464844 2.300781 112.433594 2.300781 Z M 136.179688 179.4375 L 135.9375 179.527344 C 131.820312 180.96875 127.519531 182.039062 123.09375 182.714844 C 124.726562 186.453125 126.078125 191.476562 127.101562 197.816406 C 127.304688 199.140625 126.398438 200.402344 125.058594 200.621094 C 123.734375 200.824219 122.46875 199.917969 122.253906 198.578125 C 121.234375 192.164062 119.882812 187.203125 118.171875 183.722656 C 118.097656 183.582031 118.03125 183.429688 117.957031 183.289062 C 116.132812 183.429688 114.296875 183.503906 112.433594 183.503906 C 110.597656 183.503906 108.773438 183.441406 106.976562 183.300781 L 106.757812 183.734375 C 105.023438 187.214844 103.660156 192.179688 102.601562 198.59375 C 102.382812 199.933594 101.121094 200.835938 99.792969 200.609375 C 98.457031 200.390625 97.550781 199.128906 97.777344 197.800781 C 98.8125 191.476562 100.175781 186.453125 101.835938 182.714844 C 97.292969 182.039062 92.90625 180.929688 88.6875 179.4375 C 85.242188 185.75 83.050781 192.394531 83.050781 197.675781 C 83.050781 204.078125 85.113281 208.617188 88.738281 211.703125 C 94.183594 216.347656 102.792969 217.785156 112.433594 217.785156 C 122.074219 217.785156 130.683594 216.347656 136.128906 211.703125 C 139.75 208.617188 141.816406 204.078125 141.816406 197.675781 C 141.816406 192.394531 139.625 185.75 136.179688 179.4375 Z M 176.558594 143.039062 L 176.507812 143.152344 C 174.570312 147.195312 172.246094 151.035156 169.621094 154.605469 C 173.421875 156.085938 177.9375 158.6875 183.125 162.449219 C 184.222656 163.253906 184.464844 164.78125 183.675781 165.878906 C 182.882812 166.964844 181.355469 167.21875 180.257812 166.414062 C 174.988281 162.613281 170.539062 160.050781 166.867188 158.800781 C 166.699219 158.75 166.546875 158.699219 166.394531 158.648438 C 164.023438 161.429688 161.417969 164.03125 158.640625 166.414062 L 158.792969 166.886719 C 160.03125 170.574219 162.566406 175.035156 166.367188 180.328125 C 167.160156 181.425781 166.902344 182.957031 165.808594 183.746094 C 164.710938 184.527344 163.179688 184.285156 162.390625 183.1875 C 158.652344 177.96875 156.0625 173.457031 154.582031 169.640625 C 150.972656 172.320312 147.085938 174.65625 142.976562 176.617188 C 145.007812 183.519531 148.15625 189.765625 151.878906 193.503906 C 156.421875 198.03125 161.089844 199.777344 165.832031 199.394531 C 172.960938 198.835938 180.066406 193.757812 186.890625 186.949219 C 193.699219 180.125 198.773438 173.023438 199.335938 165.890625 C 199.71875 161.148438 197.972656 156.480469 193.445312 151.941406 C 189.707031 148.214844 183.457031 145.066406 176.558594 143.039062 Z M 48.308594 143.039062 L 48.191406 143.078125 C 41.332031 145.105469 35.132812 148.242188 31.421875 151.941406 C 26.894531 156.480469 25.148438 161.148438 25.53125 165.890625 C 26.089844 173.023438 31.167969 180.125 37.976562 186.949219 C 44.800781 193.757812 51.90625 198.835938 59.035156 199.394531 C 63.777344 199.777344 68.445312 198.03125 72.984375 193.503906 C 76.710938 189.765625 79.859375 183.519531 81.886719 176.617188 C 77.792969 174.667969 73.929688 172.332031 70.320312 169.679688 C 68.839844 173.480469 66.238281 177.996094 62.476562 183.1875 C 61.671875 184.285156 60.144531 184.527344 59.046875 183.734375 C 57.960938 182.945312 57.707031 181.414062 58.511719 180.316406 C 62.3125 175.050781 64.875 170.597656 66.125 166.925781 C 66.175781 166.761719 66.226562 166.605469 66.277344 166.453125 C 63.496094 164.082031 60.894531 161.480469 58.511719 158.699219 L 58.039062 158.851562 C 54.351562 160.089844 49.890625 162.628906 44.597656 166.429688 C 43.5 167.21875 41.96875 166.964844 41.179688 165.867188 C 40.402344 164.769531 40.644531 163.238281 41.738281 162.449219 C 46.957031 158.710938 51.472656 156.125 55.285156 154.644531 C 52.605469 151.035156 50.273438 147.144531 48.308594 143.039062 Z M 112.433594 46.378906 C 75.917969 46.378906 46.320312 75.980469 46.320312 112.492188 C 46.320312 149.007812 75.917969 178.609375 112.433594 178.609375 C 148.945312 178.609375 178.546875 149.007812 178.546875 112.492188 C 178.546875 75.980469 148.945312 46.378906 112.433594 46.378906 Z M 197.613281 83.109375 C 192.335938 83.109375 185.691406 85.300781 179.375 88.746094 C 180.867188 92.941406 181.964844 97.316406 182.65625 101.832031 C 186.390625 100.199219 191.417969 98.847656 197.753906 97.828125 C 199.082031 97.621094 200.34375 98.527344 200.5625 99.867188 C 200.765625 101.195312 199.859375 102.457031 198.519531 102.671875 C 192.105469 103.691406 187.144531 105.046875 183.660156 106.753906 C 183.523438 106.832031 183.367188 106.894531 183.226562 106.972656 C 183.367188 108.792969 183.445312 110.632812 183.445312 112.492188 C 183.445312 114.328125 183.382812 116.152344 183.242188 117.953125 L 183.675781 118.167969 C 187.15625 119.902344 192.117188 121.269531 198.53125 122.328125 C 199.871094 122.542969 200.777344 123.804688 200.546875 125.132812 C 200.332031 126.472656 199.070312 127.375 197.742188 127.148438 C 191.417969 126.113281 186.390625 124.75 182.65625 123.089844 C 181.980469 127.632812 180.867188 132.019531 179.375 136.242188 C 185.691406 139.683594 192.335938 141.878906 197.613281 141.878906 C 204.015625 141.878906 208.558594 139.8125 211.644531 136.1875 C 216.285156 130.742188 217.726562 122.136719 217.726562 112.492188 C 217.726562 102.851562 216.285156 94.242188 211.644531 88.796875 C 208.558594 85.175781 204.015625 83.109375 197.613281 83.109375 Z M 27.25 83.109375 C 20.847656 83.109375 16.308594 85.175781 13.222656 88.796875 C 8.582031 94.242188 7.140625 102.851562 7.140625 112.492188 C 7.140625 122.136719 8.582031 130.742188 13.222656 136.1875 C 16.308594 139.8125 20.847656 141.878906 27.25 141.878906 C 32.53125 141.878906 39.175781 139.683594 45.488281 136.242188 C 43.996094 132.042969 42.902344 127.671875 42.210938 123.15625 C 38.476562 124.789062 33.449219 126.140625 27.113281 127.160156 C 25.785156 127.363281 24.523438 126.457031 24.304688 125.121094 C 24.101562 123.792969 25.007812 122.53125 26.347656 122.3125 C 32.761719 121.292969 37.722656 119.941406 41.203125 118.230469 C 41.34375 118.15625 41.496094 118.09375 41.636719 118.015625 C 41.496094 116.191406 41.421875 114.355469 41.421875 112.492188 C 41.421875 110.65625 41.484375 108.832031 41.625 107.035156 L 41.191406 106.816406 C 37.710938 105.082031 32.75 103.71875 26.332031 102.660156 C 24.996094 102.445312 24.089844 101.179688 24.320312 99.855469 C 24.535156 98.515625 25.796875 97.609375 27.125 97.839844 C 33.449219 98.871094 38.476562 100.238281 42.210938 101.894531 C 42.886719 97.355469 43.996094 92.96875 45.488281 88.746094 C 39.175781 85.300781 32.53125 83.109375 27.25 83.109375 Z M 72.984375 31.480469 C 68.445312 26.953125 63.777344 25.207031 59.035156 25.589844 C 51.90625 26.152344 44.800781 31.226562 37.976562 38.039062 C 31.167969 44.859375 26.089844 51.964844 25.53125 59.09375 C 25.148438 63.839844 26.894531 68.507812 31.421875 73.046875 C 35.160156 76.769531 41.410156 79.921875 48.308594 81.949219 C 50.257812 77.855469 52.59375 73.988281 55.246094 70.378906 C 51.445312 68.902344 46.929688 66.300781 41.738281 62.539062 C 40.644531 61.734375 40.402344 60.203125 41.191406 59.105469 C 41.980469 58.023438 43.511719 57.765625 44.609375 58.570312 C 49.875 62.371094 54.328125 64.933594 58 66.183594 C 58.167969 66.234375 58.320312 66.285156 58.472656 66.339844 C 60.84375 63.558594 63.445312 60.957031 66.226562 58.570312 L 66.074219 58.097656 C 64.835938 54.414062 62.296875 49.949219 58.5 44.65625 C 57.707031 43.558594 57.960938 42.03125 59.058594 41.238281 C 60.15625 40.460938 61.6875 40.703125 62.476562 41.800781 C 66.214844 47.015625 68.804688 51.53125 70.28125 55.34375 C 73.890625 52.667969 77.78125 50.332031 81.886719 48.367188 C 79.859375 41.46875 76.710938 35.21875 72.984375 31.480469 Z M 165.832031 25.589844 C 161.089844 25.207031 156.421875 26.953125 151.878906 31.480469 C 148.15625 35.21875 145.007812 41.46875 142.976562 48.367188 C 147.070312 50.320312 150.9375 52.652344 154.546875 55.304688 C 156.023438 51.503906 158.625 46.992188 162.390625 41.800781 C 163.191406 40.703125 164.722656 40.460938 165.820312 41.25 C 166.902344 42.042969 167.160156 43.574219 166.355469 44.667969 C 162.554688 49.9375 159.992188 54.386719 158.742188 58.0625 C 158.691406 58.226562 158.640625 58.378906 158.589844 58.53125 C 161.367188 60.90625 163.96875 63.507812 166.355469 66.285156 L 166.828125 66.132812 C 170.511719 64.898438 174.976562 62.359375 180.269531 58.558594 C 181.367188 57.765625 182.898438 58.023438 183.6875 59.121094 C 184.464844 60.214844 184.222656 61.746094 183.125 62.539062 C 177.910156 66.273438 173.394531 68.863281 169.582031 70.34375 C 172.261719 73.953125 174.59375 77.839844 176.558594 81.949219 C 183.457031 79.921875 189.707031 76.769531 193.445312 73.046875 C 197.972656 68.507812 199.71875 63.839844 199.335938 59.09375 C 198.773438 51.964844 193.699219 44.859375 186.890625 38.039062 C 180.066406 31.226562 172.960938 26.152344 165.832031 25.589844 Z M 112.433594 7.199219 C 102.792969 7.199219 94.183594 8.640625 88.738281 13.28125 C 85.113281 16.371094 83.050781 20.910156 83.050781 27.3125 C 83.050781 32.59375 85.242188 39.238281 88.6875 45.550781 C 92.882812 44.058594 97.257812 42.960938 101.769531 42.273438 C 100.140625 38.535156 98.785156 33.511719 97.765625 27.171875 C 97.5625 25.84375 98.46875 24.582031 99.808594 24.367188 C 101.132812 24.160156 102.394531 25.066406 102.613281 26.40625 C 103.632812 32.820312 104.984375 37.78125 106.695312 41.265625 C 106.769531 41.40625 106.835938 41.558594 106.910156 41.699219 C 108.734375 41.558594 110.570312 41.480469 112.433594 41.480469 C 114.269531 41.480469 116.09375 41.542969 117.890625 41.683594 L 118.109375 41.25 C 119.84375 37.769531 121.207031 32.808594 122.265625 26.394531 C 122.484375 25.054688 123.746094 24.148438 125.070312 24.378906 C 126.410156 24.59375 127.316406 25.859375 127.085938 27.183594 C 126.054688 33.511719 124.6875 38.535156 123.03125 42.273438 C 127.570312 42.949219 131.957031 44.058594 136.179688 45.550781 C 139.625 39.238281 141.816406 32.59375 141.816406 27.3125 C 141.816406 20.910156 139.75 16.371094 136.128906 13.28125 C 130.683594 8.640625 122.074219 7.199219 112.433594 7.199219 Z M 112.433594 7.199219 " fill-opacity="1" fill-rule="evenodd"/></g><path fill="#fafafa" d="M 101.683594 148.523438 C 100.726562 149.480469 99.183594 149.480469 98.226562 148.523438 C 97.269531 147.566406 97.269531 146.007812 98.226562 145.054688 C 101.785156 141.496094 106.921875 139.429688 112.433594 139.429688 C 117.941406 139.429688 123.082031 141.496094 126.640625 145.054688 C 127.597656 146.007812 127.597656 147.566406 126.640625 148.523438 C 125.683594 149.480469 124.140625 149.480469 123.183594 148.523438 C 120.542969 145.894531 116.65625 144.328125 112.433594 144.328125 C 108.210938 144.328125 104.320312 145.894531 101.683594 148.523438 Z M 101.683594 148.523438 " fill-opacity="1" fill-rule="nonzero"/><path fill="#fafafa" d="M 112.433594 104.140625 L 107.140625 104.140625 C 84.542969 96.386719 68.535156 102.621094 68.535156 102.621094 C 68.535156 102.621094 61.011719 102.226562 61.011719 106.382812 C 61.011719 110.644531 64.796875 108.960938 66.429688 113.488281 C 68.0625 118.015625 66.429688 132.824219 87.730469 132.824219 C 106.503906 132.824219 108.65625 111.804688 110.851562 111.804688 L 114.015625 111.804688 C 116.207031 111.804688 118.363281 132.824219 137.136719 132.824219 C 158.433594 132.824219 156.804688 118.015625 158.433594 113.488281 C 160.066406 108.960938 163.855469 110.644531 163.855469 106.382812 C 163.855469 102.226562 156.332031 102.621094 156.332031 102.621094 C 156.332031 102.621094 140.324219 96.386719 117.726562 104.140625 Z M 112.433594 104.140625 " fill-opacity="1" fill-rule="nonzero"/></svg>