<svg xmlns="http://www.w3.org/2000/svg" xmlns:xlink="http://www.w3.org/1999/xlink" width="40" zoomAndPan="magnify" viewBox="0 0 30 37.5" height="50" preserveAspectRatio="xMidYMid meet" version="1.0"><defs><clipPath id="e98715e56f"><path d="M 4.101562 0 L 26 0 L 26 37 L 4.101562 37 Z M 4.101562 0 " clip-rule="nonzero"/></clipPath></defs><g clip-path="url(#e98715e56f)"><path fill="#fafafa" d="M 20.042969 4.832031 L 19.394531 4.484375 C 16.453125 2.589844 15.984375 1.65625 15.71875 0.664062 C 15.683594 0.480469 15.589844 0.328125 15.445312 0.207031 C 15.296875 0.0898438 15.128906 0.0273438 14.941406 0.0273438 C 14.75 0.0273438 14.582031 0.0898438 14.433594 0.207031 C 14.289062 0.328125 14.195312 0.480469 14.160156 0.664062 L 14.160156 27.511719 C 13.28125 27.015625 12.339844 26.753906 11.328125 26.722656 C 10.320312 26.691406 9.359375 26.894531 8.453125 27.335938 C 8.128906 27.433594 7.820312 27.558594 7.519531 27.714844 C 7.222656 27.875 6.941406 28.058594 6.679688 28.269531 C 6.417969 28.480469 6.179688 28.71875 5.960938 28.976562 C 5.746094 29.234375 5.558594 29.507812 5.398438 29.804688 C 5.238281 30.097656 5.105469 30.40625 5.003906 30.726562 C 4.90625 31.046875 4.835938 31.375 4.800781 31.707031 C 4.765625 32.039062 4.765625 32.371094 4.792969 32.707031 C 4.824219 33.039062 4.886719 33.367188 4.980469 33.691406 C 5.160156 33.964844 5.367188 34.21875 5.597656 34.457031 C 5.824219 34.691406 6.074219 34.90625 6.347656 35.09375 C 6.617188 35.28125 6.902344 35.441406 7.203125 35.578125 C 7.507812 35.710938 7.820312 35.8125 8.140625 35.886719 C 8.464844 35.960938 8.789062 36.003906 9.121094 36.015625 C 9.449219 36.027344 9.777344 36.007812 10.105469 35.957031 C 10.433594 35.90625 10.75 35.824219 11.0625 35.714844 C 11.371094 35.601562 11.671875 35.460938 11.953125 35.292969 C 12.5 35.105469 13 34.839844 13.464844 34.496094 C 13.925781 34.15625 14.324219 33.75 14.664062 33.289062 C 15 32.824219 15.257812 32.320312 15.4375 31.777344 C 15.617188 31.234375 15.710938 30.675781 15.71875 30.105469 L 15.71875 3.578125 C 16.625 4.417969 17.605469 5.15625 18.660156 5.792969 L 19.25 6.144531 C 22.191406 8.011719 25.132812 10.078125 23.957031 13.140625 C 23.914062 13.230469 23.890625 13.328125 23.890625 13.429688 C 23.890625 13.53125 23.914062 13.628906 23.953125 13.71875 C 23.996094 13.8125 24.054688 13.890625 24.132812 13.957031 C 24.210938 14.023438 24.296875 14.074219 24.398438 14.101562 C 24.578125 14.152344 24.753906 14.136719 24.921875 14.050781 C 25.089844 13.96875 25.210938 13.839844 25.277344 13.664062 C 27.074219 9.175781 22.515625 6.347656 20.042969 4.832031 Z M 20.042969 4.832031 " fill-opacity="1" fill-rule="nonzero"/></g></svg>