<svg xmlns="http://www.w3.org/2000/svg" xmlns:xlink="http://www.w3.org/1999/xlink" width="50" zoomAndPan="magnify" viewBox="0 0 37.5 37.499999" height="50" preserveAspectRatio="xMidYMid meet" version="1.0"><defs><clipPath id="cabc09e625"><path d="M 28 24 L 37.007812 24 L 37.007812 37.007812 L 28 37.007812 Z M 28 24 " clip-rule="nonzero"/></clipPath><clipPath id="0faf80a667"><path d="M 14 11.25 L 23.457031 11.25 L 23.457031 26 L 14 26 Z M 14 11.25 " clip-rule="nonzero"/></clipPath><clipPath id="0c8b56b26f"><path d="M 5.558594 22 L 16 22 L 16 32 L 5.558594 32 Z M 5.558594 22 " clip-rule="nonzero"/></clipPath><clipPath id="1a57628976"><path d="M 18 27 L 30 27 L 30 37.007812 L 18 37.007812 Z M 18 27 " clip-rule="nonzero"/></clipPath></defs><g clip-path="url(#cabc09e625)"><path fill="#ffffff" d="M 37.242188 32.695312 C 37.308594 32.621094 37.351562 32.523438 37.347656 32.402344 C 37.339844 29.757812 37.273438 27.121094 37.332031 24.472656 C 37.339844 24.152344 37.003906 24 36.753906 24.128906 C 35.796875 24.613281 34.769531 24.960938 33.78125 25.363281 C 32.851562 25.746094 31.929688 26.132812 31.011719 26.542969 C 30.878906 26.414062 30.621094 26.460938 30.621094 26.707031 C 30.601562 28.230469 30.683594 29.757812 30.785156 31.277344 C 30.878906 32.589844 30.949219 33.945312 31.144531 35.253906 C 30.183594 35.3125 29.101562 35.527344 28.457031 36.269531 C 27.753906 37.070312 28.113281 38.222656 29.054688 38.605469 C 30.03125 39 31.304688 38.386719 31.90625 37.566406 C 32.191406 37.175781 32.351562 36.671875 32.15625 36.199219 C 32.117188 36.105469 32.070312 36.019531 32.011719 35.941406 C 32.0625 35.867188 32.09375 35.777344 32.089844 35.683594 C 31.957031 34.1875 31.683594 32.699219 31.515625 31.207031 C 31.453125 30.613281 31.394531 30.019531 31.339844 29.429688 C 31.722656 29.292969 32.082031 29.089844 32.453125 28.921875 C 32.914062 28.710938 33.378906 28.515625 33.847656 28.324219 C 34.289062 28.144531 34.730469 27.980469 35.175781 27.824219 C 35.605469 27.675781 36.054688 27.570312 36.472656 27.390625 C 36.4375 28.816406 36.421875 30.242188 36.464844 31.664062 C 35.660156 31.398438 34.761719 31.59375 34.179688 32.320312 C 33.417969 33.269531 33.589844 34.722656 34.792969 35.164062 C 35.875 35.5625 37.253906 34.828125 37.441406 33.621094 C 37.496094 33.25 37.414062 32.9375 37.242188 32.695312 Z M 29.207031 37.34375 C 29.207031 37.335938 29.207031 37.328125 29.207031 37.320312 C 29.234375 37.523438 29.320312 37.71875 29.464844 37.859375 C 29.285156 37.808594 29.171875 37.65625 29.207031 37.34375 Z M 31.527344 37.0625 C 31.578125 36.957031 31.625 36.847656 31.652344 36.738281 C 31.636719 36.855469 31.589844 36.960938 31.527344 37.0625 Z M 36.238281 26.554688 C 35.761719 26.636719 35.28125 26.863281 34.832031 27.035156 C 34.378906 27.210938 33.929688 27.398438 33.480469 27.597656 C 32.753906 27.921875 31.941406 28.261719 31.269531 28.730469 C 31.214844 28.121094 31.160156 27.511719 31.101562 26.902344 C 32.09375 26.585938 33.078125 26.242188 34.0625 25.898438 C 34.882812 25.609375 35.703125 25.269531 36.535156 25.011719 C 36.515625 25.539062 36.5 26.066406 36.484375 26.59375 C 36.414062 26.554688 36.324219 26.539062 36.238281 26.554688 Z M 36.484375 33.890625 C 36.417969 33.984375 36.332031 34.070312 36.226562 34.140625 C 36.410156 33.953125 36.546875 33.726562 36.597656 33.492188 C 36.617188 33.464844 36.628906 33.4375 36.644531 33.410156 C 36.648438 33.558594 36.597656 33.726562 36.484375 33.890625 Z M 36.484375 33.890625 " fill-opacity="1" fill-rule="nonzero"/></g><g clip-path="url(#0faf80a667)"><path fill="#ffffff" d="M 23.199219 19.945312 C 23.261719 19.871094 23.304688 19.773438 23.304688 19.652344 C 23.292969 17.007812 23.230469 14.371094 23.289062 11.722656 C 23.292969 11.402344 22.960938 11.25 22.707031 11.378906 C 21.753906 11.863281 20.726562 12.210938 19.738281 12.613281 C 18.808594 12.996094 17.882812 13.382812 16.964844 13.792969 C 16.835938 13.664062 16.578125 13.710938 16.574219 13.957031 C 16.558594 15.480469 16.636719 17.007812 16.742188 18.527344 C 16.832031 19.839844 16.90625 21.195312 17.101562 22.503906 C 16.140625 22.5625 15.058594 22.777344 14.410156 23.519531 C 13.710938 24.320312 14.070312 25.472656 15.011719 25.855469 C 15.988281 26.25 17.261719 25.636719 17.863281 24.816406 C 18.148438 24.425781 18.304688 23.921875 18.113281 23.449219 C 18.074219 23.355469 18.027344 23.269531 17.964844 23.191406 C 18.019531 23.117188 18.050781 23.027344 18.046875 22.933594 C 17.914062 21.4375 17.636719 19.949219 17.472656 18.457031 C 17.410156 17.863281 17.347656 17.269531 17.296875 16.679688 C 17.675781 16.542969 18.039062 16.339844 18.410156 16.171875 C 18.871094 15.960938 19.335938 15.765625 19.804688 15.574219 C 20.242188 15.394531 20.6875 15.230469 21.132812 15.074219 C 21.5625 14.925781 22.011719 14.820312 22.429688 14.640625 C 22.394531 16.066406 22.378906 17.492188 22.417969 18.914062 C 21.617188 18.648438 20.71875 18.84375 20.136719 19.570312 C 19.375 20.519531 19.542969 21.972656 20.75 22.414062 C 21.832031 22.8125 23.210938 22.078125 23.398438 20.871094 C 23.453125 20.5 23.367188 20.1875 23.199219 19.945312 Z M 15.164062 24.59375 C 15.164062 24.585938 15.164062 24.578125 15.164062 24.570312 C 15.191406 24.773438 15.277344 24.96875 15.421875 25.109375 C 15.242188 25.058594 15.128906 24.90625 15.164062 24.59375 Z M 17.484375 24.3125 C 17.535156 24.207031 17.582031 24.097656 17.609375 23.988281 C 17.59375 24.105469 17.546875 24.210938 17.484375 24.3125 Z M 22.191406 13.804688 C 21.71875 13.886719 21.238281 14.113281 20.789062 14.285156 C 20.335938 14.460938 19.882812 14.648438 19.4375 14.847656 C 18.710938 15.171875 17.898438 15.511719 17.226562 15.980469 C 17.171875 15.371094 17.117188 14.761719 17.058594 14.152344 C 18.050781 13.835938 19.035156 13.492188 20.015625 13.148438 C 20.839844 12.859375 21.660156 12.519531 22.492188 12.261719 C 22.472656 12.789062 22.457031 13.316406 22.441406 13.84375 C 22.367188 13.804688 22.28125 13.789062 22.191406 13.804688 Z M 22.4375 21.140625 C 22.375 21.234375 22.285156 21.320312 22.183594 21.390625 C 22.367188 21.203125 22.5 20.976562 22.554688 20.742188 C 22.574219 20.714844 22.585938 20.6875 22.601562 20.660156 C 22.605469 20.808594 22.554688 20.976562 22.4375 21.140625 Z M 22.4375 21.140625 " fill-opacity="1" fill-rule="nonzero"/></g><g clip-path="url(#0c8b56b26f)"><path fill="#001528" d="M 15.953125 26.757812 C 15.953125 27.066406 15.917969 27.367188 15.851562 27.667969 C 15.785156 27.96875 15.6875 28.261719 15.554688 28.546875 C 15.425781 28.828125 15.265625 29.097656 15.074219 29.355469 C 14.886719 29.609375 14.671875 29.84375 14.429688 30.0625 C 14.1875 30.277344 13.925781 30.472656 13.640625 30.640625 C 13.355469 30.8125 13.054688 30.957031 12.738281 31.074219 C 12.425781 31.191406 12.097656 31.28125 11.765625 31.339844 C 11.429688 31.398438 11.089844 31.429688 10.75 31.429688 C 10.40625 31.429688 10.070312 31.398438 9.734375 31.339844 C 9.398438 31.28125 9.074219 31.191406 8.757812 31.074219 C 8.441406 30.957031 8.140625 30.8125 7.859375 30.640625 C 7.574219 30.472656 7.3125 30.277344 7.070312 30.0625 C 6.828125 29.84375 6.613281 29.609375 6.421875 29.355469 C 6.234375 29.097656 6.070312 28.828125 5.941406 28.546875 C 5.8125 28.261719 5.710938 27.96875 5.644531 27.667969 C 5.578125 27.367188 5.546875 27.066406 5.546875 26.757812 C 5.546875 26.453125 5.578125 26.148438 5.644531 25.847656 C 5.710938 25.546875 5.8125 25.253906 5.941406 24.972656 C 6.070312 24.6875 6.234375 24.417969 6.421875 24.164062 C 6.613281 23.910156 6.828125 23.671875 7.070312 23.457031 C 7.3125 23.238281 7.574219 23.046875 7.859375 22.875 C 8.140625 22.703125 8.441406 22.558594 8.757812 22.441406 C 9.074219 22.324219 9.398438 22.238281 9.734375 22.175781 C 10.070312 22.117188 10.40625 22.085938 10.75 22.085938 C 11.089844 22.085938 11.429688 22.117188 11.765625 22.175781 C 12.097656 22.238281 12.425781 22.324219 12.738281 22.441406 C 13.054688 22.558594 13.355469 22.703125 13.640625 22.875 C 13.925781 23.046875 14.1875 23.238281 14.429688 23.457031 C 14.671875 23.671875 14.886719 23.910156 15.074219 24.164062 C 15.265625 24.417969 15.425781 24.6875 15.554688 24.972656 C 15.6875 25.253906 15.785156 25.546875 15.851562 25.847656 C 15.917969 26.148438 15.953125 26.453125 15.953125 26.757812 Z M 15.953125 26.757812 " fill-opacity="1" fill-rule="nonzero"/></g><g clip-path="url(#1a57628976)"><path fill="#001528" d="M 29.203125 32.511719 C 29.203125 32.820312 29.167969 33.121094 29.101562 33.421875 C 29.035156 33.722656 28.9375 34.015625 28.804688 34.300781 C 28.675781 34.582031 28.515625 34.851562 28.324219 35.105469 C 28.136719 35.363281 27.921875 35.597656 27.679688 35.816406 C 27.4375 36.03125 27.175781 36.226562 26.890625 36.394531 C 26.605469 36.566406 26.304688 36.710938 25.992188 36.828125 C 25.675781 36.945312 25.347656 37.035156 25.015625 37.09375 C 24.679688 37.152344 24.339844 37.183594 24 37.183594 C 23.65625 37.183594 23.320312 37.152344 22.984375 37.09375 C 22.648438 37.035156 22.324219 36.945312 22.007812 36.828125 C 21.691406 36.710938 21.390625 36.566406 21.109375 36.394531 C 20.824219 36.226562 20.5625 36.03125 20.320312 35.816406 C 20.078125 35.597656 19.863281 35.363281 19.671875 35.105469 C 19.484375 34.851562 19.324219 34.582031 19.191406 34.300781 C 19.0625 34.015625 18.960938 33.722656 18.894531 33.421875 C 18.828125 33.121094 18.796875 32.820312 18.796875 32.511719 C 18.796875 32.207031 18.828125 31.902344 18.894531 31.601562 C 18.960938 31.300781 19.0625 31.007812 19.191406 30.722656 C 19.324219 30.441406 19.484375 30.171875 19.671875 29.917969 C 19.863281 29.660156 20.078125 29.425781 20.320312 29.210938 C 20.5625 28.992188 20.824219 28.796875 21.109375 28.628906 C 21.390625 28.457031 21.691406 28.3125 22.007812 28.195312 C 22.324219 28.078125 22.648438 27.992188 22.984375 27.929688 C 23.320312 27.871094 23.65625 27.839844 24 27.839844 C 24.339844 27.839844 24.679688 27.871094 25.015625 27.929688 C 25.347656 27.992188 25.675781 28.078125 25.992188 28.195312 C 26.304688 28.3125 26.605469 28.457031 26.890625 28.628906 C 27.175781 28.796875 27.4375 28.992188 27.679688 29.210938 C 27.921875 29.425781 28.136719 29.660156 28.324219 29.917969 C 28.515625 30.171875 28.675781 30.441406 28.804688 30.722656 C 28.9375 31.007812 29.035156 31.300781 29.101562 31.601562 C 29.167969 31.902344 29.203125 32.207031 29.203125 32.511719 Z M 29.203125 32.511719 " fill-opacity="1" fill-rule="nonzero"/></g><path stroke-linecap="round" transform="matrix(0.521869, 0, 0, 0.524431, -110.929497, -1.34884)" fill="none" stroke-linejoin="round" d="M 242.060926 54.36172 C 243.58789 39.092208 242.569914 22.802245 239.006997 3.97233 C 247.322965 9.655568 255.489231 15.241975 266.933979 17.908553 C 269.965453 26.705282 272.173563 56.059988 267.510333 65.050378 " stroke="#000000" stroke-width="2.5" stroke-opacity="1" stroke-miterlimit="4"/><path stroke-linecap="round" transform="matrix(0.521869, 0, 0, 0.524431, -110.929497, -1.34884)" fill="none" stroke-linejoin="round" d="M 240.406714 11.130379 C 248.722682 16.813617 256.896433 22.392575 268.341182 25.059154 " stroke="#000000" stroke-width="2.5" stroke-opacity="1" stroke-miterlimit="4"/></svg>