<svg xmlns="http://www.w3.org/2000/svg" xmlns:xlink="http://www.w3.org/1999/xlink" width="50" zoomAndPan="magnify" viewBox="0 0 37.5 37.499999" height="50" preserveAspectRatio="xMidYMid meet" version="1.0"><defs><clipPath id="d6b0b3b687"><path d="M 0 0 L 36.75 0 L 36.75 36.75 L 0 36.75 Z M 0 0 " clip-rule="nonzero"/></clipPath><clipPath id="33297577e9"><path d="M 18.375 0 C 8.226562 0 0 8.226562 0 18.375 C 0 28.523438 8.226562 36.75 18.375 36.75 C 28.523438 36.75 36.75 28.523438 36.75 18.375 C 36.75 8.226562 28.523438 0 18.375 0 " clip-rule="nonzero"/></clipPath><clipPath id="9d8ad84701"><path d="M 2.773438 2.773438 L 34.273438 2.773438 L 34.273438 34.273438 L 2.773438 34.273438 Z M 2.773438 2.773438 " clip-rule="nonzero"/></clipPath></defs><g clip-path="url(#d6b0b3b687)"><g clip-path="url(#33297577e9)"><path fill="#1776ff" d="M 0 0 L 36.75 0 L 36.75 36.75 L 0 36.75 Z M 0 0 " fill-opacity="1" fill-rule="nonzero"/><path stroke-linecap="butt" transform="matrix(0.75, 0, 0, 0.75, 0.0000005, 0.000000000000002665)" fill="none" stroke-linejoin="miter" d="M 24.500002 -0.000000000000003553 C 10.968751 -0.000000000000003553 -0.000000666667 10.968751 -0.000000666667 24.500003 C -0.000000666667 38.031255 10.968751 49.000006 24.500002 49.000006 C 38.031254 49.000006 49.000005 38.031255 49.000005 24.500003 C 49.000005 10.968751 38.031254 -0.000000000000003553 24.500002 -0.000000000000003553 " stroke="#fafafa" stroke-width="4" stroke-opacity="1" stroke-miterlimit="4"/></g></g><g clip-path="url(#9d8ad84701)"><path fill="#001528" d="M 18.523438 2.773438 C 20.09375 2.773438 21.480469 3.058594 22.367188 3.8125 C 23.023438 4.371094 23.425781 5.183594 23.425781 6.351562 C 23.425781 6.480469 23.417969 6.613281 23.402344 6.753906 C 23.488281 6.644531 23.578125 6.542969 23.667969 6.453125 C 24.492188 5.628906 25.351562 5.335938 26.214844 5.40625 C 27.371094 5.5 28.554688 6.28125 29.660156 7.390625 C 30.769531 8.496094 31.550781 9.679688 31.644531 10.835938 C 31.714844 11.699219 31.421875 12.558594 30.597656 13.378906 C 30.507812 13.472656 30.40625 13.5625 30.296875 13.648438 C 30.4375 13.632812 30.570312 13.625 30.699219 13.625 C 31.863281 13.625 32.679688 14.027344 33.238281 14.683594 C 33.992188 15.570312 34.273438 16.957031 34.273438 18.523438 C 34.273438 20.09375 33.992188 21.480469 33.238281 22.367188 C 32.679688 23.023438 31.863281 23.425781 30.699219 23.425781 C 30.570312 23.425781 30.4375 23.417969 30.296875 23.402344 C 30.40625 23.488281 30.507812 23.578125 30.597656 23.667969 C 31.421875 24.492188 31.714844 25.351562 31.644531 26.214844 C 31.550781 27.371094 30.769531 28.554688 29.660156 29.660156 C 28.554688 30.769531 27.371094 31.550781 26.214844 31.644531 C 25.351562 31.714844 24.492188 31.421875 23.667969 30.597656 C 23.578125 30.507812 23.488281 30.40625 23.402344 30.296875 C 23.417969 30.4375 23.425781 30.570312 23.425781 30.699219 C 23.425781 31.863281 23.023438 32.679688 22.367188 33.238281 C 21.480469 33.992188 20.09375 34.273438 18.523438 34.273438 C 16.957031 34.273438 15.570312 33.992188 14.683594 33.238281 C 14.027344 32.679688 13.625 31.863281 13.625 30.699219 C 13.625 30.570312 13.632812 30.4375 13.648438 30.296875 C 13.5625 30.40625 13.472656 30.507812 13.378906 30.597656 C 12.558594 31.421875 11.699219 31.714844 10.835938 31.644531 C 9.679688 31.550781 8.496094 30.769531 7.390625 29.660156 C 6.28125 28.554688 5.5 27.371094 5.40625 26.214844 C 5.335938 25.351562 5.628906 24.492188 6.453125 23.667969 C 6.542969 23.578125 6.644531 23.488281 6.753906 23.402344 C 6.613281 23.417969 6.480469 23.425781 6.351562 23.425781 C 5.183594 23.425781 4.371094 23.023438 3.8125 22.367188 C 3.058594 21.480469 2.773438 20.09375 2.773438 18.523438 C 2.773438 16.957031 3.058594 15.570312 3.8125 14.683594 C 4.371094 14.027344 5.183594 13.625 6.351562 13.625 C 6.480469 13.625 6.613281 13.632812 6.753906 13.648438 C 6.644531 13.5625 6.542969 13.472656 6.453125 13.378906 C 5.628906 12.558594 5.335938 11.699219 5.40625 10.835938 C 5.5 9.679688 6.28125 8.496094 7.390625 7.390625 C 8.496094 6.28125 9.679688 5.5 10.835938 5.40625 C 11.699219 5.335938 12.558594 5.628906 13.378906 6.453125 C 13.472656 6.542969 13.5625 6.644531 13.648438 6.753906 C 13.632812 6.613281 13.625 6.480469 13.625 6.351562 C 13.625 5.183594 14.027344 4.371094 14.683594 3.8125 C 15.570312 3.058594 16.957031 2.773438 18.523438 2.773438 Z M 21.917969 28.09375 L 21.882812 28.105469 C 21.296875 28.3125 20.679688 28.464844 20.050781 28.5625 C 20.28125 29.097656 20.476562 29.8125 20.621094 30.71875 C 20.652344 30.910156 20.519531 31.089844 20.328125 31.121094 C 20.140625 31.152344 19.960938 31.019531 19.929688 30.828125 C 19.78125 29.914062 19.589844 29.203125 19.34375 28.707031 C 19.335938 28.6875 19.324219 28.664062 19.3125 28.644531 C 19.054688 28.664062 18.792969 28.675781 18.523438 28.675781 C 18.261719 28.675781 18 28.664062 17.746094 28.644531 L 17.714844 28.707031 C 17.464844 29.207031 17.269531 29.914062 17.121094 30.832031 C 17.089844 31.023438 16.90625 31.152344 16.71875 31.121094 C 16.527344 31.089844 16.398438 30.90625 16.429688 30.71875 C 16.578125 29.8125 16.773438 29.097656 17.011719 28.5625 C 16.359375 28.464844 15.734375 28.308594 15.128906 28.09375 C 14.636719 28.996094 14.324219 29.945312 14.324219 30.699219 C 14.324219 31.617188 14.621094 32.265625 15.136719 32.707031 C 15.917969 33.367188 17.148438 33.574219 18.523438 33.574219 C 19.902344 33.574219 21.132812 33.367188 21.910156 32.707031 C 22.429688 32.265625 22.726562 31.617188 22.726562 30.699219 C 22.726562 29.945312 22.410156 28.996094 21.917969 28.09375 Z M 27.691406 22.890625 L 27.683594 22.90625 C 27.40625 23.484375 27.074219 24.035156 26.699219 24.542969 C 27.242188 24.753906 27.886719 25.128906 28.628906 25.664062 C 28.785156 25.78125 28.820312 26 28.707031 26.15625 C 28.59375 26.3125 28.375 26.347656 28.21875 26.230469 C 27.464844 25.6875 26.832031 25.324219 26.304688 25.144531 C 26.28125 25.136719 26.257812 25.128906 26.238281 25.121094 C 25.898438 25.519531 25.527344 25.890625 25.128906 26.230469 L 25.152344 26.300781 C 25.328125 26.828125 25.691406 27.464844 26.234375 28.222656 C 26.347656 28.378906 26.3125 28.597656 26.152344 28.710938 C 25.996094 28.820312 25.777344 28.785156 25.664062 28.628906 C 25.132812 27.882812 24.761719 27.238281 24.550781 26.695312 C 24.035156 27.078125 23.476562 27.410156 22.890625 27.691406 C 23.179688 28.675781 23.632812 29.570312 24.164062 30.105469 C 24.8125 30.75 25.480469 31 26.15625 30.945312 C 27.175781 30.867188 28.191406 30.140625 29.167969 29.167969 C 30.140625 28.191406 30.867188 27.175781 30.945312 26.15625 C 31 25.480469 30.75 24.8125 30.105469 24.164062 C 29.570312 23.632812 28.675781 23.179688 27.691406 22.890625 Z M 9.359375 22.890625 L 9.34375 22.894531 C 8.363281 23.1875 7.476562 23.632812 6.945312 24.164062 C 6.296875 24.8125 6.050781 25.480469 6.105469 26.15625 C 6.183594 27.175781 6.910156 28.191406 7.882812 29.167969 C 8.859375 30.140625 9.875 30.867188 10.890625 30.945312 C 11.570312 31 12.238281 30.75 12.886719 30.105469 C 13.417969 29.570312 13.871094 28.675781 14.160156 27.691406 C 13.574219 27.410156 13.023438 27.078125 12.503906 26.699219 C 12.292969 27.242188 11.921875 27.886719 11.382812 28.628906 C 11.269531 28.785156 11.050781 28.820312 10.894531 28.707031 C 10.738281 28.59375 10.703125 28.375 10.816406 28.21875 C 11.359375 27.464844 11.726562 26.832031 11.90625 26.304688 C 11.914062 26.28125 11.921875 26.257812 11.929688 26.238281 C 11.53125 25.898438 11.160156 25.527344 10.816406 25.128906 L 10.75 25.152344 C 10.222656 25.328125 9.585938 25.691406 8.828125 26.234375 C 8.671875 26.347656 8.453125 26.3125 8.339844 26.152344 C 8.230469 25.996094 8.265625 25.777344 8.421875 25.664062 C 9.167969 25.132812 9.8125 24.761719 10.355469 24.550781 C 9.972656 24.035156 9.640625 23.476562 9.359375 22.890625 Z M 18.523438 9.074219 C 13.304688 9.074219 9.074219 13.304688 9.074219 18.523438 C 9.074219 23.742188 13.304688 27.976562 18.523438 27.976562 C 23.742188 27.976562 27.976562 23.742188 27.976562 18.523438 C 27.976562 13.304688 23.742188 9.074219 18.523438 9.074219 Z M 30.699219 14.324219 C 29.945312 14.324219 28.996094 14.636719 28.09375 15.128906 C 28.308594 15.730469 28.464844 16.355469 28.5625 17 C 29.097656 16.769531 29.8125 16.574219 30.71875 16.429688 C 30.910156 16.398438 31.089844 16.527344 31.121094 16.71875 C 31.152344 16.910156 31.019531 17.089844 30.828125 17.121094 C 29.914062 17.265625 29.203125 17.460938 28.707031 17.703125 C 28.6875 17.714844 28.664062 17.726562 28.644531 17.734375 C 28.664062 17.996094 28.675781 18.257812 28.675781 18.523438 C 28.675781 18.789062 28.664062 19.046875 28.644531 19.304688 L 28.707031 19.335938 C 29.207031 19.585938 29.914062 19.777344 30.832031 19.929688 C 31.023438 19.960938 31.152344 20.140625 31.121094 20.332031 C 31.089844 20.523438 30.90625 20.652344 30.71875 20.621094 C 29.8125 20.472656 29.097656 20.277344 28.5625 20.039062 C 28.464844 20.6875 28.308594 21.316406 28.09375 21.917969 C 28.996094 22.410156 29.945312 22.726562 30.699219 22.726562 C 31.617188 22.726562 32.265625 22.429688 32.707031 21.910156 C 33.367188 21.132812 33.574219 19.902344 33.574219 18.523438 C 33.574219 17.148438 33.367188 15.917969 32.707031 15.136719 C 32.265625 14.621094 31.617188 14.324219 30.699219 14.324219 Z M 6.351562 14.324219 C 5.433594 14.324219 4.785156 14.621094 4.34375 15.136719 C 3.679688 15.917969 3.476562 17.148438 3.476562 18.523438 C 3.476562 19.902344 3.679688 21.132812 4.34375 21.910156 C 4.785156 22.429688 5.433594 22.726562 6.351562 22.726562 C 7.105469 22.726562 8.054688 22.410156 8.957031 21.917969 C 8.742188 21.320312 8.585938 20.695312 8.488281 20.050781 C 7.953125 20.28125 7.234375 20.476562 6.328125 20.621094 C 6.140625 20.652344 5.960938 20.519531 5.929688 20.328125 C 5.898438 20.140625 6.027344 19.960938 6.21875 19.929688 C 7.136719 19.78125 7.847656 19.589844 8.34375 19.34375 C 8.363281 19.335938 8.386719 19.324219 8.40625 19.3125 C 8.386719 19.054688 8.375 18.792969 8.375 18.523438 C 8.375 18.261719 8.382812 18 8.402344 17.746094 L 8.34375 17.714844 C 7.84375 17.464844 7.136719 17.269531 6.21875 17.121094 C 6.027344 17.089844 5.898438 16.90625 5.929688 16.71875 C 5.960938 16.527344 6.140625 16.398438 6.332031 16.429688 C 7.234375 16.578125 7.953125 16.773438 8.488281 17.011719 C 8.585938 16.359375 8.742188 15.734375 8.957031 15.128906 C 8.054688 14.636719 7.105469 14.324219 6.351562 14.324219 Z M 12.886719 6.945312 C 12.238281 6.296875 11.570312 6.050781 10.890625 6.105469 C 9.875 6.183594 8.859375 6.910156 7.882812 7.882812 C 6.910156 8.859375 6.183594 9.875 6.105469 10.890625 C 6.050781 11.570312 6.296875 12.238281 6.945312 12.886719 C 7.480469 13.417969 8.375 13.871094 9.359375 14.160156 C 9.636719 13.574219 9.972656 13.023438 10.351562 12.503906 C 9.808594 12.292969 9.164062 11.921875 8.421875 11.382812 C 8.265625 11.269531 8.230469 11.050781 8.34375 10.894531 C 8.457031 10.738281 8.675781 10.703125 8.832031 10.816406 C 9.582031 11.359375 10.21875 11.726562 10.746094 11.90625 C 10.769531 11.914062 10.789062 11.921875 10.8125 11.929688 C 11.152344 11.53125 11.523438 11.160156 11.921875 10.816406 L 11.898438 10.75 C 11.722656 10.222656 11.359375 9.585938 10.816406 8.828125 C 10.703125 8.671875 10.738281 8.453125 10.894531 8.339844 C 11.054688 8.230469 11.273438 8.265625 11.382812 8.421875 C 11.917969 9.167969 12.289062 9.8125 12.5 10.355469 C 13.015625 9.972656 13.570312 9.640625 14.160156 9.359375 C 13.871094 8.375 13.417969 7.480469 12.886719 6.945312 Z M 26.15625 6.105469 C 25.480469 6.050781 24.8125 6.296875 24.164062 6.945312 C 23.632812 7.480469 23.179688 8.375 22.890625 9.359375 C 23.476562 9.636719 24.027344 9.972656 24.542969 10.351562 C 24.753906 9.808594 25.128906 9.164062 25.664062 8.421875 C 25.78125 8.265625 26 8.230469 26.15625 8.34375 C 26.3125 8.457031 26.347656 8.675781 26.230469 8.832031 C 25.6875 9.582031 25.324219 10.21875 25.144531 10.746094 C 25.136719 10.769531 25.128906 10.789062 25.121094 10.8125 C 25.519531 11.152344 25.890625 11.523438 26.230469 11.921875 L 26.300781 11.898438 C 26.828125 11.722656 27.464844 11.359375 28.222656 10.816406 C 28.378906 10.703125 28.597656 10.738281 28.710938 10.894531 C 28.820312 11.054688 28.785156 11.273438 28.628906 11.382812 C 27.882812 11.917969 27.238281 12.289062 26.695312 12.5 C 27.078125 13.015625 27.410156 13.570312 27.691406 14.160156 C 28.675781 13.871094 29.570312 13.417969 30.105469 12.886719 C 30.75 12.238281 31 11.570312 30.945312 10.890625 C 30.867188 9.875 30.140625 8.859375 29.167969 7.882812 C 28.191406 6.910156 27.175781 6.183594 26.15625 6.105469 Z M 18.523438 3.476562 C 17.148438 3.476562 15.917969 3.679688 15.136719 4.34375 C 14.621094 4.785156 14.324219 5.433594 14.324219 6.351562 C 14.324219 7.105469 14.636719 8.054688 15.128906 8.957031 C 15.730469 8.742188 16.355469 8.585938 17 8.488281 C 16.769531 7.953125 16.574219 7.234375 16.429688 6.328125 C 16.398438 6.140625 16.527344 5.960938 16.71875 5.929688 C 16.910156 5.898438 17.089844 6.027344 17.121094 6.21875 C 17.265625 7.136719 17.460938 7.847656 17.703125 8.34375 C 17.714844 8.363281 17.726562 8.386719 17.734375 8.40625 C 17.996094 8.386719 18.257812 8.375 18.523438 8.375 C 18.789062 8.375 19.046875 8.382812 19.304688 8.402344 L 19.335938 8.34375 C 19.585938 7.84375 19.777344 7.136719 19.929688 6.21875 C 19.960938 6.027344 20.140625 5.898438 20.332031 5.929688 C 20.523438 5.960938 20.652344 6.140625 20.621094 6.332031 C 20.472656 7.234375 20.277344 7.953125 20.039062 8.488281 C 20.6875 8.585938 21.316406 8.742188 21.917969 8.957031 C 22.410156 8.054688 22.726562 7.105469 22.726562 6.351562 C 22.726562 5.433594 22.429688 4.785156 21.910156 4.34375 C 21.132812 3.679688 19.902344 3.476562 18.523438 3.476562 Z M 18.523438 3.476562 " fill-opacity="1" fill-rule="evenodd"/></g><path fill="#001528" d="M 16.773438 21.324219 L 20.273438 21.324219 C 20.46875 21.324219 20.625 21.480469 20.625 21.675781 C 20.625 21.867188 20.46875 22.023438 20.273438 22.023438 L 16.773438 22.023438 C 16.582031 22.023438 16.425781 21.867188 16.425781 21.675781 C 16.425781 21.480469 16.582031 21.324219 16.773438 21.324219 Z M 16.773438 21.324219 " fill-opacity="1" fill-rule="nonzero"/><path fill="#001528" d="M 12.226562 18.175781 L 14.324219 18.175781 C 14.519531 18.175781 14.675781 18.332031 14.675781 18.523438 C 14.675781 18.71875 14.519531 18.875 14.324219 18.875 L 12.226562 18.875 C 12.03125 18.875 11.875 18.71875 11.875 18.523438 C 11.875 18.332031 12.03125 18.175781 12.226562 18.175781 Z M 12.226562 18.175781 " fill-opacity="1" fill-rule="nonzero"/><path fill="#001528" d="M 22.726562 18.175781 L 24.824219 18.175781 C 25.019531 18.175781 25.175781 18.332031 25.175781 18.523438 C 25.175781 18.71875 25.019531 18.875 24.824219 18.875 L 22.726562 18.875 C 22.53125 18.875 22.375 18.71875 22.375 18.523438 C 22.375 18.332031 22.53125 18.175781 22.726562 18.175781 Z M 22.726562 18.175781 " fill-opacity="1" fill-rule="nonzero"/></svg>